<svg height="512" viewBox="0 0 64 64" width="512" xmlns="http://www.w3.org/2000/svg"><g id="analytics"><path d="m5 15h54a2 2 0 0 1 2 2v28a0 0 0 0 1 0 0h-58a0 0 0 0 1 0 0v-28a2 2 0 0 1 2-2z" fill="#57a4ff"/><path d="m61 17v28h-2v-28a2.006 2.006 0 0 0 -2-2h2a2.006 2.006 0 0 1 2 2z" fill="#2488ff"/><path d="m49 23h8v6h-8z" fill="#00d7df"/><path d="m34 3h17v4h-17z" fill="#ffde55"/><path d="m48 45h-32a12 12 0 0 1 12-12h8a11.984 11.984 0 0 1 12 12z" fill="#00d7df"/><path d="m48 45h-2a11.984 11.984 0 0 0 -12-12h2a11.984 11.984 0 0 1 12 12z" fill="#00b6bd"/><path d="m46 20a4 4 0 0 1 -.55 2 3.992 3.992 0 1 1 -6.91 4h1.46a1 1 0 0 0 1-1v-1a1 1 0 0 0 -1-1h-2v-3l-1.86-.46a.01.01 0 0 0 -.01-.01l-6.13-1.53-.82.41a.01.01 0 0 0 -.01.01l-3.17 1.58v3h-2a1 1 0 0 0 -1 1v1a1 1 0 0 0 1 1h1.46a3.992 3.992 0 1 1 -6.91-4 3.981 3.981 0 0 1 3.45-6 3.657 3.657 0 0 1 .13-1 3.992 3.992 0 0 1 3.87-3 3.932 3.932 0 0 1 2.24.69 3.973 3.973 0 0 1 7.52 0 3.932 3.932 0 0 1 2.24-.69 3.992 3.992 0 0 1 3.87 3 3.657 3.657 0 0 1 .13 1 4 4 0 0 1 4 4z" fill="#e0e0e2"/><path d="m41 57 3 4h-24l3-4h2 14z" fill="#e0e0e2"/><path d="m41 24v1a1 1 0 0 1 -1 1h-2v-3h2a1 1 0 0 1 1 1z" fill="#c0ab91"/><path d="m38 51 1 6h-14l1-6h5z" fill="#ffdaaa"/><path d="m39 57h-2l-1-6h2z" fill="#ffc477"/><path d="m38 23v3a6 6 0 0 1 -12 0v-6l3.17-1.58a.01.01 0 0 1 .01-.01l.82-.41 6.13 1.53a.01.01 0 0 1 .01.01l1.86.46z" fill="#ffdaaa"/><path d="m38 20v6a6 6 0 0 1 -6 6 5.47 5.47 0 0 1 -1-.09 5.99 5.99 0 0 0 5-5.91v-6l-1.86-.46a.01.01 0 0 0 -.01-.01l-4.8-1.2.67-.33 6.13 1.53a.01.01 0 0 1 .01.01z" fill="#ffc477"/><path d="m36 33-1.24 8h-5.52l-1.24-8h4z" fill="#ffde55"/><path d="m36 33-1.24 8h-2l1.24-8z" fill="#ffcd00"/><path d="m48 45h-45v4a2.006 2.006 0 0 0 2 2h54a2.006 2.006 0 0 0 2-2v-4z" fill="#e0e0e2"/><g fill="#c6c5ca"><path d="m45.45 22a3.981 3.981 0 0 1 -3.45 6 3.73 3.73 0 0 1 -1.01-.13 3.972 3.972 0 0 0 2.46-5.87 3.981 3.981 0 0 0 -3.45-6 3.657 3.657 0 0 0 -.13-1 3.98 3.98 0 0 0 -2.86-2.87 3.585 3.585 0 0 1 .99-.13 3.992 3.992 0 0 1 3.87 3 3.657 3.657 0 0 1 .13 1 3.981 3.981 0 0 1 3.45 6z"/><path d="m44 61h-2l-3-4h2z"/><path d="m61 45v4a2.006 2.006 0 0 1 -2 2h-2a2.006 2.006 0 0 0 2-2v-4z"/></g><path d="m21 3h9v4h-9z" fill="#ffde55"/><path d="m49 3h2v4h-2z" fill="#ffcd00"/><path d="m28 3h2v4h-2z" fill="#ffcd00"/><path d="m26 23v3h-2a1 1 0 0 1 -1-1v-1a1 1 0 0 1 1-1z" fill="#c0ab91"/><path d="m7 19h6v8h-6z" fill="#00d7df"/><path d="m55 23h2v6h-2z" fill="#00b6bd"/><path d="m11 19h2v8h-2z" fill="#00b6bd"/><path d="m31 47h2v2h-2z"/><path d="m54 6h8v2h-8z"/><path d="m54 2h8v2h-8z"/><path d="m53.126 10.514-1.937 3.486h-8.624a4.985 4.985 0 0 0 -6.356-2.67 4.967 4.967 0 0 0 -8.418 0 4.985 4.985 0 0 0 -6.356 2.67h-16.435a3 3 0 0 0 -3 3v32a3 3 0 0 0 3 3h19.82l-.667 4h-1.153a1 1 0 0 0 -.8.4l-3 4a1 1 0 0 0 .8 1.6h24a1 1 0 0 0 .8-1.6l-3-4a1 1 0 0 0 -.8-.4h-1.153l-.667-4h19.82a3 3 0 0 0 3-3v-32a3 3 0 0 0 -3-3h-5.523l1.111-2h7.412v-2h-8a1 1 0 0 0 -.874.514zm-30.126 5.486a3 3 0 0 1 3-3 2.944 2.944 0 0 1 1.674.514 1 1 0 0 0 1.512-.5 2.971 2.971 0 0 1 5.628 0 1 1 0 0 0 1.512.5 2.944 2.944 0 0 1 1.674-.514 3 3 0 0 1 3 3 1 1 0 0 0 1 1 3 3 0 0 1 3 3 2.974 2.974 0 0 1 -.417 1.5 1 1 0 0 0 0 1 2.974 2.974 0 0 1 .417 1.5 3 3 0 0 1 -3 3 2.967 2.967 0 0 1 -1.086-.231 1.994 1.994 0 0 0 1.086-1.769v-1a2 2 0 0 0 -2-2h-1v-2a1 1 0 0 0 -.757-.97l-8-2a1 1 0 0 0 -.69.075l-4 2a1 1 0 0 0 -.553.895v2h-1a2 2 0 0 0 -2 2v1a1.994 1.994 0 0 0 1.086 1.769 2.967 2.967 0 0 1 -1.086.231 3 3 0 0 1 -3-3 2.974 2.974 0 0 1 .417-1.5 1 1 0 0 0 0-1 2.974 2.974 0 0 1 -.417-1.5 3 3 0 0 1 3-3 1 1 0 0 0 1-1zm16 8h1v1h-1zm-11.851 10.041 1.1 7.112a1 1 0 0 0 .988.847h5.518a1 1 0 0 0 .988-.847l1.1-7.112a11.012 11.012 0 0 1 10.112 9.959h-29.91a11.012 11.012 0 0 1 10.104-9.959zm2.018-.041h5.666l-.933 6h-3.8zm2.833-3a5.006 5.006 0 0 1 -5-5v-5.382l3.116-1.558 6.884 1.721v5.219a5.006 5.006 0 0 1 -5 5zm-7-6h-1v-1h1zm-20-9h14.032a4.927 4.927 0 0 0 -1.6 6 4.946 4.946 0 0 0 -.432 2 4.986 4.986 0 0 0 8.241 3.791 7.015 7.015 0 0 0 3.172 4.209h-.413a13.008 13.008 0 0 0 -12.949 12h-11.051v-27a1 1 0 0 1 1-1zm37 44h-20l1.5-2h17zm-4.18-4h-11.64l.667-4h10.306zm21.18-6h-54a1 1 0 0 1 -1-1v-3h56v3a1 1 0 0 1 -1 1zm0-34a1 1 0 0 1 1 1v27h-11.051a13.008 13.008 0 0 0 -12.949-12h-.413a7.015 7.015 0 0 0 3.172-4.209 4.986 4.986 0 0 0 8.241-3.791 4.946 4.946 0 0 0 -.43-2 4.927 4.927 0 0 0 -1.6-6h5.11l-1.952 3.514 1.748.972 2.49-4.486z"/><path d="m6 34h8v2h-8z"/><path d="m6 38h8v2h-8z"/><path d="m14.707 31.707 3-3-1.414-1.414-2.707 2.707h-7.586v2h8a1 1 0 0 0 .707-.293z"/><path d="m4 2h2v10h-2z"/><path d="m8 4h2v8h-2z"/><path d="m12 6h2v6h-2z"/><path d="m16 8h2v4h-2z"/><path d="m34 8h17a1 1 0 0 0 1-1v-4a1 1 0 0 0 -1-1h-17a1 1 0 0 0 -1 1v4a1 1 0 0 0 1 1zm1-4h15v2h-15z"/><path d="m21 8h9a1 1 0 0 0 1-1v-4a1 1 0 0 0 -1-1h-9a1 1 0 0 0 -1 1v4a1 1 0 0 0 1 1zm1-4h7v2h-7z"/><path d="m48 23v6a1 1 0 0 0 1 1h8a1 1 0 0 0 1-1v-6a1 1 0 0 0 -1-1h-8a1 1 0 0 0 -1 1zm2 1h6v4h-6z"/><path d="m7 28h6a1 1 0 0 0 1-1v-8a1 1 0 0 0 -1-1h-6a1 1 0 0 0 -1 1v8a1 1 0 0 0 1 1zm1-8h4v6h-4z"/><path d="m48 32h10v2h-10z"/><path d="m48 36h10v2h-10z"/><path d="m50 40h8v2h-8z"/></g></svg>