<svg height="512" viewBox="0 0 64 64" width="512" xmlns="http://www.w3.org/2000/svg"><g id="assistant"><path d="m56 11h-8v8a8 8 0 1 1 8-8z" fill="#57a4ff"/><path d="m56 11h-2a8 8 0 0 0 -7-7.94 8.262 8.262 0 0 1 1-.06 8 8 0 0 1 8 8z" fill="#2488ff"/><path d="m53.45 16.86a8.01 8.01 0 0 1 -5.45 2.14v-8h8a7.985 7.985 0 0 1 -2.55 5.86z" fill="#ffde55"/><path d="m56 11a7.994 7.994 0 0 1 -8 8v-.26a7.972 7.972 0 0 0 6-7.74z" fill="#ffcd00"/><path d="m37 40a3 3 0 0 1 6 0v2a3 3 0 0 1 6 0v8l-7.99 11h-17.02l-6.99-13 8-14.66v-13.34a3 3 0 0 1 6 0v18a3 3 0 0 1 6 0z" fill="#ffdaaa"/><g fill="#ffc477"><path d="m30.12 17.88a2.993 2.993 0 0 1 .88 2.12v25h-2v-25a2.993 2.993 0 0 0 -.88-2.12 2.838 2.838 0 0 0 -1.12-.7 2.772 2.772 0 0 1 1-.18 2.993 2.993 0 0 1 2.12.88z"/><path d="m36.12 35.88a2.993 2.993 0 0 1 .88 2.12v8h-2v-8a2.993 2.993 0 0 0 -.88-2.12 2.838 2.838 0 0 0 -1.12-.7 2.772 2.772 0 0 1 1-.18 2.993 2.993 0 0 1 2.12.88z"/><path d="m42.12 37.88a2.993 2.993 0 0 1 .88 2.12v8h-2v-8a2.993 2.993 0 0 0 -.88-2.12 2.838 2.838 0 0 0 -1.12-.7 2.772 2.772 0 0 1 1-.18 2.993 2.993 0 0 1 2.12.88z"/><path d="m49 42v8l-7.99 11h-2l7.99-11v-8a2.968 2.968 0 0 0 -2-2.82 2.772 2.772 0 0 1 1-.18 3 3 0 0 1 3 3z"/></g><path d="m24 13h-6a2.006 2.006 0 0 1 -2-2v-6a2.006 2.006 0 0 1 2-2h16a2.006 2.006 0 0 1 2 2v6a2.006 2.006 0 0 1 -2 2z" fill="#00d7df"/><path d="m36 5v6a2.006 2.006 0 0 1 -2 2h-2a2.006 2.006 0 0 0 2-2v-6a2.006 2.006 0 0 0 -2-2h2a2.006 2.006 0 0 1 2 2z" fill="#00b6bd"/><path d="m10 22h10v2h-10z"/><path d="m50 42a4 4 0 0 0 -6.239-3.312 3.979 3.979 0 0 0 -6-2 3.947 3.947 0 0 0 -5.761-2.132v-14.556a4 4 0 0 0 -8 0v13.085l-7.878 14.436a1 1 0 0 0 0 .953l6.993 13a1 1 0 0 0 .881.526h17.011a1 1 0 0 0 .809-.412l7.993-11a1 1 0 0 0 .191-.588zm-2 7.675-7.5 10.325h-15.909l-6.454-12 5.863-10.74v7.74h2v-25a2 2 0 0 1 4 0v25h2v-7a2 2 0 0 1 4 0v8h2v-6a2 2 0 0 1 4 0v8h2v-6a2 2 0 0 1 4 0z"/><path d="m16 26h4v2h-4z"/><path d="m2 22h6v2h-6z"/><path d="m2 26h12v2h-12z"/><path d="m18 14h16a3 3 0 0 0 3-3v-6a3 3 0 0 0 -3-3h-16a3 3 0 0 0 -3 3v6a3 3 0 0 0 3 3zm-1-9a1 1 0 0 1 1-1h16a1 1 0 0 1 1 1v6a1 1 0 0 1 -1 1h-1v-2h-2v2h-2v-6h-2v6h-2v-4h-2v4h-2v-6h-2v6h-1a1 1 0 0 1 -1-1z"/><path d="m57.46 20-2.668-3.113a9.052 9.052 0 1 0 -1.472 1.356l2.921 3.408a1 1 0 0 0 .759.349h5v-2zm-16.46-9a7 7 0 0 1 13.92-1h-6.92a1 1 0 0 0 -1 1v6.92a7 7 0 0 1 -6-6.92zm8 6.92v-5.92h5.92a6.957 6.957 0 0 1 -1.446 3.35l-1.715-2-1.518 1.3 1.776 2.072a6.951 6.951 0 0 1 -3.017 1.198z"/><path d="m2 18h10v2h-10z"/><path d="m14 18h6v2h-6z"/><path d="m52 29h10v2h-10z"/><path d="m58 33h4v2h-4z"/><path d="m46 29h4v2h-4z"/><path d="m46 33h10v2h-10z"/><path d="m46 25h8v2h-8z"/><path d="m56 25h6v2h-6z"/><path d="m54 56h8v2h-8z"/><path d="m60 60h2v2h-2z"/><path d="m50 56h2v2h-2z"/><path d="m50 60h8v2h-8z"/><path d="m50 52h6v2h-6z"/><path d="m58 52h4v2h-4z"/><path d="m6 56h8v2h-8z"/><path d="m12 60h2v2h-2z"/><path d="m2 56h2v2h-2z"/><path d="m6 48h8v2h-8z"/><path d="m2 48h2v2h-2z"/><path d="m2 60h8v2h-8z"/><path d="m2 52h6v2h-6z"/><path d="m10 52h4v2h-4z"/><path d="m17 35h2v2h-2z"/><path d="m6 36v10h2v-9h7v-2h-8a1 1 0 0 0 -1 1z"/><path d="m37 31h2v2h-2z"/><path d="m37 29h2v-2h5v-2h-6a1 1 0 0 0 -1 1z"/><path d="m52 43h2v2h-2z"/><path d="m61 50v-6a1 1 0 0 0 -1-1h-4v2h3v5z"/><path d="m8 9h5v-2h-6a1 1 0 0 0 -1 1v8h2z"/></g></svg>