<svg height="512" viewBox="0 0 64 64" width="512" xmlns="http://www.w3.org/2000/svg"><g id="debt"><rect fill="#ff7956" height="40" rx="2" width="12" x="13" y="21"/><path d="m25 23v36a2.006 2.006 0 0 1 -2 2h-2a2.006 2.006 0 0 0 2-2v-36a2.006 2.006 0 0 0 -2-2h2a2.006 2.006 0 0 1 2 2z" fill="#ff6243"/><rect fill="#ff7956" height="40" rx="2" width="12" x="29" y="21"/><path d="m41 23v36a2.006 2.006 0 0 1 -2 2h-2a2.006 2.006 0 0 0 2-2v-36a2.006 2.006 0 0 0 -2-2h2a2.006 2.006 0 0 1 2 2z" fill="#ff6243"/><rect fill="#ff7956" height="40" rx="2" width="12" x="45" y="21"/><path d="m57 23v36a2.006 2.006 0 0 1 -2 2h-2a2.006 2.006 0 0 0 2-2v-36a2.006 2.006 0 0 0 -2-2h2a2.006 2.006 0 0 1 2 2z" fill="#ff6243"/><g fill="#57a4ff"><path d="m18 45v4h-7a2.006 2.006 0 0 1 -2-2 2.015 2.015 0 0 1 2-2z"/><path d="m18 33v4h-7a2.006 2.006 0 0 1 -2-2 2.015 2.015 0 0 1 2-2z"/><path d="m60.41 45.59a1.955 1.955 0 0 1 .59 1.41 2.006 2.006 0 0 1 -2 2h-7v-4h7a1.955 1.955 0 0 1 1.41.59z"/><path d="m60.41 33.59a1.955 1.955 0 0 1 .59 1.41 2.006 2.006 0 0 1 -2 2h-7v-4h7a1.955 1.955 0 0 1 1.41.59z"/><rect height="28" rx="2" width="34" x="18" y="27"/></g><path d="m52 29v24a2.006 2.006 0 0 1 -2 2h-2a2.006 2.006 0 0 0 2-2v-24a2.006 2.006 0 0 0 -2-2h2a2.006 2.006 0 0 1 2 2z" fill="#2488ff"/><path d="m35 37v-3l.04-2a9 9 0 0 1 -.04 18h-.04l.04-2v-3h1a1 1 0 0 0 1-1v-2a1 1 0 0 0 -1-1h-2a1 1 0 0 1 -1-1v-2a1 1 0 0 1 1-1z" fill="#ffeb99"/><path d="m35 45v3l-.04 2a9 9 0 0 1 .04-18h.04l-.04 2v3h-1a1 1 0 0 0 -1 1v2a1 1 0 0 0 1 1h2a1 1 0 0 1 1 1v2a1 1 0 0 1 -1 1z" fill="#ffeb99"/><path d="m2 7h4v2h-4z"/><path d="m2.171 10.828h4v2h-4z" transform="matrix(.707 -.707 .707 .707 -7.142 6.414)"/><path d="m7 10h2v4h-2z"/><path d="m10.828 9.828h2v4h-2z" transform="matrix(.707 -.707 .707 .707 -4.899 11.828)"/><path d="m9.828 3.172h4v2h-4z" transform="matrix(.707 -.707 .707 .707 .515 9.586)"/><path d="m7 2h2v4h-2z"/><path d="m3.172 2.171h2v4h-2z" transform="matrix(.707 -.707 .707 .707 -1.728 4.172)"/><path d="m59 44h-1v-6h1a3 3 0 0 0 0-6h-1v-9a3 3 0 0 0 -3-3h-3.061c-.433-3.94-3.376-7-6.939-7s-6.506 3.06-6.939 7h-2.061v-17a1 1 0 0 0 -1-1h-11a1 1 0 0 0 -1 1v4h-11v2h12a1 1 0 0 0 1-1v-4h9v16h-2.061c-.433-3.94-3.376-7-6.939-7s-6.506 3.06-6.939 7h-3.061a3 3 0 0 0 -3 3v9h-1a3 3 0 0 0 0 6h1v6h-1a3 3 0 0 0 0 6h1v9a3 3 0 0 0 3 3h8a3 3 0 0 0 3-3v-3h2v3a3 3 0 0 0 3 3h8a3 3 0 0 0 3-3v-3h2v3a3 3 0 0 0 3 3h8a3 3 0 0 0 3-3v-9h1a3 3 0 0 0 0-6zm-3 0h-3v-6h3zm4-9a1 1 0 0 1 -1 1h-6v-2h6a1 1 0 0 1 1 1zm-4-12v9h-3v-3a3 3 0 0 0 -3-3h-4v-3a1 1 0 0 1 1-1h8a1 1 0 0 1 1 1zm-6 5a1 1 0 0 1 1 1v24a1 1 0 0 1 -1 1h-30a1 1 0 0 1 -1-1v-24a1 1 0 0 1 1-1zm-19-6h8a1 1 0 0 1 1 1v3h-10v-3a1 1 0 0 1 1-1zm14-7c2.472 0 4.526 2.167 4.925 5h-2.925a3 3 0 0 0 -3 3v3h-2v-3a3 3 0 0 0 -1.95-2.8c.328-2.931 2.42-5.2 4.95-5.2zm-20 0c2.53 0 4.622 2.269 4.95 5.2a3 3 0 0 0 -1.95 2.8v3h-2v-3a3 3 0 0 0 -3-3h-2.925c.399-2.833 2.453-5 4.925-5zm-11 8a1 1 0 0 1 1-1h8a1 1 0 0 1 1 1v3h-4a3 3 0 0 0 -3 3v3h-3zm-4 12a1 1 0 0 1 1-1h6v2h-6a1 1 0 0 1 -1-1zm4 3h3v6h-3zm-4 9a1 1 0 0 1 1-1h6v2h-6a1 1 0 0 1 -1-1zm14 12a1 1 0 0 1 -1 1h-8a1 1 0 0 1 -1-1v-9h3v3a3 3 0 0 0 3 3h4zm16 0a1 1 0 0 1 -1 1h-8a1 1 0 0 1 -1-1v-3h10zm16 0a1 1 0 0 1 -1 1h-8a1 1 0 0 1 -1-1v-3h4a3 3 0 0 0 3-3v-3h3zm3-11h-6v-2h6a1 1 0 0 1 0 2z"/><path d="m34 48h2v-2a2 2 0 0 0 2-2v-2a2 2 0 0 0 -2-2h-2v-2h4v-2h-2v-2h-2v2a2 2 0 0 0 -2 2v2a2 2 0 0 0 2 2h2v2h-4v2h2z"/><path d="m35 51a10 10 0 1 0 -10-10 10.011 10.011 0 0 0 10 10zm0-18a8 8 0 1 1 -8 8 8.009 8.009 0 0 1 8-8z"/><path d="m15 23h2v2h-2z"/><path d="m31 23h2v2h-2z"/><path d="m47 23h2v2h-2z"/></g></svg>