<svg height="512" viewBox="0 0 64 64" width="512" xmlns="http://www.w3.org/2000/svg"><g id="auto_drone" data-name="auto drone"><path d="m60.99 19.98a2 2 0 1 1 -2.83 2.83l-6.03-6.04a3.959 3.959 0 0 0 2.82-2.83z" fill="#57a4ff"/><path d="m60.99 41.19a1.992 1.992 0 0 1 0 2.83l-6.04 6.04a3.959 3.959 0 0 0 -2.82-2.83l6.03-6.04a2 2 0 0 1 2.83 0z" fill="#57a4ff"/><path d="m50.05 16.77a3.968 3.968 0 0 1 -2.82-2.82 3.866 3.866 0 0 1 0-2.08 3.959 3.959 0 0 1 2.83-2.82 3.988 3.988 0 0 1 4.89 4.89 3.959 3.959 0 0 1 -2.82 2.83 3.866 3.866 0 0 1 -2.08 0z" fill="#ffde55"/><path d="m50.06 54.95a3.959 3.959 0 0 1 -2.83-2.82 3.866 3.866 0 0 1 0-2.08 3.968 3.968 0 0 1 2.82-2.82 3.866 3.866 0 0 1 2.08 0 3.959 3.959 0 0 1 2.82 2.83 3.988 3.988 0 0 1 -4.89 4.89z" fill="#ffde55"/><path d="m50.06 54.95-6.04 6.04a2 2 0 1 1 -2.83-2.83l6.04-6.03a3.959 3.959 0 0 0 2.83 2.82z" fill="#57a4ff"/><path d="m44.02 3.01 6.04 6.04a3.959 3.959 0 0 0 -2.83 2.82l-6.04-6.03a2 2 0 1 1 2.83-2.83z" fill="#57a4ff"/><path d="m50.05 16.77-8.05 8.05v-5.64l5.23-5.23a3.968 3.968 0 0 0 2.82 2.82z" fill="#e0e0e2"/><path d="m42 39.18 8.05 8.05a3.968 3.968 0 0 0 -2.82 2.82l-6.39-6.39a9.807 9.807 0 0 0 1.16-4.48z" fill="#e0e0e2"/><path d="m40 15v-2l-1.98-.49 1.05-1.75-2.83-2.83-1.75 1.05-.49-1.98h-4l-.49 1.98-1.75-1.05-2.83 2.83 1.05 1.75-1.98.49v2a2.006 2.006 0 0 0 -2 2v22.18a9.807 9.807 0 0 0 1.16 4.48 9.987 9.987 0 0 0 17.68 0 9.807 9.807 0 0 0 1.16-4.48v-22.18a2.006 2.006 0 0 0 -2-2z" fill="#57a4ff"/><path d="m40 17-1.98.49 1.05 1.75-2.83 2.83-1.75-1.05-.49 1.98h-4l-.49-1.98-1.75 1.05-2.83-2.83 1.05-1.75-1.98-.49v-4l1.98-.49-1.05-1.75 2.83-2.83 1.75 1.05.49-1.98h4l.49 1.98 1.75-1.05 2.83 2.83-1.05 1.75 1.98.49z" fill="#ffde55"/><path d="m40 17-1.98.49 1.05 1.75-2.83 2.83-1.25-.75 2.08-2.08-1.05-1.75 1.98-.49v-4l-1.98-.49 1.05-1.75-2.08-2.08 1.25-.75 2.83 2.83-1.05 1.75 1.98.49z" fill="#ffcd00"/><circle cx="32" cy="15" fill="#e0e0e2" r="3"/><path d="m35 15a3 3 0 0 1 -3 3 2.772 2.772 0 0 1 -1-.18 2.988 2.988 0 0 0 0-5.64 2.772 2.772 0 0 1 1-.18 3 3 0 0 1 3 3z" fill="#c6c5ca"/><path d="m42 17v22.18a9.807 9.807 0 0 1 -1.16 4.48 9.987 9.987 0 0 1 -8.84 5.34 8.262 8.262 0 0 1 -1-.06 9.963 9.963 0 0 0 7.84-5.28 9.807 9.807 0 0 0 1.16-4.48v-24.18a2.006 2.006 0 0 1 2 2z" fill="#2488ff"/><circle cx="32" cy="34" fill="#00d7df" r="6"/><path d="m38 34a6 6 0 0 1 -6 6 5.47 5.47 0 0 1 -1-.09 5.993 5.993 0 0 0 0-11.82 5.47 5.47 0 0 1 1-.09 6 6 0 0 1 6 6z" fill="#00b6bd"/><path d="m23.16 43.66-6.39 6.39a3.968 3.968 0 0 0 -2.82-2.82l8.05-8.05a9.807 9.807 0 0 0 1.16 4.48z" fill="#e0e0e2"/><path d="m22.81 3.01a1.992 1.992 0 0 1 0 2.83l-6.04 6.03a3.959 3.959 0 0 0 -2.83-2.82l6.04-6.04a2 2 0 0 1 2.83 0z" fill="#57a4ff"/><path d="m22.81 58.16a2 2 0 1 1 -2.83 2.83l-6.04-6.04a3.959 3.959 0 0 0 2.83-2.82z" fill="#57a4ff"/><path d="m22 19.18v5.64l-8.05-8.05a3.968 3.968 0 0 0 2.82-2.82z" fill="#e0e0e2"/><path d="m11.87 16.77a3.959 3.959 0 0 1 -2.82-2.83 3.988 3.988 0 0 1 4.89-4.89 3.959 3.959 0 0 1 2.83 2.82 3.866 3.866 0 0 1 0 2.08 3.968 3.968 0 0 1 -2.82 2.82 3.866 3.866 0 0 1 -2.08 0z" fill="#ffde55"/><path d="m11.87 47.23a3.866 3.866 0 0 1 2.08 0 3.968 3.968 0 0 1 2.82 2.82 3.866 3.866 0 0 1 0 2.08 3.959 3.959 0 0 1 -2.83 2.82 3.988 3.988 0 0 1 -4.89-4.89 3.959 3.959 0 0 1 2.82-2.83z" fill="#ffde55"/><path d="m5.84 41.19 6.03 6.04a3.959 3.959 0 0 0 -2.82 2.83l-6.04-6.04a2 2 0 1 1 2.83-2.83z" fill="#57a4ff"/><path d="m11.87 16.77-6.03 6.04a2 2 0 1 1 -2.83-2.83l6.04-6.04a3.959 3.959 0 0 0 2.82 2.83z" fill="#57a4ff"/><path d="m57.456 40.485-5.674 5.674a3.6 3.6 0 0 0 -1.388 0l-7.394-7.393v-13.532l7.394-7.394a3.6 3.6 0 0 0 1.388 0l5.674 5.674a3 3 0 0 0 4.244-4.242l-5.676-5.672a4.87 4.87 0 0 0 -5.624-5.624l-5.671-5.676a3.073 3.073 0 0 0 -4.244 0 3 3 0 0 0 0 4.243l5.674 5.674a5.1 5.1 0 0 0 -.067.69 5.061 5.061 0 0 0 .068.7l-3.181 3.181a2.989 2.989 0 0 0 -1.979-2.604v-1.184a1 1 0 0 0 -.758-.97l-.668-.167.355-.591a1 1 0 0 0 -.151-1.222l-2.829-2.828a1 1 0 0 0 -1.221-.151l-.591.355-.167-.668a1 1 0 0 0 -.97-.758h-4a1 1 0 0 0 -.97.758l-.167.668-.591-.355a1 1 0 0 0 -1.221.151l-2.829 2.828a1 1 0 0 0 -.151 1.222l.355.591-.668.167a1 1 0 0 0 -.758.97v1.184a2.989 2.989 0 0 0 -1.979 2.6l-3.181-3.178a5.061 5.061 0 0 0 .068-.7 5.1 5.1 0 0 0 -.067-.69l5.674-5.674a3 3 0 0 0 0-4.242 3.072 3.072 0 0 0 -4.243 0l-5.672 5.676a4.871 4.871 0 0 0 -5.624 5.624l-5.676 5.672a3 3 0 0 0 4.242 4.243l5.674-5.674a5.1 5.1 0 0 0 .69.067 5.061 5.061 0 0 0 .7-.068l7.394 7.394v13.532l-7.394 7.394a5.061 5.061 0 0 0 -.7-.068 5.1 5.1 0 0 0 -.69.067l-5.672-5.674a3 3 0 1 0 -4.244 4.243l5.676 5.672a4.87 4.87 0 0 0 5.624 5.624l5.671 5.676a3 3 0 1 0 4.244-4.242l-5.674-5.674a3.6 3.6 0 0 0 0-1.388l5.13-5.13a10.977 10.977 0 0 0 18.06 0l5.13 5.13a3.6 3.6 0 0 0 0 1.388l-5.674 5.674a3 3 0 1 0 4.241 4.242l5.672-5.676a4.871 4.871 0 0 0 5.624-5.624l5.676-5.672a3 3 0 1 0 -4.242-4.243zm2.828-19.8a1 1 0 1 1 -1.414 1.415l-5.022-5.022a5 5 0 0 0 .779-.636 5.053 5.053 0 0 0 .636-.778zm-7.071-9.9a3 3 0 0 1 0 4.242 3.07 3.07 0 0 1 -4.242 0 3 3 0 1 1 4.242-4.242zm-11.313-5.656a1 1 0 0 1 0-1.413 1.023 1.023 0 0 1 1.414 0l5.022 5.021a5.028 5.028 0 0 0 -1.414 1.414zm5.658 11.314a5 5 0 0 0 .773.633l-5.331 5.33v-2.812l3.924-3.924a5.043 5.043 0 0 0 .633.773zm-22.558-2.662 1.22-.3a1 1 0 0 0 .615-1.485l-.648-1.078 1.726-1.725 1.078.647a1 1 0 0 0 1.485-.615l.3-1.22h2.438l.3 1.22a1 1 0 0 0 1.485.615l1.078-.647 1.725 1.725-.647 1.078a1 1 0 0 0 .615 1.485l1.22.3v2.438l-1.22.3a1 1 0 0 0 -.615 1.485l.647 1.078-1.725 1.725-1.078-.647a1 1 0 0 0 -1.485.615l-.3 1.22h-2.433l-.3-1.22a1 1 0 0 0 -1.485-.615l-1.078.647-1.726-1.725.648-1.078a1 1 0 0 0 -.615-1.485l-1.22-.3zm-4.313-10.066a1.023 1.023 0 0 1 1.414 0 1 1 0 0 1 0 1.414l-5.022 5.021a5.028 5.028 0 0 0 -1.414-1.414zm-15.557 18.385a1 1 0 0 1 -1.414-1.415l5.021-5.021a5.053 5.053 0 0 0 .636.778 5 5 0 0 0 .779.636zm5.657-7.072a3 3 0 1 1 4.242 0 3.07 3.07 0 0 1 -4.242.001zm4.883 2.047a5.042 5.042 0 0 0 1.406-1.406l3.924 3.925v2.812zm-11.954 26.239a1 1 0 1 1 1.414-1.414l5.022 5.022a5 5 0 0 0 -.779.636 5.053 5.053 0 0 0 -.636.778zm7.071 9.9a3 3 0 1 1 4.242 0 3.072 3.072 0 0 1 -4.242-.001zm11.313 5.657a1 1 0 0 1 0 1.413 1.021 1.021 0 0 1 -1.414 0l-5.022-5.021a5.028 5.028 0 0 0 1.414-1.414zm-5.024-10.541a5.042 5.042 0 0 0 -1.406-1.406l5.586-5.586a10.958 10.958 0 0 0 .7 2.117zm14.924-.33a9.01 9.01 0 0 1 -9-9v-22a1 1 0 0 0 .758.97l.668.167-.355.591a1 1 0 0 0 .151 1.222l2.829 2.828a1 1 0 0 0 1.221.151l.591-.355.167.668a1 1 0 0 0 .97.758h4a1 1 0 0 0 .97-.758l.167-.668.591.355a1 1 0 0 0 1.221-.151l2.829-2.828a1 1 0 0 0 .151-1.222l-.355-.591.668-.167a1 1 0 0 0 .758-.97v22a9.01 9.01 0 0 1 -9 9zm10.049-4.545a10.958 10.958 0 0 0 .7-2.117l5.586 5.586a5.042 5.042 0 0 0 -1.406 1.406zm1.263 16.83a1.022 1.022 0 0 1 -1.413 0 1 1 0 0 1 0-1.414l5.022-5.021a5.028 5.028 0 0 0 1.414 1.414zm9.9-7.072a3.072 3.072 0 0 1 -4.242 0 3 3 0 1 1 4.242 0zm7.071-9.9-5.021 5.021a5.053 5.053 0 0 0 -.636-.778 5 5 0 0 0 -.779-.636l5.023-5.02a1 1 0 1 1 1.414 1.415z"/><path d="m32 19a4 4 0 1 0 -4-4 4 4 0 0 0 4 4zm0-6a2 2 0 1 1 -2 2 2 2 0 0 1 2-2z"/><path d="m12 12h2v2h-2z"/><path d="m50 12h2v2h-2z"/><path d="m50 50h2v2h-2z"/><path d="m12 50h2v2h-2z"/><path d="m39 34a7 7 0 1 0 -7 7 7.008 7.008 0 0 0 7-7zm-7 5a5 5 0 1 1 5-5 5.006 5.006 0 0 1 -5 5z"/><path d="m39 25h-3v2h2v2h2v-3a1 1 0 0 0 -1-1z"/><path d="m26 27h2v-2h-3a1 1 0 0 0 -1 1v3h2z"/><path d="m38 41h-2v2h3a1 1 0 0 0 1-1v-3h-2z"/><path d="m26 39h-2v3a1 1 0 0 0 1 1h3v-2h-2z"/><path d="m46.944 36.951a6.989 6.989 0 0 0 0-9.9l-1.408 1.419a4.988 4.988 0 0 1 0 7.06z"/><path d="m53 32a10.929 10.929 0 0 0 -3.223-7.777l-1.414 1.414a9 9 0 0 1 0 12.726l1.414 1.414a10.929 10.929 0 0 0 3.223-7.777z"/><path d="m57 32a14.94 14.94 0 0 0 -4.391-10.6l-1.418 1.411a13 13 0 0 1 0 18.388l1.418 1.411a14.94 14.94 0 0 0 4.391-10.61z"/><path d="m17.056 27.049a6.989 6.989 0 0 0 0 9.9l1.408-1.421a4.988 4.988 0 0 1 0-7.06z"/><path d="m11 32a10.929 10.929 0 0 0 3.223 7.777l1.414-1.414a9 9 0 0 1 0-12.726l-1.414-1.414a10.929 10.929 0 0 0 -3.223 7.777z"/><path d="m7 32a14.94 14.94 0 0 0 4.391 10.6l1.418-1.411a13 13 0 0 1 0-18.388l-1.418-1.401a14.94 14.94 0 0 0 -4.391 10.6z"/></g></svg>