<svg height="512" viewBox="0 0 64 64" width="512" xmlns="http://www.w3.org/2000/svg"><g id="deposit"><path d="m57 25v7.07l-2-2.07-4 5-4-4 5-4-2.07-2z" fill="#ff7956"/><path d="m52.04 3h-.04a9 9 0 0 0 -.04 18h.04a9 9 0 0 0 .04-18z" fill="#ffeb99"/><path d="m43 21v7.07l-2-2.07-4 5-4-4 5-4-2.07-2z" fill="#ff7956"/><path d="m41 45a12.987 12.987 0 0 1 -7 11.53v3.47a1 1 0 0 1 -1 1h-2a1 1 0 0 1 -1-1v-2.17a13.161 13.161 0 0 1 -2 .17h-8a13.161 13.161 0 0 1 -2-.17v2.17a1 1 0 0 1 -1 1h-2a1 1 0 0 1 -1-1v-3.47a13.014 13.014 0 0 1 -6.83-9.53h-3.17a1 1 0 0 1 -1-1v-2a1 1 0 0 1 1-1h3.17a13.005 13.005 0 0 1 7.83-9.99v-5.01a4 4 0 0 1 4 4v.05c.33-.03.66-.05 1-.05h7.62a13.25 13.25 0 0 1 13.37 12.53c.01.16.01.31.01.47z" fill="#ffdaaa"/><g fill="#ffc477"><path d="m26 58a13.161 13.161 0 0 0 2-.17v.17z"/><path d="m41 45a12.987 12.987 0 0 1 -7 11.53v3.47a1 1 0 0 1 -1 1h-2a1 1 0 0 0 1-1v-3.47a12.987 12.987 0 0 0 7-11.53c0-.16 0-.31-.01-.47a13.25 13.25 0 0 0 -13.37-12.53h2a13.25 13.25 0 0 1 13.37 12.53c.01.16.01.31.01.47z"/><path d="m3 44v2a1 1 0 0 0 1 1h-2a1 1 0 0 1 -1-1v-2a1 1 0 0 1 1-1h2a1 1 0 0 0 -1 1z"/><path d="m20 58h-2v-.17a13.161 13.161 0 0 0 2 .17z"/></g><path d="m39 7v7.07l-2-2.07-4 5-4-4 5-4-2.07-2z" fill="#ff7956"/><path d="m43 42a2.977 2.977 0 0 0 -1.287.3 14.414 14.414 0 0 0 -14.095-11.3h-7.718a5.007 5.007 0 0 0 -4.9-4 1 1 0 0 0 -1 1v4.364a14.1 14.1 0 0 0 -7.66 9.636h-2.34a2 2 0 0 0 -2 2v2a2 2 0 0 0 2 2h2.34a14.046 14.046 0 0 0 6.66 9.116v2.884a2 2 0 0 0 2 2h2a2 2 0 0 0 2-2v-1.043c.347.029.678.043 1 .043h8c.322 0 .653-.014 1-.043v1.043a2 2 0 0 0 2 2h2a2 2 0 0 0 2-2v-2.883a13.879 13.879 0 0 0 6.992-12.117h.008a1 1 0 0 1 2 0v6h2v-6a3 3 0 0 0 -3-3zm-9.462 13.639a1 1 0 0 0 -.538.886v3.475h-2v-2.17a1 1 0 0 0 -1-1 .976.976 0 0 0 -.153.012 11.848 11.848 0 0 1 -1.847.158h-8a11.848 11.848 0 0 1 -1.847-.158 1 1 0 0 0 -1.153.988v2.17h-2v-3.475a1 1 0 0 0 -.538-.886 12.027 12.027 0 0 1 -6.3-8.792 1 1 0 0 0 -.993-.847h-3.169v-2h3.169a1 1 0 0 0 .989-.847 12.063 12.063 0 0 1 7.228-9.218 1 1 0 0 0 .614-.923v-3.841a3.007 3.007 0 0 1 2 2.782v.062a1 1 0 0 0 1.075 1.028c.307-.023.616-.043.929-.043h7.618a12.3 12.3 0 0 1 12.37 11.561 11.918 11.918 0 0 1 -6.454 11.078z"/><path d="m53 5h-2v2a2 2 0 0 0 -2 2v2a2 2 0 0 0 2 2h2v2h-4v2h2v2h2v-2a2 2 0 0 0 2-2v-2a2 2 0 0 0 -2-2h-2v-2h4v-2h-2z"/><path d="m52 2a10 10 0 1 0 10 10 10.011 10.011 0 0 0 -10-10zm0 18a8 8 0 1 1 8-8 8.009 8.009 0 0 1 -8 8z"/><path d="m15 40a1 1 0 0 1 -1-1h-2a3 3 0 0 0 6 0h-2a1 1 0 0 1 -1 1z"/><path d="m32 26.944a1 1 0 0 0 .292.763l4 4a1 1 0 0 0 .708.293h.055a1 1 0 0 0 .726-.373l3.289-4.112 1.211 1.253a1 1 0 0 0 1.719-.697v-7.071a1 1 0 0 0 -1-1h-7.071a1 1 0 0 0 -.7 1.72l1.253 1.21-4.112 3.289a1 1 0 0 0 -.37.725zm6.624-3.163a1 1 0 0 0 .07-1.5l-.294-.281h3.6v3.6l-.281-.29a.992.992 0 0 0 -.765-.3 1 1 0 0 0 -.735.374l-3.3 4.128-2.42-2.42z"/><path d="m57 24h-7.071a1 1 0 0 0 -.7 1.72l1.253 1.21-4.112 3.289a1 1 0 0 0 -.082 1.488l4 4a1 1 0 0 0 .712.293h.055a1 1 0 0 0 .726-.373l3.289-4.112 1.211 1.253a1 1 0 0 0 1.719-.7v-7.068a1 1 0 0 0 -1-1zm-1 5.6-.281-.29a1 1 0 0 0 -1.5.069l-3.3 4.128-2.42-2.42 4.128-3.3a1 1 0 0 0 .07-1.5l-.297-.287h3.6z"/><path d="m32.293 17.707a1 1 0 0 0 .707.293h.055a1 1 0 0 0 .726-.373l3.289-4.112 1.211 1.253a1 1 0 0 0 1.719-.7v-7.068a1 1 0 0 0 -1-1h-7.071a1 1 0 0 0 -.695 1.72l1.253 1.21-4.112 3.289a1 1 0 0 0 -.082 1.488zm2.332-7.926a1 1 0 0 0 .07-1.5l-.295-.281h3.6v3.6l-.281-.29a1 1 0 0 0 -1.5.069l-3.3 4.128-2.42-2.42z"/></g></svg>