<svg height="512" viewBox="0 0 64 64" width="512" xmlns="http://www.w3.org/2000/svg"><g id="bigdata"><path d="m61 55v4a2.006 2.006 0 0 1 -2 2h-12a2.006 2.006 0 0 1 -2-2v-4z" fill="#006df0"/><path d="m45 49h16v6h-16z" fill="#57a4ff"/><path d="m61 45v4h-16v-4a2.006 2.006 0 0 1 2-2h12a2.006 2.006 0 0 1 2 2z" fill="#bddbff"/><path d="m61 15v4a2.006 2.006 0 0 1 -2 2h-12a2.006 2.006 0 0 1 -2-2v-4z" fill="#006df0"/><path d="m45 9h16v6h-16z" fill="#57a4ff"/><path d="m61 5v4h-16v-4a2.006 2.006 0 0 1 2-2h12a2.006 2.006 0 0 1 2 2z" fill="#bddbff"/><path d="m42.18 21a14.962 14.962 0 1 0 4.82 11 14.87 14.87 0 0 0 -4.82-11z" fill="#00d7df"/><path d="m47 32a15.03 15.03 0 0 1 -15 15c-.34 0-.67-.01-1-.04a14.983 14.983 0 0 0 9.18-25.96 14.805 14.805 0 0 0 -9.18-3.96c.33-.03.66-.04 1-.04a15.03 15.03 0 0 1 15 15z" fill="#00b6bd"/><path d="m19 55v4a2.006 2.006 0 0 1 -2 2h-12a2.006 2.006 0 0 1 -2-2v-4z" fill="#006df0"/><path d="m3 49h16v6h-16z" fill="#57a4ff"/><path d="m19 45v4h-16v-4a2.006 2.006 0 0 1 2-2h12a2.006 2.006 0 0 1 2 2z" fill="#bddbff"/><path d="m19 15v4a2.006 2.006 0 0 1 -2 2h-12a2.006 2.006 0 0 1 -2-2v-4z" fill="#006df0"/><path d="m3 9h16v6h-16z" fill="#57a4ff"/><path d="m19 5v4h-16v-4a2.006 2.006 0 0 1 2-2h12a2.006 2.006 0 0 1 2 2z" fill="#bddbff"/><path d="m19 15v4a2.006 2.006 0 0 1 -2 2h-3a2.006 2.006 0 0 0 2-2v-4z" fill="#005ece"/><path d="m16 9h3v6h-3z" fill="#2488ff"/><path d="m19 5v4h-3v-4a2.006 2.006 0 0 0 -2-2h3a2.006 2.006 0 0 1 2 2z" fill="#9bc9ff"/><path d="m61 15v4a2.006 2.006 0 0 1 -2 2h-3a2.006 2.006 0 0 0 2-2v-4z" fill="#005ece"/><path d="m58 9h3v6h-3z" fill="#2488ff"/><path d="m61 5v4h-3v-4a2.006 2.006 0 0 0 -2-2h3a2.006 2.006 0 0 1 2 2z" fill="#9bc9ff"/><path d="m19 55v4a2.006 2.006 0 0 1 -2 2h-3a2.006 2.006 0 0 0 2-2v-4z" fill="#005ece"/><path d="m16 49h3v6h-3z" fill="#2488ff"/><path d="m19 45v4h-3v-4a2.006 2.006 0 0 0 -2-2h3a2.006 2.006 0 0 1 2 2z" fill="#9bc9ff"/><path d="m61 55v4a2.006 2.006 0 0 1 -2 2h-3a2.006 2.006 0 0 0 2-2v-4z" fill="#005ece"/><path d="m58 49h3v6h-3z" fill="#2488ff"/><path d="m61 45v4h-3v-4a2.006 2.006 0 0 0 -2-2h3a2.006 2.006 0 0 1 2 2z" fill="#9bc9ff"/><path d="m6 11h2v2h-2z"/><path d="m6 5h2v2h-2z"/><path d="m5 22h12a3 3 0 0 0 3-3v-14a3 3 0 0 0 -3-3h-12a3 3 0 0 0 -3 3v14a3 3 0 0 0 3 3zm12-2h-12a1 1 0 0 1 -1-1v-3h14v3a1 1 0 0 1 -1 1zm-13-6v-4h14v4zm1-10h12a1 1 0 0 1 1 1v3h-14v-3a1 1 0 0 1 1-1z"/><path d="m6 17h2v2h-2z"/><path d="m48 11h2v2h-2z"/><path d="m59 2h-12a3 3 0 0 0 -3 3v14a3 3 0 0 0 3 3h12a3 3 0 0 0 3-3v-14a3 3 0 0 0 -3-3zm-12 2h12a1 1 0 0 1 1 1v3h-14v-3a1 1 0 0 1 1-1zm13 6v4h-14v-4zm-1 10h-12a1 1 0 0 1 -1-1v-3h14v3a1 1 0 0 1 -1 1z"/><path d="m48 5h2v2h-2z"/><path d="m48 17h2v2h-2z"/><path d="m6 51h2v2h-2z"/><path d="m17 42h-12a3 3 0 0 0 -3 3v14a3 3 0 0 0 3 3h12a3 3 0 0 0 3-3v-14a3 3 0 0 0 -3-3zm-12 2h12a1 1 0 0 1 1 1v3h-14v-3a1 1 0 0 1 1-1zm13 6v4h-14v-4zm-1 10h-12a1 1 0 0 1 -1-1v-3h14v3a1 1 0 0 1 -1 1z"/><path d="m6 45h2v2h-2z"/><path d="m6 57h2v2h-2z"/><path d="m48 51h2v2h-2z"/><path d="m59 42h-12a3 3 0 0 0 -3 3v14a3 3 0 0 0 3 3h12a3 3 0 0 0 3-3v-14a3 3 0 0 0 -3-3zm-12 2h12a1 1 0 0 1 1 1v3h-14v-3a1 1 0 0 1 1-1zm13 6v4h-14v-4zm-1 10h-12a1 1 0 0 1 -1-1v-3h14v3a1 1 0 0 1 -1 1z"/><path d="m48 45h2v2h-2z"/><path d="m48 57h2v2h-2z"/><path d="m54 29v-5h-2v4h-3v2h4a1 1 0 0 0 1-1z"/><path d="m49 36h3v4h2v-5a1 1 0 0 0 -1-1h-4z"/><path d="m15 28h-3v-4h-2v5a1 1 0 0 0 1 1h4z"/><path d="m10 35v5h2v-4h3v-2h-4a1 1 0 0 0 -1 1z"/><path d="m32 16a16 16 0 1 0 16 16 16.019 16.019 0 0 0 -16-16zm13.949 15h-4.977a25.959 25.959 0 0 0 -1.167-7.053 15.774 15.774 0 0 0 2.319-1.59 13.933 13.933 0 0 1 3.825 8.643zm-12.949-12.833c1.69.509 3.2 2.27 4.289 4.79a13.9 13.9 0 0 1 -4.289 1zm4.344.9a13.985 13.985 0 0 1 3.29 1.933 13.932 13.932 0 0 1 -1.544 1.054 14.35 14.35 0 0 0 -1.746-2.989zm-6.344-.9v5.786a13.9 13.9 0 0 1 -4.289-1c1.089-2.516 2.599-4.277 4.289-4.786zm-6.09 3.889a13.932 13.932 0 0 1 -1.544-1.056 13.985 13.985 0 0 1 3.29-1.937 14.35 14.35 0 0 0 -1.746 2.993zm6.09 3.9v5.044h-5.974a24.316 24.316 0 0 1 1-6.159 15.919 15.919 0 0 0 4.974 1.112zm0 7.044v5.047a15.919 15.919 0 0 0 -4.972 1.112 24.316 24.316 0 0 1 -1-6.159zm0 7.047v5.786c-1.69-.509-3.2-2.27-4.289-4.79a13.9 13.9 0 0 1 4.289-.996zm-4.344 4.888a13.985 13.985 0 0 1 -3.29-1.935 13.932 13.932 0 0 1 1.544-1.054 14.35 14.35 0 0 0 1.746 2.989zm6.344.9v-5.788a13.9 13.9 0 0 1 4.289 1c-1.089 2.516-2.599 4.277-4.289 4.786zm6.09-3.889a13.932 13.932 0 0 1 1.544 1.054 13.985 13.985 0 0 1 -3.29 1.937 14.35 14.35 0 0 0 1.746-2.993zm-6.09-3.899v-5.047h5.974a24.316 24.316 0 0 1 -1 6.159 15.919 15.919 0 0 0 -4.974-1.112zm0-7.047v-5.047a15.919 15.919 0 0 0 4.972-1.112 24.316 24.316 0 0 1 1 6.159zm-11.124-8.643a15.774 15.774 0 0 0 2.319 1.59 25.959 25.959 0 0 0 -1.167 7.053h-4.977a13.933 13.933 0 0 1 3.825-8.643zm-3.825 10.643h4.977a25.959 25.959 0 0 0 1.172 7.053 15.774 15.774 0 0 0 -2.319 1.59 13.933 13.933 0 0 1 -3.83-8.643zm24.073 8.643a15.774 15.774 0 0 0 -2.319-1.59 25.959 25.959 0 0 0 1.167-7.053h4.977a13.933 13.933 0 0 1 -3.825 8.643z"/></g></svg>