<svg height="512" viewBox="0 0 64 64" width="512" xmlns="http://www.w3.org/2000/svg"><g id="biomatic_sensor" data-name="biomatic sensor"><path d="m60 13v4a10 10 0 0 1 -20 0v-4a10 10 0 0 1 20 0z" fill="#ffde55"/><path d="m60 13v4a10 10 0 0 1 -10 10c-.33 0-.66-.02-.98-.05a10 10 0 0 0 8.98-9.95v-4a10.009 10.009 0 0 0 -8.98-9.95c.32-.03.65-.05.98-.05a10 10 0 0 1 10 10z" fill="#ffcd00"/><path d="m56 13v4a6 6 0 0 1 -12 0v-4a6 6 0 0 1 6-6 6.009 6.009 0 0 1 6 6z" fill="#ffdaaa"/><path d="m56 13v4a6 6 0 0 1 -6 6 5.47 5.47 0 0 1 -1-.09 5.99 5.99 0 0 0 5-5.91v-4a5.944 5.944 0 0 0 -1.76-4.24 5.832 5.832 0 0 0 -3.24-1.67 5.47 5.47 0 0 1 1-.09 6.009 6.009 0 0 1 6 6z" fill="#ffc477"/><path d="m52 13v4a2 2 0 0 1 -4 0v-4a2.006 2.006 0 0 1 2-2 2.015 2.015 0 0 1 2 2z" fill="#ffde55"/><path d="m3 3h18v28h-18z" fill="#00d7df"/><path d="m19 3h2v28h-2z" fill="#00b6bd"/><path d="m37 40a3 3 0 0 1 6 0v2a3 3 0 0 1 6 0v8l-7.99 11h-17.02l-6.99-13 8-14.66v-13.34a3 3 0 0 1 6 0v18a3 3 0 0 1 6 0z" fill="#ffdaaa"/><g fill="#ffc477"><path d="m30.12 17.88a2.993 2.993 0 0 1 .88 2.12v25h-2v-25a2.993 2.993 0 0 0 -.88-2.12 2.838 2.838 0 0 0 -1.12-.7 2.772 2.772 0 0 1 1-.18 2.993 2.993 0 0 1 2.12.88z"/><path d="m36.12 35.88a2.993 2.993 0 0 1 .88 2.12v8h-2v-8a2.993 2.993 0 0 0 -.88-2.12 2.838 2.838 0 0 0 -1.12-.7 2.772 2.772 0 0 1 1-.18 2.993 2.993 0 0 1 2.12.88z"/><path d="m42.12 37.88a2.993 2.993 0 0 1 .88 2.12v8h-2v-8a2.993 2.993 0 0 0 -.88-2.12 2.838 2.838 0 0 0 -1.12-.7 2.772 2.772 0 0 1 1-.18 2.993 2.993 0 0 1 2.12.88z"/><path d="m49 42v8l-7.99 11h-2l7.99-11v-8a2.968 2.968 0 0 0 -2-2.82 2.772 2.772 0 0 1 1-.18 3 3 0 0 1 3 3z"/></g><path d="m50 42a4 4 0 0 0 -6.239-3.312 3.979 3.979 0 0 0 -6-2 3.947 3.947 0 0 0 -5.761-2.132v-14.556a4 4 0 0 0 -8 0v13.084l-7.878 14.437a1 1 0 0 0 0 .953l6.993 13a1 1 0 0 0 .881.526h17.011a1 1 0 0 0 .809-.412l7.993-11a1 1 0 0 0 .191-.588zm-2 7.675-7.5 10.325h-15.909l-6.454-12 5.863-10.739v7.739h2v-25a2 2 0 0 1 4 0v25h2v-7a2 2 0 0 1 4 0v8h2v-6a2 2 0 0 1 4 0v8h2v-6a2 2 0 0 1 4 0z"/><path d="m54 56h8v2h-8z"/><path d="m60 60h2v2h-2z"/><path d="m50 56h2v2h-2z"/><path d="m50 60h8v2h-8z"/><path d="m6 56h8v2h-8z"/><path d="m12 60h2v2h-2z"/><path d="m2 56h2v2h-2z"/><path d="m6 48h8v2h-8z"/><path d="m2 48h2v2h-2z"/><path d="m2 60h8v2h-8z"/><path d="m2 52h6v2h-6z"/><path d="m10 52h4v2h-4z"/><path d="m17 35h2v2h-2z"/><path d="m6 36v10h2v-9h7v-2h-8a1 1 0 0 0 -1 1z"/><path d="m50 20a3 3 0 0 0 3-3v-4a3 3 0 0 0 -6 0v4a3 3 0 0 0 3 3zm-1-7a1 1 0 0 1 2 0v4a1 1 0 0 1 -2 0z"/><path d="m50 24a7.008 7.008 0 0 0 7-7v-4a7 7 0 0 0 -14 0v4a7.008 7.008 0 0 0 7 7zm-5-11a5 5 0 0 1 10 0v4a5 5 0 0 1 -10 0z"/><path d="m50 28a11.013 11.013 0 0 0 11-11v-4a11 11 0 0 0 -22 0v4a11.013 11.013 0 0 0 11 11zm-9-15a9 9 0 0 1 18 0v4a9 9 0 0 1 -18 0z"/><path d="m29 11h9v-2h-10a1 1 0 0 0 -1 1v4h2z"/><path d="m51 33.465v-3.465h-2v4a1 1 0 0 0 .445.832l3 2a1.006 1.006 0 0 0 .555.168h9v-2h-8.7z"/><path d="m3 32h18a1 1 0 0 0 1-1v-28a1 1 0 0 0 -1-1h-18a1 1 0 0 0 -1 1v28a1 1 0 0 0 1 1zm1-28h16v26h-16z"/><path d="m6 6h6v2h-6z"/><path d="m14 6h4v2h-4z"/><path d="m6 10h2v2h-2z"/><path d="m10 10h8v2h-8z"/><path d="m6 14h8v2h-8z"/><path d="m16 14h2v2h-2z"/><path d="m6 18h6v2h-6z"/><path d="m14 18h4v2h-4z"/><path d="m6 22h4v2h-4z"/><path d="m12 22h6v2h-6z"/><path d="m6 26h8v2h-8z"/><path d="m16 26h2v2h-2z"/><path d="m60 31h2v2h-2z"/><path d="m54 31h4v2h-4z"/><path d="m60 39h2v2h-2z"/><path d="m54 39h4v2h-4z"/></g></svg>