<svg height="512" viewBox="0 0 64 64" width="512" xmlns="http://www.w3.org/2000/svg"><g id="brain"><path d="m53 45a8.589 8.589 0 0 1 1 4 6 6 0 0 1 -6 6 6 6 0 0 1 -6 6 10 10 0 0 1 -10-10 10 10 0 0 1 -10 10 6 6 0 0 1 -6-6 6 6 0 0 1 -6-6 8.589 8.589 0 0 1 1-4 15.552 15.552 0 0 1 -7-13c0-5.13 3.07-9.3 7-12a10.6 10.6 0 0 1 -1-5c0-2 2.49-6.63 6-7 .87-3.47 4.26-5 8-5 4.42 0 8 2.58 8 7 0-4.42 3.58-7 8-7 3.74 0 7.13 1.53 8 5 3.51.37 6 5 6 7a10.6 10.6 0 0 1 -1 5c3.93 2.7 7 6.87 7 12a15.552 15.552 0 0 1 -7 13z" fill="#ffdaaa"/><path d="m53 45a8.589 8.589 0 0 1 1 4 6 6 0 0 1 -6 6 6 6 0 0 1 -6 6 8.513 8.513 0 0 1 -1.14-.07 5.994 5.994 0 0 0 5.14-5.93 6 6 0 0 0 6-6 8.589 8.589 0 0 0 -1-4 15.552 15.552 0 0 0 7-13c0-5.13-3.07-9.3-7-12a10.6 10.6 0 0 0 1-5c0-2-2.49-6.63-6-7-.79-3.14-3.64-4.69-6.95-4.95a7.461 7.461 0 0 1 .95-.05c3.74 0 7.13 1.53 8 5 3.51.37 6 5 6 7a10.6 10.6 0 0 1 -1 5c3.93 2.7 7 6.87 7 12a15.552 15.552 0 0 1 -7 13z" fill="#ffc477"/><path d="m42 28v14h-20v-20h14z" fill="#00d7df"/><path d="m42 24v4l-6-6h4 2z" fill="#e0e0e2"/><circle cx="32" cy="32" fill="#ffde55" r="4"/><path d="m42 28v14h-2v-14l-6-6h2z" fill="#00b6bd"/><path d="m36 32a4 4 0 0 1 -4 4 3.657 3.657 0 0 1 -1-.13 4 4 0 0 0 0-7.74 3.657 3.657 0 0 1 1-.13 4 4 0 0 1 4 4z" fill="#ffcd00"/><path d="m43 22a1 1 0 0 0 -1-1h-1v-2h-2v2h-2v-2h-2v2h-2v-2h-2v2h-2v-2h-2v2h-2v-2h-2v2h-1a1 1 0 0 0 -1 1v1h-2v2h2v2h-2v2h2v2h-2v2h2v2h-2v2h2v2h-2v2h2v1a1 1 0 0 0 1 1h1v2h2v-2h2v2h2v-2h2v2h2v-2h2v2h2v-2h2v2h2v-2h1a1 1 0 0 0 1-1v-1h2v-2h-2v-2h2v-2h-2v-2h2v-2h-2v-2h2v-2h-2v-2h2v-2h-2zm-2 3.586-2.586-2.586h2.586zm-18 15.414v-18h12.586l5.414 5.414v12.586z"/><path d="m33 27.1v-2.1h-2v2.1a5.016 5.016 0 0 0 -3.9 3.9h-2.1v2h2.1a5.016 5.016 0 0 0 3.9 3.9v2.1h2v-2.1a5.016 5.016 0 0 0 3.9-3.9h2.1v-2h-2.1a5.016 5.016 0 0 0 -3.9-3.9zm-1 7.9a3 3 0 1 1 3-3 3 3 0 0 1 -3 3z"/><path d="m55 49a9.006 9.006 0 0 0 -.742-3.643 16.5 16.5 0 0 0 6.742-13.357c0-4.668-2.456-9.129-6.769-12.348a11.933 11.933 0 0 0 .769-4.652c0-2.407-2.531-7.006-6.221-7.879-1.127-3.221-4.355-5.121-8.779-5.121-3.661 0-6.558 1.572-8 4.1-1.442-2.528-4.339-4.1-8-4.1-4.424 0-7.652 1.9-8.779 5.121-3.69.873-6.221 5.472-6.221 7.879a11.948 11.948 0 0 0 .769 4.652c-4.313 3.219-6.769 7.68-6.769 12.348a16.506 16.506 0 0 0 6.742 13.357 9.006 9.006 0 0 0 -.742 3.643 7.012 7.012 0 0 0 6.063 6.938 7.01 7.01 0 0 0 6.937 6.062 11.007 11.007 0 0 0 10-6.444 11.007 11.007 0 0 0 10 6.444 7.012 7.012 0 0 0 6.938-6.062 7.012 7.012 0 0 0 6.062-6.938zm-7 5c-.021 0-.039.011-.06.012v-.012a2.831 2.831 0 0 1 -2.957-2.189 2.789 2.789 0 0 1 1.486-2.929l-.936-1.768a4.8 4.8 0 0 0 -2.514 5.071 4.75 4.75 0 0 0 3.888 3.747 5 5 0 0 1 -4.907 4.068 9.011 9.011 0 0 1 -9-9v-4h-2v4a9.011 9.011 0 0 1 -9 9 5 5 0 0 1 -4.906-4.066 4.748 4.748 0 0 0 3.888-3.747 4.8 4.8 0 0 0 -2.514-5.071l-.936 1.768a2.789 2.789 0 0 1 1.486 2.929 2.825 2.825 0 0 1 -2.957 2.187v.01c-.021 0-.039-.012-.06-.012a5.006 5.006 0 0 1 -5-5 7.6 7.6 0 0 1 .9-3.566.986.986 0 0 0 -.206-1.129l.012-.012a3.391 3.391 0 0 1 -.795-2.954 3.315 3.315 0 0 1 1.535-2.437l-.894-1.79a5.211 5.211 0 0 0 -2.616 3.914 6.253 6.253 0 0 0 -.072.889 14.873 14.873 0 0 1 -3.865-9.913 12.646 12.646 0 0 1 3.865-8.908 6.242 6.242 0 0 0 .072.889 5.211 5.211 0 0 0 2.616 3.919l.894-1.79a3.315 3.315 0 0 1 -1.535-2.444 3.391 3.391 0 0 1 .8-2.954l-.01-.01a.989.989 0 0 0 .229-1.073l-.127-.3a9.5 9.5 0 0 1 -.804-4.329 8.2 8.2 0 0 1 2.951-5.05 6.012 6.012 0 0 0 -.014 2.031 5.211 5.211 0 0 0 2.616 3.919 5.424 5.424 0 0 0 2.426.574 5.509 5.509 0 0 0 1.749-.286 5.433 5.433 0 0 0 3.172-2.741l-1.79-.894a3.475 3.475 0 0 1 -4.658 1.552 3.315 3.315 0 0 1 -1.535-2.444 3.391 3.391 0 0 1 .8-2.954l-.017-.007a.991.991 0 0 0 .269-.456c.671-2.657 3.299-4.244 7.031-4.244 3.484 0 7 1.855 7 6v7h2v-7c0-4.145 3.516-6 7-6 3.732 0 6.36 1.587 7.03 4.245a.991.991 0 0 0 .27.455l-.006.006a3.391 3.391 0 0 1 .8 2.954 3.315 3.315 0 0 1 -1.535 2.444 3.476 3.476 0 0 1 -4.659-1.551l-1.79.894a5.433 5.433 0 0 0 3.167 2.736 5.509 5.509 0 0 0 1.749.286 5.424 5.424 0 0 0 2.426-.574 5.211 5.211 0 0 0 2.616-3.914 6.012 6.012 0 0 0 -.014-2.031 8.2 8.2 0 0 1 2.946 5.05 9.506 9.506 0 0 1 -.8 4.324l-.127.3a.989.989 0 0 0 .227 1.076l-.01.01a3.391 3.391 0 0 1 .8 2.954 3.315 3.315 0 0 1 -1.535 2.444l.894 1.79a5.211 5.211 0 0 0 2.616-3.914 6.242 6.242 0 0 0 .072-.889 12.646 12.646 0 0 1 3.863 8.905 14.873 14.873 0 0 1 -3.865 9.908 6.253 6.253 0 0 0 -.072-.889 5.211 5.211 0 0 0 -2.616-3.919l-.894 1.79a3.315 3.315 0 0 1 1.535 2.444 3.391 3.391 0 0 1 -.8 2.954l.012.012a.986.986 0 0 0 -.206 1.129 7.6 7.6 0 0 1 .906 3.571 5.006 5.006 0 0 1 -5 5z"/><path d="m2 2h2v2h-2z"/><path d="m11 7h2v-4a1 1 0 0 0 -1-1h-6v2h5z"/><path d="m5 19h2v-8a1 1 0 0 0 -1-1h-4v2h3z"/><path d="m60 2h2v2h-2z"/><path d="m53 4h5v-2h-6a1 1 0 0 0 -1 1v4h2z"/><path d="m57 11v8h2v-7h3v-2h-4a1 1 0 0 0 -1 1z"/><path d="m2 60h2v2h-2z"/><path d="m11 60h-5v2h6a1 1 0 0 0 1-1v-4h-2z"/><path d="m7 53v-8h-2v7h-3v2h4a1 1 0 0 0 1-1z"/><path d="m60 60h2v2h-2z"/><path d="m53 57h-2v4a1 1 0 0 0 1 1h6v-2h-5z"/><path d="m59 45h-2v8a1 1 0 0 0 1 1h4v-2h-3z"/></g></svg>