<svg height="512" viewBox="0 0 64 64" width="512" xmlns="http://www.w3.org/2000/svg"><g id="exchange"><path d="m48.98 51.02.02-.02h1.03a.965.965 0 0 0 .97-.97v-6.03l7.35 3.23a5.57 5.57 0 0 1 2.65 4.77v9h-9a4 4 0 0 1 -4-4v-.83l-3.63-4.4a1.782 1.782 0 0 1 -.45-.77 1.954 1.954 0 0 1 .45-1.96 1.813 1.813 0 0 1 2.64 0z" fill="#ffdaaa"/><path d="m51 44v6.03a.965.965 0 0 1 -.97.97h-1.03l-.02.02-1.97-1.98a1.813 1.813 0 0 0 -2.64 0 1.954 1.954 0 0 0 -.45 1.96h-5.95a.965.965 0 0 1 -.97-.97v-26.06a.965.965 0 0 1 .97-.97h12.06a.965.965 0 0 1 .97.97z" fill="#ff7956"/><path d="m51 23.97v26.06a.965.965 0 0 1 -.97.97h-1.03l-.02.02-.28-.28a.965.965 0 0 0 .3-.71v-26.06a.965.965 0 0 0 -.97-.97h2a.965.965 0 0 1 .97.97z" fill="#ff6243"/><path d="m27 16v24.03a.965.965 0 0 1 -.97.97h-12.06a.965.965 0 0 1 -.97-.97v-26.06a.965.965 0 0 1 .97-.97h1.03l.02-.02 1.97 1.98a1.813 1.813 0 0 0 2.64 0 1.954 1.954 0 0 0 .45-1.96h5.95a.965.965 0 0 1 .97.97z" fill="#00b6bd"/><path d="m27 13.97v26.06a.965.965 0 0 1 -.97.97h-2a.965.965 0 0 0 .97-.97v-26.06a.965.965 0 0 0 -.97-.97h2a.965.965 0 0 1 .97.97z" fill="#009698"/><path d="m15.02 12.98-.02.02h-1.03a.965.965 0 0 0 -.97.97v6.03l-7.35-3.23a5.57 5.57 0 0 1 -2.65-4.77v-9h9a4 4 0 0 1 4 4v.83l3.63 4.4a1.782 1.782 0 0 1 .45.77 1.954 1.954 0 0 1 -.45 1.96 1.813 1.813 0 0 1 -2.64 0z" fill="#ffdaaa"/><path d="m58.887 46.391a.86.86 0 0 0 -.137-.074l-6.75-2.97v-19.377a1.973 1.973 0 0 0 -1.97-1.97h-12.06a1.973 1.973 0 0 0 -1.97 1.97v26.06a1.973 1.973 0 0 0 1.97 1.97h5.309a2.626 2.626 0 0 0 .319.406l3.402 4.126v.468a5.006 5.006 0 0 0 5 5h9a1 1 0 0 0 1-1v-9a6.571 6.571 0 0 0 -3.113-5.609zm-20.917-22.391 12.03-.03v20.03l.03 6h-.655l-1.646-1.658a2.9 2.9 0 0 0 -4.08 0 2.958 2.958 0 0 0 -.79 1.663l-4.859.025zm22.03 36h-8a3 3 0 0 1 -3-3v-.828a1 1 0 0 0 -.229-.636l-3.683-4.461a.987.987 0 0 1 0-1.343.829.829 0 0 1 1.213.01l6.123 6.17 1.42-1.41-2.781-2.8a1.966 1.966 0 0 0 .937-1.672v-4.5l5.871 2.583a4.54 4.54 0 0 1 2.129 3.887z"/><path d="m56.707 48.292-1.414 1.416.925.923a2.658 2.658 0 0 1 .782 1.89v1.479h2v-1.479a4.64 4.64 0 0 0 -1.368-3.3z"/><path d="m12 40.03a1.973 1.973 0 0 0 1.97 1.97h12.06a1.973 1.973 0 0 0 1.97-1.97v-26.06a1.973 1.973 0 0 0 -1.97-1.97h-5.309a2.626 2.626 0 0 0 -.319-.406l-3.402-4.126v-.468a5.006 5.006 0 0 0 -5-5h-9a1 1 0 0 0 -1 1v9a6.571 6.571 0 0 0 3.113 5.609.86.86 0 0 0 .137.074l6.75 2.97zm14.03-.03-12.03.03v-20.03l-.03-6h.655l1.646 1.658a2.893 2.893 0 0 0 4.08 0 2.958 2.958 0 0 0 .79-1.658l4.859-.03zm-19.901-24.115a4.54 4.54 0 0 1 -2.129-3.885v-8h8a3 3 0 0 1 3 3v.828a1 1 0 0 0 .229.636l3.683 4.461a.987.987 0 0 1 0 1.343.829.829 0 0 1 -1.213-.01l-6.123-6.17-1.42 1.412 2.781 2.8a1.966 1.966 0 0 0 -.937 1.67v4.5z"/><path d="m54 25h2v2h-2z"/><path d="m54 15h2v8h-2z"/><path d="m50 18h2v2h-2z"/><path d="m50 8h2v8h-2z"/><path d="m12 44h2v2h-2z"/><path d="m12 48h2v8h-2z"/><path d="m8 37h2v2h-2z"/><path d="m8 41h2v8h-2z"/><path d="m7 11.479v-1.479h-2v1.479a4.64 4.64 0 0 0 1.368 3.3l.925.925 1.414-1.416-.925-.923a2.658 2.658 0 0 1 -.782-1.886z"/><path d="m21 22h-2v1a2 2 0 0 0 -2 2v2a2 2 0 0 0 2 2h2v2h-4v2h2v1h2v-1a2 2 0 0 0 2-2v-2a2 2 0 0 0 -2-2h-2v-2h4v-2h-2z"/><path d="m30 15h2v2h-2z"/><path d="m43 20h2v-4a1 1 0 0 0 -1-1h-10v2h9z"/><path d="m32 47h2v2h-2z"/><path d="m21 44h-2v4a1 1 0 0 0 1 1h10v-2h-9z"/><path d="m44 31a2 2 0 0 1 0 4 1 1 0 0 0 -1 1v4h2v-3.126a4 4 0 1 0 -5-3.874h2a2 2 0 0 1 2-2z"/><path d="m43 42h2v2h-2z"/></g></svg>