<svg height="512" viewBox="0 0 64 64" width="512" xmlns="http://www.w3.org/2000/svg"><g id="brainstorm"><g fill="#c0ab91"><path d="m57 36v1a1 1 0 0 1 -1 1h-2v-3h2a1 1 0 0 1 1 1z"/><path d="m42 35v3h-2a1 1 0 0 1 -1-1v-1a1 1 0 0 1 1-1z"/><path d="m25 36v1a1 1 0 0 1 -1 1h-2v-3h2a1 1 0 0 1 1 1z"/><path d="m10 35v3h-2a1 1 0 0 1 -1-1v-1a1 1 0 0 1 1-1z"/></g><path d="m62 32a4 4 0 0 1 -.55 2 3.992 3.992 0 1 1 -6.91 4h1.46a1 1 0 0 0 1-1v-1a1 1 0 0 0 -1-1h-2v-3l-1.86-.46a.01.01 0 0 0 -.01-.01l-6.13-1.53-.82.41a.01.01 0 0 0 -.01.01l-3.17 1.58v3h-2a1 1 0 0 0 -1 1v1a1 1 0 0 0 1 1h1.46a3.992 3.992 0 1 1 -6.91-4 3.981 3.981 0 0 1 3.45-6 4 4 0 0 1 4-4 3.932 3.932 0 0 1 2.24.69 3.973 3.973 0 0 1 7.52 0 3.932 3.932 0 0 1 2.24-.69 4 4 0 0 1 4 4 4 4 0 0 1 4 4z" fill="#e0e0e2"/><path d="m61 51v10h-26v-10a6 6 0 0 1 6-6h14a6 6 0 0 1 6 6z" fill="#00d7df"/><path d="m54 35v3a6 6 0 0 1 -12 0v-6l3.17-1.58a.01.01 0 0 1 .01-.01l.82-.41 6.13 1.53a.01.01 0 0 1 .01.01l1.86.46z" fill="#ffdaaa"/><path d="m52 45-1.24 8h-5.52l-1.24-8z" fill="#ffde55"/><path d="m38 11-6 12v-8h-6l6-12v8z" fill="#ffde55"/><path d="m38 11-6 12v-4l4-8z" fill="#ffcd00"/><path d="m29 51v10h-26v-10a6 6 0 0 1 6-6h14a6 6 0 0 1 6 6z" fill="#57a4ff"/><path d="m61 51v10h-2v-10a6 6 0 0 0 -6-6h2a6 6 0 0 1 6 6z" fill="#00b6bd"/><path d="m29 51v10h-2v-10a6 6 0 0 0 -6-6h2a6 6 0 0 1 6 6z" fill="#2488ff"/><path d="m25 31v1l-3 3v-3l-8-2-4 2v3l-3-3v-1a6 6 0 0 1 6-6h6a6 6 0 0 1 6 6z" fill="#57a4ff"/><path d="m61.45 34a3.981 3.981 0 0 1 -3.45 6 3.73 3.73 0 0 1 -1.01-.13 3.972 3.972 0 0 0 2.46-5.87 3.981 3.981 0 0 0 -3.45-6 3.992 3.992 0 0 0 -3.01-3.87 3.73 3.73 0 0 1 1.01-.13 4 4 0 0 1 4 4 3.981 3.981 0 0 1 3.45 6z" fill="#c6c5ca"/><path d="m25 31v1l-3 3v-2l1-1v-1a6 6 0 0 0 -6-6h2a6 6 0 0 1 6 6z" fill="#2488ff"/><path d="m22 35v3a6 6 0 0 1 -12 0v-6l4-2 8 2z" fill="#ffdaaa"/><path d="m54 32v6a6 6 0 0 1 -6 6 5.47 5.47 0 0 1 -1-.09 5.99 5.99 0 0 0 5-5.91v-6l-1.86-.46a.01.01 0 0 0 -.01-.01l-4.8-1.2.67-.33 6.13 1.53a.01.01 0 0 1 .01.01z" fill="#ffc477"/><path d="m22 32v6a6 6 0 0 1 -6 6 5.47 5.47 0 0 1 -1-.09 5.99 5.99 0 0 0 5-5.91v-6l-6.67-1.67.67-.33z" fill="#ffc477"/><path d="m20 45-1.24 8h-5.52l-1.24-8z" fill="#ffde55"/><path d="m52 45-1.24 8h-2l1.24-8z" fill="#ffcd00"/><path d="m20 45-1.24 8h-2l1.24-8z" fill="#ffcd00"/><path d="m23 44h-3.413a7.005 7.005 0 0 0 3.333-5h1.08a2 2 0 0 0 2-2v-1a2 2 0 0 0 -1.624-1.962l1.331-1.331a1 1 0 0 0 .293-.707v-1a7.009 7.009 0 0 0 -7-7h-6a7.009 7.009 0 0 0 -7 7v1a1 1 0 0 0 .293.707l1.331 1.331a2 2 0 0 0 -1.624 1.962v1a2 2 0 0 0 2 2h1.08a7.005 7.005 0 0 0 3.333 5h-3.413a7.009 7.009 0 0 0 -7 7v10a1 1 0 0 0 1 1h26a1 1 0 0 0 1-1v-10a7.009 7.009 0 0 0 -7-7zm1-7h-1v-1h1zm-16-6a5.006 5.006 0 0 1 5-5h6a5.006 5.006 0 0 1 5 5v.586l-1 1v-.586a1 1 0 0 0 -.758-.97l-8-2a.991.991 0 0 0 -.689.075l-4 2a1 1 0 0 0 -.553.895v.586l-1-1zm0 5h1v1h-1zm3 2v-5.382l3.116-1.558 6.884 1.721v5.219a5 5 0 0 1 -10 0zm7.833 8-.933 6h-3.8l-.931-6zm9.167 14h-24v-9a5.006 5.006 0 0 1 5-5h2.143l1.11 7.153a1 1 0 0 0 .988.847h5.518a1 1 0 0 0 .988-.847l1.11-7.153h2.143a5.006 5.006 0 0 1 5 5z"/><path d="m54.759 39.791a4.986 4.986 0 0 0 8.241-3.791 4.946 4.946 0 0 0 -.43-2 4.946 4.946 0 0 0 .43-2 5.009 5.009 0 0 0 -4.084-4.916 5.009 5.009 0 0 0 -4.916-4.084 4.949 4.949 0 0 0 -1.791.331 4.966 4.966 0 0 0 -8.418 0 4.949 4.949 0 0 0 -1.791-.331 5.009 5.009 0 0 0 -4.916 4.084 5.009 5.009 0 0 0 -4.084 4.916 4.946 4.946 0 0 0 .43 2 4.946 4.946 0 0 0 -.43 2 4.986 4.986 0 0 0 8.241 3.791 7.019 7.019 0 0 0 3.172 4.209h-3.413a7.009 7.009 0 0 0 -7 7v10a1 1 0 0 0 1 1h26a1 1 0 0 0 1-1v-10a7.009 7.009 0 0 0 -7-7h-3.413a7.019 7.019 0 0 0 3.172-4.209zm5.241 11.209v9h-24v-9a5.006 5.006 0 0 1 5-5h2.143l1.11 7.153a1 1 0 0 0 .988.847h5.518a1 1 0 0 0 .988-.847l1.11-7.153h2.143a5.006 5.006 0 0 1 5 5zm-14.833-5h5.666l-.933 6h-3.8zm9.833-10h1v1h-1zm-20 0a2.982 2.982 0 0 1 .416-1.5 1 1 0 0 0 0-1 2.982 2.982 0 0 1 2.584-4.5 1 1 0 0 0 1-1 3 3 0 0 1 3-3 2.937 2.937 0 0 1 1.674.515 1 1 0 0 0 1.512-.5 2.971 2.971 0 0 1 5.628 0 1 1 0 0 0 1.512.5 2.937 2.937 0 0 1 1.674-.515 3 3 0 0 1 3 3 1 1 0 0 0 1 1 2.982 2.982 0 0 1 2.584 4.5 1 1 0 0 0 0 1 2.958 2.958 0 0 1 -3.67 4.27 2 2 0 0 0 1.086-1.77v-1a2 2 0 0 0 -2-2h-1v-2a1 1 0 0 0 -.758-.97l-8-2a.991.991 0 0 0 -.689.075l-4 2a1 1 0 0 0 -.553.895v2h-1a2 2 0 0 0 -2 2v1a2 2 0 0 0 1.086 1.769 2.967 2.967 0 0 1 -1.086.231 3 3 0 0 1 -3-3zm6 1h-1v-1h1zm2 1v-5.382l3.116-1.558 6.884 1.721v5.219a5 5 0 0 1 -10 0z"/><path d="m38.851 10.475a1 1 0 0 0 -.851-.475h-5v-7a1 1 0 0 0 -1.895-.447l-6 12a1 1 0 0 0 .895 1.447h5v7a1 1 0 0 0 .771.974 1.051 1.051 0 0 0 .229.026 1 1 0 0 0 .9-.553l6-12a1 1 0 0 0 -.049-.972zm-5.851 8.289v-3.764a1 1 0 0 0 -1-1h-4.382l3.382-6.764v3.764a1 1 0 0 0 1 1h4.382z"/><path d="m47 19h2v-8a1 1 0 0 0 -1-1h-5v2h4z"/><path d="m17 12h4v-2h-5a1 1 0 0 0 -1 1v8h2z"/><path d="m37 8h2v-2h2v-2h-2v-2h-2v2h-2v2h2z"/></g></svg>