<svg height="512" viewBox="0 0 64 64" width="512" xmlns="http://www.w3.org/2000/svg"><g id="home"><path d="m61 31-3.05 6.1v.01c-.09.02-1.91.79-4.46 1.89h-23.99l-7.5-4-9 4a2.015 2.015 0 0 0 -2-2 2.006 2.006 0 0 0 -2 2h-2l-4-8z" fill="#ff7956"/><path d="m36.41 46.41c.63-.27 10.96-4.77 17.08-7.41 2.55-1.1 4.37-1.87 4.46-1.89v-.01a2.587 2.587 0 0 1 3.05 2.54v.01a2.582 2.582 0 0 1 -1.12 2.12l-27.88 19.23-19-8v-14l9-4 7.5 4 7.5 4v2a1.955 1.955 0 0 1 -.59 1.41z" fill="#ffdaaa"/><path d="m61 39.64v.01a2.582 2.582 0 0 1 -1.12 2.12l-27.88 19.23-1.24-.52 27.12-18.71a2.582 2.582 0 0 0 1.12-2.12v-.01a2.534 2.534 0 0 0 -1.51-2.34c.27-.12.43-.18.46-.19v-.01a2.587 2.587 0 0 1 3.05 2.54z" fill="#ffc477"/><path d="m61 31-3.05 6.1v.01c-.09.02-1.91.79-4.46 1.89h-2c2.55-1.1 4.37-1.87 4.46-1.89v-.01l3.05-6.1z" fill="#ff6243"/><path d="m52 15h-6-28-6l20-12z" fill="#00b6bd"/><path d="m18 15h28v16h-28z" fill="#57a4ff"/><path d="m44 15h2v16h-2z" fill="#2488ff"/><path d="m36 25v6h-8v-6a4 4 0 1 1 8 0z" fill="#ffeb99"/><path d="m13 39v14a2.006 2.006 0 0 1 -2 2 2.015 2.015 0 0 1 -2-2v-14a2.006 2.006 0 0 1 2-2 2.015 2.015 0 0 1 2 2z" fill="#57a4ff"/><path d="m9 39v14l-6 6v-20h4z" fill="#ffdaaa"/><path d="m60.718 36.9a3.648 3.648 0 0 0 -1.22-.655l2.4-4.794a1 1 0 0 0 -.898-1.451h-14v-14h5a1 1 0 0 0 .515-1.857l-20-12a1 1 0 0 0 -1.03 0l-20 12a1 1 0 0 0 .515 1.857h5v14h-14a1 1 0 0 0 -.895 1.447l3.277 6.553h-2.382a1 1 0 0 0 -1 1v20a1 1 0 0 0 .617.924.987.987 0 0 0 .383.076 1 1 0 0 0 .707-.293l4.908-4.907a2.972 2.972 0 0 0 5.043-.437l17.954 7.56a.985.985 0 0 0 .388.077 1 1 0 0 0 .567-.177l27.878-19.223a3.582 3.582 0 0 0 .273-5.7zm-28.718-32.734 16.39 9.834h-32.78zm-13 11.834h26v14h-8v-5a5 5 0 0 0 -10 0v5h-8zm16 14h-6v-5a3 3 0 0 1 6 0zm-30.382 2h54.764l-2.167 4.334c-.545.221-1.648.687-3.925 1.666h-23.539l-7.28-3.883a1 1 0 0 0 -.877-.031l-7.947 3.532a2.979 2.979 0 0 0 -5.463.382h-.566zm32.853 10.117-3.971-2.117h15.16c-2.677 1.16-6.152 2.669-10.66 4.633v-1.633a1 1 0 0 0 -.529-.883zm-33.471-2.117h4v12.586l-4 4zm8 13a1 1 0 0 1 -2 0v-14a1 1 0 0 1 2 0zm47.312-12.054-27.429 18.92-17.883-7.53v-12.686l7.96-3.538 14.04 7.488v1.4a1 1 0 0 1 -1 1h-13v2h13a2.97 2.97 0 0 0 1.921-.715c8.214-3.579 20.515-8.92 21.32-9.218a1.576 1.576 0 0 1 1.2.367 1.544 1.544 0 0 1 .559 1.216 1.592 1.592 0 0 1 -.688 1.296z"/></g></svg>