<svg height="512" viewBox="0 0 64 64" width="512" xmlns="http://www.w3.org/2000/svg"><g id="mobile_banking" data-name="mobile banking"><rect fill="#57a4ff" height="34" rx="2" width="58" x="3" y="27"/><path d="m61 33v22h-2a2.006 2.006 0 0 1 -2-2v-18a2.006 2.006 0 0 1 2-2z" fill="#ffde55"/><path d="m53 43v4h-42v-4h2 12 14 12z" fill="#c6c5ca"/><path d="m52.95 17h-41.9l20.95-14zm-17.95-6a2.006 2.006 0 0 0 -2-2h-2a2.015 2.015 0 0 0 -2 2 2.006 2.006 0 0 0 2 2h2a2.015 2.015 0 0 0 2-2z" fill="#00b6bd"/><path d="m51 39v4h-12v-4h3 6z" fill="#c0ab91"/><path d="m51 17v4h-3-6-3v-4z" fill="#c0ab91"/><path d="m48 27v12h-6v-18h6z" fill="#c6c5ca"/><path d="m51 43h2v4h-2z" fill="#acabb1"/><path d="m49 39h2v4h-2z" fill="#b39a7c"/><path d="m49 17h2v4h-2z" fill="#b39a7c"/><path d="m46 21h2v18h-2z" fill="#acabb1"/><path d="m42 21v18h-3v4h-14v-4h-3v-18h3v-4h14v4z" fill="#ffeb99"/><path d="m33 9a2.006 2.006 0 0 1 2 2 2.015 2.015 0 0 1 -2 2h-2a2.006 2.006 0 0 1 -2-2 2.015 2.015 0 0 1 2-2z" fill="#ffeb99"/><path d="m25 39v4h-12v-4h3 6z" fill="#c0ab91"/><path d="m25 17v4h-3-6-3v-4z" fill="#c0ab91"/><path d="m22 21v18h-6v-12-6z" fill="#c6c5ca"/><path d="m59 26h-10v-4h2a1 1 0 0 0 1-1v-3h.952a1 1 0 0 0 .556-1.832l-20.952-14a1 1 0 0 0 -1.112 0l-20.952 14a1 1 0 0 0 .556 1.832h.952v3a1 1 0 0 0 1 1h2v4h-10a3 3 0 0 0 -3 3v30a3 3 0 0 0 3 3h54a3 3 0 0 0 3-3v-30a3 3 0 0 0 -3-3zm-35 14v2h-10v-2zm1-18a1 1 0 0 0 1-1v-3h12v3a1 1 0 0 0 1 1h2v16h-2a1 1 0 0 0 -1 1v3h-12v-3a1 1 0 0 0 -1-1h-2v-16zm27 22v2h-40v-2zm-2-2h-10v-2h10zm-3-4h-4v-16h4zm3-18h-10v-2h10zm-18-15.8 17.655 11.8h-35.31zm-18 13.8h10v2h-10zm7 4v16h-4v-16zm38 38h-54a1 1 0 0 1 -1-1v-30a1 1 0 0 1 1-1h10v10h-2a1 1 0 0 0 -1 1v3h-1a1 1 0 0 0 -1 1v4a1 1 0 0 0 1 1h42a1 1 0 0 0 1-1v-4a1 1 0 0 0 -1-1h-1v-3a1 1 0 0 0 -1-1h-2v-10h10a1 1 0 0 1 1 1v3h-1a3 3 0 0 0 -3 3v18a3 3 0 0 0 3 3h1v3a1 1 0 0 1 -1 1zm1-26v20h-1a1 1 0 0 1 -1-1v-18a1 1 0 0 1 1-1z"/><path d="m33 8h-2a3 3 0 0 0 0 6h2a3 3 0 0 0 0-6zm0 4h-2a1 1 0 0 1 0-2h2a1 1 0 0 1 0 2z"/><path d="m31 37h2v-2a2 2 0 0 0 2-2v-2a2 2 0 0 0 -2-2h-2v-2h4v-2h-2v-2h-2v2a2 2 0 0 0 -2 2v2a2 2 0 0 0 2 2h2v2h-4v2h2z"/><path d="m10 50h16v2h-16z"/><path d="m28 50h26v2h-26z"/><path d="m10 54h34v2h-34z"/><path d="m46 54h8v2h-8z"/></g></svg>