<svg height="512" viewBox="0 0 64 64" width="512" xmlns="http://www.w3.org/2000/svg"><g id="cloud_system" data-name="cloud system"><path d="m60.88 58-.46 1.56a2 2 0 0 1 -1.92 1.44h-35a2 2 0 0 1 -1.92-1.44l-.46-1.56h16.88v1h6v-1z" fill="#ffdaaa"/><path d="m60.88 58-.46 1.56a2 2 0 0 1 -1.92 1.44h-2a2 2 0 0 0 1.92-1.44l.46-1.56z" fill="#ffc477"/><rect fill="#57a4ff" height="22" rx="2" width="36" x="23" y="33"/><path d="m59 35v18a2.006 2.006 0 0 1 -2 2h-2a2.006 2.006 0 0 0 2-2v-18a2.006 2.006 0 0 0 -2-2h2a2.006 2.006 0 0 1 2 2z" fill="#2488ff"/><path d="m30 14a3 3 0 0 1 0 6h-24a3 3 0 0 1 0-6h1.26a7 7 0 1 1 12.68-4.9 4.993 4.993 0 0 1 8.64 4.9z" fill="#e0e0e2"/><path d="m19.58 7.63a5.027 5.027 0 0 0 -1.64 1.47 6.98 6.98 0 0 0 -5.93-6.02 5.365 5.365 0 0 1 .99-.08 6.994 6.994 0 0 1 6.58 4.63z" fill="#c6c5ca"/><path d="m33 17a3 3 0 0 1 -3 3h-2a3 3 0 0 0 0-6h-1.42a4.941 4.941 0 0 0 .42-2 5.009 5.009 0 0 0 -3.97-4.9 4.435 4.435 0 0 1 .97-.1 5 5 0 0 1 5 5 4.941 4.941 0 0 1 -.42 2h1.42a3 3 0 0 1 3 3z" fill="#c6c5ca"/><path d="m34 17a4 4 0 0 0 -4-4h-.084a5.989 5.989 0 0 0 -9.443-5.842 8 8 0 1 0 -14.88 5.863 4 4 0 0 0 .407 7.979h24a4 4 0 0 0 4-4zm-30 0a2 2 0 0 1 2-2h1.26a1 1 0 0 0 .82-1.573 6 6 0 1 1 10.865-4.2 1 1 0 0 0 1.8.455 3.992 3.992 0 0 1 6.917 3.918 1 1 0 0 0 .916 1.4h1.422a2 2 0 0 1 0 4h-24a2 2 0 0 1 -2-2z"/><path d="m7 23h2v2h-2z"/><path d="m17 14h2v2h-2z"/><path d="m21 14h2v2h-2z"/><path d="m13 14h2v2h-2z"/><path d="m61.675 57.4a1 1 0 0 0 -.8-.4h-16.875a1 1 0 0 0 -1 1h-4a1 1 0 0 0 -1-1h-16.875a1 1 0 0 0 -.96 1.28l.455 1.56a3.015 3.015 0 0 0 2.88 2.16h35a3.015 3.015 0 0 0 2.88-2.16l.455-1.56a1 1 0 0 0 -.16-.88zm-38.175 2.6a1.006 1.006 0 0 1 -.96-.72l-.082-.28h14.542a1 1 0 0 0 1 1zm35.96-.72a1.006 1.006 0 0 1 -.96.72h-14.5a1 1 0 0 0 1-1h14.542z"/><path d="m22 35v18a3 3 0 0 0 3 3h32a3 3 0 0 0 3-3v-18a3 3 0 0 0 -3-3h-32a3 3 0 0 0 -3 3zm36 0v18a1 1 0 0 1 -1 1h-32a1 1 0 0 1 -1-1v-18a1 1 0 0 1 1-1h32a1 1 0 0 1 1 1z"/><path d="m36 15h2v2h-2z"/><path d="m52 30h2v-14a1 1 0 0 0 -1-1h-13v2h12z"/><path d="m9 27h-2v19a1 1 0 0 0 1 1h12v-2h-11z"/><path d="m40 43h2v2h-2z"/><path d="m36 43h2v2h-2z"/><path d="m44 43h2v2h-2z"/></g></svg>