<svg height="512" viewBox="0 0 64 64" width="512" xmlns="http://www.w3.org/2000/svg"><g id="code"><path d="m5 9h54a2 2 0 0 1 2 2v34a0 0 0 0 1 0 0h-58a0 0 0 0 1 0 0v-34a2 2 0 0 1 2-2z" fill="#57a4ff"/><path d="m5 9h54a2 2 0 0 1 2 2v34a0 0 0 0 1 0 0h-58a0 0 0 0 1 0 0v-34a2 2 0 0 1 2-2z" fill="#57a4ff"/><path d="m17 3h30v30h-30z" fill="#ffdaaa"/><path d="m45 3h2v30h-2z" fill="#ffc477"/><path d="m61 11v34h-2v-34a2.006 2.006 0 0 0 -2-2h2a2.006 2.006 0 0 1 2 2z" fill="#2488ff"/><path d="m41 57 3 4h-24l3-4h2 14z" fill="#e0e0e2"/><path d="m41 32v6c0 1.66-4.03 3-9 3s-9-1.34-9-3v-6c0 1.66 4.03 3 9 3s9-1.34 9-3z" fill="#e0e0e2"/><path d="m41 26v6c0 1.66-4.03 3-9 3s-9-1.34-9-3v-6c0 1.66 4.03 3 9 3s9-1.34 9-3z" fill="#d8d7da"/><path d="m41 20v6c0 1.66-4.03 3-9 3s-9-1.34-9-3v-6c0 1.66 4.03 3 9 3s9-1.34 9-3z" fill="#c6c5ca"/><path d="m38 51 1 6h-14l1-6h5z" fill="#ffdaaa"/><path d="m39 57h-2l-1-6h2z" fill="#ffc477"/><ellipse cx="32" cy="20" fill="#898890" rx="9" ry="3"/><path d="m41 32v6c0 1.66-4.03 3-9 3-.34 0-.67-.01-1-.02 4.5-.16 8-1.43 8-2.98v-4.12c1.25-.51 2-1.17 2-1.88z" fill="#d8d7da"/><path d="m41 26v6c0 1.66-4.03 3-9 3-.34 0-.67-.01-1-.02 4.5-.16 8-1.43 8-2.98v-4.12c1.25-.51 2-1.17 2-1.88z" fill="#c6c5ca"/><path d="m41 20v6c0 1.66-4.03 3-9 3-.34 0-.67-.01-1-.02 4.5-.16 8-1.43 8-2.98v-4.12c1.25-.51 2-1.17 2-1.88z" fill="#acabb1"/><path d="m41 20c0 1.66-4.03 3-9 3-.34 0-.67-.01-1-.02 4.5-.16 8-1.43 8-2.98s-3.5-2.82-8-2.98c.33-.01.66-.02 1-.02 4.97 0 9 1.34 9 3z" fill="#787680"/><path d="m31 45h-28v4a2.006 2.006 0 0 0 2 2h54a2.006 2.006 0 0 0 2-2v-4z" fill="#e0e0e2"/><path d="m44 61h-2l-3-4h2z" fill="#c6c5ca"/><path d="m61 45v4a2.006 2.006 0 0 1 -2 2h-2a2.006 2.006 0 0 0 2-2v-4z" fill="#c6c5ca"/><path d="m31 47h2v2h-2z"/><path d="m59 8h-11v-5a1 1 0 0 0 -1-1h-30a1 1 0 0 0 -1 1v5h-11a3 3 0 0 0 -3 3v38a3 3 0 0 0 3 3h19.82l-.667 4h-1.153a1 1 0 0 0 -.8.4l-3 4a1 1 0 0 0 .8 1.6h24a1 1 0 0 0 .8-1.6l-3-4a1 1 0 0 0 -.8-.4h-1.153l-.667-4h19.82a3 3 0 0 0 3-3v-38a3 3 0 0 0 -3-3zm-41-4h28v28h-4v-12c0-2.748-5.184-4-10-4s-10 1.252-10 4v12h-4zm6 24.524a19.008 19.008 0 0 0 8 1.476 19.008 19.008 0 0 0 8-1.476v3.476c0 .514-2.751 2-8 2s-8-1.486-8-2zm0-6a19.008 19.008 0 0 0 8 1.476 19.008 19.008 0 0 0 8-1.476v3.476c0 .514-2.751 2-8 2s-8-1.486-8-2zm0-2.524c0-.514 2.751-2 8-2s8 1.486 8 2-2.751 2-8 2-8-1.486-8-2zm0 14.524a19.008 19.008 0 0 0 8 1.476 19.008 19.008 0 0 0 8-1.476v3.476c0 .514-2.751 2-8 2s-8-1.486-8-2zm-19-24.524h11v23a1 1 0 0 0 1 1h5v4c0 2.748 5.184 4 10 4s10-1.252 10-4v-4h5a1 1 0 0 0 1-1v-23h11a1 1 0 0 1 1 1v33h-56v-33a1 1 0 0 1 1-1zm37 50h-20l1.5-2h17zm-4.18-4h-11.64l.667-4h10.306zm21.18-6h-54a1 1 0 0 1 -1-1v-3h56v3a1 1 0 0 1 -1 1z"/><path d="m12 41v-13h2v-2h-3a1 1 0 0 0 -1 1v13h-4v2h5a1 1 0 0 0 1-1z"/><path d="m52 41a1 1 0 0 0 1 1h5v-2h-4v-13a1 1 0 0 0 -1-1h-3v2h2z"/><path d="m31 25h2v2h-2z"/><path d="m31 31h2v2h-2z"/><path d="m31 37h2v2h-2z"/><path d="m20 6h2v2h-2z"/><path d="m24 6h2v2h-2z"/><path d="m28 6h2v2h-2z"/><path d="m20 10h4v2h-4z"/><path d="m26 10h8v2h-8z"/><path d="m36 10h8v2h-8z"/><path d="m6 22h2v2h-2z"/><path d="m10 22h4v2h-4z"/><path d="m6 18h2v2h-2z"/><path d="m10 18h4v2h-4z"/><path d="m56 22h2v2h-2z"/><path d="m50 22h4v2h-4z"/><path d="m56 18h2v2h-2z"/><path d="m50 18h4v2h-4z"/><path d="m55 15v-1h3v-2h-4a1 1 0 0 0 -1 1v1h-3v2h4a1 1 0 0 0 1-1z"/><path d="m9 15a1 1 0 0 0 1 1h4v-2h-3v-1a1 1 0 0 0 -1-1h-4v2h3z"/><path d="m22 16h2v-2h-3a1 1 0 0 0 -1 1v3h2z"/><path d="m43 14h-3v2h2v2h2v-3a1 1 0 0 0 -1-1z"/></g></svg>