<svg height="512" viewBox="0 0 64 64" width="512" xmlns="http://www.w3.org/2000/svg"><g id="mobile_credit" data-name="mobile credit"><rect fill="#57a4ff" height="58" rx="2" width="34" x="3" y="3"/><path d="m37 5v54a2.006 2.006 0 0 1 -2 2h-2a2.006 2.006 0 0 0 2-2v-54a2.006 2.006 0 0 0 -2-2h2a2.006 2.006 0 0 1 2 2z" fill="#2488ff"/><path d="m56 15v21a2.006 2.006 0 0 1 -2 2h-36v-25h36a2.006 2.006 0 0 1 2 2z" fill="#c6c5ca"/><path d="m56 15v21a2.006 2.006 0 0 1 -2 2h-2a2.006 2.006 0 0 0 2-2v-21a2.006 2.006 0 0 0 -2-2h2a2.006 2.006 0 0 1 2 2z" fill="#acabb1"/><path d="m44 21h8v4h-8z" fill="#ffeb99"/><path d="m33 21h8v4h-8z" fill="#ffeb99"/><path d="m33 55v-6h-6v6zm-10 0v-6h-6v6zm-10 0v-6h-6v6z" fill="#57a4ff"/><path d="m27 49h6v6h-6z" fill="#00b6bd"/><g fill="#ffeb99"><path d="m29 29a3 3 0 0 1 0 6 2.965 2.965 0 0 1 -2-.77 2.986 2.986 0 0 0 0-4.46 2.965 2.965 0 0 1 2-.77z"/><path d="m31 3v2a2.006 2.006 0 0 1 -2 2h-18a2.006 2.006 0 0 1 -2-2v-2z"/><path d="m22 21h8v4h-8z"/></g><path d="m27 29.77a3 3 0 0 1 -2 5.23 3 3 0 0 1 0-6 2.965 2.965 0 0 1 2 .77z" fill="#ff7956"/><path d="m17 49h6v6h-6z" fill="#00b6bd"/><path d="m7 49h6v6h-6z" fill="#00b6bd"/><path d="m54 12h-16v-7a3 3 0 0 0 -3-3h-30a3 3 0 0 0 -3 3v54a3 3 0 0 0 3 3h30a3 3 0 0 0 3-3v-20h16a3 3 0 0 0 3-3v-21a3 3 0 0 0 -3-3zm-44-8h20v1a1 1 0 0 1 -1 1h-18a1 1 0 0 1 -1-1zm26 55a1 1 0 0 1 -1 1h-30a1 1 0 0 1 -1-1v-54a1 1 0 0 1 1-1h3v1a3 3 0 0 0 3 3h18a3 3 0 0 0 3-3v-1h3a1 1 0 0 1 1 1v7h-17v-2h-2v32h2v-3h17zm19-23a1 1 0 0 1 -1 1h-35v-23h35a1 1 0 0 1 1 1z"/><path d="m47 33h2v2h-2z"/><path d="m51 33h2v2h-2z"/><path d="m47 30h6v2h-6z"/><path d="m39 33h2v2h-2z"/><path d="m43 33h2v2h-2z"/><path d="m39 30h6v2h-6z"/><path d="m43 16h4v2h-4z"/><path d="m49 16h4v2h-4z"/><path d="m49 4h2v2h-2z"/><path d="m51 2h2v2h-2z"/><path d="m51 6h2v2h-2z"/><path d="m53 4h2v2h-2z"/><path d="m56 9h2v2h-2z"/><path d="m58 7h2v2h-2z"/><path d="m58 11h2v2h-2z"/><path d="m60 9h2v2h-2z"/><path d="m21 16h10v2h-10z"/><path d="m22 26h8a1 1 0 0 0 1-1v-4a1 1 0 0 0 -1-1h-8a1 1 0 0 0 -1 1v4a1 1 0 0 0 1 1zm1-4h6v2h-6z"/><path d="m42 25v-4a1 1 0 0 0 -1-1h-8a1 1 0 0 0 -1 1v4a1 1 0 0 0 1 1h8a1 1 0 0 0 1-1zm-2-1h-6v-2h6z"/><path d="m52 20h-8a1 1 0 0 0 -1 1v4a1 1 0 0 0 1 1h8a1 1 0 0 0 1-1v-4a1 1 0 0 0 -1-1zm-1 4h-6v-2h6z"/><path d="m29 28a3.967 3.967 0 0 0 -2.009.551 3.957 3.957 0 0 0 -1.991-.551 4 4 0 0 0 0 8 3.957 3.957 0 0 0 1.991-.551 4 4 0 1 0 2.009-7.449zm-6 4a2 2 0 1 1 2 2 2 2 0 0 1 -2-2zm6 2a1.98 1.98 0 0 1 -.515-.076 3.851 3.851 0 0 0 0-3.848 1.98 1.98 0 0 1 .515-.076 2 2 0 0 1 0 4z"/><path d="m40 51h2v2h-2z"/><path d="m49 51h-5v2h6a1 1 0 0 0 1-1v-8h-2z"/><path d="m49 41h2v2h-2z"/><path d="m17 48a1 1 0 0 0 -1 1v6a1 1 0 0 0 1 1h6a1 1 0 0 0 1-1v-6a1 1 0 0 0 -1-1zm5 6h-4v-4h4z"/><path d="m27 56h6a1 1 0 0 0 1-1v-6a1 1 0 0 0 -1-1h-6a1 1 0 0 0 -1 1v6a1 1 0 0 0 1 1zm1-6h4v4h-4z"/><path d="m13 48h-6a1 1 0 0 0 -1 1v6a1 1 0 0 0 1 1h6a1 1 0 0 0 1-1v-6a1 1 0 0 0 -1-1zm-1 6h-4v-4h4z"/></g></svg>