<svg height="512" viewBox="0 0 64 64" width="512" xmlns="http://www.w3.org/2000/svg"><g id="mobile_payment" data-name="mobile payment"><rect fill="#57a4ff" height="58" rx="2" width="34" x="3" y="3"/><path d="m37 5v54a2.006 2.006 0 0 1 -2 2h-3a2.006 2.006 0 0 0 2-2v-54a2.006 2.006 0 0 0 -2-2h3a2.006 2.006 0 0 1 2 2z" fill="#2488ff"/><path d="m51 48-5 5v-2h-5v-6h5v-2z" fill="#57a4ff"/><path d="m51 16-5 5v-2h-5v-6h5v-2z" fill="#57a4ff"/><g fill="#00b6bd"><path d="m54 23 7 9-7 9v-4h-13v-10h13z"/><circle cx="32" cy="51" r="2"/><circle cx="24" cy="51" r="2"/><circle cx="16" cy="51" r="2"/><circle cx="8" cy="51" r="2"/></g><path d="m26 37a3 3 0 1 1 -3 3 3 3 0 0 1 3-3z" fill="#ff7956"/><path d="m23 40a3 3 0 0 0 3 3h-12a3 3 0 0 1 0-6h12a3 3 0 0 0 -3 3z" fill="#ffeb99"/><path d="m31 3v2a2.006 2.006 0 0 1 -2 2h-18a2.006 2.006 0 0 1 -2-2v-2z" fill="#ffde55"/><path d="m20.04 13h-.04a9 9 0 0 0 -.04 18h.04a9 9 0 0 0 .04-18z" fill="#ffeb99"/><path d="m35 2h-30a3 3 0 0 0 -3 3v54a3 3 0 0 0 3 3h30a3 3 0 0 0 3-3v-54a3 3 0 0 0 -3-3zm-25 2h20v1a1 1 0 0 1 -1 1h-18a1 1 0 0 1 -1-1zm26 55a1 1 0 0 1 -1 1h-30a1 1 0 0 1 -1-1v-54a1 1 0 0 1 1-1h3v1a3 3 0 0 0 3 3h18a3 3 0 0 0 3-3v-1h3a1 1 0 0 1 1 1z"/><path d="m61.789 31.386-7-9a1 1 0 0 0 -1.789.614v3h-12a1 1 0 0 0 -1 1v10a1 1 0 0 0 1 1h12v3a1 1 0 0 0 .676.946 1.01 1.01 0 0 0 .324.054 1 1 0 0 0 .789-.386l7-9a1 1 0 0 0 0-1.228zm-6.789 6.699v-1.085a1 1 0 0 0 -1-1h-12v-8h12a1 1 0 0 0 1-1v-1.085l4.733 6.085z"/><path d="m19 29h2v-2a2 2 0 0 0 2-2v-2a2 2 0 0 0 -2-2h-2v-2h4v-2h-2v-2h-2v2a2 2 0 0 0 -2 2v2a2 2 0 0 0 2 2h2v2h-4v2h2z"/><path d="m20 32a10 10 0 1 0 -10-10 10.011 10.011 0 0 0 10 10zm0-18a8 8 0 1 1 -8 8 8.009 8.009 0 0 1 8-8z"/><path d="m46.707 42.293a1 1 0 0 0 -1.707.707v1h-4a1 1 0 0 0 -1 1v6a1 1 0 0 0 1 1h4v1a1 1 0 0 0 1.707.707l5-5a1 1 0 0 0 0-1.414zm.23 8.356a1 1 0 0 0 -.937-.649h-4v-4h4a1 1 0 0 0 .937-.649l2.649 2.649z"/><path d="m41 20h4v1a1 1 0 0 0 1.707.707l5-5a1 1 0 0 0 0-1.414l-5-5a1 1 0 0 0 -1.707.707v1h-4a1 1 0 0 0 -1 1v6a1 1 0 0 0 1 1zm1-6h4a1 1 0 0 0 .937-.649l2.649 2.649-2.649 2.649a1 1 0 0 0 -.937-.649h-4z"/><path d="m26 36h-12a4 4 0 0 0 0 8h12a4 4 0 0 0 0-8zm-14 4a2 2 0 0 1 2-2h8.556a3.966 3.966 0 0 0 -.414 1h-8.142v2h8.142a3.966 3.966 0 0 0 .414 1h-8.556a2 2 0 0 1 -2-2zm14 2a2 2 0 1 1 2-2 2 2 0 0 1 -2 2z"/><path d="m16 48a3 3 0 1 0 3 3 3 3 0 0 0 -3-3zm0 4a1 1 0 1 1 1-1 1 1 0 0 1 -1 1z"/><path d="m24 48a3 3 0 1 0 3 3 3 3 0 0 0 -3-3zm0 4a1 1 0 1 1 1-1 1 1 0 0 1 -1 1z"/><path d="m32 48a3 3 0 1 0 3 3 3 3 0 0 0 -3-3zm0 4a1 1 0 1 1 1-1 1 1 0 0 1 -1 1z"/><path d="m8 48a3 3 0 1 0 3 3 3 3 0 0 0 -3-3zm0 4a1 1 0 1 1 1-1 1 1 0 0 1 -1 1z"/></g></svg>