<svg height="512" viewBox="0 0 64 64" width="512" xmlns="http://www.w3.org/2000/svg"><g id="cpu_chip" data-name="cpu chip"><circle cx="57" cy="5" fill="#ffde55" r="2"/><circle cx="48" cy="5" fill="#ffde55" r="2"/><path d="m42 42v14h-20v-20h14z" fill="#00d7df"/><path d="m42 42v14h-2v-14l-6-6h2z" fill="#00b6bd"/><path d="m42 38v4l-6-6h4 2z" fill="#e0e0e2"/><circle cx="39" cy="5" fill="#ffde55" r="2"/><circle cx="32" cy="46" fill="#ffde55" r="4"/><path d="m36 46a4 4 0 0 1 -4 4 3.657 3.657 0 0 1 -1-.13 4 4 0 0 0 0-7.74 3.657 3.657 0 0 1 1-.13 4 4 0 0 1 4 4z" fill="#ffcd00"/><g fill="#ffde55"><circle cx="32" cy="8" r="2"/><circle cx="25" cy="5" r="2"/><circle cx="16" cy="5" r="2"/><circle cx="7" cy="5" r="2"/></g><path d="m61 10h-3v-2.184a3 3 0 1 0 -2 0v3.184a1 1 0 0 0 1 1h3v19h-12a1 1 0 0 0 -1 1v5h-4v-1a1 1 0 0 0 -1-1h-1v-4.5l3.6-2.7a1 1 0 0 0 .4-.8v-12h3a1 1 0 0 0 1-1v-6.184a3 3 0 1 0 -2 0v5.184h-3a1 1 0 0 0 -1 1v12.5l-3.6 2.7a1 1 0 0 0 -.4.8v5h-2v-14h2a1 1 0 0 0 1-1v-12.184a3 3 0 1 0 -2 0v11.184h-2a1 1 0 0 0 -1 1v15h-2v-24.184a3 3 0 1 0 -2 0v24.184h-2v-15a1 1 0 0 0 -1-1h-2v-11.184a3 3 0 1 0 -2 0v12.184a1 1 0 0 0 1 1h2v14h-2v-5a1 1 0 0 0 -.4-.8l-3.6-2.7v-12.5a1 1 0 0 0 -1-1h-3v-5.184a3 3 0 1 0 -2 0v6.184a1 1 0 0 0 1 1h3v12a1 1 0 0 0 .4.8l3.6 2.7v4.5h-1a1 1 0 0 0 -1 1v1h-4v-5a1 1 0 0 0 -1-1h-12v-19h3a1 1 0 0 0 1-1v-3.184a3 3 0 1 0 -2 0v2.184h-3a1 1 0 0 0 -1 1v21a1 1 0 0 0 1 1h12v5a1 1 0 0 0 1 1h5v2h-5v2h5v2h-5v2h5v2h-19v2h19v2h-5v2h5v1a1 1 0 0 0 1 1h1v5h2v-5h2v5h2v-5h2v5h2v-5h2v5h2v-5h2v5h2v-5h1a1 1 0 0 0 1-1v-1h5v-2h-5v-2h19v-2h-19v-2h5v-2h-5v-2h5v-2h-5v-2h5a1 1 0 0 0 1-1v-5h12a1 1 0 0 0 1-1v-21a1 1 0 0 0 -1-1zm-4-6a1 1 0 1 1 -1 1 1 1 0 0 1 1-1zm-9 0a1 1 0 1 1 -1 1 1 1 0 0 1 1-1zm-9 0a1 1 0 1 1 -1 1 1 1 0 0 1 1-1zm-7 3a1 1 0 1 1 -1 1 1 1 0 0 1 1-1zm-7-3a1 1 0 1 1 -1 1 1 1 0 0 1 1-1zm-9 0a1 1 0 1 1 -1 1 1 1 0 0 1 1-1zm-9 0a1 1 0 1 1 -1 1 1 1 0 0 1 1-1zm34 35.586-2.586-2.586h2.586zm-18 15.414v-18h12.586l5.414 5.414v12.586z"/><path d="m33 41.1v-2.1h-2v2.1a5.016 5.016 0 0 0 -3.9 3.9h-2.1v2h2.1a5.016 5.016 0 0 0 3.9 3.9v2.1h2v-2.1a5.016 5.016 0 0 0 3.9-3.9h2.1v-2h-2.1a5.016 5.016 0 0 0 -3.9-3.9zm-1 7.9a3 3 0 1 1 3-3 3 3 0 0 1 -3 3z"/><path d="m57 54a1 1 0 0 0 -1-1h-6v2h5v6a1 1 0 0 0 1 1h6v-2h-5z"/><path d="m55 39v6h-5v2h6a1 1 0 0 0 1-1v-6h5v-2h-6a1 1 0 0 0 -1 1z"/><path d="m7 54v6h-5v2h6a1 1 0 0 0 1-1v-6h5v-2h-6a1 1 0 0 0 -1 1z"/><path d="m7 46a1 1 0 0 0 1 1h6v-2h-5v-6a1 1 0 0 0 -1-1h-6v2h5z"/></g></svg>