<svg height="512" viewBox="0 0 64 64" width="512" xmlns="http://www.w3.org/2000/svg"><g id="creative"><path d="m49 45h-6c0-5-6-4-6-12a12 12 0 0 1 24 0c0 8-6 7-6 12z" fill="#ffde55"/><path d="m61 33c0 8-6 7-6 12h-2c0-5 6-4 6-12a12.213 12.213 0 0 0 -11-11.95 8.269 8.269 0 0 1 1-.05 12.194 12.194 0 0 1 12 12z" fill="#ffcd00"/><path d="m57 53v2a2.006 2.006 0 0 1 -2 2h-12a2.006 2.006 0 0 1 -2-2v-2a2.006 2.006 0 0 1 2-2h12a2.006 2.006 0 0 1 2 2z" fill="#57a4ff"/><path d="m57 47v2a2.006 2.006 0 0 1 -2 2h-12a2.006 2.006 0 0 1 -2-2v-2a2.006 2.006 0 0 1 2-2h12a2.006 2.006 0 0 1 2 2z" fill="#57a4ff"/><path d="m57 53v2a2.006 2.006 0 0 1 -2 2h-2a2.006 2.006 0 0 0 2-2v-2a2.006 2.006 0 0 0 -2-2h2a2.006 2.006 0 0 1 2 2z" fill="#2488ff"/><path d="m57 47v2a2.006 2.006 0 0 1 -2 2h-2a2.006 2.006 0 0 0 2-2v-2a2.006 2.006 0 0 0 -2-2h2a2.006 2.006 0 0 1 2 2z" fill="#2488ff"/><path d="m54 57v2a2.006 2.006 0 0 1 -2 2h-6a2.006 2.006 0 0 1 -2-2v-2z" fill="#e0e0e2"/><path d="m54 57v2a2.006 2.006 0 0 1 -2 2h-2a2.006 2.006 0 0 0 2-2v-2z" fill="#c6c5ca"/><path d="m30 14a3 3 0 0 1 0 6h-24a3 3 0 0 1 0-6h1.26a7 7 0 1 1 12.68-4.9 4.993 4.993 0 0 1 8.64 4.9z" fill="#e0e0e2"/><path d="m13 3a5.365 5.365 0 0 0 -.99.08 6.98 6.98 0 0 1 5.93 6.02 5.027 5.027 0 0 1 1.64-1.47 6.994 6.994 0 0 0 -6.58-4.63z" fill="#c6c5ca"/><path d="m30 14h-1.42a4.941 4.941 0 0 0 .42-2 5 5 0 0 0 -5-5 4.435 4.435 0 0 0 -.97.1 5.009 5.009 0 0 1 3.97 4.9 4.941 4.941 0 0 1 -.42 2h1.42a3 3 0 0 1 0 6h2a3 3 0 0 0 0-6z" fill="#c6c5ca"/><path d="m26 50-1.98.49 1.05 1.75-2.83 2.83-1.75-1.05-.49 1.98h-4l-.49-1.98-1.75 1.05-2.83-2.83 1.05-1.75-1.98-.49v-4l1.98-.49-1.05-1.75 2.83-2.83 1.75 1.05.49-1.98h4l.49 1.98 1.75-1.05 2.83 2.83-1.05 1.75 1.98.49z" fill="#ffde55"/><path d="m26 50-1.98.49 1.05 1.75-2.83 2.83-1.25-.75 2.08-2.08-1.05-1.75 1.98-.49v-4l-1.98-.49 1.05-1.75-2.08-2.08 1.25-.75 2.83 2.83-1.05 1.75 1.98.49z" fill="#ffcd00"/><circle cx="18" cy="48" fill="#e0e0e2" r="3"/><path d="m21 48a3 3 0 0 1 -3 3 2.772 2.772 0 0 1 -1-.18 2.988 2.988 0 0 0 0-5.64 2.772 2.772 0 0 1 1-.18 3 3 0 0 1 3 3z" fill="#c6c5ca"/><path d="m30 13h-.084a5.989 5.989 0 0 0 -9.443-5.842 8 8 0 1 0 -14.88 5.863 4 4 0 0 0 .407 7.979h24a4 4 0 0 0 0-8zm0 6h-24a2 2 0 0 1 0-4h1.26a1 1 0 0 0 .82-1.573 6 6 0 1 1 10.865-4.2 1 1 0 0 0 1.8.455 3.992 3.992 0 0 1 6.917 3.918 1 1 0 0 0 .916 1.4h1.422a2 2 0 0 1 0 4z"/><path d="m49 20a13.174 13.174 0 0 0 -13 13 9.689 9.689 0 0 0 3.86 8.343 5.135 5.135 0 0 1 2.061 2.866 3 3 0 0 0 -1.921 2.791v2a2.981 2.981 0 0 0 .78 2 2.981 2.981 0 0 0 -.78 2v2a3 3 0 0 0 3 3v1a3 3 0 0 0 3 3h6a3 3 0 0 0 3-3v-1a3 3 0 0 0 3-3v-2a2.981 2.981 0 0 0 -.78-2 2.981 2.981 0 0 0 .78-2v-2a3 3 0 0 0 -1.921-2.791 5.135 5.135 0 0 1 2.061-2.866 9.689 9.689 0 0 0 3.86-8.343 13.174 13.174 0 0 0 -13-13zm6 26a1 1 0 0 1 1 1v2a1 1 0 0 1 -1 1h-12a1 1 0 0 1 -1-1v-2a1 1 0 0 1 1-1zm-2 13a1 1 0 0 1 -1 1h-6a1 1 0 0 1 -1-1v-1h8zm3-4a1 1 0 0 1 -1 1h-12a1 1 0 0 1 -1-1v-2a1 1 0 0 1 1-1h12a1 1 0 0 1 1 1zm.812-15.153a6.8 6.8 0 0 0 -2.733 4.153h-4.079v-6h3v-2h-3v-6a1 1 0 0 0 -1-1h-4v2h3v13h-4.079a6.8 6.8 0 0 0 -2.734-4.153 7.8 7.8 0 0 1 -3.187-6.847 11 11 0 0 1 22 0 7.8 7.8 0 0 1 -3.188 6.847z"/><path d="m18 44a4 4 0 1 0 4 4 4 4 0 0 0 -4-4zm0 6a2 2 0 1 1 2-2 2 2 0 0 1 -2 2z"/><path d="m25.778 43.05-2.828-2.828a1 1 0 0 0 -1.222-.151l-.591.355-.167-.669a1 1 0 0 0 -.97-.757h-4a1 1 0 0 0 -.97.757l-.167.669-.591-.355a1 1 0 0 0 -1.222.151l-2.828 2.828a1 1 0 0 0 -.151 1.222l.355.591-.669.167a1 1 0 0 0 -.757.97v4a1 1 0 0 0 .757.97l.669.167-.355.591a1 1 0 0 0 .151 1.222l2.828 2.828a1 1 0 0 0 1.222.151l.591-.355.167.669a1 1 0 0 0 .97.757h4a1 1 0 0 0 .97-.757l.167-.669.591.355a1 1 0 0 0 1.222-.151l2.828-2.828a1 1 0 0 0 .151-1.222l-.355-.591.669-.167a1 1 0 0 0 .757-.97v-4a1 1 0 0 0 -.757-.97l-.669-.167.355-.591a1 1 0 0 0 -.151-1.222zm-.778 6.169-1.221.3a1 1 0 0 0 -.614 1.485l.647 1.079-1.724 1.724-1.079-.647a1 1 0 0 0 -1.485.614l-.305 1.226h-2.438l-.3-1.221a1 1 0 0 0 -1.485-.614l-1.079.647-1.724-1.724.647-1.079a1 1 0 0 0 -.614-1.485l-1.226-.305v-2.438l1.221-.3a1 1 0 0 0 .614-1.485l-.647-1.079 1.724-1.724 1.079.647a1 1 0 0 0 1.485-.615l.3-1.22h2.438l.3 1.22a1 1 0 0 0 1.485.615l1.079-.647 1.724 1.724-.647 1.079a1 1 0 0 0 .614 1.485l1.221.3z"/><path d="m17 23h2v2h-2z"/><path d="m36 47h2v2h-2z"/><path d="m55 36h2v2h-2z"/><path d="m41 29h2v2h-2z"/><path d="m17 14h2v2h-2z"/><path d="m21 14h2v2h-2z"/><path d="m13 14h2v2h-2z"/><path d="m30 48a12 12 0 1 1 -12-12 1 1 0 0 0 1-1v-8h-2v7.035a14 14 0 1 0 14.965 14.965h2.035v-2h-3a1 1 0 0 0 -1 1z"/></g></svg>