<?xml version="1.0"?>
<svg xmlns="http://www.w3.org/2000/svg" viewBox="0 0 64 64" width="512" height="512"><g id="money_bag" data-name="money bag"><path d="M50,4c5.6-.73,11.23,2.66,11,4-.28,1.61-8.89.05-10,3-1.22,3.23,7.52,9.35,7,10-.44.55-5.86-4.84-13-5a15.353,15.353,0,0,0-5.02.75,2.918,2.918,0,0,0-.86-1.87,3.015,3.015,0,0,0-.88-.61l.64-1.93a.01.01,0,0,1,.01-.01C40.91,9.05,44.57,4.7,50,4Z" style="fill:#ebe5dd"/><path d="M50,42.41v6.97A11.44,11.44,0,0,1,38.75,61H25.25A11.44,11.44,0,0,1,14,49.38V42.41c0-8.06,4.96-18.5,11.9-22.62A2.873,2.873,0,0,0,27,20H37a2.873,2.873,0,0,0,1.1-.21C45.04,23.91,50,34.35,50,42.41Z" style="fill:#ebbf00"/><path d="M39.23,3a2,2,0,0,1,1.89,2.63l-2.23,6.7a.01.01,0,0,0-.01.01l-.64,1.93A3.034,3.034,0,0,0,37,14H27a3.034,3.034,0,0,0-1.24.27L22.88,5.63A2,2,0,0,1,24.77,3Z" style="fill:#ebbf00"/><path d="M39,42a2.006,2.006,0,0,1,2,2,2.015,2.015,0,0,1-2,2H25a2.006,2.006,0,0,1-2-2,2.015,2.015,0,0,1,2-2Z" style="fill:#ffeb99"/><path d="M39,46a2.006,2.006,0,0,1,2,2,2.015,2.015,0,0,1-2,2H25a2.006,2.006,0,0,1-2-2,2.015,2.015,0,0,1,2-2Z" style="fill:#ffeb99"/><path d="M39,50a2.006,2.006,0,0,1,2,2,2.015,2.015,0,0,1-2,2H25a2.006,2.006,0,0,1-2-2,2.015,2.015,0,0,1,2-2Z" style="fill:#ffeb99"/><path d="M39,54a2.006,2.006,0,0,1,2,2,2.015,2.015,0,0,1-2,2H25a2.006,2.006,0,0,1-2-2,2.015,2.015,0,0,1,2-2Z" style="fill:#ffeb99"/><path d="M39.98,16.75A1.055,1.055,0,0,1,40,17a3,3,0,0,1-1.9,2.79A2.873,2.873,0,0,1,37,20H27a2.873,2.873,0,0,1-1.1-.21,2.92,2.92,0,0,1-1.02-.67,3,3,0,0,1,.88-4.85A3.034,3.034,0,0,1,27,14H37a3.006,3.006,0,0,1,2.12.88A2.918,2.918,0,0,1,39.98,16.75Z" style="fill:#ebe5dd"/><path d="M50,42.41v6.97A11.44,11.44,0,0,1,38.75,61h-2A11.44,11.44,0,0,0,48,49.38V42.41C48,34.48,43.2,24.26,36.44,20H37a2.873,2.873,0,0,0,1.1-.21C45.04,23.91,50,34.35,50,42.41Z" style="fill:#cca400"/><path d="M41.12,5.63l-2.23,6.7a.01.01,0,0,0-.01.01l-.64,1.93A3.034,3.034,0,0,0,37,14h-.67l.55-1.66a.01.01,0,0,1,.01-.01l2.23-6.7A2,2,0,0,0,37.23,3h2A2,2,0,0,1,41.12,5.63Z" style="fill:#cca400"/><path d="M40,17a3,3,0,0,1-1.9,2.79A2.873,2.873,0,0,1,37,20H35a2.873,2.873,0,0,0,1.1-.21A3,3,0,0,0,38,17a1.055,1.055,0,0,0-.02-.25,2.918,2.918,0,0,0-.86-1.87A3.006,3.006,0,0,0,35,14h2a3.006,3.006,0,0,1,2.12.88,2.918,2.918,0,0,1,.86,1.87A1.055,1.055,0,0,1,40,17Z" style="fill:#acabb1"/><path d="M36.44,20H35a2.873,2.873,0,0,0,1.1-.21C36.22,19.86,36.33,19.93,36.44,20Z" style="fill:#cca400"/><path d="M36.33,14l-.09.27A3.034,3.034,0,0,0,35,14Z" style="fill:#cca400"/><path d="M32,28V26l.05-2A8,8,0,0,1,32,40h-.05L32,38V36h1a1,1,0,0,0,1-1V33a1,1,0,0,0-1-1H31a1,1,0,0,1-1-1V29a1,1,0,0,1,1-1Z" style="fill:#ffeb99"/><path d="M32,36v2l-.05,2A8,8,0,0,1,32,24h.05L32,26v2H31a1,1,0,0,0-1,1v2a1,1,0,0,0,1,1h2a1,1,0,0,1,1,1v2a1,1,0,0,1-1,1Z" style="fill:#ffeb99"/><path d="M32,23a9,9,0,1,0,9,9A9.01,9.01,0,0,0,32,23Zm0,16a7,7,0,1,1,7-7A7.008,7.008,0,0,1,32,39Z"/><path d="M22,44a2.981,2.981,0,0,0,.78,2,2.954,2.954,0,0,0,0,4,2.954,2.954,0,0,0,0,4A2.987,2.987,0,0,0,25,59H39a2.987,2.987,0,0,0,2.22-5,2.954,2.954,0,0,0,0-4,2.954,2.954,0,0,0,0-4A2.987,2.987,0,0,0,39,41H25A3,3,0,0,0,22,44Zm18,4a1,1,0,0,1-1,1H25a1,1,0,0,1,0-2H39A1,1,0,0,1,40,48Zm0,4a1,1,0,0,1-1,1H25a1,1,0,0,1,0-2H39A1,1,0,0,1,40,52Zm-1,5H25a1,1,0,0,1,0-2H39a1,1,0,0,1,0,2Zm0-14a1,1,0,0,1,0,2H25a1,1,0,0,1,0-2Z"/><path d="M33,26H31v1a2,2,0,0,0-2,2v2a2,2,0,0,0,2,2h2v2H29v2h2v1h2V37a2,2,0,0,0,2-2V33a2,2,0,0,0-2-2H31V29h4V27H33Z"/><path d="M61.233,6.337C59.512,4.545,54.606,2.39,49.872,3.008a14.414,14.414,0,0,0-8.235,4.235l.432-1.3a3.01,3.01,0,0,0-.414-2.7A2.957,2.957,0,0,0,39.23,2H24.77a2.957,2.957,0,0,0-2.425,1.243,3.007,3.007,0,0,0-.413,2.7l2.634,7.9a3.961,3.961,0,0,0-.444,5.917C17.883,24.3,13,34.076,13,42.41v6.97A12.453,12.453,0,0,0,25.25,62h13.5A12.453,12.453,0,0,0,51,49.38V42.41c0-8.334-4.883-18.112-11.122-22.644a3.977,3.977,0,0,0,1.07-2.247A14.268,14.268,0,0,1,44.978,17c4.7.105,8.669,2.651,10.8,4.019a5.018,5.018,0,0,0,2.187,1.033,1,1,0,0,0,.812-.427c.746-.935-.055-1.7-1.995-3.559-1.761-1.686-5.425-5.193-4.85-6.714.41-1.089,3.446-1.293,5.455-1.428,2.519-.17,4.34-.292,4.594-1.755A2.15,2.15,0,0,0,61.233,6.337ZM37,19H27a2,2,0,0,1,0-4H37a2,2,0,0,1,0,4ZM23.829,5.314A1,1,0,0,1,24.77,4H39.23a.976.976,0,0,1,.8.413.986.986,0,0,1,.14.9L37.59,13.06A3.958,3.958,0,0,0,37,13H27a3.958,3.958,0,0,0-.59.06ZM49,42.41v6.97A10.452,10.452,0,0,1,38.75,60H25.25A10.452,10.452,0,0,1,15,49.38V42.41c0-8.11,4.934-17.649,11.065-21.532A3.96,3.96,0,0,0,27,21H37a3.96,3.96,0,0,0,.935-.122C44.066,24.761,49,34.3,49,42.41ZM57.256,7.928c-2.966.2-6.328.426-7.192,2.718-.74,1.96.911,4.312,2.894,6.433A19.156,19.156,0,0,0,45.021,15a16.427,16.427,0,0,0-4.315.513,3.985,3.985,0,0,0-1.272-1.664l.359-1.076c2-3.218,5.4-7.145,10.336-7.781,4.26-.559,8.525,1.54,9.637,2.677A22.093,22.093,0,0,1,57.256,7.928Z"/></g></svg>
