<svg height="512" viewBox="0 0 64 64" width="512" xmlns="http://www.w3.org/2000/svg"><g id="money_grown" data-name="money grown"><path d="m60.41 41.59a1.955 1.955 0 0 1 .59 1.41 2.006 2.006 0 0 1 -2 2h-14a2.015 2.015 0 0 1 -2-2 2.006 2.006 0 0 1 2-2h14a1.955 1.955 0 0 1 1.41.59z" fill="#ffeb99"/><path d="m60.41 45.59a1.955 1.955 0 0 1 .59 1.41 2.006 2.006 0 0 1 -2 2h-14a2.015 2.015 0 0 1 -2-2 2.006 2.006 0 0 1 2-2h14a1.955 1.955 0 0 1 1.41.59z" fill="#ffeb99"/><path d="m60.41 49.59a1.955 1.955 0 0 1 .59 1.41 2.006 2.006 0 0 1 -2 2h-14a2.015 2.015 0 0 1 -2-2 2.006 2.006 0 0 1 2-2h14a1.955 1.955 0 0 1 1.41.59z" fill="#ffeb99"/><path d="m60.41 53.59a1.955 1.955 0 0 1 .59 1.41 2.006 2.006 0 0 1 -2 2h-14a2.015 2.015 0 0 1 -2-2 2.006 2.006 0 0 1 2-2h14a1.955 1.955 0 0 1 1.41.59z" fill="#ffeb99"/><path d="m60.41 57.59a1.955 1.955 0 0 1 .59 1.41 2.006 2.006 0 0 1 -2 2h-14a2.015 2.015 0 0 1 -2-2 2.006 2.006 0 0 1 2-2h14a1.955 1.955 0 0 1 1.41.59z" fill="#ffeb99"/><path d="m57 32h-2v5h-6v-5h-2l5-5z" fill="#57a4ff"/><path d="m39 21a2.006 2.006 0 0 1 2 2 2.015 2.015 0 0 1 -2 2h-14a2.006 2.006 0 0 1 -2-2 2.015 2.015 0 0 1 2-2z" fill="#ffeb99"/><path d="m39 25a2.006 2.006 0 0 1 2 2 2.015 2.015 0 0 1 -2 2h-14a2.006 2.006 0 0 1 -2-2 2.015 2.015 0 0 1 2-2z" fill="#ffeb99"/><path d="m39 29a2.006 2.006 0 0 1 2 2 2.015 2.015 0 0 1 -2 2h-14a2.006 2.006 0 0 1 -2-2 2.015 2.015 0 0 1 2-2z" fill="#ffeb99"/><path d="m39 33a2.006 2.006 0 0 1 2 2 2.015 2.015 0 0 1 -2 2h-14a2.006 2.006 0 0 1 -2-2 2.015 2.015 0 0 1 2-2z" fill="#ffeb99"/><path d="m39 37a2.006 2.006 0 0 1 2 2 2.015 2.015 0 0 1 -2 2h-14a2.006 2.006 0 0 1 -2-2 2.015 2.015 0 0 1 2-2z" fill="#ffeb99"/><path d="m39 41a2.006 2.006 0 0 1 2 2 2.015 2.015 0 0 1 -2 2h-14a2.006 2.006 0 0 1 -2-2 2.015 2.015 0 0 1 2-2z" fill="#ffeb99"/><path d="m39 45a2.006 2.006 0 0 1 2 2 2.015 2.015 0 0 1 -2 2h-14a2.006 2.006 0 0 1 -2-2 2.015 2.015 0 0 1 2-2z" fill="#ffeb99"/><path d="m39 49a2.006 2.006 0 0 1 2 2 2.015 2.015 0 0 1 -2 2h-14a2.006 2.006 0 0 1 -2-2 2.015 2.015 0 0 1 2-2z" fill="#ffeb99"/><path d="m39 53a2.006 2.006 0 0 1 2 2 2.015 2.015 0 0 1 -2 2h-14a2.006 2.006 0 0 1 -2-2 2.015 2.015 0 0 1 2-2z" fill="#ffeb99"/><path d="m39 57a2.006 2.006 0 0 1 2 2 2.015 2.015 0 0 1 -2 2h-14a2.006 2.006 0 0 1 -2-2 2.015 2.015 0 0 1 2-2z" fill="#ffeb99"/><path d="m41 23a2.015 2.015 0 0 1 -2 2h-2a2.015 2.015 0 0 0 2-2 2.006 2.006 0 0 0 -2-2h2a2.006 2.006 0 0 1 2 2z" fill="#ffde55"/><path d="m41 27a2.015 2.015 0 0 1 -2 2h-2a2.015 2.015 0 0 0 2-2 2.006 2.006 0 0 0 -2-2h2a2.006 2.006 0 0 1 2 2z" fill="#ffde55"/><path d="m41 31a2.015 2.015 0 0 1 -2 2h-2a2.015 2.015 0 0 0 2-2 2.006 2.006 0 0 0 -2-2h2a2.006 2.006 0 0 1 2 2z" fill="#ffde55"/><path d="m41 35a2.015 2.015 0 0 1 -2 2h-2a2.015 2.015 0 0 0 2-2 2.006 2.006 0 0 0 -2-2h2a2.006 2.006 0 0 1 2 2z" fill="#ffde55"/><path d="m41 39a2.015 2.015 0 0 1 -2 2h-2a2.015 2.015 0 0 0 2-2 2.006 2.006 0 0 0 -2-2h2a2.006 2.006 0 0 1 2 2z" fill="#ffde55"/><path d="m41 43a2.015 2.015 0 0 1 -2 2h-2a2.015 2.015 0 0 0 2-2 2.006 2.006 0 0 0 -2-2h2a2.006 2.006 0 0 1 2 2z" fill="#ffde55"/><path d="m41 47a2.015 2.015 0 0 1 -2 2h-2a2.015 2.015 0 0 0 2-2 2.006 2.006 0 0 0 -2-2h2a2.006 2.006 0 0 1 2 2z" fill="#ffde55"/><path d="m41 51a2.015 2.015 0 0 1 -2 2h-2a2.015 2.015 0 0 0 2-2 2.006 2.006 0 0 0 -2-2h2a2.006 2.006 0 0 1 2 2z" fill="#ffde55"/><path d="m41 55a2.015 2.015 0 0 1 -2 2h-2a2.015 2.015 0 0 0 2-2 2.006 2.006 0 0 0 -2-2h2a2.006 2.006 0 0 1 2 2z" fill="#ffde55"/><path d="m41 59a2.015 2.015 0 0 1 -2 2h-2a2.015 2.015 0 0 0 2-2 2.006 2.006 0 0 0 -2-2h2a2.006 2.006 0 0 1 2 2z" fill="#ffde55"/><path d="m32.05 3h-.05a8 8 0 0 0 -.05 16h.05a8 8 0 0 0 .05-16z" fill="#ffeb99"/><path d="m19 29a2.006 2.006 0 0 1 2 2 2.015 2.015 0 0 1 -2 2h-14a2.006 2.006 0 0 1 -2-2 2.015 2.015 0 0 1 2-2z" fill="#ffeb99"/><path d="m19 33a2.006 2.006 0 0 1 2 2 2.015 2.015 0 0 1 -2 2h-14a2.006 2.006 0 0 1 -2-2 2.015 2.015 0 0 1 2-2z" fill="#ffeb99"/><path d="m19 37a2.006 2.006 0 0 1 2 2 2.015 2.015 0 0 1 -2 2h-14a2.006 2.006 0 0 1 -2-2 2.015 2.015 0 0 1 2-2z" fill="#ffeb99"/><path d="m19 41a2.006 2.006 0 0 1 2 2 2.015 2.015 0 0 1 -2 2h-14a2.006 2.006 0 0 1 -2-2 2.015 2.015 0 0 1 2-2z" fill="#ffeb99"/><path d="m19 45a2.006 2.006 0 0 1 2 2 2.015 2.015 0 0 1 -2 2h-14a2.006 2.006 0 0 1 -2-2 2.015 2.015 0 0 1 2-2z" fill="#ffeb99"/><path d="m19 49a2.006 2.006 0 0 1 2 2 2.015 2.015 0 0 1 -2 2h-14a2.006 2.006 0 0 1 -2-2 2.015 2.015 0 0 1 2-2z" fill="#ffeb99"/><path d="m19 53a2.006 2.006 0 0 1 2 2 2.015 2.015 0 0 1 -2 2h-14a2.006 2.006 0 0 1 -2-2 2.015 2.015 0 0 1 2-2z" fill="#ffeb99"/><path d="m19 57a2.006 2.006 0 0 1 2 2 2.015 2.015 0 0 1 -2 2h-14a2.006 2.006 0 0 1 -2-2 2.015 2.015 0 0 1 2-2z" fill="#ffeb99"/><path d="m17 20h-2v5h-6v-5h-2l5-5z" fill="#57a4ff"/><g fill="#ffde55"><path d="m21 31a2.015 2.015 0 0 1 -2 2h-2a2.015 2.015 0 0 0 2-2 2.006 2.006 0 0 0 -2-2h2a2.006 2.006 0 0 1 2 2z"/><path d="m21 35a2.015 2.015 0 0 1 -2 2h-2a2.015 2.015 0 0 0 2-2 2.006 2.006 0 0 0 -2-2h2a2.006 2.006 0 0 1 2 2z"/><path d="m21 39a2.015 2.015 0 0 1 -2 2h-2a2.015 2.015 0 0 0 2-2 2.006 2.006 0 0 0 -2-2h2a2.006 2.006 0 0 1 2 2z"/><path d="m21 43a2.015 2.015 0 0 1 -2 2h-2a2.015 2.015 0 0 0 2-2 2.006 2.006 0 0 0 -2-2h2a2.006 2.006 0 0 1 2 2z"/><path d="m21 47a2.015 2.015 0 0 1 -2 2h-2a2.015 2.015 0 0 0 2-2 2.006 2.006 0 0 0 -2-2h2a2.006 2.006 0 0 1 2 2z"/><path d="m21 51a2.015 2.015 0 0 1 -2 2h-2a2.015 2.015 0 0 0 2-2 2.006 2.006 0 0 0 -2-2h2a2.006 2.006 0 0 1 2 2z"/><path d="m21 55a2.015 2.015 0 0 1 -2 2h-2a2.015 2.015 0 0 0 2-2 2.006 2.006 0 0 0 -2-2h2a2.006 2.006 0 0 1 2 2z"/><path d="m21 59a2.015 2.015 0 0 1 -2 2h-2a2.015 2.015 0 0 0 2-2 2.006 2.006 0 0 0 -2-2h2a2.006 2.006 0 0 1 2 2z"/><path d="m61 43a2.015 2.015 0 0 1 -2 2h-2a2.015 2.015 0 0 0 2-2 2.006 2.006 0 0 0 -2-2h2a2.006 2.006 0 0 1 2 2z"/><path d="m61 47a2.015 2.015 0 0 1 -2 2h-2a2.015 2.015 0 0 0 2-2 2.006 2.006 0 0 0 -2-2h2a2.006 2.006 0 0 1 2 2z"/><path d="m61 51a2.015 2.015 0 0 1 -2 2h-2a2.015 2.015 0 0 0 2-2 2.006 2.006 0 0 0 -2-2h2a2.006 2.006 0 0 1 2 2z"/><path d="m61 55a2.015 2.015 0 0 1 -2 2h-2a2.015 2.015 0 0 0 2-2 2.006 2.006 0 0 0 -2-2h2a2.006 2.006 0 0 1 2 2z"/><path d="m61 59a2.015 2.015 0 0 1 -2 2h-2a2.015 2.015 0 0 0 2-2 2.006 2.006 0 0 0 -2-2h2a2.006 2.006 0 0 1 2 2z"/></g><path d="m41 11a9 9 0 1 0 -9 9 9.011 9.011 0 0 0 9-9zm-9 7a7 7 0 1 1 7-7 7.008 7.008 0 0 1 -7 7z"/><path d="m33 5h-2v1a2 2 0 0 0 -2 2v2a2 2 0 0 0 2 2h2v2h-4v2h2v1h2v-1a2 2 0 0 0 2-2v-2a2 2 0 0 0 -2-2h-2v-2h4v-2h-2z"/><path d="m22 55a2.981 2.981 0 0 0 -.78-2 2.954 2.954 0 0 0 0-4 2.954 2.954 0 0 0 0-4 2.954 2.954 0 0 0 0-4 2.954 2.954 0 0 0 0-4 2.954 2.954 0 0 0 0-4 2.987 2.987 0 0 0 -2.22-5h-14a2.987 2.987 0 0 0 -2.22 5 2.954 2.954 0 0 0 0 4 2.954 2.954 0 0 0 0 4 2.954 2.954 0 0 0 0 4 2.954 2.954 0 0 0 0 4 2.954 2.954 0 0 0 0 4 2.954 2.954 0 0 0 0 4 2.987 2.987 0 0 0 2.22 5h14a2.987 2.987 0 0 0 2.22-5 2.981 2.981 0 0 0 .78-2zm-18 0a1 1 0 0 1 1-1h14a1 1 0 0 1 0 2h-14a1 1 0 0 1 -1-1zm0-4a1 1 0 0 1 1-1h14a1 1 0 0 1 0 2h-14a1 1 0 0 1 -1-1zm0-4a1 1 0 0 1 1-1h14a1 1 0 0 1 0 2h-14a1 1 0 0 1 -1-1zm0-4a1 1 0 0 1 1-1h14a1 1 0 0 1 0 2h-14a1 1 0 0 1 -1-1zm0-4a1 1 0 0 1 1-1h14a1 1 0 0 1 0 2h-14a1 1 0 0 1 -1-1zm0-4a1 1 0 0 1 1-1h14a1 1 0 0 1 0 2h-14a1 1 0 0 1 -1-1zm1-5h14a1 1 0 0 1 0 2h-14a1 1 0 0 1 0-2zm14 30h-14a1 1 0 0 1 0-2h14a1 1 0 0 1 0 2z"/><path d="m42 55a2.981 2.981 0 0 0 -.78-2 2.954 2.954 0 0 0 0-4 2.954 2.954 0 0 0 0-4 2.954 2.954 0 0 0 0-4 2.954 2.954 0 0 0 0-4 2.954 2.954 0 0 0 0-4 2.954 2.954 0 0 0 0-4 2.954 2.954 0 0 0 0-4 2.987 2.987 0 0 0 -2.22-5h-14a2.987 2.987 0 0 0 -2.22 5 2.954 2.954 0 0 0 0 4 2.954 2.954 0 0 0 0 4 2.954 2.954 0 0 0 0 4 2.954 2.954 0 0 0 0 4 2.954 2.954 0 0 0 0 4 2.954 2.954 0 0 0 0 4 2.954 2.954 0 0 0 0 4 2.954 2.954 0 0 0 0 4 2.987 2.987 0 0 0 2.22 5h14a2.987 2.987 0 0 0 2.22-5 2.981 2.981 0 0 0 .78-2zm-18 0a1 1 0 0 1 1-1h14a1 1 0 0 1 0 2h-14a1 1 0 0 1 -1-1zm0-4a1 1 0 0 1 1-1h14a1 1 0 0 1 0 2h-14a1 1 0 0 1 -1-1zm0-4a1 1 0 0 1 1-1h14a1 1 0 0 1 0 2h-14a1 1 0 0 1 -1-1zm0-4a1 1 0 0 1 1-1h14a1 1 0 0 1 0 2h-14a1 1 0 0 1 -1-1zm0-4a1 1 0 0 1 1-1h14a1 1 0 0 1 0 2h-14a1 1 0 0 1 -1-1zm0-4a1 1 0 0 1 1-1h14a1 1 0 0 1 0 2h-14a1 1 0 0 1 -1-1zm0-4a1 1 0 0 1 1-1h14a1 1 0 0 1 0 2h-14a1 1 0 0 1 -1-1zm0-4a1 1 0 0 1 1-1h14a1 1 0 0 1 0 2h-14a1 1 0 0 1 -1-1zm1-5h14a1 1 0 0 1 0 2h-14a1 1 0 0 1 0-2zm14 38h-14a1 1 0 0 1 0-2h14a1 1 0 0 1 0 2z"/><path d="m7 21h1v4a1 1 0 0 0 1 1h6a1 1 0 0 0 1-1v-4h1a1 1 0 0 0 .707-1.707l-5-5a1 1 0 0 0 -1.414 0l-5 5a1 1 0 0 0 .707 1.707zm5-4.586 2.649 2.649a1 1 0 0 0 -.649.937v4h-4v-4a1 1 0 0 0 -.649-.937z"/><path d="m47 33h1v4a1 1 0 0 0 1 1h6a1 1 0 0 0 1-1v-4h1a1 1 0 0 0 .707-1.707l-5-5a1 1 0 0 0 -1.414 0l-5 5a1 1 0 0 0 .707 1.707zm5-4.586 2.649 2.649a1 1 0 0 0 -.649.937v4h-4v-4a1 1 0 0 0 -.649-.937z"/><path d="m61.22 45a2.987 2.987 0 0 0 -2.22-5h-14a2.987 2.987 0 0 0 -2.22 5 2.954 2.954 0 0 0 0 4 2.954 2.954 0 0 0 0 4 2.954 2.954 0 0 0 0 4 2.987 2.987 0 0 0 2.22 5h14a2.987 2.987 0 0 0 2.22-5 2.954 2.954 0 0 0 0-4 2.954 2.954 0 0 0 0-4 2.954 2.954 0 0 0 0-4zm-1.22 6a1 1 0 0 1 -1 1h-14a1 1 0 0 1 0-2h14a1 1 0 0 1 1 1zm0 4a1 1 0 0 1 -1 1h-14a1 1 0 0 1 0-2h14a1 1 0 0 1 1 1zm-15-7a1 1 0 0 1 0-2h14a1 1 0 0 1 0 2zm0-6h14a1 1 0 0 1 0 2h-14a1 1 0 0 1 0-2zm14 18h-14a1 1 0 0 1 0-2h14a1 1 0 0 1 0 2z"/></g></svg>