<svg height="512" viewBox="0 0 64 64" width="512" xmlns="http://www.w3.org/2000/svg"><g id="database"><path d="m61 24a5 5 0 0 1 -5 5h-48a5 5 0 0 1 -5-5c0-5 5-5 5-5v-3a6.677 6.677 0 0 1 7-7c2.79 0 5.71.74 7 3 .12-5.43 4.55-9 10-9a10 10 0 0 1 10 9.78s4.21-3.78 7-3.78a6.677 6.677 0 0 1 7 7v3s5 0 5 5z" fill="#e0e0e2"/><path d="m61 24a5 5 0 0 1 -5 5h-2a5 5 0 0 0 5-5c0-5-5-5-5-5v-3a6.6 6.6 0 0 0 -5.81-6.91 3.864 3.864 0 0 1 .81-.09 6.677 6.677 0 0 1 7 7v3s5 0 5 5z" fill="#c6c5ca"/><rect fill="#57a4ff" height="12" rx="2" width="40" x="12" y="17"/><path d="m52 19v8a2.006 2.006 0 0 1 -2 2h-2a2.006 2.006 0 0 0 2-2v-8a2.006 2.006 0 0 0 -2-2h2a2.006 2.006 0 0 1 2 2z" fill="#2488ff"/><rect fill="#57a4ff" height="12" rx="2" width="40" x="12" y="33"/><path d="m52 35v8a2.006 2.006 0 0 1 -2 2h-2a2.006 2.006 0 0 0 2-2v-8a2.006 2.006 0 0 0 -2-2h2a2.006 2.006 0 0 1 2 2z" fill="#2488ff"/><rect fill="#57a4ff" height="12" rx="2" width="40" x="12" y="49"/><path d="m52 51v8a2.006 2.006 0 0 1 -2 2h-2a2.006 2.006 0 0 0 2-2v-8a2.006 2.006 0 0 0 -2-2h2a2.006 2.006 0 0 1 2 2z" fill="#2488ff"/><path d="m41.86 11.3c-1.09.79-1.86 1.48-1.86 1.48a10.014 10.014 0 0 0 -9.06-9.74c.35-.02.7-.04 1.06-.04a10.015 10.015 0 0 1 9.86 8.3z" fill="#c6c5ca"/><path d="m42 45h6v4h-6z" fill="#e0e0e2"/><path d="m42 29h6v4h-6z" fill="#e0e0e2"/><path d="m24 53h4v4h-4z" fill="#ffde55"/><path d="m24 37h4v4h-4z" fill="#ffde55"/><path d="m24 21h4v4h-4z" fill="#ffde55"/><path d="m16 45h6v4h-6z" fill="#e0e0e2"/><path d="m16 29h6v4h-6z" fill="#e0e0e2"/><g fill="#c6c5ca"><path d="m46 45h2v4h-2z"/><path d="m46 29h2v4h-2z"/><path d="m20 45h2v4h-2z"/><path d="m20 29h2v4h-2z"/></g><path d="m16 53h4v4h-4z" fill="#ffde55"/><path d="m16 37h4v4h-4z" fill="#ffde55"/><path d="m16 21h4v4h-4z" fill="#ffde55"/><path d="m50 32h-1v-2h7a6.006 6.006 0 0 0 6-6 5.656 5.656 0 0 0 -5-5.915v-2.085a7.654 7.654 0 0 0 -8-8c-2.079 0-4.63 1.646-6.213 2.845a11.08 11.08 0 0 0 -10.787-8.845c-5.4 0-9.595 3.141-10.71 7.732a10.39 10.39 0 0 0 -6.29-1.732 7.654 7.654 0 0 0 -8 8v2.085a5.656 5.656 0 0 0 -5 5.915 6.006 6.006 0 0 0 6 6h7v2h-1a3 3 0 0 0 -3 3v8a3 3 0 0 0 3 3h1v2h-1a3 3 0 0 0 -3 3v8a3 3 0 0 0 3 3h36a3 3 0 0 0 3-3v-8a3 3 0 0 0 -3-3h-1v-2h1a3 3 0 0 0 3-3v-8a3 3 0 0 0 -3-3zm-3 0h-4v-2h4zm-6-2v2h-18v-2zm-37-6a3.85 3.85 0 0 1 4-4 1 1 0 0 0 1-1v-3a5.68 5.68 0 0 1 6-6c1.758 0 4.892.324 6.132 2.5a1 1 0 0 0 1.868-.478c.1-4.648 3.888-8.022 9-8.022a9.054 9.054 0 0 1 9 8.8 1 1 0 0 0 1.668.722c1.019-.912 4.367-3.522 6.332-3.522a5.68 5.68 0 0 1 6 6v3a1 1 0 0 0 1 1c.163 0 4 .045 4 4a4 4 0 0 1 -4 4h-3.184a2.966 2.966 0 0 0 .184-1v-8a3 3 0 0 0 -3-3h-36a3 3 0 0 0 -3 3v8a2.966 2.966 0 0 0 .184 1h-3.184a4 4 0 0 1 -4-4zm9 3v-8a1 1 0 0 1 1-1h36a1 1 0 0 1 1 1v8a1 1 0 0 1 -1 1h-36a1 1 0 0 1 -1-1zm4 3h4v2h-4zm0 16h4v2h-4zm6 2v-2h18v2zm28 3v8a1 1 0 0 1 -1 1h-36a1 1 0 0 1 -1-1v-8a1 1 0 0 1 1-1h36a1 1 0 0 1 1 1zm-4-3h-4v-2h4zm4-5a1 1 0 0 1 -1 1h-36a1 1 0 0 1 -1-1v-8a1 1 0 0 1 1-1h36a1 1 0 0 1 1 1z"/><path d="m20 36h-4a1 1 0 0 0 -1 1v4a1 1 0 0 0 1 1h4a1 1 0 0 0 1-1v-4a1 1 0 0 0 -1-1zm-1 4h-2v-2h2z"/><path d="m28 36h-4a1 1 0 0 0 -1 1v4a1 1 0 0 0 1 1h4a1 1 0 0 0 1-1v-4a1 1 0 0 0 -1-1zm-1 4h-2v-2h2z"/><path d="m31 36h14v2h-14z"/><path d="m47 36h2v2h-2z"/><path d="m31 40h14v2h-14z"/><path d="m47 40h2v2h-2z"/><path d="m20 20h-4a1 1 0 0 0 -1 1v4a1 1 0 0 0 1 1h4a1 1 0 0 0 1-1v-4a1 1 0 0 0 -1-1zm-1 4h-2v-2h2z"/><path d="m28 20h-4a1 1 0 0 0 -1 1v4a1 1 0 0 0 1 1h4a1 1 0 0 0 1-1v-4a1 1 0 0 0 -1-1zm-1 4h-2v-2h2z"/><path d="m31 20h14v2h-14z"/><path d="m47 20h2v2h-2z"/><path d="m31 24h14v2h-14z"/><path d="m47 24h2v2h-2z"/><path d="m16 58h4a1 1 0 0 0 1-1v-4a1 1 0 0 0 -1-1h-4a1 1 0 0 0 -1 1v4a1 1 0 0 0 1 1zm1-4h2v2h-2z"/><path d="m24 58h4a1 1 0 0 0 1-1v-4a1 1 0 0 0 -1-1h-4a1 1 0 0 0 -1 1v4a1 1 0 0 0 1 1zm1-4h2v2h-2z"/><path d="m31 52h14v2h-14z"/><path d="m47 52h2v2h-2z"/><path d="m31 56h14v2h-14z"/><path d="m47 56h2v2h-2z"/><path d="m55 32h2v2h-2z"/><path d="m57 36h-2v25a1 1 0 0 0 1 1h6v-2h-5z"/><path d="m7 32h2v2h-2z"/><path d="m7 60h-5v2h6a1 1 0 0 0 1-1v-25h-2z"/><path d="m37 12.891 2-.044a7.042 7.042 0 0 0 -7-6.847v2a5.031 5.031 0 0 1 5 4.891z"/></g></svg>