<svg height="512" viewBox="0 0 64 64" width="512" xmlns="http://www.w3.org/2000/svg"><g id="eye_sensor" data-name="eye sensor"><path d="m32 20a23.962 23.962 0 0 0 -16.97 7.03 22.93 22.93 0 0 0 -2.51 2.97 23.807 23.807 0 0 0 -4.52 14h24a23.719 23.719 0 0 0 11-2.68 23.961 23.961 0 0 0 13-21.32z" fill="#e0e0e2"/><path d="m56 20a23.774 23.774 0 0 1 -.76 6 23.945 23.945 0 0 1 -12.24 15.32 23.719 23.719 0 0 1 -11 2.68h-2a23.719 23.719 0 0 0 11-2.68 23.961 23.961 0 0 0 13-21.32z" fill="#c6c5ca"/><path d="m53.45 47.14a7.985 7.985 0 0 1 2.55 5.86h-8v-8a8.01 8.01 0 0 1 5.45 2.14z" fill="#57a4ff"/><path d="m56 53h-2a7.972 7.972 0 0 0 -6-7.74v-.26a7.994 7.994 0 0 1 8 8z" fill="#2488ff"/><path d="m42.34 58.66a8 8 0 0 1 5.66-13.66v8h8a8 8 0 0 1 -13.66 5.66z" fill="#ffde55"/><path d="m56 53a8 8 0 0 1 -8 8 8.262 8.262 0 0 1 -1-.06 8 8 0 0 0 7-7.94z" fill="#ffcd00"/><path d="m38.89 27.94a8 8 0 1 1 -6.89-3.94 8.5 8.5 0 0 1 1.14.08 5 5 0 1 0 5.86 4.92 5.294 5.294 0 0 0 -.11-1.06z" fill="#57a4ff"/><path d="m40 32a8 8 0 0 1 -8 8 8.262 8.262 0 0 1 -1-.06 8 8 0 0 0 7-7.94 4.941 4.941 0 0 0 1-3 5.294 5.294 0 0 0 -.11-1.06 8 8 0 0 1 1.11 4.06z" fill="#2488ff"/><path d="m38.89 27.94a5.294 5.294 0 0 1 .11 1.06 5 5 0 1 1 -5.86-4.92 8.014 8.014 0 0 1 5.75 3.85z" fill="#ffde55"/><path d="m39 29a5 5 0 0 1 -5 5 4.619 4.619 0 0 1 -.99-.1 5.01 5.01 0 0 0 3.99-4.9 5.294 5.294 0 0 0 -.11-1.06v-.01a7.988 7.988 0 0 0 -4.65-3.61 4.413 4.413 0 0 1 .9-.24 8.014 8.014 0 0 1 5.75 3.85v.01a5.294 5.294 0 0 1 .11 1.06z" fill="#ffcd00"/><path d="m11 15h-6a2.006 2.006 0 0 1 -2-2v-8a2.006 2.006 0 0 1 2-2h16a2.006 2.006 0 0 1 2 2v8a2.006 2.006 0 0 1 -2 2z" fill="#00d7df"/><path d="m23 5v8a2.006 2.006 0 0 1 -2 2h-2a2.006 2.006 0 0 0 2-2v-8a2.006 2.006 0 0 0 -2-2h2a2.006 2.006 0 0 1 2 2z" fill="#00b6bd"/><path d="m57 20a1 1 0 0 0 -1-1h-24a25.028 25.028 0 0 0 -25 25 1 1 0 0 0 1 1h24a25.028 25.028 0 0 0 25-25zm-43.957 11h5.957v6h2v-7a1 1 0 0 0 -1-1h-5.421a22.953 22.953 0 0 1 17.421-8h13v7h2v-7h7.979a22.911 22.911 0 0 1 -.533 4h-5.446v2h4.9a23.1 23.1 0 0 1 -9.9 12.608v-2.608h-2v3.7a22.846 22.846 0 0 1 -10 2.3h-17v-5h-2v5h-3.979a22.849 22.849 0 0 1 4.022-12z"/><path d="m32 41a9 9 0 1 0 -9-9 9.01 9.01 0 0 0 9 9zm5.926-12.708a4.378 4.378 0 0 1 .074.708 4 4 0 1 1 -4.839-3.895 7 7 0 0 1 4.765 3.187zm-8.9-2.618a5.991 5.991 0 1 0 9.959 6.664 7 7 0 1 1 -9.959-6.664z"/><path d="m45 30h2v2h-2z"/><path d="m42 33h2v2h-2z"/><path d="m51 6h11v2h-11z"/><path d="m51 2h11v2h-11z"/><path d="m50.105 10.553-3 6 1.79.894 2.723-5.447h10.382v-2h-11a1 1 0 0 0 -.895.553z"/><path d="m12 56h10v2h-10z"/><path d="m18 60h4v2h-4z"/><path d="m21.465 52h-13.465v2h14a1 1 0 0 0 .832-.445l4-6-1.664-1.11z"/><path d="m41 23h2v2h-2z"/><path d="m19 39h2v2h-2z"/><path d="m13 34h2v2h-2z"/><path d="m21 25h2v2h-2z"/><path d="m2 52h4v2h-4z"/><path d="m2 56h8v2h-8z"/><path d="m2 60h14v2h-14z"/><path d="m5 16h16a3 3 0 0 0 3-3v-8a3 3 0 0 0 -3-3h-16a3 3 0 0 0 -3 3v8a3 3 0 0 0 3 3zm-1-11a1 1 0 0 1 1-1h16a1 1 0 0 1 1 1v8a1 1 0 0 1 -1 1h-1v-2h-2v2h-2v-4h-2v4h-2v-6h-2v6h-2v-8h-2v8h-1a1 1 0 0 1 -1-1z"/><path d="m12 18h2v2h-2z"/><path d="m12 22h2v2h-2z"/><path d="m56.241 42.349-2.921 3.408a8.987 8.987 0 0 0 -12.345 12.854l-1.389 1.389h-7.586v2h8a1 1 0 0 0 .707-.293l1.682-1.682a8.988 8.988 0 0 0 12.4-12.912l2.671-3.113h4.54v-2h-5a1 1 0 0 0 -.759.349zm-8.241 17.651a6.953 6.953 0 0 1 -4.184-1.4l2.891-2.891-1.414-1.414-2.893 2.889a6.978 6.978 0 0 1 4.6-11.104v6.92a1 1 0 0 0 1 1h6.92a7 7 0 0 1 -6.92 6zm6.92-8h-5.92v-5.92a6.951 6.951 0 0 1 3.017 1.2l-1.776 2.072 1.518 1.3 1.715-2a6.966 6.966 0 0 1 1.446 3.348z"/><path d="m2 48h12v2h-12z"/><path d="m16 48h5v2h-5z"/><path d="m52 14h10v2h-10z"/></g></svg>