<svg height="512" viewBox="0 0 64 64" width="512" xmlns="http://www.w3.org/2000/svg"><g id="fillter"><path d="m59 18h-3.07l-.91-1.51 1.98-.49v-4l-1.98-.49 1.05-1.75-2.83-2.83-1.75 1.05-.49-1.98h-4l-.49 1.98-1.75-1.05-2.83 2.83 1.05 1.75-1.98.49v4l1.98.49-.91 1.51h-5.07l-.12.04a1.982 1.982 0 0 0 -1.55-1.32l-1.73-.29a1.937 1.937 0 0 1 -1.51-1.21c-.05-.13-.11-.26-.16-.39a1.963 1.963 0 0 1 .21-1.93l1.02-1.42a1.992 1.992 0 0 0 -.22-2.58l-1.84-1.84a1.963 1.963 0 0 0 -.532-.381l-.016-.01a1.981 1.981 0 0 0 -.574-.173c-.022 0-.042-.009-.064-.012a2.034 2.034 0 0 0 -.567.019l-.088.015a2.014 2.014 0 0 0 -.548.21c-.01.006-.021.006-.031.012a1.723 1.723 0 0 0 -.165.1l-1.415 1.02a1.963 1.963 0 0 1 -1.93.21c-.13-.05-.26-.11-.39-.16a1.937 1.937 0 0 1 -1.21-1.51l-.29-1.73a2.006 2.006 0 0 0 -1.97-1.67h-2.62a2.006 2.006 0 0 0 -1.97 1.67l-.29 1.73a1.937 1.937 0 0 1 -1.21 1.51c-.13.05-.26.11-.39.16a1.963 1.963 0 0 1 -1.93-.21l-1.42-1.02a1.992 1.992 0 0 0 -2.58.22l-1.84 1.84a1.992 1.992 0 0 0 -.22 2.58l1.02 1.42a1.963 1.963 0 0 1 .21 1.93c-.05.13-.11.26-.16.39a1.937 1.937 0 0 1 -1.51 1.21l-1.73.29a2.006 2.006 0 0 0 -1.67 1.97v2.62a2.006 2.006 0 0 0 1.67 1.97l1.73.29a1.937 1.937 0 0 1 1.51 1.21c.05.13.11.26.16.39a1.963 1.963 0 0 1 -.21 1.93l-1.02 1.42a1.992 1.992 0 0 0 .22 2.58l1.84 1.84a1.992 1.992 0 0 0 2.58.22l1.42-1.02a1.963 1.963 0 0 1 1.93-.21c.13.05.26.11.39.16a1.937 1.937 0 0 1 1.21 1.51l.29 1.73a2.006 2.006 0 0 0 1.97 1.67h2.62a2.006 2.006 0 0 0 1.97-1.67l.17-.99 4.55 3.41v18.25l6 3.75 2 1.25v-23.25l21-15.75h2a2.015 2.015 0 0 0 2-2 2.006 2.006 0 0 0 -2-2z" fill="#57a4ff"/><path d="m59 18a2.006 2.006 0 0 1 2 2 2.015 2.015 0 0 1 -2 2h-8l.49-1.98 1.75 1.05 2.83-2.83-.14-.24z" fill="#006df0"/><path d="m57 16-1.98.49.91 1.51.14.24-2.83 2.83-1.75-1.05-.49 1.98h-4l-.49-1.98-1.75 1.05-2.83-2.83.14-.24.91-1.51-1.98-.49v-4l1.98-.49-1.05-1.75 2.83-2.83 1.75 1.05.49-1.98h4l.49 1.98 1.75-1.05 2.83 2.83-1.05 1.75 1.98.49z" fill="#ffde55"/><path d="m57 16-1.98.49.91 1.51.14.24-2.83 2.83-1.25-.75 2.08-2.08-.14-.24-.91-1.51 1.98-.49v-4l-1.98-.49 1.05-1.75-2.08-2.08 1.25-.75 2.83 2.83-1.05 1.75 1.98.49z" fill="#ffcd00"/><path d="m57 22-21 15.75v23.25l-2-1.25v-22l21-15.75z" fill="#2488ff"/><circle cx="49" cy="14" fill="#e0e0e2" r="3"/><path d="m52 14a3 3 0 0 1 -3 3 2.772 2.772 0 0 1 -1-.18 2.988 2.988 0 0 0 0-5.64 2.772 2.772 0 0 1 1-.18 3 3 0 0 1 3 3z" fill="#c6c5ca"/><path d="m46.51 20.02.49 1.98h-10.13a1.766 1.766 0 0 0 .13-.69v-2.62a1.747 1.747 0 0 0 -.12-.65l.12-.04h5.07l-.14.24 2.83 2.83z" fill="#006df0"/><path d="m37 18.69v2.62a1.766 1.766 0 0 1 -.13.69 1.986 1.986 0 0 1 -1.54 1.28l-1.73.29a1.937 1.937 0 0 0 -1.51 1.21c-.05.13-.11.26-.16.39a1.963 1.963 0 0 0 .21 1.93l1.02 1.42a1.992 1.992 0 0 1 -.22 2.58l-1.84 1.84a1.992 1.992 0 0 1 -2.58.22l-1.42-1.02a1.963 1.963 0 0 0 -1.93-.21c-.13.05-.26.11-.39.16a1.937 1.937 0 0 0 -1.21 1.51l-.12.74-.17.99a2.006 2.006 0 0 1 -1.97 1.67h-2.62a2.006 2.006 0 0 1 -1.97-1.67l-.29-1.73a1.937 1.937 0 0 0 -1.21-1.51c-.13-.05-.26-.11-.39-.16a1.963 1.963 0 0 0 -1.93.21l-1.42 1.02a1.992 1.992 0 0 1 -2.58-.22l-1.84-1.84a1.992 1.992 0 0 1 -.22-2.58l1.02-1.42a1.963 1.963 0 0 0 .21-1.93c-.05-.13-.11-.26-.16-.39a1.937 1.937 0 0 0 -1.51-1.21l-1.73-.29a2.006 2.006 0 0 1 -1.67-1.97v-2.62a2.006 2.006 0 0 1 1.67-1.97l1.73-.29a1.937 1.937 0 0 0 1.51-1.21c.05-.13.11-.26.16-.39a1.963 1.963 0 0 0 -.21-1.93l-1.02-1.42a1.992 1.992 0 0 1 .22-2.58l1.84-1.84a1.992 1.992 0 0 1 2.58-.22l1.42 1.02a1.963 1.963 0 0 0 1.93.21c.13-.05.26-.11.39-.16a1.937 1.937 0 0 0 1.21-1.51l.29-1.73a2.006 2.006 0 0 1 1.97-1.67h2.62a2.006 2.006 0 0 1 1.97 1.67l.29 1.73a1.937 1.937 0 0 0 1.21 1.51c.13.05.26.11.39.16a1.963 1.963 0 0 0 1.93-.21l1.42-1.02a1.992 1.992 0 0 1 2.58.22l1.84 1.84a1.992 1.992 0 0 1 .22 2.58l-1.02 1.42a1.963 1.963 0 0 0 -.21 1.93c.05.13.11.26.16.39a1.937 1.937 0 0 0 1.51 1.21l1.73.29a1.982 1.982 0 0 1 1.55 1.32 1.747 1.747 0 0 1 .12.65z" fill="#ffde55"/><path d="m37 18.69v2.62a1.766 1.766 0 0 1 -.13.69 1.986 1.986 0 0 1 -1.54 1.28l-1.73.29a1.937 1.937 0 0 0 -1.51 1.21c-.05.13-.11.26-.16.39a1.963 1.963 0 0 0 .21 1.93l1.02 1.42a1.992 1.992 0 0 1 -.22 2.58l-1.84 1.84a1.987 1.987 0 0 1 -2.42.32 1.8 1.8 0 0 0 .42-.32l1.84-1.84a1.992 1.992 0 0 0 .22-2.58l-1.02-1.42a1.963 1.963 0 0 1 -.21-1.93c.05-.13.11-.26.16-.39a1.937 1.937 0 0 1 1.51-1.21l1.73-.29a1.986 1.986 0 0 0 1.54-1.28 1.766 1.766 0 0 0 .13-.69v-2.62a1.747 1.747 0 0 0 -.12-.65 1.982 1.982 0 0 0 -1.55-1.32l-1.73-.29a1.937 1.937 0 0 1 -1.51-1.21c-.05-.13-.11-.26-.16-.39a1.963 1.963 0 0 1 .21-1.93l1.02-1.42a1.992 1.992 0 0 0 -.22-2.58l-1.84-1.84a1.8 1.8 0 0 0 -.42-.32 1.987 1.987 0 0 1 2.42.32l1.84 1.84a1.992 1.992 0 0 1 .22 2.58l-1.02 1.42a1.963 1.963 0 0 0 -.21 1.93c.05.13.11.26.16.39a1.937 1.937 0 0 0 1.51 1.21l1.73.29a1.982 1.982 0 0 1 1.55 1.32 1.747 1.747 0 0 1 .12.65z" fill="#ffcd00"/><circle cx="20" cy="20" fill="#e0e0e2" r="8"/><path d="m28 20a8 8 0 0 1 -8 8 8.262 8.262 0 0 1 -1-.06 8 8 0 0 0 0-15.88 8.262 8.262 0 0 1 1-.06 8 8 0 0 1 8 8z" fill="#c6c5ca"/><path d="m62 20a3 3 0 0 0 -3-3h-1.877l.119-.03a1 1 0 0 0 .758-.97v-4a1 1 0 0 0 -.758-.97l-.668-.167.355-.591a1 1 0 0 0 -.151-1.222l-2.829-2.828a1 1 0 0 0 -1.221-.151l-.591.355-.167-.668a1 1 0 0 0 -.97-.758h-4a1 1 0 0 0 -.97.758l-.167.668-.591-.355a1 1 0 0 0 -1.221.151l-2.829 2.828a1 1 0 0 0 -.151 1.222l.355.591-.668.167a1 1 0 0 0 -.758.97v4a1 1 0 0 0 .758.97l.119.03h-3.411a2.983 2.983 0 0 0 -1.973-1.265l-1.724-.287a.971.971 0 0 1 -.748-.591c-.057-.144-.116-.286-.177-.428a.974.974 0 0 1 .111-.947l1.016-1.421a2.992 2.992 0 0 0 -.32-3.866l-1.846-1.847a2.993 2.993 0 0 0 -3.866-.319l-1.421 1.016a.975.975 0 0 1 -.947.112q-.212-.091-.428-.178a.968.968 0 0 1 -.59-.749l-.288-1.723a2.991 2.991 0 0 0 -2.959-2.507h-2.612a2.991 2.991 0 0 0 -2.959 2.506l-.288 1.725a.971.971 0 0 1 -.591.749c-.143.057-.286.116-.427.177a.977.977 0 0 1 -.947-.113l-1.421-1.015a2.993 2.993 0 0 0 -3.866.32l-1.846 1.851a2.991 2.991 0 0 0 -.32 3.865l1.016 1.423a.973.973 0 0 1 .111.947q-.091.212-.177.427a.971.971 0 0 1 -.748.591l-1.724.287a2.991 2.991 0 0 0 -2.507 2.954v2.612a2.991 2.991 0 0 0 2.507 2.959l1.724.287a.971.971 0 0 1 .748.591c.057.144.116.286.177.428a.974.974 0 0 1 -.111.947l-1.016 1.421a2.992 2.992 0 0 0 .32 3.866l1.851 1.847a2.993 2.993 0 0 0 3.866.319l1.421-1.015a.98.98 0 0 1 .947-.113q.211.091.428.178a.968.968 0 0 1 .59.749l.288 1.723a2.991 2.991 0 0 0 2.954 2.507h2.612a2.985 2.985 0 0 0 2.794-1.922l2.9 2.172v17.75a1 1 0 0 0 .47.848l8 5a1 1 0 0 0 1.53-.848v-22.75l20.333-15.25h1.667a3.017 3.017 0 0 0 3-3zm-20-7.219 1.22-.3a1 1 0 0 0 .615-1.485l-.648-1.078 1.726-1.725 1.078.647a1 1 0 0 0 1.485-.615l.3-1.22h2.438l.3 1.22a1 1 0 0 0 1.485.615l1.078-.647 1.725 1.725-.647 1.078a1 1 0 0 0 .615 1.485l1.22.3v2.438l-1.22.3a1 1 0 0 0 -.615 1.485l.647 1.078-1.725 1.725-1.078-.647a1 1 0 0 0 -1.485.615l-.3 1.22h-2.433l-.3-1.22a1 1 0 0 0 -1.485-.615l-1.078.647-1.726-1.725.648-1.078a1 1 0 0 0 -.615-1.485l-1.22-.3zm-.728 6.219 2 2h-5.272v-2zm-18.98 16.165a1 1 0 0 1 -.986.835h-2.612a1 1 0 0 1 -.986-.836l-.288-1.724a2.977 2.977 0 0 0 -1.829-2.28c-.124-.049-.247-.1-.367-.152a2.916 2.916 0 0 0 -1.16-.238 3 3 0 0 0 -1.744.558l-1.42 1.015a1 1 0 0 1 -1.289-.106l-1.848-1.846a1 1 0 0 1 -.107-1.291l1.016-1.42a2.981 2.981 0 0 0 .32-2.9c-.052-.122-.1-.244-.151-.368a2.983 2.983 0 0 0 -2.281-1.832l-1.725-.288a1 1 0 0 1 -.835-.986v-2.612a1 1 0 0 1 .835-.986l1.725-.288a2.983 2.983 0 0 0 2.281-1.83c.049-.124.1-.246.151-.366a2.984 2.984 0 0 0 -.32-2.9l-1.016-1.424a1 1 0 0 1 .107-1.288l1.846-1.849a1 1 0 0 1 1.291-.106l1.42 1.015a2.982 2.982 0 0 0 2.9.32c.12-.053.243-.1.366-.151a2.98 2.98 0 0 0 1.83-2.28l.288-1.726a1 1 0 0 1 .99-.835h2.612a1 1 0 0 1 .986.836l.288 1.724a2.977 2.977 0 0 0 1.829 2.28c.124.049.247.1.367.152a2.985 2.985 0 0 0 2.9-.32l1.424-1.015a1 1 0 0 1 1.289.106l1.846 1.846a1 1 0 0 1 .107 1.289l-1.014 1.422a2.981 2.981 0 0 0 -.32 2.9c.052.122.1.244.151.368a2.983 2.983 0 0 0 2.281 1.83l1.725.288a1 1 0 0 1 .835.986v2.612a1 1 0 0 1 -.835.986l-1.725.288a2.983 2.983 0 0 0 -2.281 1.83c-.049.124-.1.246-.151.366a2.984 2.984 0 0 0 .32 2.9l1.016 1.426a1 1 0 0 1 -.107 1.288l-1.846 1.846a1 1 0 0 1 -1.289.106l-1.422-1.012a2.979 2.979 0 0 0 -2.9-.32c-.12.053-.243.1-.366.151a2.98 2.98 0 0 0 -1.83 2.28zm13.108 1.785a1 1 0 0 0 -.4.8v21.45l-6-3.75v-17.7a1 1 0 0 0 -.4-.8l-4.069-3.05.022-.131a.971.971 0 0 1 .591-.749c.143-.057.286-.116.427-.177a.975.975 0 0 1 .947.113l1.421 1.015a2.992 2.992 0 0 0 3.866-.32l1.846-1.846a2.991 2.991 0 0 0 .32-3.865l-1.016-1.423a.973.973 0 0 1 -.111-.947q.092-.212.177-.427a.971.971 0 0 1 .748-.591l1.724-.287a2.983 2.983 0 0 0 1.973-1.265h16.534zm24.294-16.238a.957.957 0 0 1 -.694.288h-4.272l2-2h2.272a1 1 0 0 1 1 1 .978.978 0 0 1 -.306.712z"/><path d="m49 18a4 4 0 1 0 -4-4 4 4 0 0 0 4 4zm0-6a2 2 0 1 1 -2 2 2 2 0 0 1 2-2z"/><path d="m29 20a9 9 0 1 0 -9 9 9.01 9.01 0 0 0 9-9zm-9 7a7 7 0 1 1 7-7 7.008 7.008 0 0 1 -7 7z"/><path d="m31 53h2v2h-2z"/><path d="m31 36h2v15h-2z"/><path d="m49 42h-10v2h9v7a1 1 0 0 0 1 1h5v-2h-4v-7a1 1 0 0 0 -1-1z"/><path d="m56 50h2v2h-2z"/><path d="m45 51a1 1 0 0 0 -1-1h-5v2h4v6a1 1 0 0 0 1 1h14v-2h-13z"/><path d="m60 57h2v2h-2z"/><path d="m14 43v7h-4v2h5a1 1 0 0 0 1-1v-7h9v-2h-10a1 1 0 0 0 -1 1z"/><path d="m6 50h2v2h-2z"/><path d="m19 51v6h-13v2h14a1 1 0 0 0 1-1v-6h4v-2h-5a1 1 0 0 0 -1 1z"/><path d="m2 57h2v2h-2z"/></g></svg>