<svg height="512" viewBox="0 0 64 64" width="512" xmlns="http://www.w3.org/2000/svg"><g id="mortgage"><path d="m36.41 46.41c.89-.38 21.25-9.25 21.54-9.3v-.01a2.587 2.587 0 0 1 3.05 2.54v.01a2.582 2.582 0 0 1 -1.12 2.12l-27.88 19.23-19-8v-14l9-4 7.5 4 7.5 4v2a1.955 1.955 0 0 1 -.59 1.41z" fill="#ffdaaa"/><path d="m61 39.64v.01a2.582 2.582 0 0 1 -1.12 2.12l-27.88 19.23-1.24-.52 27.12-18.71a2.582 2.582 0 0 0 1.12-2.12v-.01a2.534 2.534 0 0 0 -1.51-2.34c.27-.12.43-.18.46-.19v-.01a2.587 2.587 0 0 1 3.05 2.54z" fill="#ffc477"/><path d="m51 20.08a1.954 1.954 0 0 1 -1.96-.45 1.813 1.813 0 0 1 0-2.64l1.98-1.97-.02-.02v-1.03a.965.965 0 0 0 -.97-.97h-6.03l3.23-7.35a5.57 5.57 0 0 1 4.77-2.65h9v9a4 4 0 0 1 -4 4h-.83l-4.4 3.63a1.782 1.782 0 0 1 -.77.45z" fill="#ffdaaa"/><path d="m51.02 15.02-1.98 1.97a1.813 1.813 0 0 0 0 2.64 1.954 1.954 0 0 0 1.96.45v5.95a.965.965 0 0 1 -.97.97h-26.06a.965.965 0 0 1 -.97-.97v-12.06a.965.965 0 0 1 .97-.97h26.06a.965.965 0 0 1 .97.97v1.03z" fill="#00b6bd"/><path d="m13 39v14a2.006 2.006 0 0 1 -2 2 2.015 2.015 0 0 1 -2-2v-14a2.006 2.006 0 0 1 2-2 2.015 2.015 0 0 1 2 2z" fill="#57a4ff"/><path d="m9 39v14l-6 6v-20z" fill="#ffdaaa"/><path d="m57.769 36.116a1 1 0 0 0 -.34.132c-.935.37-4.536 1.9-19.429 8.385v-1.633a1 1 0 0 0 -.529-.883l-15-8a1 1 0 0 0 -.877-.031l-7.947 3.532a2.979 2.979 0 0 0 -5.463.382h-5.184a1 1 0 0 0 -1 1v20a1 1 0 0 0 .617.924.987.987 0 0 0 .383.076 1 1 0 0 0 .707-.293l4.908-4.907a2.972 2.972 0 0 0 5.043-.437l17.954 7.56a.985.985 0 0 0 .388.077 1 1 0 0 0 .567-.177l27.878-19.223a3.584 3.584 0 0 0 -2.676-6.479zm-53.769 3.884h4v12.586l-4 4zm8 13a1 1 0 0 1 -2 0v-14a1 1 0 0 1 2 0zm47.312-12.054-27.429 18.92-17.883-7.53v-12.686l7.96-3.538 14.04 7.488v1.4a1 1 0 0 1 -1 1h-13v2h13a2.97 2.97 0 0 0 1.921-.715c8.214-3.579 20.515-8.92 21.32-9.218a1.58 1.58 0 0 1 1.2.367 1.544 1.544 0 0 1 .559 1.216 1.592 1.592 0 0 1 -.688 1.296z"/><path d="m61 2h-9a6.568 6.568 0 0 0 -5.609 3.113.86.86 0 0 0 -.074.137l-2.969 6.75h-19.378a1.973 1.973 0 0 0 -1.97 1.97v12.06a1.973 1.973 0 0 0 1.97 1.97h26.06a1.973 1.973 0 0 0 1.97-1.97v-5.309a2.618 2.618 0 0 0 .405-.319l4.127-3.402h.468a5.006 5.006 0 0 0 5-5v-9a1 1 0 0 0 -1-1zm-37 24.03-.03-12.03 26.03-.03v.655l-1.659 1.646a2.829 2.829 0 0 0 0 4.079 2.954 2.954 0 0 0 1.664.792l.025 4.858zm36-14.03a3 3 0 0 1 -3 3h-.827a1 1 0 0 0 -.636.229l-4.463 3.683a.986.986 0 0 1 -1.341 0 .824.824 0 0 1 -.26-.6.844.844 0 0 1 .268-.611l6.17-6.123-1.411-1.422-2.8 2.782a1.962 1.962 0 0 0 -1.67-.938h-4.5l2.583-5.871a4.539 4.539 0 0 1 3.887-2.129h8z"/><path d="m48.293 7.293 1.414 1.414.925-.925a2.652 2.652 0 0 1 1.889-.782h1.479v-2h-1.479a4.639 4.639 0 0 0 -3.3 1.368z"/><path d="m39 17h-2a2 2 0 0 0 -2 2v2h-2v-4h-2v2h-1v2h1a2 2 0 0 0 2 2h2a2 2 0 0 0 2-2v-2h2v4h2v-2h1v-2h-1a2 2 0 0 0 -2-2z"/><path d="m36 34h2v6h-2z"/><path d="m36 30h2v2h-2z"/><path d="m42 34h2v4h-2z"/><path d="m42 30h2v2h-2z"/><path d="m30 34h2v2h-2z"/><path d="m30 30h2v2h-2z"/></g></svg>