<svg height="512" viewBox="0 0 64 64" width="512" xmlns="http://www.w3.org/2000/svg"><g id="pay"><path d="m17 3h24v50h-24z" fill="#00b6bd"/><path d="m41 3v5a5 5 0 0 1 -5-5z" fill="#ffeb99"/><path d="m39 3h2v50h-2z" fill="#009698"/><path d="m41 3v5a5.106 5.106 0 0 1 -2-.41v-4.59z" fill="#ffde55"/><g fill="#ffeb99"><path d="m37 28a8.009 8.009 0 0 1 -5.79 7.69 3.9 3.9 0 0 0 -2.16-.64 3.966 3.966 0 0 0 -2.2.66 8 8 0 1 1 10.15-7.71z"/><path d="m27.51 43.39 3.83 4.49a3 3 0 1 1 -3.83-4.49z"/><circle cx="29" cy="10" r="3"/><path d="m17 3h5a5 5 0 0 1 -5 5z"/><path d="m22 53h-5v-5a5 5 0 0 1 5 5z"/></g><path d="m41 45.1v-21.1l14.32 8.48a12.01 12.01 0 0 1 5.68 10.2v17.32a1 1 0 0 1 -1 1h-18a8 8 0 0 1 -8-8v-2l-2.66-3.12-3.83-4.49-1.29-1.51a4.008 4.008 0 0 1 0-5.66 3.355 3.355 0 0 1 .63-.51 3.966 3.966 0 0 1 2.2-.66 3.9 3.9 0 0 1 2.16.64 3.322 3.322 0 0 1 .67.53z" fill="#ffdaaa"/><path d="m61 42.68v17.32a1 1 0 0 1 -1 1h-4a1 1 0 0 0 1-1v-17.32a12.01 12.01 0 0 0 -5.68-10.2l-10.32-6.11v-2.37l14.32 8.48a12.01 12.01 0 0 1 5.68 10.2z" fill="#ffc477"/><path d="m55.826 31.621-13.826-8.191v-20.43a1 1 0 0 0 -1-1h-24a1 1 0 0 0 -1 1v50a1 1 0 0 0 1 1h16.059a9.01 9.01 0 0 0 8.941 8h18a2 2 0 0 0 2-2v-17.315a12.929 12.929 0 0 0 -6.174-11.064zm-22.732 4.386a8.994 8.994 0 1 0 -8.049.076 4.964 4.964 0 0 0 .414 6.446l.629.737a3.994 3.994 0 0 0 2.912 6.734 3.973 3.973 0 0 0 2.231-.7l1.769 2.068v.632h-10.09a6.008 6.008 0 0 0 -4.91-4.91v-38.18a6.008 6.008 0 0 0 4.91-4.91h12.18a6.008 6.008 0 0 0 4.91 4.91v33.823zm-6.319-1.388a7 7 0 1 1 4.508-.022 4.832 4.832 0 0 0 -4.508.022zm.632 10.193 2.519 2.953a1.985 1.985 0 0 1 -2.519-2.953zm12.593-37.954a4 4 0 0 1 -2.858-2.858h2.858zm-19.142-2.858a4 4 0 0 1 -2.858 2.858v-2.858zm-2.858 45.142a4 4 0 0 1 2.858 2.858h-2.858zm42 10.858h-18a7.008 7.008 0 0 1 -7-7v-2a1 1 0 0 0 -.239-.649l-7.834-9.178a3.008 3.008 0 0 1 0-4.246 3.071 3.071 0 0 1 4.255.01l13.118 12.78 1.4-1.434-3.7-3.6v-18.928l12.79 7.577a10.933 10.933 0 0 1 5.21 9.353z"/><path d="m52.843 34.631-1.053 1.7a10.933 10.933 0 0 1 5.21 9.354h2a12.922 12.922 0 0 0 -6.157-11.054z"/><path d="m29 6a4 4 0 1 0 4 4 4 4 0 0 0 -4-4zm0 6a2 2 0 1 1 2-2 2 2 0 0 1 -2 2z"/><path d="m30 29v-2h2v4h2v-2h1v-2h-1a2 2 0 0 0 -2-2h-2a2 2 0 0 0 -2 2v2h-2v-4h-2v2h-1v2h1a2 2 0 0 0 2 2h2a2 2 0 0 0 2-2z"/><path d="m48 19h2v2h-2z"/><path d="m48 9h2v8h-2z"/><path d="m44 12h2v2h-2z"/><path d="m44 2h2v8h-2z"/><path d="m8 35h2v2h-2z"/><path d="m8 39h2v8h-2z"/><path d="m12 42h2v2h-2z"/><path d="m12 46h2v8h-2z"/></g></svg>