<svg height="512" viewBox="0 0 64 64" width="512" xmlns="http://www.w3.org/2000/svg"><g id="hologram"><path d="m61 54a6.009 6.009 0 0 1 -6 6h-46a6 6 0 0 1 -6-6 6.009 6.009 0 0 1 6-6h46a6 6 0 0 1 6 6z" fill="#57a4ff"/><path d="m61 54a6.009 6.009 0 0 1 -6 6h-2a6.009 6.009 0 0 0 6-6 6 6 0 0 0 -6-6h2a6 6 0 0 1 6 6z" fill="#2488ff"/><path d="m56 42-11 6h-26l-11-6h12 24z" fill="#ffde55"/><path d="m56 42-11 6h-26l-11-6h12 24z" fill="#ffde55"/><path d="m51.18 32.16a30.1 30.1 0 0 1 -1.18-8.33v-2.83a17.995 17.995 0 0 0 -19.21-17.96c-9.53.62-16.79 8.87-16.79 18.43v2.31a29.949 29.949 0 0 1 -1.14 8.2l-.86 3.02h13.68a10.986 10.986 0 0 0 12.64 0h13.68zm-32.18-6.16a2.006 2.006 0 0 1 -2-2v-2a2.006 2.006 0 0 1 2-2h2v6zm28-2a2.006 2.006 0 0 1 -2 2h-2v-6h2a2.006 2.006 0 0 1 2 2z" fill="#ffdaaa"/><path d="m51.18 32.16.82 2.84h-13.68a10.984 10.984 0 0 0 4.68-9h2a2.006 2.006 0 0 0 2-2v-2a2.006 2.006 0 0 0 -2-2h-2v-5l-15-4-7 4v5h-2a2.006 2.006 0 0 0 -2 2v2a2.006 2.006 0 0 0 2 2h2a10.984 10.984 0 0 0 4.68 9h-13.68l.86-3.02a29.949 29.949 0 0 0 1.14-8.2v-2.31c0-9.56 7.26-17.81 16.79-18.43a17.995 17.995 0 0 1 19.21 17.96v2.83a30.1 30.1 0 0 0 1.18 8.33z" fill="#a78966"/><path d="m52 35h-2l-.82-2.84a30.1 30.1 0 0 1 -1.18-8.33v-2.83a17.992 17.992 0 0 0 -16.96-17.97 17.987 17.987 0 0 1 18.96 17.97v2.83a30.1 30.1 0 0 0 1.18 8.33z" fill="#957856"/><path d="m47 22v2a2.006 2.006 0 0 1 -2 2h-2v-6h2a2.006 2.006 0 0 1 2 2z" fill="#c0ab91"/><path d="m43 15v11a11.007 11.007 0 0 1 -11 11c-.34 0-.67-.02-1-.05a10.826 10.826 0 0 0 5.32-1.95 10.984 10.984 0 0 0 4.68-9v-11l-13.64-3.64.64-.36z" fill="#ffc477"/><circle cx="32" cy="54" fill="#ffde55" r="2"/><path d="m21 20v6h-2a2.006 2.006 0 0 1 -2-2v-2a2.006 2.006 0 0 1 2-2z" fill="#c0ab91"/><path d="m55 47h-6.079l7.558-4.122a1 1 0 0 0 -.479-1.878h-9.586l2.293-2.293-1.414-1.414-3.707 3.707h-23.172l-3.707-3.707-1.414 1.414 2.293 2.293h-9.586a1 1 0 0 0 -.479 1.878l7.558 4.122h-6.079a7 7 0 0 0 0 14h46a7 7 0 0 0 0-14zm-43.078-4h40.156l-7.333 4h-25.49zm43.078 16h-46a5 5 0 0 1 0-10h46a5 5 0 0 1 0 10z"/><path d="m32 51a3 3 0 1 0 3 3 3 3 0 0 0 -3-3zm0 4a1 1 0 1 1 1-1 1 1 0 0 1 -1 1z"/><path d="m37 53h2v2h-2z"/><path d="m41 53h17v2h-17z"/><path d="m25 53h2v2h-2z"/><path d="m6 53h17v2h-17z"/><path d="m7 37h2v2h-2z"/><path d="m7 6h2v29h-2z"/><path d="m7 2h2v2h-2z"/><path d="m55 37h2v2h-2z"/><path d="m55 6h2v29h-2z"/><path d="m12 36h13.381a11.953 11.953 0 0 0 13.238 0h13.381a1 1 0 0 0 .961-1.277l-.82-2.839a28.989 28.989 0 0 1 -1.141-8.052v-2.832a18.995 18.995 0 0 0 -20.271-18.959 19.285 19.285 0 0 0 -17.729 19.428v2.312a28.992 28.992 0 0 1 -1.1 7.925l-.858 3.021a1 1 0 0 0 .958 1.273zm10-10v-10.42l6.14-3.508 13.86 3.697v10.231a10 10 0 0 1 -20 0zm-8.18 6.253a30.982 30.982 0 0 0 1.18-8.472v-2.312a17.28 17.28 0 0 1 15.859-17.432 17 17 0 0 1 18.141 16.963v2.832a30.977 30.977 0 0 0 1.219 8.606l.451 1.562h-9.751a11.932 11.932 0 0 0 3.03-7h1.051a3 3 0 0 0 3-3v-2a3 3 0 0 0 -3-3h-1v-4a1 1 0 0 0 -.742-.966l-15-4a.988.988 0 0 0 -.754.1l-7 4a1 1 0 0 0 -.504.866v4h-1a3 3 0 0 0 -3 3v2a3 3 0 0 0 3 3h1.051a11.932 11.932 0 0 0 3.03 7h-9.757zm30.18-11.253h1a1 1 0 0 1 1 1v2a1 1 0 0 1 -1 1h-1zm-24 4h-1a1 1 0 0 1 -1-1v-2a1 1 0 0 1 1-1h1z"/><path d="m55 2h2v2h-2z"/><path d="m31 44h2v2h-2z"/><path d="m35 44h2v2h-2z"/><path d="m27 44h2v2h-2z"/></g></svg>