<svg height="512" viewBox="0 0 64 64" width="512" xmlns="http://www.w3.org/2000/svg"><g id="humanoid"><path d="m51 51h6v6h-6z" fill="#57a4ff"/><circle cx="54" cy="32" fill="#ffde55" r="3"/><path d="m47 22.34v-1.34a10 10 0 0 0 -10-10h-20v11.34a4 4 0 0 0 1.17 2.83l2.83 2.83h-4v6h4v7a4 4 0 0 0 4 4h7a10.994 10.994 0 0 0 11-11h2a2.006 2.006 0 0 0 2-2v-2a2.006 2.006 0 0 0 -2-2h-2l2.83-2.83a4 4 0 0 0 1.17-2.83z" fill="#d8d7da"/><path d="m47 30v2a2.006 2.006 0 0 1 -2 2h-2v-6h2a2.006 2.006 0 0 1 2 2z" fill="#c0ab91"/><path d="m47 21v1.34a4 4 0 0 1 -1.17 2.83l-2.83 2.83v-5l-11-2.93v-9.07h5a10 10 0 0 1 10 10z" fill="#57a4ff"/><path d="m47 21v1.34a4 4 0 0 1 -1.17 2.83l-2.83 2.83v-2l.83-.83a4 4 0 0 0 1.17-2.83v-1.34a10 10 0 0 0 -10-10h2a10 10 0 0 1 10 10z" fill="#2488ff"/><path d="m32 39v-18.93l11 2.93v11a10.994 10.994 0 0 1 -11 11z" fill="#ffdaaa"/><path d="m43 23v11a10.994 10.994 0 0 1 -11 11v-.18a11 11 0 0 0 9-10.82v-11l-9-2.4v-.53z" fill="#ffc477"/><path d="m30 11h2v26h-2z" fill="#c6c5ca"/><path d="m30 41h2v4h-2z" fill="#c6c5ca"/><g fill="#ffde55"><path d="m32 39v2h-6v-4h6z"/><circle cx="27" cy="27" r="2"/><path d="m21 28v6h-4v-3-3z"/></g><path d="m7 51h6v6h-6z" fill="#57a4ff"/><path d="m7 7h6v6h-6z" fill="#57a4ff"/><circle cx="11" cy="21" fill="#ffde55" r="2"/><path d="m43.949 35h1.051a3 3 0 0 0 3-3v-2a2.994 2.994 0 0 0 -2.624-2.962l1.16-1.16a4.966 4.966 0 0 0 1.464-3.535v-1.343a11.013 11.013 0 0 0 -11-11h-20a1 1 0 0 0 -1 1v11.343a4.966 4.966 0 0 0 1.464 3.535l1.122 1.122h-1.586a1 1 0 0 0 -1 1v2h-4v-6.184a3 3 0 1 0 -2 0v7.184a1 1 0 0 0 1 1h5v2a1 1 0 0 0 1 1h3v6a5.006 5.006 0 0 0 5 5h7a12.01 12.01 0 0 0 11.949-11zm-32.949-15a1 1 0 1 1 -1 1 1 1 0 0 1 1-1zm35 10v2a1 1 0 0 1 -1 1h-1v-4h1a1 1 0 0 1 1 1zm0-9v1.343a3.02 3.02 0 0 1 -.878 2.121l-1.122 1.122v-2.586a1 1 0 0 0 -.742-.966l-10.258-2.734v-7.3h4a9.011 9.011 0 0 1 9 9zm-28-1h3a1 1 0 0 0 1-1v-3h-2v2h-2v-6h5v3a1 1 0 0 0 1 1h4v-2h-3v-2h6v6.765l-2.742-.731a1 1 0 0 0 -.754.1l-7 4a1 1 0 0 0 -.504.866v2.586l-1.122-1.122a3.02 3.02 0 0 1 -.878-2.121zm0 13v-4h2v4zm4 8v-17.42l6.139-3.508 2.861.763v15.165h-5a1 1 0 0 0 -1 1v4a1 1 0 0 0 1 1h5v2h-6a3 3 0 0 1 -3-3zm9-1h-4v-2h4zm2 3.949v-3.949h3v-2h-3v-16.632l9 2.4v10.232a10.013 10.013 0 0 1 -9 9.949z"/><path d="m37 26a3 3 0 0 0 -3 3h2a1 1 0 0 1 2 0h2a3 3 0 0 0 -3-3z"/><path d="m4 4h20v-2h-21a1 1 0 0 0 -1 1v21h2z"/><path d="m4 40h-2v21a1 1 0 0 0 1 1h21v-2h-20z"/><path d="m60 60h-20v2h21a1 1 0 0 0 1-1v-21h-2z"/><path d="m61 2h-21v2h20v20h2v-21a1 1 0 0 0 -1-1z"/><path d="m50 57a1 1 0 0 0 1 1h6a1 1 0 0 0 1-1v-6a1 1 0 0 0 -1-1h-6a1 1 0 0 0 -1 1zm2-5h4v4h-4z"/><path d="m50 46h8v2h-8z"/><path d="m50 10h8v2h-8z"/><path d="m50 6h8v2h-8z"/><path d="m50 14h8v2h-8z"/><path d="m7 50a1 1 0 0 0 -1 1v6a1 1 0 0 0 1 1h6a1 1 0 0 0 1-1v-6a1 1 0 0 0 -1-1zm5 6h-4v-4h4z"/><path d="m6 46h8v2h-8z"/><path d="m6 42h8v2h-8z"/><path d="m6 38h8v2h-8z"/><path d="m14 13v-6a1 1 0 0 0 -1-1h-6a1 1 0 0 0 -1 1v6a1 1 0 0 0 1 1h6a1 1 0 0 0 1-1zm-2-1h-4v-4h4z"/><path d="m44 53h-7v-5h-2v6a1 1 0 0 0 1 1h8z"/><path d="m46 53h2v2h-2z"/><path d="m27 53h-7v2h8a1 1 0 0 0 1-1v-6h-2z"/><path d="m16 53h2v2h-2z"/><path d="m30 27a3 3 0 1 0 -3 3 3 3 0 0 0 3-3zm-4 0a1 1 0 1 1 1 1 1 1 0 0 1 -1-1z"/><path d="m54 36a4 4 0 1 0 -4-4 4 4 0 0 0 4 4zm0-6a2 2 0 1 1 -2 2 2 2 0 0 1 2-2z"/><path d="m50 23h3v3h2v-4a1 1 0 0 0 -1-1h-4z"/><path d="m50 44h4a1 1 0 0 0 1-1v-4h-2v3h-3z"/></g></svg>