<svg height="512" viewBox="0 0 64 64" width="512" xmlns="http://www.w3.org/2000/svg"><g id="invention"><path d="m49 20c0 12-8 12-8 19h-18c0-7-8-7-8-19a17 17 0 0 1 34 0z" fill="#00d7df"/><path d="m49 20c0 12-8 12-8 19h-2c0-7 8-7 8-19a16.992 16.992 0 0 0 -16-16.97c.33-.02.67-.03 1-.03a17 17 0 0 1 17 17z" fill="#00b6bd"/><g fill="#00d7df"><path d="m42 15a3 3 0 0 1 0 6h-4.69l-1.07-1.07-1.75 1.05-.49-1.98h-4l-.49 1.98-1.75-1.05-1.07 1.07h-4.69a3 3 0 0 1 0-6v-1a5 5 0 0 1 5-5 5.466 5.466 0 0 1 3 1 5.854 5.854 0 0 1 5-3 5.984 5.984 0 0 1 5.65 8z"/><path d="m43 49v4a2.006 2.006 0 0 1 -2 2h-18a2.006 2.006 0 0 1 -2-2v-4a2.006 2.006 0 0 1 2-2h18a2.006 2.006 0 0 1 2 2z"/><rect height="8" rx="2" width="22" x="21" y="39"/><path d="m40 25v4l-1.98.49 1.05 1.75-2.83 2.83-1.75-1.05-.49 1.98h-4l-.49-1.98-1.75 1.05-2.83-2.83 1.05-1.75-1.98-.49v-4l1.98-.49-1.05-1.75 1.76-1.76 1.07-1.07 1.75 1.05.49-1.98h4l.49 1.98 1.75-1.05 1.07 1.07 1.76 1.76-1.05 1.75zm-5 2a3 3 0 1 0 -3 3 3 3 0 0 0 3-3z"/><path d="m39 55v4a2.006 2.006 0 0 1 -2 2h-10a2.006 2.006 0 0 1 -2-2v-4z"/><circle cx="32" cy="27" r="3"/></g><path d="m42 15a3 3 0 0 1 0 6h-4.69l-1.07-1.07-1.75 1.05-.49-1.98h-4l-.49 1.98-1.75-1.05-1.07 1.07h-4.69a3 3 0 0 1 0-6v-1a5 5 0 0 1 5-5 5.466 5.466 0 0 1 3 1 5.854 5.854 0 0 1 5-3 5.984 5.984 0 0 1 5.65 8z" fill="#e0e0e2"/><path d="m45 18a3 3 0 0 1 -3 3h-2a3 3 0 0 0 0-6h-1.35a5.978 5.978 0 0 0 -4.63-7.91 5.254 5.254 0 0 1 .98-.09 5.984 5.984 0 0 1 5.65 8h1.35a3 3 0 0 1 3 3z" fill="#c6c5ca"/><path d="m43 49v4a2.006 2.006 0 0 1 -2 2h-18a2.006 2.006 0 0 1 -2-2v-4a2.006 2.006 0 0 1 2-2h18a2.006 2.006 0 0 1 2 2z" fill="#57a4ff"/><rect fill="#57a4ff" height="8" rx="2" width="22" x="21" y="39"/><path d="m43 49v4a2.006 2.006 0 0 1 -2 2h-2a2.006 2.006 0 0 0 2-2v-4a2.006 2.006 0 0 0 -2-2h2a2.006 2.006 0 0 1 2 2z" fill="#2488ff"/><path d="m43 41v4a2.006 2.006 0 0 1 -2 2h-2a2.006 2.006 0 0 0 2-2v-4a2.006 2.006 0 0 0 -2-2h2a2.006 2.006 0 0 1 2 2z" fill="#2488ff"/><path d="m39 55v4a2.006 2.006 0 0 1 -2 2h-10a2.006 2.006 0 0 1 -2-2v-4z" fill="#e0e0e2"/><path d="m39 55v4a2.006 2.006 0 0 1 -2 2h-2a2.006 2.006 0 0 0 2-2v-4z" fill="#c6c5ca"/><path d="m40 29-1.98.49 1.05 1.75-2.83 2.83-1.75-1.05-.49 1.98h-4l-.49-1.98-1.75 1.05-2.83-2.83 1.05-1.75-1.98-.49v-4l1.98-.49-1.05-1.75 2.83-2.83 1.75 1.05.49-1.98h4l.49 1.98 1.75-1.05 2.83 2.83-1.05 1.75 1.98.49z" fill="#ffde55"/><path d="m40 29-1.98.49 1.05 1.75-2.83 2.83-1.25-.75 2.08-2.08-1.05-1.75 1.98-.49v-4l-1.98-.49 1.05-1.75-2.08-2.08 1.25-.75 2.83 2.83-1.05 1.75 1.98.49z" fill="#ffcd00"/><circle cx="32" cy="27" fill="#e0e0e2" r="3"/><path d="m35 27a3 3 0 0 1 -3 3 2.772 2.772 0 0 1 -1-.18 2.988 2.988 0 0 0 0-5.64 2.772 2.772 0 0 1 1-.18 3 3 0 0 1 3 3z" fill="#c6c5ca"/><path d="m32 23a4 4 0 1 0 4 4 4 4 0 0 0 -4-4zm0 6a2 2 0 1 1 2-2 2 2 0 0 1 -2 2z"/><path d="m24.071 30.728a1 1 0 0 0 .151 1.222l2.829 2.828a1 1 0 0 0 1.221.151l.591-.355.167.668a1 1 0 0 0 .97.758h4a1 1 0 0 0 .97-.758l.167-.668.591.355a1 1 0 0 0 1.221-.151l2.829-2.828a1 1 0 0 0 .151-1.222l-.355-.591.668-.167a1 1 0 0 0 .758-.97v-4a1 1 0 0 0 -.758-.97l-.668-.167.355-.591a1 1 0 0 0 -.151-1.222l-.05-.05h2.272a4 4 0 0 0 0-8h-.075a6.752 6.752 0 0 0 .075-1 7.008 7.008 0 0 0 -7-7 6.657 6.657 0 0 0 -5.3 2.667 6.3 6.3 0 0 0 -2.7-.667 6.006 6.006 0 0 0 -6 6v.126a4 4 0 0 0 1 7.874h2.272l-.05.05a1 1 0 0 0 -.151 1.222l.355.591-.668.167a1 1 0 0 0 -.758.97v4a1 1 0 0 0 .758.97l.668.167zm14.929-2.509-1.22.3a1 1 0 0 0 -.615 1.485l.647 1.078-1.725 1.725-1.078-.647a1.009 1.009 0 0 0 -.9-.067 1 1 0 0 0 -.587.682l-.3 1.22h-2.441l-.3-1.22a1 1 0 0 0 -1.485-.615l-1.078.647-1.726-1.725.648-1.078a1 1 0 0 0 -.615-1.485l-1.22-.3v-2.438l1.22-.3a1 1 0 0 0 .615-1.485l-.648-1.078 1.726-1.725 1.078.647a1 1 0 0 0 1.485-.615l.3-1.22h2.438l.3 1.22a1 1 0 0 0 1.485.615l1.078-.647 1.725 1.725-.647 1.078a1 1 0 0 0 .615 1.485l1.22.3zm-17-8.219a2 2 0 0 1 0-4 1 1 0 0 0 1-1v-1a4 4 0 0 1 4-4 4.471 4.471 0 0 1 2.425.818 1 1 0 0 0 1.431-.3 4.842 4.842 0 0 1 4.144-2.518 5.006 5.006 0 0 1 5 5 5.061 5.061 0 0 1 -.294 1.67 1 1 0 0 0 .944 1.33h1.35a2 2 0 0 1 0 4h-4.272l-.779-.778a1 1 0 0 0 -1.221-.151l-.591.355-.167-.668a1 1 0 0 0 -.97-.758h-4a1 1 0 0 0 -.97.758l-.167.668-.591-.355a1 1 0 0 0 -1.221.151l-.779.778z"/><path d="m42.05 38.2c.237-2.171 1.428-3.55 2.9-5.241a17.275 17.275 0 0 0 5.05-12.959 18 18 0 0 0 -36 0 17.275 17.275 0 0 0 5.046 12.959c1.476 1.691 2.667 3.07 2.9 5.241a3 3 0 0 0 -1.946 2.8v4a2.981 2.981 0 0 0 .78 2 2.981 2.981 0 0 0 -.78 2v4a3 3 0 0 0 3 3h1v3a3 3 0 0 0 3 3h10a3 3 0 0 0 3-3v-3h1a3 3 0 0 0 3-3v-4a2.981 2.981 0 0 0 -.78-2 2.981 2.981 0 0 0 .78-2v-4a3 3 0 0 0 -1.95-2.8zm-20.05 6.8v-4a1 1 0 0 1 1-1h18a1 1 0 0 1 1 1v4a1 1 0 0 1 -1 1h-18a1 1 0 0 1 -1-1zm-6-25a16 16 0 0 1 32 0c0 6.429-2.418 9.2-4.552 11.644-1.59 1.822-3.091 3.562-3.386 6.356h-16.124c-.295-2.794-1.8-4.534-3.386-6.356-2.134-2.444-4.552-5.215-4.552-11.644zm22 39a1 1 0 0 1 -1 1h-10a1 1 0 0 1 -1-1v-3h12zm4-6a1 1 0 0 1 -1 1h-18a1 1 0 0 1 -1-1v-4a1 1 0 0 1 1-1h18a1 1 0 0 1 1 1z"/><path d="m44 36h2v2h-2z"/><path d="m57 37a1 1 0 0 0 -1-1h-8v2h7v23a1 1 0 0 0 1 1h6v-2h-5z"/><path d="m58 27v-8a1 1 0 0 0 -1-1h-5v2h4v8a1 1 0 0 0 1 1h5v-2z"/><path d="m18 36h2v2h-2z"/><path d="m7 37v23h-5v2h6a1 1 0 0 0 1-1v-23h7v-2h-8a1 1 0 0 0 -1 1z"/><path d="m8 28v-8h4v-2h-5a1 1 0 0 0 -1 1v8h-4v2h5a1 1 0 0 0 1-1z"/><path d="m31 42h2v2h-2z"/><path d="m35 42h2v2h-2z"/><path d="m27 42h2v2h-2z"/><path d="m31 50h2v2h-2z"/><path d="m35 50h2v2h-2z"/><path d="m27 50h2v2h-2z"/></g></svg>