<svg height="512" viewBox="0 0 64 64" width="512" xmlns="http://www.w3.org/2000/svg"><g id="payment"><path d="m42.95 47h2.05v-4h-2v-4h-2v-15l14.32 8.48a12.01 12.01 0 0 1 5.68 10.2v17.32a1 1 0 0 1 -1 1h-18a8 8 0 0 1 -8-8v-2l-3.41-4-3.41-4-.96-1.12a4.012 4.012 0 0 1 -1.17-2.88 4 4 0 0 1 6.83-2.78l1.12 1.09 1.73 1.69 4.11 4z" fill="#ffdaaa"/><path d="m61 42.68v17.32a1 1 0 0 1 -1 1h-4a1 1 0 0 0 1-1v-17.32a12.01 12.01 0 0 0 -5.68-10.2l-10.32-6.11v-2.37l14.32 8.48a12.01 12.01 0 0 1 5.68 10.2z" fill="#ffc477"/><path d="m45 43v4h-2.05l-4.11-4h4.16z" fill="#c6c5ca"/><g fill="#c0ab91"><path d="m44.95 17h-41.9l20.95-14zm-17.95-6a2.006 2.006 0 0 0 -2-2h-2a2.015 2.015 0 0 0 -2 2 2.006 2.006 0 0 0 2 2h2a2.015 2.015 0 0 0 2-2z"/><path d="m43 39v4h-4.16l-4.11-4h6.27z"/><path d="m43 17v4h-2-8-2v-4z"/></g><path d="m41 24v15h-6.27l-1.73-1.69v-16.31h8z" fill="#c6c5ca"/><path d="m43 43h2v4h-2z" fill="#acabb1"/><path d="m41 39h2v4h-2z" fill="#b39a7c"/><path d="m41 17h2v4h-2z" fill="#b39a7c"/><path d="m39 21h2v18h-2z" fill="#acabb1"/><path d="m33 21v16.31l-1.12-1.09a4 4 0 0 0 -6.83 2.78h-10.05v-18h2v-4h14v4z" fill="#ffeb99"/><path d="m30.59 47h-27.59v-4h2 22.18z" fill="#c6c5ca"/><path d="m27.18 43h-22.18v-4h20.05a4.012 4.012 0 0 0 1.17 2.88z" fill="#c0ab91"/><path d="m25 9a2.006 2.006 0 0 1 2 2 2.015 2.015 0 0 1 -2 2h-2a2.006 2.006 0 0 1 -2-2 2.015 2.015 0 0 1 2-2z" fill="#ffeb99"/><path d="m17 17v4h-2-8-2v-4z" fill="#c0ab91"/><path d="m7 21h8v18h-8z" fill="#c6c5ca"/><path d="m55.826 31.621-13.826-8.191v-1.43h1a1 1 0 0 0 1-1v-3h.952a1 1 0 0 0 .556-1.831l-20.952-14a1 1 0 0 0 -1.112 0l-20.952 14a1 1 0 0 0 .556 1.831h.952v3a1 1 0 0 0 1 1h1v16h-1a1 1 0 0 0 -1 1v3h-1a1 1 0 0 0 -1 1v4a1 1 0 0 0 1 1h27.126l2.874 3.368v1.632a9.01 9.01 0 0 0 9 9h18a2 2 0 0 0 2-2v-17.315a12.929 12.929 0 0 0 -6.174-11.064zm-14.526 12.379h2.7v2h-.646zm-2.053-2-2.047-2h4.8v2zm.753-4h-4.859l-1.141-1.112v-14.888h6zm-15.834 0h-8.166v-16h1a1 1 0 0 0 1-1v-3h12v3a1 1 0 0 0 1 1h1v13.03a4.978 4.978 0 0 0 -7.834 2.97zm17.834-18h-10v-2h10zm-18-15.8 17.655 11.8h-35.31zm-8 13.8v2h-10v-2zm-8 4h6v16h-6zm-2 18h18.131a4.839 4.839 0 0 0 .9 2h-19.031zm-2 6v-2h22.714l1.706 2zm56 14h-18a7.009 7.009 0 0 1 -7-7v-2a1 1 0 0 0 -.239-.649l-7.834-9.178a3.006 3.006 0 0 1 0-4.245 3.071 3.071 0 0 1 4.255.009l13.118 12.78 1.4-1.434-.36-.351a.992.992 0 0 0 .66-.932v-4a1 1 0 0 0 -1-1h-1v-3a1 1 0 0 0 -1-1h-1v-12.245l12.79 7.577a10.93 10.93 0 0 1 5.21 9.353z"/><path d="m52.843 34.631-1.053 1.7a10.93 10.93 0 0 1 5.21 9.354h2a12.922 12.922 0 0 0 -6.157-11.054z"/><path d="m25 8h-2a3 3 0 0 0 0 6h2a3 3 0 0 0 0-6zm0 4h-2a1 1 0 0 1 0-2h2a1 1 0 0 1 0 2z"/><path d="m25 20h-2v2a2 2 0 0 0 -2 2v2a2 2 0 0 0 2 2h2v2h-4v2h2v2h2v-2a2 2 0 0 0 2-2v-2a2 2 0 0 0 -2-2h-2v-2h4v-2h-2z"/></g></svg>