<?xml version="1.0"?>
<svg xmlns="http://www.w3.org/2000/svg" viewBox="0 0 64 64" width="512" height="512"><g id="learning"><path d="M61,36l-3,2V50H44V61H21l4-12s-.46-1.63-1.14-4.15a1.867,1.867,0,0,1,.92-.76c.13-.05.26-.11.39-.16a1.963,1.963,0,0,1,1.93.21l1.42,1.02a1.992,1.992,0,0,0,2.58-.22l1.84-1.84a1.992,1.992,0,0,0,.22-2.58L32.14,39.1a1.963,1.963,0,0,1-.21-1.93c.05-.13.11-.26.16-.39a1.937,1.937,0,0,1,1.51-1.21l1.73-.29A2.006,2.006,0,0,0,37,33.31V30.69a2.006,2.006,0,0,0-1.67-1.97l-1.73-.29a1.937,1.937,0,0,1-1.51-1.21c-.05-.13-.11-.26-.16-.39a1.963,1.963,0,0,1,.21-1.93l1.02-1.42a1.992,1.992,0,0,0-.22-2.58L31.1,19.06a1.992,1.992,0,0,0-2.58-.22L27.1,19.86a1.963,1.963,0,0,1-1.93.21c-.13-.05-.26-.11-.39-.16a1.937,1.937,0,0,1-1.21-1.51l-.29-1.73A2.006,2.006,0,0,0,21.31,15H19.86C22.43,7.77,30.44,3,39,3c8.22,0,17,4,17,11V29Z" style="fill:#ffdaaa"/><rect x="40" y="50" width="4" height="11" style="fill:#ffc477"/><path d="M61,36l-3,2V50H54V38l3-2-5-7V14C52,7.59,44.63,3.69,37.08,3.08,37.72,3.03,38.36,3,39,3c8.22,0,17,4,17,11V29Z" style="fill:#ffc477"/><path d="M44,7c2.59,0,5,1.41,5,4,0,4-3,4-3,6H42c0-2-3-2-3-6C39,8.41,41.41,7,44,7Z" style="fill:#57a4ff"/><path d="M49,11c0,4-3,4-3,6H44c0-2,3-2,3-6,0-2.25-1.82-3.61-4-3.92A5.546,5.546,0,0,1,44,7C46.59,7,49,8.41,49,11Z" style="fill:#2488ff"/><path d="M37,30.69v2.62a2.006,2.006,0,0,1-1.67,1.97l-1.73.29a1.937,1.937,0,0,0-1.51,1.21c-.05.13-.11.26-.16.39a1.963,1.963,0,0,0,.21,1.93l1.02,1.42a1.992,1.992,0,0,1-.22,2.58L31.1,44.94a1.992,1.992,0,0,1-2.58.22L27.1,44.14a1.963,1.963,0,0,0-1.93-.21c-.13.05-.26.11-.39.16a1.867,1.867,0,0,0-.92.76,1.809,1.809,0,0,0-.29.75l-.29,1.73A2.006,2.006,0,0,1,21.31,49H18.69a2.006,2.006,0,0,1-1.97-1.67l-.29-1.73a1.937,1.937,0,0,0-1.21-1.51c-.13-.05-.26-.11-.39-.16a1.963,1.963,0,0,0-1.93.21l-1.42,1.02a1.992,1.992,0,0,1-2.58-.22L7.06,43.1a1.992,1.992,0,0,1-.22-2.58L7.86,39.1a1.963,1.963,0,0,0,.21-1.93c-.05-.13-.11-.26-.16-.39A1.937,1.937,0,0,0,6.4,35.57l-1.73-.29A2.006,2.006,0,0,1,3,33.31V30.69a2.006,2.006,0,0,1,1.67-1.97l1.73-.29a1.937,1.937,0,0,0,1.51-1.21c.05-.13.11-.26.16-.39a1.963,1.963,0,0,0-.21-1.93L6.84,23.48a1.992,1.992,0,0,1,.22-2.58L8.9,19.06a1.992,1.992,0,0,1,2.58-.22l1.42,1.02a1.963,1.963,0,0,0,1.93.21c.13-.05.26-.11.39-.16a1.937,1.937,0,0,0,1.21-1.51l.29-1.73A2.006,2.006,0,0,1,18.69,15h2.62a2.006,2.006,0,0,1,1.97,1.67l.29,1.73a1.937,1.937,0,0,0,1.21,1.51c.13.05.26.11.39.16a1.963,1.963,0,0,0,1.93-.21l1.42-1.02a1.992,1.992,0,0,1,2.58.22l1.84,1.84a1.992,1.992,0,0,1,.22,2.58L32.14,24.9a1.963,1.963,0,0,0-.21,1.93c.05.13.11.26.16.39a1.937,1.937,0,0,0,1.51,1.21l1.73.29A2.006,2.006,0,0,1,37,30.69Z" style="fill:#ffde55"/><path d="M37,30.69v2.62a2.006,2.006,0,0,1-1.67,1.97l-1.73.29a1.937,1.937,0,0,0-1.51,1.21c-.05.13-.11.26-.16.39a1.963,1.963,0,0,0,.21,1.93l1.02,1.42a1.992,1.992,0,0,1-.22,2.58L31.1,44.94a1.987,1.987,0,0,1-2.42.32,1.8,1.8,0,0,0,.42-.32l1.84-1.84a1.992,1.992,0,0,0,.22-2.58L30.14,39.1a1.963,1.963,0,0,1-.21-1.93c.05-.13.11-.26.16-.39a1.937,1.937,0,0,1,1.51-1.21l1.73-.29A2.006,2.006,0,0,0,35,33.31V30.69a2.006,2.006,0,0,0-1.67-1.97l-1.73-.29a1.937,1.937,0,0,1-1.51-1.21c-.05-.13-.11-.26-.16-.39a1.963,1.963,0,0,1,.21-1.93l1.02-1.42a1.992,1.992,0,0,0-.22-2.58L29.1,19.06a1.8,1.8,0,0,0-.42-.32,1.987,1.987,0,0,1,2.42.32l1.84,1.84a1.992,1.992,0,0,1,.22,2.58L32.14,24.9a1.963,1.963,0,0,0-.21,1.93c.05.13.11.26.16.39a1.937,1.937,0,0,0,1.51,1.21l1.73.29A2.006,2.006,0,0,1,37,30.69Z" style="fill:#ffcd00"/><circle cx="20" cy="32" r="8" style="fill:#e0e0e2"/><path d="M28,32a8,8,0,0,1-8,8,8.262,8.262,0,0,1-1-.06,8,8,0,0,0,0-15.88A8.262,8.262,0,0,1,20,24,8,8,0,0,1,28,32Z" style="fill:#c6c5ca"/><path d="M61.813,35.419,57,28.68V14C57,6.489,47.848,2,39,2,30.1,2,22.086,6.9,19.19,14h-.5a2.991,2.991,0,0,0-2.959,2.506l-.288,1.725a.971.971,0,0,1-.591.749c-.143.057-.286.116-.427.177a.977.977,0,0,1-.947-.113l-1.421-1.015a2.993,2.993,0,0,0-3.866.32L6.349,20.2a2.991,2.991,0,0,0-.32,3.865l1.016,1.423a.973.973,0,0,1,.111.947q-.091.212-.177.427a.971.971,0,0,1-.748.591l-1.724.287A2.991,2.991,0,0,0,2,30.694v2.612a2.991,2.991,0,0,0,2.507,2.959l1.724.287a.971.971,0,0,1,.748.591c.057.144.116.286.177.428a.974.974,0,0,1-.111.947L6.029,39.939a2.992,2.992,0,0,0,.32,3.866L8.2,45.652a2.993,2.993,0,0,0,3.866.319l1.421-1.015a.975.975,0,0,1,.947-.113q.211.091.428.178a.968.968,0,0,1,.59.749l.288,1.723A2.991,2.991,0,0,0,18.694,50h2.612a2.984,2.984,0,0,0,2.54-1.413c.042.15.08.286.108.388l-3.9,11.709A1,1,0,0,0,21,62H44a1,1,0,0,0,1-1V51H58a1,1,0,0,0,1-1V38.535l2.555-1.7a1,1,0,0,0,.258-1.413ZM22.292,47.165a1,1,0,0,1-.986.835H18.694a1,1,0,0,1-.986-.836L17.42,45.44a2.977,2.977,0,0,0-1.829-2.28c-.124-.049-.247-.1-.367-.152a2.916,2.916,0,0,0-1.16-.238,3,3,0,0,0-1.744.558L10.9,44.343a1,1,0,0,1-1.289-.106L7.763,42.391A1,1,0,0,1,7.656,41.1L8.672,39.68a2.981,2.981,0,0,0,.32-2.9c-.052-.122-.1-.244-.151-.368A2.983,2.983,0,0,0,6.56,34.58l-1.725-.288A1,1,0,0,1,4,33.306V30.694a1,1,0,0,1,.835-.986L6.56,29.42a2.983,2.983,0,0,0,2.281-1.83c.049-.124.1-.246.151-.366a2.984,2.984,0,0,0-.32-2.9L7.656,22.9a1,1,0,0,1,.107-1.288l1.846-1.846a1,1,0,0,1,1.289-.106l1.422,1.015a2.979,2.979,0,0,0,2.9.32c.12-.053.243-.1.366-.151a2.98,2.98,0,0,0,1.83-2.28l.288-1.726A1,1,0,0,1,18.694,16h2.612a1,1,0,0,1,.986.836l.288,1.724a2.977,2.977,0,0,0,1.829,2.28c.124.049.247.1.367.152a2.983,2.983,0,0,0,2.9-.32L29.1,19.657a1,1,0,0,1,1.289.106l1.846,1.846a1,1,0,0,1,.107,1.289L31.328,24.32a2.981,2.981,0,0,0-.32,2.9c.052.122.1.244.151.368a2.983,2.983,0,0,0,2.281,1.83l1.725.288a1,1,0,0,1,.835.986v2.612a1,1,0,0,1-.835.986l-1.725.288a2.983,2.983,0,0,0-2.281,1.83c-.049.124-.1.246-.151.366a2.984,2.984,0,0,0,.32,2.9L32.344,41.1a1,1,0,0,1-.107,1.288l-1.846,1.846a1,1,0,0,1-1.289.106L27.68,43.328a2.982,2.982,0,0,0-2.9-.32c-.12.053-.243.1-.366.151a2.98,2.98,0,0,0-1.83,2.28Zm35.153-10A1,1,0,0,0,57,38V49H44a1,1,0,0,0-1,1V60H22.388l3.56-10.684a1,1,0,0,0,.015-.587s-.4-1.409-.994-3.611a.882.882,0,0,1,.175-.1c.143-.057.286-.116.427-.177a.973.973,0,0,1,.947.113l1.421,1.015a2.992,2.992,0,0,0,3.866-.32l1.846-1.846a2.991,2.991,0,0,0,.32-3.865l-1.016-1.423a.973.973,0,0,1-.111-.947q.092-.211.177-.427a.971.971,0,0,1,.748-.591l1.724-.287A2.991,2.991,0,0,0,38,33.306V30.694a2.991,2.991,0,0,0-2.507-2.959l-1.724-.287a.971.971,0,0,1-.748-.591c-.057-.144-.116-.286-.177-.428a.974.974,0,0,1,.111-.947l1.016-1.421a2.992,2.992,0,0,0-.32-3.866l-1.846-1.847a2.993,2.993,0,0,0-3.866-.319l-1.421,1.016a.975.975,0,0,1-.947.112q-.212-.091-.428-.178a.968.968,0,0,1-.59-.749l-.288-1.723a2.987,2.987,0,0,0-2.905-2.5C24.2,8.051,31.224,4,39,4c7.865,0,16,3.741,16,10V29a.994.994,0,0,0,.187.581l4.4,6.16Z"/><path d="M44,6c-2.981,0-6,1.717-6,5a5.909,5.909,0,0,0,2.2,4.845c.6.562.8.791.8,1.155a1,1,0,0,0,1,1h4a1,1,0,0,0,1-1c0-.364.208-.593.8-1.155A5.909,5.909,0,0,0,50,11C50,7.717,46.981,6,44,6Zm2.432,8.39A4.533,4.533,0,0,0,45.183,16H42.817a4.533,4.533,0,0,0-1.249-1.61A3.986,3.986,0,0,1,40,11c0-2.061,2.073-3,4-3s4,.939,4,3A3.986,3.986,0,0,1,46.432,14.39Z"/><rect x="41" y="19" width="6" height="2"/><rect x="41" y="22" width="6" height="2"/><path d="M29,32a9,9,0,1,0-9,9A9.01,9.01,0,0,0,29,32Zm-9,7a7,7,0,1,1,7-7A7.008,7.008,0,0,1,20,39Z"/><path d="M43,31H40v2h4a1,1,0,0,0,1-1V26H43Z"/></g></svg>
