<svg height="512" viewBox="0 0 64 64" width="512" xmlns="http://www.w3.org/2000/svg"><g id="profit"><path d="m61 12v29l-8 10h-14l-4-9 8-15h2a2.006 2.006 0 0 1 2 2v13l8-10v-20a3 3 0 0 1 6 0z" fill="#ffdaaa"/><path d="m61 12v29l-8 10h-2l8-10v-29a2.993 2.993 0 0 0 -.88-2.12 2.838 2.838 0 0 0 -1.12-.7 2.772 2.772 0 0 1 1-.18 3 3 0 0 1 3 3z" fill="#ffc477"/><path d="m55 51v4h-2-14-2v-4h2 14z" fill="#57a4ff"/><path d="m55 51v4h-.222-1.556-.222v-4h.222 1.556z" fill="#2488ff"/><path d="m53 55 2 6h-18l2-6z" fill="#ffdaaa"/><path d="m40.66 11a10 10 0 0 1 0 10 10.19 10.19 0 0 1 -3.66 3.66 10 10 0 0 1 -10 0 10.19 10.19 0 0 1 -3.66-3.66 10 10 0 0 1 0-10 10.19 10.19 0 0 1 3.66-3.66 10 10 0 0 1 10 0 10.19 10.19 0 0 1 3.66 3.66z" fill="#ffeb99"/><path d="m21 27 8 15-4 9h-14l-8-10v-29a3 3 0 0 1 6 0v20l8 10v-13a2.006 2.006 0 0 1 2-2z" fill="#ffdaaa"/><path d="m29 42-4 9h-2l4-9-8-15h2z" fill="#ffc477"/><path d="m27 51v4h-2-14-2v-4h2 14z" fill="#57a4ff"/><path d="m25 55 2 6h-18l2-6z" fill="#ffdaaa"/><path d="m55 61h-2l-2-6h2z" fill="#ffc477"/><path d="m27 61h-2l-2-6h2z" fill="#ffc477"/><path d="m27 51v4h-.222-1.556-.222v-4h.222 1.556z" fill="#2488ff"/><path d="m58 8a4 4 0 0 0 -4 4v19.649l-6 7.5v-10.149a3 3 0 0 0 -3-3h-2a1 1 0 0 0 -.883.529l-8 15a1 1 0 0 0 -.031.877l3.375 7.594h-.461a1 1 0 0 0 -1 1v4a1 1 0 0 0 1 1h.613l-1.561 4.684a1 1 0 0 0 .948 1.316h18a1 1 0 0 0 .948-1.316l-1.561-4.684h.613a1 1 0 0 0 1-1v-4a.993.993 0 0 0 -.93-.986l6.711-8.389a1 1 0 0 0 .219-.625v-29a4 4 0 0 0 -4-4zm-4 44v2h-16v-2zm-.388 8h-15.224l1.332-4h12.56zm6.388-19.351-7.481 9.351h-12.869l-3.538-7.96 7.488-14.04h1.4a1 1 0 0 1 1 1v13a1 1 0 0 0 1.781.625l8-10a1 1 0 0 0 .219-.625v-20a2 2 0 0 1 4 0z"/><path d="m31 27v4h2v-4h-1z"/><path d="m38.134 28.625 1.732-1-1.529-2.649a11.1 11.1 0 0 0 2.639-2.639l2.648 1.529 1-1.732-2.648-1.529a10.9 10.9 0 0 0 .973-3.605h3.051v-2h-3.051a10.9 10.9 0 0 0 -.973-3.605l2.648-1.529-1-1.732-2.648 1.529a11.1 11.1 0 0 0 -2.639-2.639l1.529-2.649-1.732-1-1.534 2.649a10.9 10.9 0 0 0 -3.6-.973v-3.051h-2v3.051a10.9 10.9 0 0 0 -3.605.973l-1.529-2.649-1.732 1 1.529 2.649a11.1 11.1 0 0 0 -2.639 2.639l-2.648-1.529-1 1.732 2.648 1.534a10.909 10.909 0 0 0 -1.024 4.6h-3v2h3.191a10.9 10.9 0 0 0 .833 2.605l-2.648 1.529 1 1.732 2.648-1.529a11.1 11.1 0 0 0 2.639 2.639l-1.529 2.649 1.732 1 1.534-2.649a10.867 10.867 0 0 0 9.21 0zm-15.134-12.625a9 9 0 1 1 9 9 9.01 9.01 0 0 1 -9-9z"/><path d="m33 9h-2v2a2 2 0 0 0 -2 2v2a2 2 0 0 0 2 2h2v2h-4v2h2v2h2v-2a2 2 0 0 0 2-2v-2a2 2 0 0 0 -2-2h-2v-2h4v-2h-2z"/><path d="m21.883 26.529a1 1 0 0 0 -.883-.529h-2a3 3 0 0 0 -3 3v10.149l-6-7.5v-19.649a4 4 0 0 0 -8 0v29a1 1 0 0 0 .219.625l6.711 8.389a.993.993 0 0 0 -.93.986v4a1 1 0 0 0 1 1h.613l-1.561 4.684a1 1 0 0 0 .948 1.316h18a1 1 0 0 0 .948-1.316l-1.561-4.684h.613a1 1 0 0 0 1-1v-4a1 1 0 0 0 -1-1h-.461l3.375-7.594a1 1 0 0 0 -.031-.877zm4.117 25.471v2h-16v-2zm-.388 8h-15.224l1.332-4h12.56zm-1.262-10h-12.869l-7.481-9.351v-28.649a2 2 0 0 1 4 0v20a1 1 0 0 0 .219.625l8 10a1 1 0 0 0 1.781-.625v-13a1 1 0 0 1 1-1h1.4l7.488 14.04z"/><path d="m43 4h2v2h-2z"/><path d="m45 2h2v2h-2z"/><path d="m45 6h2v2h-2z"/><path d="m47 4h2v2h-2z"/><path d="m47 10h2v2h-2z"/><path d="m49 8h2v2h-2z"/><path d="m49 12h2v2h-2z"/><path d="m51 10h2v2h-2z"/><path d="m19 4h2v2h-2z"/><path d="m17 2h2v2h-2z"/><path d="m17 6h2v2h-2z"/><path d="m15 4h2v2h-2z"/><path d="m15 10h2v2h-2z"/><path d="m13 8h2v2h-2z"/><path d="m13 12h2v2h-2z"/><path d="m11 10h2v2h-2z"/></g></svg>