<svg height="512" viewBox="0 0 64 64" width="512" xmlns="http://www.w3.org/2000/svg"><g id="nanotech"><path d="m51.13 28.42a11 11 0 1 0 -15.55-15.55l-.71.7a4 4 0 0 0 -5.73 5.58l-.63-.63-12.73 12.73h5.66l9.89-9.9 4.25 4.25 2.83 2.82v.01l4.24 4.24-9.9 9.89v5.66l12.73-12.73-.63-.63a3.929 3.929 0 0 0 2.75 1.1 4 4 0 0 0 2.83-6.83z" fill="#57a4ff"/><path d="m18.61 42.56a2 2 0 1 0 2.83 2.83l16.97-16.96-2.83-2.83z" fill="#57a4ff"/><path d="m54.36 20.64a10.948 10.948 0 0 1 -3.23 7.78l-.7.71-2.11-2.11a11.021 11.021 0 0 0 -6.96-17.2 11.025 11.025 0 0 1 13 10.82z" fill="#2488ff"/><path d="m35.58 25.6-4.25-4.25-2.19-2.2a4 4 0 0 1 5.73-5.58l15.56 15.56a4 4 0 0 1 -2.83 6.83 3.929 3.929 0 0 1 -2.75-1.1l-2.2-2.19-4.24-4.24v-.01z" fill="#ffde55"/><path d="m50.43 34.79a4.015 4.015 0 0 1 -2.83 1.17 3.855 3.855 0 0 1 -2-.54 4.435 4.435 0 0 0 .83-.63 4.008 4.008 0 0 0 0-5.66l-15.56-15.56a3.57 3.57 0 0 0 -.83-.63 3.994 3.994 0 0 1 4.83.63l15.56 15.56a4.008 4.008 0 0 1 0 5.66z" fill="#ffcd00"/><path d="m45.48 35.49-12.73 12.73v-5.66l9.9-9.89 2.2 2.19z" fill="#00d7df"/><path d="m31.33 21.35-9.89 9.9h-5.66l12.73-12.73.63.63z" fill="#00d7df"/><path d="m47.6 36.958a5 5 0 0 0 4.169-7.758l.071-.071a12 12 0 1 0 -16.97-16.969l-.071.071a4.993 4.993 0 0 0 -7.408 5.993l-12.32 12.32a1 1 0 0 0 .707 1.707h5.657a1 1 0 0 0 .707-.293l9.192-9.192 2.829 2.828-16.263 16.264a3.005 3.005 0 0 0 0 4.243 3 3 0 0 0 4.243 0l16.263-16.264 2.828 2.829-9.192 9.192a1 1 0 0 0 -.293.707v5.657a1 1 0 0 0 1.707.707l12.32-12.32a5 5 0 0 0 1.824.349zm-4.245-26.313a10 10 0 0 1 7.071 17.071l-14.142-14.142a9.934 9.934 0 0 1 7.071-2.929zm-13.435 3.636a3 3 0 0 1 4.243 0l15.556 15.556a3 3 0 0 1 0 4.243 3.071 3.071 0 0 1 -4.242 0l-15.557-15.557a3 3 0 0 1 0-4.242zm-8.9 15.97h-2.828l10.314-10.313 1.414 1.414zm-.293 14.435a1 1 0 1 1 -1.415-1.414l16.265-16.264 1.415 1.415zm13.021 1.122v-2.829l8.9-8.9 1.414 1.414z"/><path d="m38.82 23.18h2v2h-2z" transform="matrix(.707 -.707 .707 .707 -5.435 35.239)"/><path d="m41.648 26.009h2v2h-2z" transform="matrix(.707 -.707 .707 .707 -6.607 38.068)"/><path d="m35.991 20.352h2v2h-2z" transform="matrix(.707 -.707 .707 .707 -4.265 32.403)"/><path d="m57.5 40.444-4.245-4.244-1.414 1.414 3.535 3.536-7.071 7.071 1.414 1.414 7.781-7.777a1 1 0 0 0 0-1.414z"/><path d="m49.012 41.858-2.828-2.829-1.414 1.414 2.121 2.122-6.364 6.364 1.414 1.414 7.071-7.071a1 1 0 0 0 0-1.414z"/><path d="m38.113 50.757h2v2h-2z" transform="matrix(.707 -.707 .707 .707 -25.142 42.816)"/><path d="m27.506 48.636h2v2h-2z" transform="matrix(.707 -.707 .707 .707 -26.749 34.695)"/><path d="m19.556 53.586h8v2h-8z" transform="matrix(.707 -.707 .707 .707 -31.698 32.645)"/><path d="m14.778 47.222h2v2h-2z" transform="matrix(.707 -.707 .707 .707 -29.477 25.281)"/><path d="m6.828 52.172h8v2h-8z" transform="matrix(.707 -.707 .707 .707 -34.426 23.23)"/><path d="m45.891 50.05h2v2h-2z" transform="matrix(.707 -.707 .707 .707 -22.364 48.109)"/><path d="m22.849 8.624 3.536 3.535 1.415-1.414-4.244-4.245a1.029 1.029 0 0 0 -1.414 0l-7.778 7.779 1.414 1.421z"/><path d="m20.728 14.988-7.071 7.071 1.414 1.414 6.364-6.364 2.122 2.121 1.414-1.414-2.829-2.828a1 1 0 0 0 -1.414 0z"/><path d="m11.243 23.887h2v2h-2z" transform="matrix(.707 -.707 .707 .707 -14.012 15.946)"/><path d="m13.364 34.494h2v2h-2z" transform="matrix(.707 -.707 .707 .707 -20.891 20.553)"/><path d="m5.414 39.444h8v2h-8z" transform="matrix(.707 -.707 .707 .707 -25.841 18.503)"/><path d="m11.95 16.109h2v2h-2z" transform="matrix(.707 -.707 .707 .707 -8.305 14.168)"/></g></svg>