<svg height="512" viewBox="0 0 64 64" width="512" xmlns="http://www.w3.org/2000/svg"><g id="real_estate" data-name="real estate"><path d="m61 31-3.05 6.1v.01c-.09.02-1.91.79-4.46 1.89h-23.99l-7.5-4-9 4a2.015 2.015 0 0 0 -2-2 2.006 2.006 0 0 0 -2 2h-2l-4-8z" fill="#ff7956"/><path d="m36.41 46.41c.63-.27 10.96-4.77 17.08-7.41 2.55-1.1 4.37-1.87 4.46-1.89v-.01a2.587 2.587 0 0 1 3.05 2.54v.01a2.582 2.582 0 0 1 -1.12 2.12l-27.88 19.23-19-8v-14l9-4 7.5 4 7.5 4v2a1.955 1.955 0 0 1 -.59 1.41z" fill="#ffdaaa"/><path d="m61 39.64v.01a2.582 2.582 0 0 1 -1.12 2.12l-27.88 19.23-1.24-.52 27.12-18.71a2.582 2.582 0 0 0 1.12-2.12v-.01a2.534 2.534 0 0 0 -1.51-2.34c.27-.12.43-.18.46-.19v-.01a2.587 2.587 0 0 1 3.05 2.54z" fill="#ffc477"/><path d="m61 31-3.05 6.1v.01c-.09.02-1.91.79-4.46 1.89h-2c2.55-1.1 4.37-1.87 4.46-1.89v-.01l3.05-6.1z" fill="#ff6243"/><path d="m30 11h20v20h-20z" fill="#00b6bd"/><path d="m30 11v20h-16v-28h16z" fill="#57a4ff"/><path d="m48 11h2v20h-2z" fill="#009698"/><path d="m28 3h2v28h-2z" fill="#2488ff"/><path d="m13 39v14a2.006 2.006 0 0 1 -2 2 2.015 2.015 0 0 1 -2-2v-14a2.006 2.006 0 0 1 2-2 2.015 2.015 0 0 1 2 2z" fill="#57a4ff"/><path d="m9 39v14l-6 6v-20h4z" fill="#ffdaaa"/><path d="m60.718 36.9a3.623 3.623 0 0 0 -1.221-.654l2.4-4.795a1 1 0 0 0 -.897-1.451h-10v-19a1 1 0 0 0 -1-1h-19v-7a1 1 0 0 0 -1-1h-16a1 1 0 0 0 -1 1v27h-10a1 1 0 0 0 -.895 1.447l3.277 6.553h-2.382a1 1 0 0 0 -1 1v20a1 1 0 0 0 .617.924.987.987 0 0 0 .383.076 1 1 0 0 0 .707-.293l4.908-4.907a2.972 2.972 0 0 0 5.043-.437l17.954 7.56a1 1 0 0 0 .956-.1l27.877-19.223a3.582 3.582 0 0 0 .273-5.7zm-11.718-24.9v18h-18v-18zm-34-8h14v26h-14zm-10.382 28h54.764l-2.167 4.334c-.545.222-1.649.687-3.926 1.666h-23.538l-7.28-3.883a1 1 0 0 0 -.877-.031l-7.947 3.532a2.979 2.979 0 0 0 -5.463.382h-.566zm32.853 10.117-3.971-2.117h15.159c-2.677 1.16-6.151 2.669-10.659 4.633v-1.633a1 1 0 0 0 -.529-.883zm-33.471-2.117h4v12.586l-4 4zm8 13a1 1 0 0 1 -2 0v-14a1 1 0 0 1 2 0zm47.312-12.054-27.429 18.92-17.883-7.53v-12.686l7.96-3.538 14.04 7.488v1.4a1 1 0 0 1 -1 1h-13v2h13a2.97 2.97 0 0 0 1.921-.715c8.214-3.579 20.516-8.921 21.32-9.218a1.583 1.583 0 0 1 1.2.367 1.544 1.544 0 0 1 .559 1.216 1.592 1.592 0 0 1 -.688 1.296z"/><path d="m45 14h2v2h-2z"/><path d="m45 18h2v2h-2z"/><path d="m45 22h2v2h-2z"/><path d="m45 26h2v2h-2z"/><path d="m41 14h2v2h-2z"/><path d="m37 14h2v2h-2z"/><path d="m33 14h2v2h-2z"/><path d="m41 18h2v2h-2z"/><path d="m37 18h2v2h-2z"/><path d="m33 18h2v2h-2z"/><path d="m41 22h2v2h-2z"/><path d="m37 22h2v2h-2z"/><path d="m33 22h2v2h-2z"/><path d="m41 26h2v2h-2z"/><path d="m37 26h2v2h-2z"/><path d="m33 26h2v2h-2z"/><path d="m25 14h2v2h-2z"/><path d="m21 14h2v2h-2z"/><path d="m17 14h2v2h-2z"/><path d="m25 10h2v2h-2z"/><path d="m21 10h2v2h-2z"/><path d="m17 10h2v2h-2z"/><path d="m25 6h2v2h-2z"/><path d="m21 6h2v2h-2z"/><path d="m17 6h2v2h-2z"/><path d="m25 18h2v2h-2z"/><path d="m21 18h2v2h-2z"/><path d="m17 18h2v2h-2z"/><path d="m25 22h2v2h-2z"/><path d="m21 22h2v2h-2z"/><path d="m17 22h2v2h-2z"/><path d="m25 26h2v2h-2z"/><path d="m21 26h2v2h-2z"/><path d="m17 26h2v2h-2z"/></g></svg>