<svg height="512" viewBox="0 0 64 64" width="512" xmlns="http://www.w3.org/2000/svg"><g id="reseach"><path d="m61 17-1.98-.49 1.05-1.75-2.83-2.83-1.75 1.05-.49-1.98h-4l-.49 1.98-1.75-1.05-2.83 2.83 1.05 1.75-1.98.49v2h-4v-13c0-1.66-4.03-3-9-3s-9 1.34-9 3v13h-16a2.006 2.006 0 0 0 -2 2v20.18a2.988 2.988 0 0 0 0 5.64v4.18a2.006 2.006 0 0 0 2 2h50a2.006 2.006 0 0 0 2-2v-26.69l1.07-1.07-1.05-1.75 1.98-.49z" fill="#57a4ff"/><path d="m61 21-1.98.49 1.05 1.75-1.07 1.07v26.69a2.006 2.006 0 0 1 -2 2h-2a2.006 2.006 0 0 0 2-2v-26.69l1.07-1.07-1.05-1.75 1.98-.49v-4l-1.98-.49 1.05-1.75-2.08-2.08 1.25-.75 2.83 2.83-1.05 1.75 1.98.49z" fill="#2488ff"/><path d="m61 21-1.98.49 1.05 1.75-2.83 2.83-1.75-1.05-.49 1.98h-4l-.49-1.98-1.75 1.05-2.83-2.83 1.05-1.75-1.98-.49v-4l1.98-.49-1.05-1.75 2.83-2.83 1.75 1.05.49-1.98h4l.49 1.98 1.75-1.05 2.83 2.83-1.05 1.75 1.98.49z" fill="#ffde55"/><path d="m61 21-1.98.49 1.05 1.75-2.83 2.83-1.25-.75 2.08-2.08-1.05-1.75 1.98-.49v-4l-1.98-.49 1.05-1.75-2.08-2.08 1.25-.75 2.83 2.83-1.05 1.75 1.98.49z" fill="#ffcd00"/><path d="m61 57-.62 2.49a1.992 1.992 0 0 1 -1.94 1.51h-52.88a1.992 1.992 0 0 1 -1.94-1.51l-.62-2.49h25v2h8v-2z" fill="#ffdaaa"/><path d="m61 57-.62 2.49a1.992 1.992 0 0 1 -1.94 1.51h-2a1.992 1.992 0 0 0 1.94-1.51l.62-2.49z" fill="#ffc477"/><circle cx="53" cy="19" fill="#e0e0e2" r="3"/><path d="m56 19a3 3 0 0 1 -3 3 2.772 2.772 0 0 1 -1-.18 2.988 2.988 0 0 0 0-5.64 2.772 2.772 0 0 1 1-.18 3 3 0 0 1 3 3z" fill="#c6c5ca"/><path d="m50.28 37.14a6 6 0 1 1 -5.28-3.14 5.978 5.978 0 0 1 5.28 3.14z" fill="#00d7df"/><path d="m51 40a6.009 6.009 0 0 1 -6 6 5.47 5.47 0 0 1 -1-.09 5.832 5.832 0 0 0 3.24-1.67 5.986 5.986 0 0 0 -3.24-10.15 5.47 5.47 0 0 1 1-.09 5.986 5.986 0 0 1 6 6z" fill="#00b6bd"/><g fill="#e0e0e2"><path d="m41 19v5c0 1.66-4.03 3-9 3s-9-1.34-9-3v-6c0 1.66 4.03 3 9 3s9-1.34 9-3z"/><path d="m41 12v6c0 1.66-4.03 3-9 3s-9-1.34-9-3v-6c0 1.66 4.03 3 9 3s9-1.34 9-3z"/><path d="m41 6v6c0 1.66-4.03 3-9 3s-9-1.34-9-3v-6c0 1.66 4.03 3 9 3s9-1.34 9-3z"/></g><path d="m41 18v6c0 1.66-4.03 3-9 3-.34 0-.67-.01-1-.02 4.5-.16 8-1.43 8-2.98v-4.12c1.25-.51 2-1.17 2-1.88z" fill="#d8d7da"/><path d="m41 12v6c0 1.66-4.03 3-9 3-.34 0-.67-.01-1-.02 4.5-.16 8-1.43 8-2.98v-4.12c1.25-.51 2-1.17 2-1.88z" fill="#c6c5ca"/><path d="m41 6v6c0 1.66-4.03 3-9 3-.34 0-.67-.01-1-.02 4.5-.16 8-1.43 8-2.98v-4.12c1.25-.51 2-1.17 2-1.88z" fill="#acabb1"/><path d="m41 6c0 1.66-4.03 3-9 3-.34 0-.67-.01-1-.02 4.5-.16 8-1.43 8-2.98s-3.5-2.82-8-2.98c.33-.01.66-.02 1-.02 4.97 0 9 1.34 9 3z" fill="#787680"/><ellipse cx="32" cy="6" fill="#898890" rx="9" ry="3"/><path d="m26 41a3 3 0 0 1 0 6h-20a2.772 2.772 0 0 1 -1-.18 2.988 2.988 0 0 1 0-5.64 2.772 2.772 0 0 1 1-.18v-1a5 5 0 0 1 5-5 5.466 5.466 0 0 1 3 1 5.854 5.854 0 0 1 5-3 5.984 5.984 0 0 1 5.65 8z" fill="#e0e0e2"/><path d="m29 44a3 3 0 0 1 -3 3h-2a3 3 0 0 0 0-6h-1.35a5.978 5.978 0 0 0 -4.63-7.91 5.254 5.254 0 0 1 .98-.09 5.984 5.984 0 0 1 5.65 8h1.35a3 3 0 0 1 3 3z" fill="#c6c5ca"/><path d="m61 56h-25a1 1 0 0 0 -1 1v1h-6v-1a1 1 0 0 0 -1-1h-25a1 1 0 0 0 -.97 1.243l.621 2.485a3 3 0 0 0 2.911 2.272h52.876a3 3 0 0 0 2.911-2.272l.621-2.485a1 1 0 0 0 -.97-1.243zm-55.438 4a1 1 0 0 1 -.971-.758l-.311-1.242h22.72v1a1 1 0 0 0 1 1zm53.847-.758a1 1 0 0 1 -.971.758h-22.438a1 1 0 0 0 1-1v-1h22.72z"/><path d="m31 11h2v2h-2z"/><path d="m31 17h2v2h-2z"/><path d="m31 23h2v2h-2z"/><path d="m53 15a4 4 0 1 0 4 4 4 4 0 0 0 -4-4zm0 6a2 2 0 1 1 2-2 2 2 0 0 1 -2 2z"/><path d="m61.242 16.03-.668-.167.355-.591a1 1 0 0 0 -.151-1.222l-2.829-2.828a1 1 0 0 0 -1.221-.151l-.591.355-.167-.668a1 1 0 0 0 -.97-.758h-4a1 1 0 0 0 -.97.758l-.167.668-.591-.355a1 1 0 0 0 -1.221.151l-2.829 2.828a1 1 0 0 0 -.151 1.222l.355.591-.668.167a1 1 0 0 0 -.758.97v1h-2v-12c0-2.748-5.184-4-10-4s-10 1.252-10 4v12h-15a3 3 0 0 0 -3 3v19.551a3.97 3.97 0 0 0 0 6.893v3.556a3 3 0 0 0 3 3h50a3 3 0 0 0 3-3v-26.272l.778-.778a1 1 0 0 0 .151-1.222l-.355-.591.668-.167a1 1 0 0 0 .758-.97v-4a1 1 0 0 0 -.758-.97zm-37.242 4.494a19.008 19.008 0 0 0 8 1.476 19.008 19.008 0 0 0 8-1.476v3.476c0 .514-2.751 2-8 2s-8-1.486-8-2zm0-6a19.008 19.008 0 0 0 8 1.476 19.008 19.008 0 0 0 8-1.476v3.476c0 .514-2.751 2-8 2s-8-1.486-8-2zm8-10.524c5.249 0 8 1.486 8 2s-2.751 2-8 2-8-1.486-8-2 2.751-2 8-2zm-8 4.524a19.008 19.008 0 0 0 8 1.476 19.008 19.008 0 0 0 8-1.476v3.476c0 .514-2.751 2-8 2s-8-1.486-8-2zm-18 33.476a1 1 0 0 0 1-1v-1a4 4 0 0 1 4-4 4.483 4.483 0 0 1 2.426.819 1 1 0 0 0 1.43-.3 4.842 4.842 0 0 1 4.144-2.519 4.988 4.988 0 0 1 4.709 6.667 1 1 0 0 0 .942 1.333h1.349a2 2 0 0 1 0 4h-20a2 2 0 0 1 0-4zm52 9a1 1 0 0 1 -1 1h-50a1 1 0 0 1 -1-1v-3h20a4 4 0 0 0 0-8h-.073a6.846 6.846 0 0 0 .073-1 7.008 7.008 0 0 0 -7-7 6.654 6.654 0 0 0 -5.3 2.668 6.3 6.3 0 0 0 -2.7-.668 6 6 0 0 0 -5 2.69v-15.69a1 1 0 0 1 1-1h15v4c0 2.748 5.184 4 10 4s10-1.252 10-4v-4h2v1a1 1 0 0 0 .758.97l.668.167-.355.591a1 1 0 0 0 .151 1.222l2.829 2.828a1 1 0 0 0 1.221.151l.591-.355.167.668a1 1 0 0 0 .97.758h4a1 1 0 0 0 .97-.758l.167-.668.591.355a1 1 0 0 0 1.221-.151l.051-.05zm2-30.781-1.22.3a1 1 0 0 0 -.615 1.485l.647 1.078-1.725 1.725-1.078-.647a1 1 0 0 0 -1.485.615l-.3 1.22h-2.443l-.3-1.22a1 1 0 0 0 -1.485-.615l-1.078.647-1.726-1.725.648-1.078a1 1 0 0 0 -.615-1.485l-1.22-.3v-2.438l1.22-.3a1 1 0 0 0 .615-1.485l-.648-1.078 1.726-1.725 1.078.647a1 1 0 0 0 1.485-.615l.3-1.22h2.438l.3 1.22a1 1 0 0 0 1.485.615l1.078-.647 1.725 1.725-.647 1.078a1 1 0 0 0 .615 1.485l1.22.3z"/><path d="m11 23v9h2v-8h7v-2h-8a1 1 0 0 0 -1 1z"/><path d="m52 40a7.026 7.026 0 1 0 -2.816 5.6l5.109 5.108 1.414-1.414-5.107-5.109a6.956 6.956 0 0 0 1.4-4.185zm-7 5a5 5 0 1 1 5-5 5.006 5.006 0 0 1 -5 5z"/><path d="m31 29h2v2h-2z"/><path d="m32 39h4v-2h-3v-4h-2v5a1 1 0 0 0 1 1z"/><path d="m31 46h2v2h-2z"/><path d="m35 46h5v2h-5z"/><path d="m52 29h2v2h-2z"/><path d="m52 33h2v4h-2z"/><path d="m14 42h2v2h-2z"/><path d="m18 42h2v2h-2z"/><path d="m10 42h2v2h-2z"/></g></svg>