<svg height="512" viewBox="0 0 64 64" width="512" xmlns="http://www.w3.org/2000/svg"><g id="safebox"><path d="m61 55v6h-26a2.006 2.006 0 0 0 2-2v-4z" fill="#c6c5ca"/><path d="m56 21h5v4h-5z" fill="#c6c5ca"/><path d="m61 21h-5-14-20-14-5l29-18z" fill="#c0ab91"/><path d="m56 49v6h-14v-6h3 8z" fill="#c0ab91"/><path d="m56 25v2h-3-8-3v-2-4h14z" fill="#c0ab91"/><path d="m59 55h2v6h-2z" fill="#acabb1"/><path d="m59 21h2v4h-2z" fill="#acabb1"/><path d="m54 49h2v6h-2z" fill="#b39a7c"/><path d="m54 21h2v6h-2z" fill="#b39a7c"/><path d="m51 27h2v22h-2z" fill="#acabb1"/><path d="m45 27h8v22h-8z" fill="#c6c5ca"/><path d="m22 21h20v4h-20z" fill="#c6c5ca"/><rect fill="#57a4ff" height="28" rx="2" width="34" x="3" y="33"/><path d="m37 35v24a2.006 2.006 0 0 1 -2 2h-2a2.006 2.006 0 0 0 2-2v-24a2.006 2.006 0 0 0 -2-2h2a2.006 2.006 0 0 1 2 2z" fill="#2488ff"/><path d="m7 37h26v20h-26z" fill="#ff7956"/><path d="m31 37h2v20h-2z" fill="#ff6243"/><path d="m22 25v2h-3-8-3v-2-4h14z" fill="#c0ab91"/><circle cx="17" cy="47" fill="#ffeb99" r="3"/><g fill="#c6c5ca"><path d="m11 27h8v6h-8z"/><path d="m9 40a2.006 2.006 0 0 1 2 2 2.015 2.015 0 0 1 -2 2h-6v-4z"/><path d="m9 50a2.006 2.006 0 0 1 2 2 2.015 2.015 0 0 1 -2 2h-6v-4z"/><path d="m3 21h5v4h-5z"/></g><path d="m3 44h4v6h-4z" fill="#57a4ff"/><path d="m56 28a1 1 0 0 0 1-1v-1h4a1 1 0 0 0 1-1v-4h-.007a.994.994 0 0 0 -.466-.85l-29-18a1 1 0 0 0 -1.054 0l-29 18a.994.994 0 0 0 -.466.85h-.007v4a1 1 0 0 0 1 1h4v1a1 1 0 0 0 1 1h2v4h-5a3 3 0 0 0 -3 3v24a3 3 0 0 0 3 3h56a1 1 0 0 0 1-1v-6a1 1 0 0 0 -1-1h-4v-5a1 1 0 0 0 -1-1h-2v-20zm-13-2v-4h12v4zm-1 22a1 1 0 0 0 -1 1v5h-3v-19a3 3 0 0 0 -3-3h-15v-4h2a1 1 0 0 0 1-1v-1h18v1a1 1 0 0 0 1 1h2v20zm-1-26v2h-18v-2zm16 2v-2h3v2zm-25-19.823 25.492 15.823h-50.984zm-28 19.823v-2h3v2zm5-2h12v4h-12zm3 6h6v4h-6zm-8 21v-4h2v4zm5 2a1 1 0 0 1 0 2h-5v-2zm-1 4h1a3 3 0 0 0 0-6h-1v-4h1a3 3 0 0 0 0-6h-1v-1h24v18h-24zm1-14a1 1 0 0 1 0 2h-5v-2zm-4 19a1 1 0 0 1 -1-1v-4h2v2a1 1 0 0 0 1 1h26a1 1 0 0 0 1-1v-20a1 1 0 0 0 -1-1h-26a1 1 0 0 0 -1 1v2h-2v-4a1 1 0 0 1 1-1h30a1 1 0 0 1 1 1v24a1 1 0 0 1 -1 1zm55 0h-22.184a2.966 2.966 0 0 0 .184-1v-3h22zm-5-6h-12v-4h12zm-3-6h-6v-20h6z"/><path d="m17 43a4 4 0 1 0 4 4 4 4 0 0 0 -4-4zm0 6a2 2 0 1 1 2-2 2 2 0 0 1 -2 2z"/><path d="m28 46h2v2h-2z"/><path d="m25 46h2v2h-2z"/><path d="m22 46h2v2h-2z"/><path d="m28 49h2v2h-2z"/><path d="m25 49h2v2h-2z"/><path d="m22 49h2v2h-2z"/><path d="m28 43h2v2h-2z"/><path d="m25 43h2v2h-2z"/><path d="m22 43h2v2h-2z"/></g></svg>