<svg height="512" viewBox="0 0 64 64" width="512" xmlns="http://www.w3.org/2000/svg"><g id="robot_arm" data-name="robot arm"><path d="m3 51h58v10h-58z" fill="#57a4ff"/><path d="m59 51h2v10h-2z" fill="#2488ff"/><path d="m3 3v3 3h2 4 46 4 2v-3-3z" fill="#00d7df"/><path d="m59 15.54a3.974 3.974 0 1 1 -2-.54 3.98 3.98 0 0 1 2 .54z" fill="#ffde55"/><path d="m59 22.46v7.54a4 4 0 0 1 -4 4h-3.54a3.974 3.974 0 0 0 0-4h3.54v-7.54a3.974 3.974 0 0 0 4 0z" fill="#e0e0e2"/><path d="m59 9v6.54a3.974 3.974 0 0 0 -4 0v-6.54z" fill="#e0e0e2"/><circle cx="56" cy="56" fill="#ffde55" r="2"/><path d="m51.46 30a4 4 0 1 1 -3.46-2 3.989 3.989 0 0 1 3.46 2z" fill="#ffde55"/><path d="m13 45v3 3h38v-3-3z" fill="#00d7df"/><path d="m59 3h2v6h-2z" fill="#00b6bd"/><path d="m49 45h2v6h-2z" fill="#00b6bd"/><g fill="#ffde55"><circle cx="48" cy="56" r="2"/><circle cx="40" cy="56" r="2"/><circle cx="32" cy="56" r="2"/><circle cx="24" cy="56" r="2"/><path d="m16 28a4.01 4.01 0 1 1 -3.46 2 4 4 0 0 1 3.46-2z"/><circle cx="16" cy="56" r="2"/></g><path d="m9 30h3.54a3.974 3.974 0 0 0 0 4h-3.54a4 4 0 0 1 -4-4v-7.54a3.974 3.974 0 0 0 4 0z" fill="#e0e0e2"/><path d="m9 15.54a3.974 3.974 0 1 1 -2-.54 3.98 3.98 0 0 1 2 .54z" fill="#ffde55"/><circle cx="8" cy="56" fill="#ffde55" r="2"/><path d="m9 9v6.54a3.974 3.974 0 0 0 -4 0v-6.54z" fill="#e0e0e2"/><path d="m61 50h-9v-5a1 1 0 0 0 -1-1h-38a1 1 0 0 0 -1 1v5h-9a1 1 0 0 0 -1 1v10a1 1 0 0 0 1 1h58a1 1 0 0 0 1-1v-10a1 1 0 0 0 -1-1zm-47-4h36v4h-36zm46 14h-56v-8h56z"/><path d="m8 59a3 3 0 1 0 -3-3 3 3 0 0 0 3 3zm0-4a1 1 0 1 1 -1 1 1 1 0 0 1 1-1z"/><path d="m16 59a3 3 0 1 0 -3-3 3 3 0 0 0 3 3zm0-4a1 1 0 1 1 -1 1 1 1 0 0 1 1-1z"/><path d="m24 59a3 3 0 1 0 -3-3 3 3 0 0 0 3 3zm0-4a1 1 0 1 1 -1 1 1 1 0 0 1 1-1z"/><path d="m40 59a3 3 0 1 0 -3-3 3 3 0 0 0 3 3zm0-4a1 1 0 1 1 -1 1 1 1 0 0 1 1-1z"/><path d="m48 59a3 3 0 1 0 -3-3 3 3 0 0 0 3 3zm0-4a1 1 0 1 1 -1 1 1 1 0 0 1 1-1z"/><path d="m32 59a3 3 0 1 0 -3-3 3 3 0 0 0 3 3zm0-4a1 1 0 1 1 -1 1 1 1 0 0 1 1-1z"/><path d="m56 59a3 3 0 1 0 -3-3 3 3 0 0 0 3 3zm0-4a1 1 0 1 1 -1 1 1 1 0 0 1 1-1z"/><path d="m61 10a1 1 0 0 0 1-1v-6a1 1 0 0 0 -1-1h-58a1 1 0 0 0 -1 1v6a1 1 0 0 0 1 1h1v5.026a4.948 4.948 0 0 0 0 7.948v7.026a5.006 5.006 0 0 0 5 5h3.026a4.933 4.933 0 0 0 7.283.719 1 1 0 0 0 .244.176l4 2a1 1 0 0 0 .894 0l4-2-.894-1.79-3.553 1.777-3-1.5v-4.764l3-1.5 3.553 1.782.894-1.79-4-2a1 1 0 0 0 -.894 0l-4 2a1 1 0 0 0 -.244.176 4.933 4.933 0 0 0 -7.283.714h-2.026v-6.026a4.948 4.948 0 0 0 0-7.948v-5.026h44v5.026a4.948 4.948 0 0 0 0 7.948v6.026h-2.026a4.933 4.933 0 0 0 -7.283-.719 1 1 0 0 0 -.244-.176l-4-2a1 1 0 0 0 -.894 0l-4 2 .894 1.79 3.553-1.777 3 1.5v4.764l-3 1.5-3.553-1.782-.894 1.79 4 2a1 1 0 0 0 .894 0l4-2a1 1 0 0 0 .244-.176 4.933 4.933 0 0 0 7.283-.714h3.026a5.006 5.006 0 0 0 5-5v-7.026a4.948 4.948 0 0 0 0-7.948v-5.026zm-57-6h56v4h-56zm12 25a3 3 0 1 1 -3 3 3 3 0 0 1 3-3zm-7 2h2.1a5 5 0 0 0 0 2h-2.1a3 3 0 0 1 -3-3v-6.1a5 5 0 0 0 2 0v6.1a1 1 0 0 0 1 1zm-2-9a3 3 0 1 1 3-3 3 3 0 0 1 -3 3zm1-7.9a5 5 0 0 0 -2 0v-4.1h2zm40 20.9a3 3 0 1 1 3-3 3 3 0 0 1 -3 3zm10-5a3 3 0 0 1 -3 3h-2.1a5 5 0 0 0 0-2h2.1a1 1 0 0 0 1-1v-6.1a5 5 0 0 0 2 0zm-1-8a3 3 0 1 1 3-3 3 3 0 0 1 -3 3zm1-7.9a5 5 0 0 0 -2 0v-4.1h2z"/><path d="m23 47h2v2h-2z"/><path d="m27 47h2v2h-2z"/><path d="m31 47h2v2h-2z"/><path d="m35 47h2v2h-2z"/><path d="m39 47h2v2h-2z"/><path d="m43 47h2v2h-2z"/><path d="m47 47h2v2h-2z"/><path d="m19 47h2v2h-2z"/><path d="m15 47h2v2h-2z"/><path d="m5 5h2v2h-2z"/><path d="m9 5h2v2h-2z"/><path d="m13 5h2v2h-2z"/><path d="m17 5h2v2h-2z"/><path d="m21 5h2v2h-2z"/><path d="m25 5h2v2h-2z"/><path d="m29 5h2v2h-2z"/><path d="m33 5h2v2h-2z"/><path d="m37 5h2v2h-2z"/><path d="m41 5h2v2h-2z"/><path d="m45 5h2v2h-2z"/><path d="m49 5h2v2h-2z"/><path d="m53 5h2v2h-2z"/><path d="m57 5h2v2h-2z"/><path d="m6 18h2v2h-2z"/><path d="m15 31h2v2h-2z"/><path d="m56 18h2v2h-2z"/><path d="m47 31h2v2h-2z"/></g></svg>