<?xml version="1.0"?>
<svg xmlns="http://www.w3.org/2000/svg" viewBox="0 0 64 64" width="512" height="512"><g id="savings"><path d="M52.04,3H52a9,9,0,0,0-.04,18H52a9,9,0,0,0,.04-18Z" style="fill:#ffeb99"/><path d="M57,41A15.985,15.985,0,0,1,43,56.86V59a2.006,2.006,0,0,1-2,2H39a2.006,2.006,0,0,1-2-2V57H23v2a2.006,2.006,0,0,1-2,2H19a2.006,2.006,0,0,1-2-2V55.83A16.013,16.013,0,0,1,7.29,44H5a2.006,2.006,0,0,1-2-2V40a2.006,2.006,0,0,1,2-2H7.29a16.009,16.009,0,0,1,8.7-11.37h-.02V18C19.88,19.29,22,24.99,22,25H41A16,16,0,0,1,57,41Z" style="fill:#ffdaaa"/><path d="M57,41A15.985,15.985,0,0,1,43,56.86V59a2.006,2.006,0,0,1-2,2H39a2.006,2.006,0,0,0,2-2V56.86A15.992,15.992,0,0,0,39,25h2A16,16,0,0,1,57,41Z" style="fill:#ffc477"/><path d="M59,38a2.957,2.957,0,0,0-1.239.276A17.011,17.011,0,0,0,41,24H22.65c-.789-1.877-2.912-5.81-6.367-6.95A1,1,0,0,0,14.97,18v8.024A17.1,17.1,0,0,0,6.484,37H5a3,3,0,0,0-3,3v2a3,3,0,0,0,3,3H6.483A16.907,16.907,0,0,0,16,56.486V59a3,3,0,0,0,3,3h2a3,3,0,0,0,3-3V58H36v1a3,3,0,0,0,3,3h2a3,3,0,0,0,3-3V57.722A17.013,17.013,0,0,0,58,41a1,1,0,0,1,2,0v6h2V41A3,3,0,0,0,59,38ZM42.876,55.87a1,1,0,0,0-.876.992V59a1,1,0,0,1-1,1H39a1,1,0,0,1-1-1V57a1,1,0,0,0-1-1H23a1,1,0,0,0-1,1v2a1,1,0,0,1-1,1H19a1,1,0,0,1-1-1V55.826a1,1,0,0,0-.625-.927,14.925,14.925,0,0,1-9.1-11.086A1,1,0,0,0,7.291,43H5a1,1,0,0,1-1-1V40a1,1,0,0,1,1-1H7.291a1,1,0,0,0,.982-.813,15.073,15.073,0,0,1,8.154-10.664.988.988,0,0,0,.543-1.031V19.615c2.521,1.737,3.991,5.468,4.083,5.707A1,1,0,0,0,22,26H41a14.994,14.994,0,0,1,1.876,29.87Z"/><path d="M18,32a4,4,0,0,0-4,4h2a2,2,0,0,1,4,0h2A4,4,0,0,0,18,32Z"/><rect x="25" y="28" width="14" height="2"/><path d="M51,19h2V17a2,2,0,0,0,2-2V13a2,2,0,0,0-2-2H51V9h4V7H53V5H51V7a2,2,0,0,0-2,2v2a2,2,0,0,0,2,2h2v2H49v2h2Z"/><path d="M52,22A10,10,0,1,0,42,12,10.011,10.011,0,0,0,52,22ZM52,4a8,8,0,1,1-8,8A8.009,8.009,0,0,1,52,4Z"/><rect x="31" y="20" width="2" height="2"/><rect x="38" y="10" width="2" height="2"/><path d="M33,12h3V10H32a1,1,0,0,0-1,1v7h2Z"/></g></svg>
