<svg height="512" viewBox="0 0 64 64" width="512" xmlns="http://www.w3.org/2000/svg"><g id="robot"><path d="m58.5 42h-3.5v-3a2.006 2.006 0 0 0 -2-2h-9.83a14.926 14.926 0 0 0 3.83-10v-3h8a2.015 2.015 0 0 0 2-2 2.006 2.006 0 0 0 -2-2h-8v-3a15 15 0 0 0 -30 0v3h-8a2.006 2.006 0 0 0 -2 2 2.015 2.015 0 0 0 2 2h8v3a14.926 14.926 0 0 0 3.83 10h-9.83a2.006 2.006 0 0 0 -2 2v3h-3.5a2.5 2.5 0 1 0 0 5h3.5v12a2.006 2.006 0 0 0 2 2h10a2.006 2.006 0 0 0 2-2v-9h5v2a4 4 0 0 0 8 0v-2h5v9a2.006 2.006 0 0 0 2 2h10a2.006 2.006 0 0 0 2-2v-12h3.5a2.5 2.5 0 0 0 0-5zm-26.5 0h-9v-3a15 15 0 0 0 18 0v3z" fill="#57a4ff"/><path d="m58.5 42a2.5 2.5 0 1 1 0 5h-3.5v-5z" fill="#ffde55"/><path d="m55 20a2.006 2.006 0 0 1 2 2 2.015 2.015 0 0 1 -2 2h-8v-4z" fill="#ffde55"/><path d="m53 37h-10a2.006 2.006 0 0 0 -2 2v21l.181-.181a2 2 0 0 0 1.819 1.181h10a2 2 0 0 0 1.819-1.181l.181.181v-21a2.006 2.006 0 0 0 -2-2z" fill="#898890"/><path d="m55 39v21l-.18-.18a2.013 2.013 0 0 1 -1.82 1.18h-2a2.013 2.013 0 0 0 1.82-1.18l.18.18v-21a2.006 2.006 0 0 0 -2-2h2a2.006 2.006 0 0 1 2 2z" fill="#57565c"/><path d="m55 48v10l-7-7-7 7v-8-2l7-7z" fill="#e0e0e2"/><path d="m55 48v10l-2-2v-8l-6-6 1-1z" fill="#c6c5ca"/><path d="m21 37h-10a2.006 2.006 0 0 0 -2 2v21l.181-.181a2 2 0 0 0 1.819 1.181h10a2 2 0 0 0 1.819-1.181l.181.181v-21a2.006 2.006 0 0 0 -2-2z" fill="#898890"/><path d="m23 39v21l-.18-.18a2.013 2.013 0 0 1 -1.82 1.18h-2a2.013 2.013 0 0 0 1.82-1.18l.18.18v-21a2.006 2.006 0 0 0 -2-2h2a2.006 2.006 0 0 1 2 2z" fill="#57565c"/><path d="m23 48v10l-7-7-7 7v-8-2l7-7z" fill="#e0e0e2"/><path d="m23 48v10l-2-2v-8l-6-6 1-1z" fill="#c6c5ca"/><path d="m47 17v10a14.926 14.926 0 0 1 -3.83 10h-.17a2.006 2.006 0 0 0 -2 2 14.932 14.932 0 0 1 -9 3c-.34 0-.67-.01-1-.03a14.979 14.979 0 0 0 8-2.97 2.006 2.006 0 0 1 2-2h.17a14.926 14.926 0 0 0 3.83-10v-10z" fill="#2488ff"/><path d="m47 17h-30a15 15 0 0 1 30 0z" fill="#00d7df"/><path d="m47 17h-2a15.013 15.013 0 0 0 -14-14.96c.33-.03.66-.04 1-.04a15.023 15.023 0 0 1 15 15z" fill="#00b6bd"/><path d="m41 48v2h-5-8-5v-2-6h9 9z" fill="#ffde55"/><path d="m39 42h2v8h-2z" fill="#ffcd00"/><path d="m39 21-4 9h-6l-4-9z" fill="#ffde55"/><path d="m39 21-4 9h-2l4-9z" fill="#ffcd00"/><path d="m36 50v2a4 4 0 1 1 -8 0v-2z" fill="#00d7df"/><path d="m36 50v2a4 4 0 0 1 -4 4 3.657 3.657 0 0 1 -1-.13 3.992 3.992 0 0 0 3-3.87v-2z" fill="#00b6bd"/><g fill="#ffde55"><circle cx="32" cy="10" r="2"/><path d="m17 20v4h-8a2.015 2.015 0 0 1 -2-2 2.006 2.006 0 0 1 2-2z"/><path d="m9 42v5h-3.5a2.5 2.5 0 0 1 0-5z"/></g><path d="m39 20h-14a1 1 0 0 0 -.914 1.406l4 9a1 1 0 0 0 .914.594h6a1 1 0 0 0 .914-.594l4-9a1 1 0 0 0 -.914-1.406zm-4.65 9h-4.7l-3.111-7h10.922z"/><path d="m32 13a3 3 0 1 0 -3-3 3 3 0 0 0 3 3zm0-4a1 1 0 1 1 -1 1 1 1 0 0 1 1-1z"/><path d="m57 17h5v-2h-5a6.911 6.911 0 0 0 -4.942 2.047 6.816 6.816 0 0 0 -1.378 1.953h-2.68v-2a16.021 16.021 0 0 0 -16-16 16.019 16.019 0 0 0 -16 16v2h-2.68a6.76 6.76 0 0 0 -1.369-1.944 6.919 6.919 0 0 0 -4.951-2.056h-5v2h5a4.941 4.941 0 0 1 3.539 1.472 4.86 4.86 0 0 1 .454.528h-1.993a3 3 0 0 0 0 6h2a4.99 4.99 0 0 1 -4 2h-5v2h5a6.969 6.969 0 0 0 6.3-4h2.7v2a15.931 15.931 0 0 0 2.8 9h-7.8a3 3 0 0 0 -3 3v2h-2.5a3.5 3.5 0 0 0 0 7h2.5v11a3 3 0 0 0 3 3h10a3 3 0 0 0 3-3v-8h3v1a5 5 0 0 0 10 0v-1h3v8a3 3 0 0 0 3 3h10a3 3 0 0 0 3-3v-11h2.5a3.5 3.5 0 0 0 0-7h-2.5v-2a3 3 0 0 0 -3-3h-7.8a15.931 15.931 0 0 0 2.8-9v-2h2.7a6.969 6.969 0 0 0 6.3 4h5v-2h-5a4.99 4.99 0 0 1 -4-2h2a3 3 0 0 0 0-6h-1.992a4.966 4.966 0 0 1 3.992-2zm-25-14a14 14 0 0 1 13.951 13h-27.9a14.007 14.007 0 0 1 13.949-13zm-23 20a1 1 0 0 1 0-2h7v2zm2 15h10a1 1 0 0 1 1 1v6.586l-5.293-5.293a1 1 0 0 0 -1.414 0l-5.293 5.293v-6.586a1 1 0 0 1 1-1zm13.266 3h-.266v-.154c.089.054.177.104.266.154zm-14.266 7.414 6-6 6 6v7.172l-5.293-5.293a1 1 0 0 0 -1.414 0l-5.293 5.293zm-4.5-2.414a1.5 1.5 0 0 1 0-3h2.5v3zm15.5 14h-10a1 1 0 0 1 -1-1v-.586l6-6 6 6v.586a1 1 0 0 1 -1 1zm14-8a3 3 0 0 1 -6 0v-1h6zm-11-3v-6h16v6zm30 6.586-5.293-5.293a1 1 0 0 0 -1.414 0l-5.293 5.293v-7.172l6-6 6 6zm-14-14.586h-.266c.089-.05.177-.1.266-.154zm13 19h-10a1 1 0 0 1 -1-1v-.586l6-6 6 6v.586a1 1 0 0 1 -1 1zm5.5-17a1.5 1.5 0 0 1 0 3h-2.5v-3zm-4.5-4v6.586l-5.293-5.293a1 1 0 0 0 -1.414 0l-5.293 5.293v-6.586a1 1 0 0 1 1-1h10a1 1 0 0 1 1 1zm-11.33-2.967a2.994 2.994 0 0 0 -2.613 2.4 13.945 13.945 0 0 1 -16.114 0 2.994 2.994 0 0 0 -2.613-2.4 13.932 13.932 0 0 1 -3.33-9.033v-9h28v9a13.932 13.932 0 0 1 -3.33 9.033zm13.33-14.033a1 1 0 0 1 -1 1h-7v-2h7a1 1 0 0 1 1 1z"/><path d="m31 37h2v2h-2z"/><path d="m31 33h2v2h-2z"/><path d="m21 13h2v2h-2z"/><path d="m42 13h2v2h-2z"/></g></svg>