<svg height="512" viewBox="0 0 64 64" width="512" xmlns="http://www.w3.org/2000/svg"><g id="schedule"><path d="m57 57v-6h-6v6zm0-12v-6h-6v6zm0-12v-6h-6v6zm-11 24v-6h-6v6zm-11 0v-6h-6v6zm-11 0v-6h-6v6zm-11 0v-6h-6v6zm0-12v-6h-6v6zm0-12v-6h-6v6z" fill="#57a4ff"/><rect fill="#57a4ff" height="42" rx="2" width="58" x="3" y="19"/><path d="m61 6v7a2.006 2.006 0 0 1 -2 2h-54a2.006 2.006 0 0 1 -2-2v-7z" fill="#ffeb99"/><path d="m61 21v38a2.006 2.006 0 0 1 -2 2h-2a2.006 2.006 0 0 0 2-2v-38a2.006 2.006 0 0 0 -2-2h2a2.006 2.006 0 0 1 2 2z" fill="#2488ff"/><path d="m61 6v7a2.006 2.006 0 0 1 -2 2h-2a2.006 2.006 0 0 0 2-2v-7z" fill="#ffde55"/><path d="m51 51h6v6h-6z" fill="#ff7956"/><path d="m51 39h6v6h-6z" fill="#ff7956"/><path d="m51 27h6v6h-6z" fill="#ff7956"/><path d="m55 6v2a3 3 0 0 1 -6 0v-5h6z" fill="#00b6bd"/><path d="m40 51h6v6h-6z" fill="#ff7956"/><rect fill="#ffeb99" height="38" rx="2" width="28" x="18" y="10"/><path d="m46 12v34a2.006 2.006 0 0 1 -2 2h-2a2.006 2.006 0 0 0 2-2v-34a2.006 2.006 0 0 0 -2-2h2a2.006 2.006 0 0 1 2 2z" fill="#ffde55"/><path d="m38 37h4v7h-4z" fill="#ffde55"/><path d="m38 30h4v3h-4z" fill="#ffde55"/><path d="m42 18v4a4 4 0 0 1 -4 4h-12a4 4 0 0 1 -4-4v-4a4 4 0 0 1 4-4h12a4 4 0 0 1 4 4zm-4 4v-4a1 1 0 0 0 -1-1h-2a1 1 0 0 0 -1 1v4a1 1 0 0 0 1 1h2a1 1 0 0 0 1-1z" fill="#57a4ff"/><rect fill="#57a4ff" height="6" rx="1" width="4" x="34" y="17"/><path d="m29 51h6v6h-6z" fill="#ff7956"/><g fill="#ffde55"><rect height="5" rx="1.5" width="5" x="30" y="39"/><rect height="5" rx="1.5" width="5" x="30" y="30"/><rect height="5" rx="1.5" width="5" x="22" y="39"/><rect height="5" rx="1.5" width="5" x="22" y="30"/></g><path d="m18 51h6v6h-6z" fill="#ff7956"/><path d="m15 6v2a3 3 0 0 1 -6 0v-5h6z" fill="#00b6bd"/><path d="m7 51h6v6h-6z" fill="#ff7956"/><path d="m7 39h6v6h-6z" fill="#ff7956"/><path d="m7 27h6v6h-6z" fill="#ff7956"/><path d="m59 16a3 3 0 0 0 3-3v-7a1 1 0 0 0 -1-1h-5v-2a1 1 0 0 0 -1-1h-6a1 1 0 0 0 -1 1v2h-32v-2a1 1 0 0 0 -1-1h-6a1 1 0 0 0 -1 1v2h-5a1 1 0 0 0 -1 1v7a3 3 0 0 0 3 3h12v2h-12a3 3 0 0 0 -3 3v38a3 3 0 0 0 3 3h54a3 3 0 0 0 3-3v-38a3 3 0 0 0 -3-3h-12v-2zm-9-12h4v4a2 2 0 0 1 -4 0zm-40 0h4v4a2 2 0 0 1 -4 0zm-5 10a1 1 0 0 1 -1-1v-6h4v1a4 4 0 0 0 8 0v-1h32v1a4 4 0 0 0 8 0v-1h4v6a1 1 0 0 1 -1 1h-12v-2a3 3 0 0 0 -3-3h-24a3 3 0 0 0 -3 3v2zm40-2v34a1 1 0 0 1 -1 1h-24a1 1 0 0 1 -1-1v-34a1 1 0 0 1 1-1h24a1 1 0 0 1 1 1zm14 8a1 1 0 0 1 1 1v38a1 1 0 0 1 -1 1h-54a1 1 0 0 1 -1-1v-38a1 1 0 0 1 1-1h12v26a3 3 0 0 0 3 3h24a3 3 0 0 0 3-3v-26z"/><path d="m13 26h-6a1 1 0 0 0 -1 1v6a1 1 0 0 0 1 1h6a1 1 0 0 0 1-1v-6a1 1 0 0 0 -1-1zm-1 6h-4v-4h4z"/><path d="m51 34h6a1 1 0 0 0 1-1v-6a1 1 0 0 0 -1-1h-6a1 1 0 0 0 -1 1v6a1 1 0 0 0 1 1zm1-6h4v4h-4z"/><path d="m13 38h-6a1 1 0 0 0 -1 1v6a1 1 0 0 0 1 1h6a1 1 0 0 0 1-1v-6a1 1 0 0 0 -1-1zm-1 6h-4v-4h4z"/><path d="m51 46h6a1 1 0 0 0 1-1v-6a1 1 0 0 0 -1-1h-6a1 1 0 0 0 -1 1v6a1 1 0 0 0 1 1zm1-6h4v4h-4z"/><path d="m13 50h-6a1 1 0 0 0 -1 1v6a1 1 0 0 0 1 1h6a1 1 0 0 0 1-1v-6a1 1 0 0 0 -1-1zm-1 6h-4v-4h4z"/><path d="m35 50h-6a1 1 0 0 0 -1 1v6a1 1 0 0 0 1 1h6a1 1 0 0 0 1-1v-6a1 1 0 0 0 -1-1zm-1 6h-4v-4h4z"/><path d="m24 50h-6a1 1 0 0 0 -1 1v6a1 1 0 0 0 1 1h6a1 1 0 0 0 1-1v-6a1 1 0 0 0 -1-1zm-1 6h-4v-4h4z"/><path d="m46 50h-6a1 1 0 0 0 -1 1v6a1 1 0 0 0 1 1h6a1 1 0 0 0 1-1v-6a1 1 0 0 0 -1-1zm-1 6h-4v-4h4z"/><path d="m51 58h6a1 1 0 0 0 1-1v-6a1 1 0 0 0 -1-1h-6a1 1 0 0 0 -1 1v6a1 1 0 0 0 1 1zm1-6h4v4h-4z"/><path d="m38 13h-12a5.006 5.006 0 0 0 -5 5v4a5.006 5.006 0 0 0 5 5h12a5.006 5.006 0 0 0 5-5v-4a5.006 5.006 0 0 0 -5-5zm3 9a3 3 0 0 1 -3 3h-12a3 3 0 0 1 -3-3v-4a3 3 0 0 1 3-3h12a3 3 0 0 1 3 3z"/><path d="m25.5 29h-2a2.5 2.5 0 0 0 -2.5 2.5v2a2.5 2.5 0 0 0 2.5 2.5h2a2.5 2.5 0 0 0 2.5-2.5v-2a2.5 2.5 0 0 0 -2.5-2.5zm.5 4.5a.5.5 0 0 1 -.5.5h-2a.5.5 0 0 1 -.5-.5v-2a.5.5 0 0 1 .5-.5h2a.5.5 0 0 1 .5.5z"/><path d="m25.5 38h-2a2.5 2.5 0 0 0 -2.5 2.5v2a2.5 2.5 0 0 0 2.5 2.5h2a2.5 2.5 0 0 0 2.5-2.5v-2a2.5 2.5 0 0 0 -2.5-2.5zm.5 4.5a.5.5 0 0 1 -.5.5h-2a.5.5 0 0 1 -.5-.5v-2a.5.5 0 0 1 .5-.5h2a.5.5 0 0 1 .5.5z"/><path d="m33.5 29h-2a2.5 2.5 0 0 0 -2.5 2.5v2a2.5 2.5 0 0 0 2.5 2.5h2a2.5 2.5 0 0 0 2.5-2.5v-2a2.5 2.5 0 0 0 -2.5-2.5zm.5 4.5a.5.5 0 0 1 -.5.5h-2a.5.5 0 0 1 -.5-.5v-2a.5.5 0 0 1 .5-.5h2a.5.5 0 0 1 .5.5z"/><path d="m33.5 38h-2a2.5 2.5 0 0 0 -2.5 2.5v2a2.5 2.5 0 0 0 2.5 2.5h2a2.5 2.5 0 0 0 2.5-2.5v-2a2.5 2.5 0 0 0 -2.5-2.5zm.5 4.5a.5.5 0 0 1 -.5.5h-2a.5.5 0 0 1 -.5-.5v-2a.5.5 0 0 1 .5-.5h2a.5.5 0 0 1 .5.5z"/><path d="m42 36h-4a1 1 0 0 0 -1 1v7a1 1 0 0 0 1 1h4a1 1 0 0 0 1-1v-7a1 1 0 0 0 -1-1zm-1 7h-2v-5h2z"/><path d="m37 16h-2a2 2 0 0 0 -2 2v4a2 2 0 0 0 2 2h2a2 2 0 0 0 2-2v-4a2 2 0 0 0 -2-2zm-2 6v-4h2v4z"/><path d="m42 29h-4a1 1 0 0 0 -1 1v3a1 1 0 0 0 1 1h4a1 1 0 0 0 1-1v-3a1 1 0 0 0 -1-1zm-1 3h-2v-1h2z"/></g></svg>