<svg height="512" viewBox="0 0 64 64" width="512" xmlns="http://www.w3.org/2000/svg"><g id="server"><rect fill="#57a4ff" height="12" rx="2" width="40" x="3" y="35"/><path d="m43 37v8a2.006 2.006 0 0 1 -2 2h-2a2.006 2.006 0 0 0 2-2v-8a2.006 2.006 0 0 0 -2-2h2a2.006 2.006 0 0 1 2 2z" fill="#2488ff"/><rect fill="#57a4ff" height="12" rx="2" width="40" x="3" y="19"/><path d="m43 21v8a2.006 2.006 0 0 1 -2 2h-2a2.006 2.006 0 0 0 2-2v-8a2.006 2.006 0 0 0 -2-2h2a2.006 2.006 0 0 1 2 2z" fill="#2488ff"/><path d="m61 38v21a2.006 2.006 0 0 1 -2 2h-36a2.006 2.006 0 0 1 -2-2v-21z" fill="#e0e0e2"/><path d="m61 38v21a2.006 2.006 0 0 1 -2 2h-2a2.006 2.006 0 0 0 2-2v-21z" fill="#c6c5ca"/><path d="m46.5 31 1.45 2.89a2 2 0 0 0 1.79 1.11h9.26a2.006 2.006 0 0 1 2 2v1h-40v-7a2.006 2.006 0 0 1 2-2h21.26a2 2 0 0 1 1.79 1.11zm-4.5 4v-3h-3v3zm-7 0v-3h-3v3zm-7 0v-3h-3v3z" fill="#ffdaaa"/><path d="m56 31 2 4h-8.26a2 2 0 0 1 -1.79-1.11l-1.45-2.89z" fill="#e0e0e2"/><rect fill="#57a4ff" height="12" rx="2" width="40" x="3" y="3"/><path d="m43 5v8a2.006 2.006 0 0 1 -2 2h-2a2.006 2.006 0 0 0 2-2v-8a2.006 2.006 0 0 0 -2-2h2a2.006 2.006 0 0 1 2 2z" fill="#2488ff"/><circle cx="41" cy="55" fill="#ffde55" r="2"/><path d="m39 32h3v3h-3z" fill="#ffde55"/><path d="m33 15h6v4h-6z" fill="#e0e0e2"/><g fill="#ffde55"><path d="m32 32h3v3h-3z"/><path d="m25 32h3v3h-3z"/><path d="m15 39h4v4h-4z"/><path d="m15 23h4v4h-4z"/><path d="m15 7h4v4h-4z"/></g><path d="m7 31h6v4h-6z" fill="#e0e0e2"/><path d="m7 15h6v4h-6z" fill="#e0e0e2"/><path d="m11 31h2v4h-2z" fill="#c6c5ca"/><path d="m11 15h2v4h-2z" fill="#c6c5ca"/><path d="m37 15h2v4h-2z" fill="#c6c5ca"/><path d="m7 39h4v4h-4z" fill="#ffde55"/><path d="m7 23h4v4h-4z" fill="#ffde55"/><path d="m7 7h4v4h-4z" fill="#ffde55"/><path d="m11 22h-4a1 1 0 0 0 -1 1v4a1 1 0 0 0 1 1h4a1 1 0 0 0 1-1v-4a1 1 0 0 0 -1-1zm-1 4h-2v-2h2z"/><path d="m19 22h-4a1 1 0 0 0 -1 1v4a1 1 0 0 0 1 1h4a1 1 0 0 0 1-1v-4a1 1 0 0 0 -1-1zm-1 4h-2v-2h2z"/><path d="m22 22h14v2h-14z"/><path d="m38 22h2v2h-2z"/><path d="m11 6h-4a1 1 0 0 0 -1 1v4a1 1 0 0 0 1 1h4a1 1 0 0 0 1-1v-4a1 1 0 0 0 -1-1zm-1 4h-2v-2h2z"/><path d="m19 6h-4a1 1 0 0 0 -1 1v4a1 1 0 0 0 1 1h4a1 1 0 0 0 1-1v-4a1 1 0 0 0 -1-1zm-1 4h-2v-2h2z"/><path d="m22 6h14v2h-14z"/><path d="m38 6h2v2h-2z"/><path d="m22 10h14v2h-14z"/><path d="m38 10h2v2h-2z"/><path d="m11 38h-4a1 1 0 0 0 -1 1v4a1 1 0 0 0 1 1h4a1 1 0 0 0 1-1v-4a1 1 0 0 0 -1-1zm-1 4h-2v-2h2z"/><path d="m59 34h-.382l-1.718-3.447a1 1 0 0 0 -.9-.553h-8.882l-.171-.342a2.985 2.985 0 0 0 -2.683-1.658h-.264v-7a3 3 0 0 0 -3-3h-1v-2h1a3 3 0 0 0 3-3v-8a3 3 0 0 0 -3-3h-36a3 3 0 0 0 -3 3v8a3 3 0 0 0 3 3h1v2h-1a3 3 0 0 0 -3 3v8a3 3 0 0 0 3 3h1v2h-1a3 3 0 0 0 -3 3v8a3 3 0 0 0 3 3h15v11a3 3 0 0 0 3 3h36a3 3 0 0 0 3-3v-22a3 3 0 0 0 -3-3zm-3.618-2 1 2h-6.646a.993.993 0 0 1 -.894-.553l-.724-1.447zm-10.224-1.447 1.895 3.789a2.985 2.985 0 0 0 2.683 1.658h9.264a1 1 0 0 1 1 1h-38v-6a1 1 0 0 1 1-1h21.264a.993.993 0 0 1 .894.553zm-25.158 1.447v2h-6v-2zm18-14h-4v-2h4zm-6-2v2h-18v-2zm-28-3v-8a1 1 0 0 1 1-1h36a1 1 0 0 1 1 1v8a1 1 0 0 1 -1 1h-36a1 1 0 0 1 -1-1zm4 3h4v2h-4zm-4 13v-8a1 1 0 0 1 1-1h36a1 1 0 0 1 1 1v7h-19a3 3 0 0 0 -2.816 2h-15.184a1 1 0 0 1 -1-1zm4 3h4v2h-4zm-3 14a1 1 0 0 1 -1-1v-8a1 1 0 0 1 1-1h15v3a1 1 0 0 0 -1-1h-4a1 1 0 0 0 -1 1v4a1 1 0 0 0 1 1h4a1 1 0 0 0 1-1v3zm13-6v2h-2v-2zm41 20h-36a1 1 0 0 1 -1-1v-20h38v20a1 1 0 0 1 -1 1z"/><path d="m30.394 44.391 1.412 1.418a13 13 0 0 1 18.388 0l1.412-1.418a15 15 0 0 0 -21.212 0z"/><path d="m33.223 47.223 1.414 1.414a9 9 0 0 1 12.726 0l1.414-1.414a10.994 10.994 0 0 0 -15.554 0z"/><path d="m36.05 50.056 1.42 1.408a4.988 4.988 0 0 1 7.06 0l1.42-1.408a6.987 6.987 0 0 0 -9.9 0z"/><path d="m41 52a3 3 0 1 0 3 3 3 3 0 0 0 -3-3zm0 4a1 1 0 1 1 1-1 1 1 0 0 1 -1 1z"/><path d="m25 36h3a1 1 0 0 0 1-1v-3a1 1 0 0 0 -1-1h-3a1 1 0 0 0 -1 1v3a1 1 0 0 0 1 1zm1-3h1v1h-1z"/><path d="m32 36h3a1 1 0 0 0 1-1v-3a1 1 0 0 0 -1-1h-3a1 1 0 0 0 -1 1v3a1 1 0 0 0 1 1zm1-3h1v1h-1z"/><path d="m39 36h3a1 1 0 0 0 1-1v-3a1 1 0 0 0 -1-1h-3a1 1 0 0 0 -1 1v3a1 1 0 0 0 1 1zm1-3h1v1h-1z"/><path d="m55 24h2v-18a1 1 0 0 0 -1-1h-10v2h9z"/><path d="m55 26h2v2h-2z"/><path d="m7 49h2v2h-2z"/><path d="m9 53h-2v5a1 1 0 0 0 1 1h10v-2h-9z"/></g></svg>