<svg height="512" viewBox="0 0 64 64" width="512" xmlns="http://www.w3.org/2000/svg"><g id="smarthome"><path d="m33 3-27 16h-3v4h2v4h1v26h-1v4h-2v4h58v-4-54z" fill="#e0e0e2"/><path d="m33 3h28v54h-28z" fill="#00d7df"/><path d="m59 3h2v54h-2z" fill="#00b6bd"/><path d="m57 37v8a2.006 2.006 0 0 1 -2 2h-16a2.006 2.006 0 0 1 -2-2v-8a2.006 2.006 0 0 1 2-2v2l1.98.49-1.05 1.75 2.83 2.83 1.75-1.05.49 1.98h4l.49-1.98 1.75 1.05 2.83-2.83-1.05-1.75 1.98-.49v-2a2.006 2.006 0 0 1 2 2z" fill="#57a4ff"/><path d="m56.88 50-.46 1.56a2 2 0 0 1 -1.92 1.44h-15a2 2 0 0 1 -1.92-1.44l-.46-1.56h7.88v1h4v-1z" fill="#ffdaaa"/><circle cx="47" cy="21" fill="#ffde55" r="2"/><path d="m33 23v10h-10v24h-12v-4h-1v-26h1v-4z" fill="#57a4ff"/><path d="m31 23h2v10h-2z" fill="#2488ff"/><path d="m33 16v3h-27l27-16v5a4 4 0 0 0 0 8z" fill="#ffdaaa"/><path d="m33 8v8a4 4 0 0 1 0-8z" fill="#ffde55"/><path d="m33 8v8a3.989 3.989 0 0 1 -2-.54v-6.92a3.989 3.989 0 0 1 2-.54z" fill="#ffcd00"/><path d="m11 53v4h-6v-4h1 4z" fill="#ffde55"/><path d="m11 23v4h-1-4-1v-4z" fill="#ffde55"/><path d="m31 33h2v24h-2z" fill="#c6c5ca"/><path d="m55 37-1.98.49 1.05 1.75-2.83 2.83-1.75-1.05-.49 1.98h-4l-.49-1.98-1.75 1.05-2.83-2.83 1.05-1.75-1.98-.49v-4l1.98-.49-1.05-1.75 2.83-2.83 1.75 1.05.49-1.98h4l.49 1.98 1.75-1.05 2.83 2.83-1.05 1.75 1.98.49z" fill="#ffde55"/><path d="m55 37-1.98.49 1.05 1.75-2.83 2.83-1.25-.75 2.08-2.08-1.05-1.75 1.98-.49v-4l-1.98-.49 1.05-1.75-2.08-2.08 1.25-.75 2.83 2.83-1.05 1.75 1.98.49z" fill="#ffcd00"/><circle cx="47" cy="35" fill="#e0e0e2" r="3"/><path d="m50 35a3 3 0 0 1 -3 3 2.772 2.772 0 0 1 -1-.18 2.988 2.988 0 0 0 0-5.64 2.772 2.772 0 0 1 1-.18 3 3 0 0 1 3 3z" fill="#c6c5ca"/><path d="m61 2h-28a1 1 0 0 0 -.51.14l-26.764 15.86h-2.726a1 1 0 0 0 -1 1v4a1 1 0 0 0 1 1h1v3a1 1 0 0 0 1 1v24a1 1 0 0 0 -1 1v3h-1a1 1 0 0 0 -1 1v4a1 1 0 0 0 1 1h58a1 1 0 0 0 1-1v-58a1 1 0 0 0 -1-1zm-1 54h-26v-52h26zm-49-4v-24a1 1 0 0 0 1-1v-3h20v8h-9a1 1 0 0 0 -1 1v23h-10v-3a1 1 0 0 0 -1-1zm21-37.184a2.982 2.982 0 0 1 0-5.632zm-8 19.184h8v22h-8zm8-29.245v2.345a5 5 0 0 0 0 9.8v1.1h-22.351zm-28 15.245h28v2h-28zm6 4v2h-4v-2zm-3 4h2v24h-2zm-1 26h4v2h-4zm54 6h-56v-2h56z"/><path d="m56.875 49h-7.875a1 1 0 0 0 -1 1h-2a1 1 0 0 0 -1-1h-7.875a1 1 0 0 0 -.96 1.28l.455 1.56a3.017 3.017 0 0 0 2.88 2.16h15a3.017 3.017 0 0 0 2.88-2.16l.455-1.56a1 1 0 0 0 -.96-1.28zm-17.375 3a1.006 1.006 0 0 1 -.96-.721l-.081-.279h5.541a1 1 0 0 0 1 1zm15.96-.721a1.006 1.006 0 0 1 -.96.721h-5.5a1 1 0 0 0 1-1h5.541z"/><path d="m39 48h16a3 3 0 0 0 3-3v-8a3 3 0 0 0 -2-2.816v-1.184a1 1 0 0 0 -.758-.97l-.668-.167.355-.591a1 1 0 0 0 -.151-1.221l-2.829-2.829a1 1 0 0 0 -1.221-.151l-.591.355-.167-.668a1 1 0 0 0 -.97-.758h-4a1 1 0 0 0 -.97.758l-.167.668-.591-.355a1 1 0 0 0 -1.221.151l-2.829 2.829a1 1 0 0 0 -.151 1.221l.355.591-.668.167a1 1 0 0 0 -.758.97v1.184a3 3 0 0 0 -2 2.816v8a3 3 0 0 0 3 3zm1-14.219 1.22-.3a1 1 0 0 0 .615-1.485l-.648-1.078 1.726-1.725 1.078.647a1 1 0 0 0 1.485-.615l.3-1.22h2.438l.3 1.22a1 1 0 0 0 1.485.615l1.078-.647 1.725 1.725-.647 1.078a1 1 0 0 0 .615 1.485l1.22.3v2.438l-1.22.3a1 1 0 0 0 -.615 1.485l.647 1.078-1.725 1.726-1.078-.648a1 1 0 0 0 -1.485.615l-.3 1.22h-2.433l-.3-1.22a1 1 0 0 0 -1.485-.615l-1.078.648-1.726-1.726.648-1.078a1 1 0 0 0 -.615-1.485l-1.22-.3zm-2 3.219a1 1 0 0 0 .758.97l.668.167-.355.591a1 1 0 0 0 .151 1.221l2.829 2.829a1 1 0 0 0 1.221.151l.591-.355.167.668a1 1 0 0 0 .97.758h4a1 1 0 0 0 .97-.758l.167-.668.591.355a1 1 0 0 0 1.221-.151l2.829-2.829a1 1 0 0 0 .151-1.221l-.355-.591.668-.167a1 1 0 0 0 .758-.97v8a1 1 0 0 1 -1 1h-16a1 1 0 0 1 -1-1z"/><path d="m47 8a12.95 12.95 0 0 1 9.194 3.809l1.412-1.418a15 15 0 0 0 -21.212 0l1.412 1.418a12.95 12.95 0 0 1 9.194-3.809z"/><path d="m54.777 13.223a10.994 10.994 0 0 0 -15.554 0l1.414 1.414a9 9 0 0 1 12.726 0z"/><path d="m51.95 16.056a6.987 6.987 0 0 0 -9.9 0l1.42 1.408a4.988 4.988 0 0 1 7.06 0z"/><path d="m44 21a3 3 0 1 0 3-3 3 3 0 0 0 -3 3zm4 0a1 1 0 1 1 -1-1 1 1 0 0 1 1 1z"/><path d="m47 39a4 4 0 1 0 -4-4 4 4 0 0 0 4 4zm0-6a2 2 0 1 1 -2 2 2 2 0 0 1 2-2z"/></g></svg>