<svg height="512" viewBox="0 0 64 64" width="512" xmlns="http://www.w3.org/2000/svg"><g id="withdraw"><g fill="#00b6bd"><path d="m62 25-5 4 2.07 2h-7.07v-7.07l2 2.07 4-5z"/><path d="m58 11-5 4 2.07 2h-7.07v-7.07l2 2.07 4-5z"/><path d="m44 7-5 4 2.07 2h-7.07v-7.07l2 2.07 4-5z"/></g><path d="m39.04 17h-.04a9 9 0 0 0 -.04 18h.04a9 9 0 0 0 .04-18z" fill="#ffeb99"/><path d="m41 45a12.987 12.987 0 0 1 -7 11.53v3.47a1 1 0 0 1 -1 1h-2a1 1 0 0 1 -1-1v-2.17a13.161 13.161 0 0 1 -2 .17h-8a13.161 13.161 0 0 1 -2-.17v2.17a1 1 0 0 1 -1 1h-2a1 1 0 0 1 -1-1v-3.47a13.014 13.014 0 0 1 -6.83-9.53h-3.17a1 1 0 0 1 -1-1v-2a1 1 0 0 1 1-1h3.17a13.005 13.005 0 0 1 7.83-9.99v-5.01a4 4 0 0 1 4 4v.05c.33-.03.66-.05 1-.05h7.62a13.25 13.25 0 0 1 13.37 12.53c.01.16.01.31.01.47z" fill="#ffdaaa"/><path d="m26 58a13.161 13.161 0 0 0 2-.17v.17z" fill="#ffc477"/><path d="m41 45a12.987 12.987 0 0 1 -7 11.53v3.47a1 1 0 0 1 -1 1h-2a1 1 0 0 0 1-1v-3.47a12.987 12.987 0 0 0 7-11.53c0-.16 0-.31-.01-.47a13.25 13.25 0 0 0 -13.37-12.53h2a13.25 13.25 0 0 1 13.37 12.53c.01.16.01.31.01.47z" fill="#ffc477"/><path d="m20 58h-2v-.17a13.161 13.161 0 0 0 2 .17z" fill="#ffc477"/><path d="m40 19h-2v2a2 2 0 0 0 -2 2v2a2 2 0 0 0 2 2h2v2h-4v2h2v2h2v-2a2 2 0 0 0 2-2v-2a2 2 0 0 0 -2-2h-2v-2h4v-2h-2z"/><path d="m39 16a9.981 9.981 0 0 0 -8.463 15.3 14.368 14.368 0 0 0 -2.919-.3h-7.718a5.007 5.007 0 0 0 -4.9-4 1 1 0 0 0 -1 1v4.364a14.1 14.1 0 0 0 -7.66 9.636h-2.34a2 2 0 0 0 -2 2v2a2 2 0 0 0 2 2h2.34a14.048 14.048 0 0 0 6.66 9.116v2.884a2 2 0 0 0 2 2h2a2 2 0 0 0 2-2v-1.042c.347.028.679.042 1 .042h8c.321 0 .653-.014 1-.042v1.042a2 2 0 0 0 2 2h2a2 2 0 0 0 2-2v-2.883a13.873 13.873 0 0 0 6.991-12.117h.009a1 1 0 0 1 2 0v6h2v-6a3 3 0 0 0 -3-3 2.957 2.957 0 0 0 -1.287.3 13.8 13.8 0 0 0 -3.153-6.324c.147.006.292.022.44.022a10 10 0 0 0 0-20zm-5.463 39.639a1 1 0 0 0 -.537.886v3.475h-2v-2.169a1 1 0 0 0 -1-1 .984.984 0 0 0 -.153.011 12.086 12.086 0 0 1 -1.847.158h-8a12.086 12.086 0 0 1 -1.847-.158 1 1 0 0 0 -1.153.989v2.169h-2v-3.475a1 1 0 0 0 -.537-.886 12.029 12.029 0 0 1 -6.3-8.792 1 1 0 0 0 -.993-.847h-3.17v-2h3.17a1 1 0 0 0 .988-.847 12.066 12.066 0 0 1 7.228-9.219 1 1 0 0 0 .614-.923v-3.84a3.007 3.007 0 0 1 2 2.782v.093a1 1 0 0 0 1.076 1c.307-.023.616-.043.929-.043h7.618a12.3 12.3 0 0 1 12.369 11.558 11.915 11.915 0 0 1 -6.455 11.078zm5.463-21.639a8 8 0 1 1 8-8 8.009 8.009 0 0 1 -8 8z"/><path d="m15 38a3 3 0 0 0 -3 3h2a1 1 0 0 1 2 0h2a3 3 0 0 0 -3-3z"/><path d="m48 18h7.071a1 1 0 0 0 .7-1.719l-1.258-1.211 4.112-3.289a1 1 0 0 0 .082-1.488l-4-4a1 1 0 0 0 -1.488.082l-3.289 4.112-1.21-1.253a1 1 0 0 0 -1.72.7v7.066a1 1 0 0 0 1 1zm1-5.6.28.291a1.032 1.032 0 0 0 .767.3 1 1 0 0 0 .734-.374l3.3-4.128 2.42 2.42-4.128 3.3a1 1 0 0 0 -.069 1.5l.296.291h-3.6z"/><path d="m34 14h7.071a1 1 0 0 0 .7-1.719l-1.258-1.211 4.112-3.289a1 1 0 0 0 .082-1.488l-4-4a1.016 1.016 0 0 0 -.763-.293 1 1 0 0 0 -.725.374l-3.289 4.113-1.21-1.253a1 1 0 0 0 -1.72.7v7.066a1 1 0 0 0 1 1zm1-5.6.28.291a1.028 1.028 0 0 0 .767.3 1 1 0 0 0 .734-.374l3.3-4.128 2.42 2.42-4.128 3.3a1 1 0 0 0 -.069 1.5l.296.291h-3.6z"/><path d="m63 25.055a.994.994 0 0 0 -.291-.762l-4-4a1.017 1.017 0 0 0 -.765-.293 1 1 0 0 0 -.725.374l-3.289 4.113-1.21-1.253a1 1 0 0 0 -1.72.695v7.071a1 1 0 0 0 1 1h7.071a1 1 0 0 0 .7-1.719l-1.258-1.211 4.112-3.289a1 1 0 0 0 .375-.726zm-6.623 3.164a1 1 0 0 0 -.069 1.5l.292.281h-3.6v-3.6l.28.291a1.03 1.03 0 0 0 .767.3 1 1 0 0 0 .734-.374l3.3-4.128 2.42 2.42z"/></g></svg>