<svg height="512" viewBox="0 0 64 64" width="512" xmlns="http://www.w3.org/2000/svg"><g id="smartphone"><rect fill="#00d7df" height="34" rx="2" width="58" x="3" y="27"/><path d="m61 29v30a2.006 2.006 0 0 1 -2 2h-2a2.006 2.006 0 0 0 2-2v-30a2.006 2.006 0 0 0 -2-2h2a2.006 2.006 0 0 1 2 2z" fill="#00b6bd"/><path d="m61 33v22h-2a2.006 2.006 0 0 1 -2-2v-18a2.006 2.006 0 0 1 2-2z" fill="#ffde55"/><path d="m53 51v4.02a1.985 1.985 0 0 1 -1.98 1.98h-12.04a1.985 1.985 0 0 1 -1.98-1.98v-4.02z" fill="#e0e0e2"/><path d="m53 48.98v2.02h-16v-4.02a1.985 1.985 0 0 1 1.98-1.98h5.44a1.975 1.975 0 0 1 1.72 1 1.991 1.991 0 0 0 1.73 1h3.15a1.985 1.985 0 0 1 1.98 1.98z" fill="#ffdaaa"/><rect fill="#57a4ff" height="28" rx="2" width="46" x="7" y="3"/><path d="m53 5v24a2.006 2.006 0 0 1 -2 2h-2a2.006 2.006 0 0 0 2-2v-24a2.006 2.006 0 0 0 -2-2h2a2.006 2.006 0 0 1 2 2z" fill="#2488ff"/><path d="m52.88 34-.46 1.56a2 2 0 0 1 -1.92 1.44h-41a2 2 0 0 1 -1.92-1.44l-.46-1.56h19.88v1h6v-1z" fill="#ffdaaa"/><path d="m36.79 9.67a9.881 9.881 0 0 0 -6.51-2.66 3.925 3.925 0 0 0 -.56 0 9.988 9.988 0 0 0 -6.51 17.32 9.881 9.881 0 0 0 6.51 2.66 3.925 3.925 0 0 0 .56 0 9.988 9.988 0 0 0 6.51-17.32z" fill="#00d7df"/><path d="m40 17a10.01 10.01 0 0 1 -9.72 9.99 3.925 3.925 0 0 1 -.56 0c-.24-.01-.48-.02-.72-.05a10 10 0 0 0 9-9.94 10 10 0 0 0 -9-9.94c.24-.03.48-.04.72-.05a3.925 3.925 0 0 1 .56 0 10.01 10.01 0 0 1 9.72 9.99z" fill="#00b6bd"/><path d="m23 51v4.02a1.985 1.985 0 0 1 -1.98 1.98h-12.04a1.985 1.985 0 0 1 -1.98-1.98v-4.02z" fill="#e0e0e2"/><path d="m23 48.98v2.02h-16v-4.02a1.985 1.985 0 0 1 1.98-1.98h5.44a1.975 1.975 0 0 1 1.72 1 1.991 1.991 0 0 0 1.73 1h3.15a1.985 1.985 0 0 1 1.98 1.98z" fill="#ffdaaa"/><path d="m59 26h-5v-21a3 3 0 0 0 -3-3h-42a3 3 0 0 0 -3 3v21h-1a3 3 0 0 0 -3 3v30a3 3 0 0 0 3 3h54a3 3 0 0 0 3-3v-30a3 3 0 0 0 -3-3zm-51-21a1 1 0 0 1 1-1h42a1 1 0 0 1 1 1v24a1 1 0 0 1 -1 1h-42a1 1 0 0 1 -1-1zm51 55h-54a1 1 0 0 1 -1-1v-30a1 1 0 0 1 1-1h1v1a3 3 0 0 0 3 3h42a3 3 0 0 0 3-3v-1h5a1 1 0 0 1 1 1v3h-1a3 3 0 0 0 -3 3v18a3 3 0 0 0 3 3h1v3a1 1 0 0 1 -1 1zm1-26v20h-1a1 1 0 0 1 -1-1v-18a1 1 0 0 1 1-1z"/><path d="m6.62 35.84a3.016 3.016 0 0 0 2.88 2.16h41a3.016 3.016 0 0 0 2.88-2.16l.455-1.56a1 1 0 0 0 -.96-1.28h-19.875a1 1 0 0 0 -1 1h-4a1 1 0 0 0 -1-1h-19.875a1 1 0 0 0 -.96 1.28zm27.38-.84h17.542l-.082.279a1.006 1.006 0 0 1 -.96.721h-17.5a1 1 0 0 0 1-1zm-8 0a1 1 0 0 0 1 1h-17.5a1.006 1.006 0 0 1 -.96-.721l-.082-.279z"/><path d="m30 28a11 11 0 1 0 -11-11 11.013 11.013 0 0 0 11 11zm-8.941-10h2.641a17.529 17.529 0 0 0 .7 4.21 10.987 10.987 0 0 0 -1.12.756 8.96 8.96 0 0 1 -2.221-4.966zm7.941 7.71a5.526 5.526 0 0 1 -2.067-2.5 8.95 8.95 0 0 1 2.067-.482zm-3.521-.941c-.232-.135-.458-.279-.676-.435.109-.077.217-.156.329-.229.11.229.226.452.347.664zm5.521.941v-2.982a8.95 8.95 0 0 1 2.067.484 5.526 5.526 0 0 1 -2.067 2.498zm3.868-1.605c.112.073.22.152.329.229-.218.156-.444.3-.676.435.121-.212.237-.435.347-.664zm-3.868-3.391v-2.714h3.305a15.649 15.649 0 0 1 -.538 3.339 10.919 10.919 0 0 0 -2.767-.625zm0-4.714v-2.714a10.919 10.919 0 0 0 2.767-.625 15.649 15.649 0 0 1 .538 3.339zm0-4.728v-2.982a5.526 5.526 0 0 1 2.067 2.5 8.95 8.95 0 0 1 -2.067.482zm3.521-2.041c.232.135.458.279.676.435-.109.077-.217.156-.329.229-.11-.229-.226-.452-.347-.664zm-5.521-.941v2.982a8.95 8.95 0 0 1 -2.067-.484 5.526 5.526 0 0 1 2.067-2.498zm-3.868 1.61c-.112-.073-.22-.152-.329-.229.218-.156.444-.3.676-.435-.121.207-.237.43-.347.664zm3.868 3.386v2.714h-3.3a15.649 15.649 0 0 1 .538-3.339 10.919 10.919 0 0 0 2.762.625zm0 4.714v2.714a10.919 10.919 0 0 0 -2.767.625 15.649 15.649 0 0 1 -.533-3.339zm7.72 4.966a10.987 10.987 0 0 0 -1.12-.756 17.529 17.529 0 0 0 .7-4.21h2.636a8.96 8.96 0 0 1 -2.216 4.966zm2.221-6.966h-2.636a17.529 17.529 0 0 0 -.7-4.21 10.987 10.987 0 0 0 1.12-.756 8.96 8.96 0 0 1 2.216 4.966zm-15.661-4.966a10.987 10.987 0 0 0 1.12.756 17.529 17.529 0 0 0 -.7 4.21h-2.641a8.96 8.96 0 0 1 2.221-4.966z"/><path d="m51.015 46h-3.149a.988.988 0 0 1 -.855-.5 2.99 2.99 0 0 0 -2.591-1.5h-5.435a2.988 2.988 0 0 0 -2.985 2.984v8.032a2.988 2.988 0 0 0 2.985 2.984h12.03a2.988 2.988 0 0 0 2.985-2.984v-6.032a2.988 2.988 0 0 0 -2.985-2.984zm-12.03 0h5.435a.988.988 0 0 1 .855.5 2.99 2.99 0 0 0 2.591 1.5h3.149a.985.985 0 0 1 .985.984v1.016h-14v-3.016a.985.985 0 0 1 .985-.984zm12.03 10h-12.03a.985.985 0 0 1 -.985-.984v-3.016h14v3.016a.985.985 0 0 1 -.985.984z"/><path d="m39 47h2v2h-2z"/><path d="m42 47h2v2h-2z"/><path d="m21.015 46h-3.149a.988.988 0 0 1 -.855-.5 2.99 2.99 0 0 0 -2.591-1.5h-5.435a2.988 2.988 0 0 0 -2.985 2.984v8.032a2.988 2.988 0 0 0 2.985 2.984h12.03a2.988 2.988 0 0 0 2.985-2.984v-6.032a2.988 2.988 0 0 0 -2.985-2.984zm-12.03 0h5.435a.988.988 0 0 1 .855.5 2.99 2.99 0 0 0 2.591 1.5h3.149a.985.985 0 0 1 .985.984v1.016h-14v-3.016a.985.985 0 0 1 .985-.984zm12.03 10h-12.03a.985.985 0 0 1 -.985-.984v-3.016h14v3.016a.985.985 0 0 1 -.985.984z"/><path d="m9 47h2v2h-2z"/><path d="m12 47h2v2h-2z"/><path d="m31 40h-2v10h-3v2h8v-2h-3z"/><path d="m10 6h2v2h-2z"/><path d="m14 6h2v2h-2z"/><path d="m18 6h2v2h-2z"/><path d="m40 26h2v2h-2z"/><path d="m44 26h2v2h-2z"/><path d="m48 26h2v2h-2z"/></g></svg>