<svg height="512" viewBox="0 0 64 64" width="512" xmlns="http://www.w3.org/2000/svg"><g id="social_media" data-name="social media"><path d="m60.88 58-.46 1.56a2 2 0 0 1 -1.92 1.44h-19a2 2 0 0 1 -1.92-1.44l-.46-1.56h9.88v1h4v-1z" fill="#ffdaaa"/><path d="m59 45v8a2.006 2.006 0 0 1 -2 2h-16a2.006 2.006 0 0 1 -2-2v-8a2.006 2.006 0 0 1 2-2h16a2.006 2.006 0 0 1 2 2z" fill="#57a4ff"/><path d="m46.92 43h-5.92a2.006 2.006 0 0 0 -2 2v3h-22v-4.81a12 12 0 0 1 11-7.19h8a12.008 12.008 0 0 1 10.92 7z" fill="#00d7df"/><path d="m46.92 43h-4a12.008 12.008 0 0 0 -10.92-7h4a12.008 12.008 0 0 1 10.92 7z" fill="#00b6bd"/><path d="m57.79 5.67a9.881 9.881 0 0 0 -6.51-2.66 3.925 3.925 0 0 0 -.56 0 10.01 10.01 0 0 0 -9.72 9.99 10.01 10.01 0 0 0 9.72 9.99 3.925 3.925 0 0 0 .56 0 10.01 10.01 0 0 0 9.72-9.99 9.918 9.918 0 0 0 -3.21-7.33z" fill="#00d7df"/><path d="m41 27v1a1 1 0 0 1 -1 1h-2v-3h2a1 1 0 0 1 1 1z" fill="#c0ab91"/><path d="m41 22v1l-3 3v-3l-8-2-4 2v3l-3-3v-1a6 6 0 0 1 6-6h6a6 6 0 0 1 6 6z" fill="#57a4ff"/><path d="m38 26v3a6 6 0 0 1 -12 0v-6l4-2 8 2z" fill="#ffdaaa"/><path d="m38 23v6a6 6 0 0 1 -6 6 5.47 5.47 0 0 1 -1-.09 5.99 5.99 0 0 0 5-5.91v-6l-6.67-1.67.67-.33z" fill="#ffc477"/><path d="m36 36-1.24 8h-5.52l-1.24-8z" fill="#ffde55"/><path d="m36 36-1.24 8h-2l1.24-8z" fill="#ffcd00"/><path d="m26 26v3h-2a1 1 0 0 1 -1-1v-1a1 1 0 0 1 1-1z" fill="#c0ab91"/><path d="m23 13v2a2.006 2.006 0 0 1 -2 2h-16a2.006 2.006 0 0 1 -2-2v-2z" fill="#e0e0e2"/><path d="m23 5v8h-20v-8a2.006 2.006 0 0 1 2-2h16a2.006 2.006 0 0 1 2 2z" fill="#57a4ff"/><path d="m59 45v8a2.006 2.006 0 0 1 -2 2h-2a2.006 2.006 0 0 0 2-2v-8a2.006 2.006 0 0 0 -2-2h2a2.006 2.006 0 0 1 2 2z" fill="#2488ff"/><path d="m23 5v8h-2v-8a2.006 2.006 0 0 0 -2-2h2a2.006 2.006 0 0 1 2 2z" fill="#2488ff"/><path d="m17 48v11a2.006 2.006 0 0 1 -2 2h-8a2.006 2.006 0 0 1 -2-2v-16a2.006 2.006 0 0 1 2-2h1v1a2.006 2.006 0 0 0 2 2h2a2.006 2.006 0 0 0 2-2v-1h1a2.006 2.006 0 0 1 2 2z" fill="#00d7df"/><path d="m61 13a10.01 10.01 0 0 1 -9.72 9.99 3.925 3.925 0 0 1 -.56 0c-.24-.01-.48-.02-.72-.05a9.827 9.827 0 0 0 5.79-2.61 9.974 9.974 0 0 0 0-14.66 9.827 9.827 0 0 0 -5.79-2.61c.24-.03.48-.04.72-.05a3.925 3.925 0 0 1 .56 0 10.01 10.01 0 0 1 9.72 9.99z" fill="#00b6bd"/><path d="m17 43v16a2.006 2.006 0 0 1 -2 2h-2a2.006 2.006 0 0 0 2-2v-16a2 2 0 0 0 -1-1.73v-.27h1a2.006 2.006 0 0 1 2 2z" fill="#00b6bd"/><path d="m15.93 17 .98 4h-7.82l.98-4z" fill="#ffde55"/><path d="m14 41v1a2.006 2.006 0 0 1 -2 2h-2a2.006 2.006 0 0 1 -2-2v-1z" fill="#ffde55"/><path d="m41 22v1l-3 3v-2l1-1v-1a6 6 0 0 0 -6-6h2a6 6 0 0 1 6 6z" fill="#2488ff"/><path d="m60.875 57h-9.875a1 1 0 0 0 -1 1h-2a1 1 0 0 0 -1-1h-9.875a1 1 0 0 0 -.96 1.28l.455 1.56a3.017 3.017 0 0 0 2.88 2.16h19a3.017 3.017 0 0 0 2.88-2.16l.455-1.56a1 1 0 0 0 -.96-1.28zm-21.375 3a1.006 1.006 0 0 1 -.96-.721l-.081-.279h7.541a1 1 0 0 0 1 1zm19.96-.721a1.006 1.006 0 0 1 -.96.721h-7.5a1 1 0 0 0 1-1h7.541z"/><path d="m48 48h2v2h-2z"/><path d="m52 48h2v2h-2z"/><path d="m44 48h2v2h-2z"/><path d="m51 24a11 11 0 1 0 -11-11 11.013 11.013 0 0 0 11 11zm-6.3-10a17.629 17.629 0 0 0 .7 4.21 10.987 10.987 0 0 0 -1.12.756 8.96 8.96 0 0 1 -2.221-4.966zm5.3 7.71a5.526 5.526 0 0 1 -2.067-2.5 8.95 8.95 0 0 1 2.067-.482zm-3.521-.94c-.232-.136-.458-.28-.677-.436.109-.078.218-.157.33-.23.111.23.226.453.347.666zm5.521.94v-2.982a8.95 8.95 0 0 1 2.067.484 5.526 5.526 0 0 1 -2.067 2.498zm3.868-1.61c.112.073.221.152.33.23-.219.156-.445.3-.677.436.121-.209.236-.432.347-.666zm-3.868-3.386v-2.714h3.305a15.584 15.584 0 0 1 -.539 3.339 10.9 10.9 0 0 0 -2.766-.625zm0-4.714v-2.714a10.9 10.9 0 0 0 2.766-.625 15.584 15.584 0 0 1 .539 3.339zm0-4.728v-2.982a5.526 5.526 0 0 1 2.067 2.5 8.95 8.95 0 0 1 -2.067.482zm3.521-2.042c.232.136.458.28.677.436-.109.078-.218.157-.33.23-.111-.23-.226-.453-.347-.666zm-5.521-.94v2.982a8.95 8.95 0 0 1 -2.067-.484 5.526 5.526 0 0 1 2.067-2.498zm-3.868 1.61c-.112-.073-.221-.152-.33-.23.219-.156.445-.3.677-.436-.121.209-.236.432-.347.666zm3.868 3.386v2.714h-3.3a15.584 15.584 0 0 1 .539-3.339 10.9 10.9 0 0 0 2.761.625zm0 4.714v2.714a10.9 10.9 0 0 0 -2.766.625 15.584 15.584 0 0 1 -.534-3.339zm7.72 4.966a10.987 10.987 0 0 0 -1.12-.756 17.629 17.629 0 0 0 .7-4.21h2.636a8.96 8.96 0 0 1 -2.216 4.966zm2.221-6.966h-2.636a17.629 17.629 0 0 0 -.7-4.21 10.987 10.987 0 0 0 1.12-.756 8.96 8.96 0 0 1 2.216 4.966zm-15.661-4.966a10.987 10.987 0 0 0 1.12.756 17.629 17.629 0 0 0 -.7 4.21h-2.641a8.96 8.96 0 0 1 2.221-4.966z"/><path d="m8.791 18-.676 2.763a1 1 0 0 0 .972 1.237h7.826a1 1 0 0 0 .972-1.237l-.676-2.763h3.791a3 3 0 0 0 3-3v-10a3 3 0 0 0 -3-3h-16a3 3 0 0 0 -3 3v10a3 3 0 0 0 3 3zm6.848 2h-5.278l.49-2h4.3zm-10.639-16h16a1 1 0 0 1 1 1v7h-18v-7a1 1 0 0 1 1-1zm-1 11v-1h18v1a1 1 0 0 1 -1 1h-16a1 1 0 0 1 -1-1z"/><path d="m54 26h-2v3h-7v2h8a1 1 0 0 0 1-1z"/><path d="m38 49v4a3 3 0 0 0 3 3h16a3 3 0 0 0 3-3v-8a3 3 0 0 0 -3-3h-9.47a12.939 12.939 0 0 0 -11.53-7h-.413a7.005 7.005 0 0 0 3.333-5h1.08a2 2 0 0 0 2-2v-1a2 2 0 0 0 -1.624-1.962l1.331-1.331a1 1 0 0 0 .293-.707v-1a7.009 7.009 0 0 0 -7-7h-6a7.009 7.009 0 0 0 -7 7v1a1 1 0 0 0 .293.707l1.331 1.331a2 2 0 0 0 -1.624 1.962v1a2 2 0 0 0 2 2h1.08a7.005 7.005 0 0 0 3.333 5h-.413a13 13 0 0 0 -10.877 5.883 2.99 2.99 0 0 0 -2.123-.883h-8a3 3 0 0 0 -3 3v16a3 3 0 0 0 3 3h8a3 3 0 0 0 3-3v-10zm2-21h-1v-1h1zm-16-6a5.006 5.006 0 0 1 5-5h6a5.006 5.006 0 0 1 5 5v.586l-1 1v-.586a1 1 0 0 0 -.758-.97l-8-2a.99.99 0 0 0 -.689.075l-4 2a1 1 0 0 0 -.553.895v.586l-1-1zm0 5h1v1h-1zm3 2v-5.382l3.116-1.558 6.884 1.721v5.219a5 5 0 0 1 -10 0zm31 16v8a1 1 0 0 1 -1 1h-16a1 1 0 0 1 -1-1v-8a1 1 0 0 1 1-1h16a1 1 0 0 1 1 1zm-23.167-8-.933 6h-3.8l-.931-6zm-7.685.034 1.105 7.119a1 1 0 0 0 .988.847h5.518a1 1 0 0 0 .988-.847l1.1-7.112a10.886 10.886 0 0 1 8.372 4.959h-4.219a3 3 0 0 0 -3 3v2h-20v-3.583a11 11 0 0 1 9.148-6.383zm-14.148 4.966a1 1 0 0 1 -1 1h-2a1 1 0 0 1 -1-1zm3 17a1 1 0 0 1 -1 1h-8a1 1 0 0 1 -1-1v-16a1 1 0 0 1 1-1 3 3 0 0 0 3 3h2a3 3 0 0 0 3-3 1 1 0 0 1 1 1z"/><path d="m54 38v-4a1 1 0 0 0 -1-1h-8v2h7v3z"/><path d="m19 29h-7v-3h-2v4a1 1 0 0 0 1 1h8z"/><path d="m10 34v4h2v-3h7v-2h-8a1 1 0 0 0 -1 1z"/><path d="m12 7h2v2h-2z"/><path d="m16 7h2v2h-2z"/><path d="m8 7h2v2h-2z"/><path d="m10 52h2v2h-2z"/><path d="m10 48h2v2h-2z"/><path d="m10 56h2v2h-2z"/></g></svg>