<?xml version="1.0"?>
<svg xmlns="http://www.w3.org/2000/svg" viewBox="0 0 64 64" width="512" height="512"><g id="survey"><path d="M46.95,15.85A22.023,22.023,0,1,0,54,32,21.923,21.923,0,0,0,46.95,15.85Z" style="fill:#00d7df"/><path d="M54,32A21.982,21.982,0,0,1,32,54c-.31,0-.61-.01-.92-.03a22,22,0,0,0,0-43.94c.31-.02.61-.03.92-.03A21.982,21.982,0,0,1,54,32Z" style="fill:#00b6bd"/><path d="M42,5,34,7a2.006,2.006,0,0,1-2-2,2.015,2.015,0,0,1,2-2Z" style="fill:#ff7956"/><path d="M49,30.69v2.62a2.006,2.006,0,0,1-1.67,1.97l-1.73.29a1.937,1.937,0,0,0-1.51,1.21c-.05.13-.11.26-.16.39a1.963,1.963,0,0,0,.21,1.93l1.02,1.42a1.992,1.992,0,0,1-.22,2.58L43.1,44.94a2.2,2.2,0,0,1-.23.2,1.918,1.918,0,0,1-1.6.34,1.983,1.983,0,0,1-.75-.32L39.1,44.14a2.017,2.017,0,0,0-1.15-.37,1.912,1.912,0,0,0-.78.16c-.13.05-.26.11-.39.16a1.937,1.937,0,0,0-1.21,1.51l-.29,1.73A2.006,2.006,0,0,1,33.31,49H30.69a2.006,2.006,0,0,1-1.97-1.67l-.29-1.73a1.937,1.937,0,0,0-1.21-1.51c-.13-.05-.26-.11-.39-.16a1.963,1.963,0,0,0-1.93.21l-1.42,1.02a1.983,1.983,0,0,1-.75.32,1.9,1.9,0,0,1-1.59-.34h-.01a2.2,2.2,0,0,1-.23-.2L19.06,43.1a1.992,1.992,0,0,1-.22-2.58l1.02-1.42a1.963,1.963,0,0,0,.21-1.93c-.05-.13-.11-.26-.16-.39a1.937,1.937,0,0,0-1.51-1.21l-1.73-.29A2.006,2.006,0,0,1,15,33.31V30.69a2.006,2.006,0,0,1,1.67-1.97l1.73-.29a1.937,1.937,0,0,0,1.51-1.21c.05-.13.11-.26.16-.39a1.963,1.963,0,0,0-.21-1.93l-1.02-1.42a1.992,1.992,0,0,1,.22-2.58l1.84-1.84a2.2,2.2,0,0,1,.23-.2,1.918,1.918,0,0,1,1.6-.34,1.983,1.983,0,0,1,.75.32l1.42,1.02a1.963,1.963,0,0,0,1.93.21c.13-.05.26-.11.39-.16a1.937,1.937,0,0,0,1.21-1.51l.29-1.73A2.006,2.006,0,0,1,30.69,15h2.62a2.006,2.006,0,0,1,1.97,1.67l.29,1.73a1.937,1.937,0,0,0,1.21,1.51c.13.05.26.11.39.16a1.912,1.912,0,0,0,.78.16,2.017,2.017,0,0,0,1.15-.37l1.42-1.02a1.983,1.983,0,0,1,.75-.32,1.9,1.9,0,0,1,1.59.34h.01a2.2,2.2,0,0,1,.23.2l1.84,1.84a1.992,1.992,0,0,1,.22,2.58L44.14,24.9a1.963,1.963,0,0,0-.21,1.93c.05.13.11.26.16.39a1.937,1.937,0,0,0,1.51,1.21l1.73.29A2.006,2.006,0,0,1,49,30.69Z" style="fill:#ffde55"/><path d="M49,30.69v2.62a2.006,2.006,0,0,1-1.67,1.97l-1.73.29a1.937,1.937,0,0,0-1.51,1.21c-.05.13-.11.26-.16.39a1.963,1.963,0,0,0,.21,1.93l1.02,1.42a1.992,1.992,0,0,1-.22,2.58L43.1,44.94a2.2,2.2,0,0,1-.23.2,2.044,2.044,0,0,1-2.19.12.761.761,0,0,0,.19-.12,2.2,2.2,0,0,0,.23-.2l1.84-1.84a1.992,1.992,0,0,0,.22-2.58L42.14,39.1a1.963,1.963,0,0,1-.21-1.93c.05-.13.11-.26.16-.39a1.937,1.937,0,0,1,1.51-1.21l1.73-.29A2.006,2.006,0,0,0,47,33.31V30.69a2.006,2.006,0,0,0-1.67-1.97l-1.73-.29a1.937,1.937,0,0,1-1.51-1.21c-.05-.13-.11-.26-.16-.39a1.963,1.963,0,0,1,.21-1.93l1.02-1.42a1.992,1.992,0,0,0-.22-2.58L41.1,19.06a2.2,2.2,0,0,0-.23-.2h-.01a1.876,1.876,0,0,0-.18-.12,1.926,1.926,0,0,1,.59-.22,1.9,1.9,0,0,1,1.59.34h.01a2.2,2.2,0,0,1,.23.2l1.84,1.84a1.992,1.992,0,0,1,.22,2.58L44.14,24.9a1.963,1.963,0,0,0-.21,1.93c.05.13.11.26.16.39a1.937,1.937,0,0,0,1.51,1.21l1.73.29A2.006,2.006,0,0,1,49,30.69Z" style="fill:#ffcd00"/><path d="M40,35v4a2.006,2.006,0,0,1-2,2H26a2.006,2.006,0,0,1-2-2V35Z" style="fill:#006df0"/><rect x="24" y="29" width="16" height="6" style="fill:#57a4ff"/><path d="M40,25v4H24V25a2.006,2.006,0,0,1,2-2H38A2.006,2.006,0,0,1,40,25Z" style="fill:#bddbff"/><path d="M30,57a2.006,2.006,0,0,1,2,2,2.015,2.015,0,0,1-2,2l-8-2Z" style="fill:#ff7956"/><path d="M40,35v4a2.006,2.006,0,0,1-2,2H35a2.006,2.006,0,0,0,2-2V35Z" style="fill:#005ece"/><rect x="37" y="29" width="3" height="6" style="fill:#2488ff"/><path d="M40,25v4H37V25a2.006,2.006,0,0,0-2-2h3A2.006,2.006,0,0,1,40,25Z" style="fill:#9bc9ff"/><path d="M6,32A26.025,26.025,0,0,1,31.191,6.021,3,3,0,0,0,34,8a1,1,0,0,0,.243-.03l8-2a1,1,0,0,0,0-1.94l-8-2A1,1,0,0,0,34,2a2.994,2.994,0,0,0-2.822,2.021A27.993,27.993,0,0,0,14.4,53.777l1.258-1.554A25.909,25.909,0,0,1,6,32ZM33.9,4.005l3.98,1L33.9,6a1,1,0,0,1,0-1.99Z"/><path d="M19.483,54.793c-.656-.361-1.3-.756-1.926-1.173a1,1,0,0,0-1.114,1.662c.67.448,1.368.873,2.074,1.263a1,1,0,0,0,.966-1.752Z"/><path d="M60,32A27.938,27.938,0,0,0,49.631,10.244L48.369,11.8a26,26,0,0,1-15.56,46.184A3,3,0,0,0,30,56a1,1,0,0,0-.243.03l-8,2a1,1,0,0,0,0,1.94l8,2A1,1,0,0,0,30,62a2.994,2.994,0,0,0,2.822-2.021A28.027,28.027,0,0,0,60,32ZM30.1,60,26.123,59l3.98-.995a1,1,0,0,1,0,1.99Z"/><path d="M44.517,9.207c.656.361,1.3.756,1.926,1.173a1,1,0,0,0,1.114-1.662c-.67-.448-1.368-.873-2.074-1.263a1,1,0,0,0-.966,1.752Z"/><path d="M55,32A23,23,0,1,0,32,55,23.026,23.026,0,0,0,55,32ZM21.609,44.237l-1.846-1.846a1,1,0,0,1-.106-1.289l1.015-1.422a2.982,2.982,0,0,0,.32-2.9c-.053-.12-.1-.243-.151-.366a2.98,2.98,0,0,0-2.28-1.83l-1.726-.288A1,1,0,0,1,16,33.306V30.694a1,1,0,0,1,.836-.986l1.724-.288a2.977,2.977,0,0,0,2.28-1.829c.049-.124.1-.247.152-.367a2.982,2.982,0,0,0-.32-2.9L19.657,22.9a1,1,0,0,1,.106-1.289l1.846-1.846a1,1,0,0,1,1.289-.107l1.422,1.016a2.974,2.974,0,0,0,2.9.32c.122-.052.244-.1.368-.151a2.983,2.983,0,0,0,1.83-2.281l.288-1.725A1,1,0,0,1,30.694,16h2.612a1,1,0,0,1,.986.835l.288,1.725a2.983,2.983,0,0,0,1.83,2.281c.124.049.246.1.366.151a2.982,2.982,0,0,0,2.9-.32L41.1,19.656a1,1,0,0,1,1.288.107l1.846,1.846a1,1,0,0,1,.106,1.289L43.328,24.32a2.982,2.982,0,0,0-.32,2.9c.053.12.1.243.151.366a2.98,2.98,0,0,0,2.28,1.83l1.726.288a1,1,0,0,1,.835.986v2.612a1,1,0,0,1-.836.986l-1.724.288a2.977,2.977,0,0,0-2.28,1.829c-.049.124-.1.247-.152.367a2.982,2.982,0,0,0,.32,2.9L44.343,41.1a1,1,0,0,1-.106,1.289l-1.846,1.846a1,1,0,0,1-1.289.107L39.68,43.328a2.979,2.979,0,0,0-2.9-.32c-.122.052-.244.1-.368.151a2.983,2.983,0,0,0-1.83,2.281l-.288,1.725a1,1,0,0,1-.986.835H30.694a1,1,0,0,1-.986-.835L29.42,45.44a2.983,2.983,0,0,0-1.83-2.281c-.124-.049-.246-.1-.366-.151a2.921,2.921,0,0,0-1.161-.238,3,3,0,0,0-1.743.558L22.9,44.344A1,1,0,0,1,21.609,44.237ZM33,11.1c2.633.509,5.148,3,6.959,6.914l-.019.011-1.423,1.016a.971.971,0,0,1-.947.111q-.211-.091-.427-.177a.971.971,0,0,1-.591-.748l-.287-1.724A2.991,2.991,0,0,0,33.306,14H33Zm-2,0V14h-.306a2.991,2.991,0,0,0-2.959,2.507l-.287,1.724a.971.971,0,0,1-.591.748c-.144.057-.286.116-.428.177a.976.976,0,0,1-.947-.111l-1.421-1.016-.02-.011C25.852,14.1,28.367,11.613,31,11.1ZM33,52.9V50h.306a2.991,2.991,0,0,0,2.959-2.507l.287-1.724a.971.971,0,0,1,.591-.748c.144-.057.286-.116.428-.177a.976.976,0,0,1,.947.111l1.421,1.016.02.011C38.148,49.9,35.633,52.387,33,52.9Zm-8.94-6.925,1.423-1.016a.977.977,0,0,1,.947-.111q.212.092.427.177a.971.971,0,0,1,.591.748l.287,1.724A2.991,2.991,0,0,0,30.694,50H31v2.9c-2.633-.509-5.148-2.995-6.959-6.914Zm17.845.551a2.967,2.967,0,0,0,.935-.229,20.949,20.949,0,0,1,2.582,1.84,20.98,20.98,0,0,1-7.079,3.883A18.8,18.8,0,0,0,41.905,46.522Zm5,.253A22.78,22.78,0,0,0,44.5,44.961l1.157-1.156a2.993,2.993,0,0,0,.319-3.866l-1.016-1.421a.977.977,0,0,1-.112-.947q.091-.212.178-.428a.968.968,0,0,1,.749-.59l1.723-.288A2.991,2.991,0,0,0,50,33.306V33h2.949A20.924,20.924,0,0,1,46.9,46.775ZM52.949,31H50v-.306a2.991,2.991,0,0,0-2.506-2.959l-1.725-.288a.971.971,0,0,1-.749-.591c-.057-.143-.116-.286-.177-.427a.975.975,0,0,1,.113-.947l1.015-1.421a2.992,2.992,0,0,0-.32-3.866L44.5,19.039A22.78,22.78,0,0,0,46.9,17.225,20.924,20.924,0,0,1,52.949,31ZM45.422,15.867a20.843,20.843,0,0,1-2.582,1.84,2.988,2.988,0,0,0-.935-.229,18.813,18.813,0,0,0-3.562-5.494A20.98,20.98,0,0,1,45.422,15.867ZM22.1,17.477a2.974,2.974,0,0,0-.937.23,21.014,21.014,0,0,1-2.581-1.84,20.98,20.98,0,0,1,7.079-3.883A18.786,18.786,0,0,0,22.1,17.477Zm-5-.252a22.78,22.78,0,0,0,2.409,1.814L18.348,20.2a2.993,2.993,0,0,0-.319,3.866l1.016,1.421a.977.977,0,0,1,.112.947q-.091.212-.178.428a.968.968,0,0,1-.749.59l-1.723.288A2.991,2.991,0,0,0,14,30.694V31H11.051A20.924,20.924,0,0,1,17.1,17.225ZM11.051,33H14v.306a2.991,2.991,0,0,0,2.506,2.959l1.725.288a.971.971,0,0,1,.749.591c.057.143.116.286.177.427a.975.975,0,0,1-.113.947l-1.015,1.421a2.992,2.992,0,0,0,.32,3.866l1.156,1.156A22.78,22.78,0,0,0,17.1,46.775,20.924,20.924,0,0,1,11.051,33Zm7.527,15.133a21.014,21.014,0,0,1,2.581-1.84,3.008,3.008,0,0,0,.937.23,18.786,18.786,0,0,0,3.561,5.493A20.98,20.98,0,0,1,18.578,48.133Z"/><rect x="27" y="31" width="2" height="2"/><rect x="27" y="25" width="2" height="2"/><path d="M26,42H38a3,3,0,0,0,3-3V25a3,3,0,0,0-3-3H26a3,3,0,0,0-3,3V39A3,3,0,0,0,26,42Zm12-2H26a1,1,0,0,1-1-1V36H39v3A1,1,0,0,1,38,40ZM25,34V30H39v4Zm1-10H38a1,1,0,0,1,1,1v3H25V25A1,1,0,0,1,26,24Z"/><rect x="27" y="37" width="2" height="2"/></g></svg>
