<svg height="512" viewBox="0 0 64 64" width="512" xmlns="http://www.w3.org/2000/svg"><g id="banking"><path d="m61 55v6h-58v-6h5 14 4 12 4 14z" fill="#c6c5ca"/><path d="m56 21h5v4h-5z" fill="#c6c5ca"/><path d="m61 21h-5-14-20-14-5l29-18z" fill="#00b6bd"/><path d="m56 49v6h-14v-6h3 8z" fill="#c0ab91"/><path d="m56 25v2h-3-8-3v-2-4h14z" fill="#c0ab91"/><path d="m45 27h8v22h-8z" fill="#c6c5ca"/><path d="m59 55h2v6h-2z" fill="#acabb1"/><path d="m59 21h2v4h-2z" fill="#acabb1"/><path d="m54 49h2v6h-2z" fill="#b39a7c"/><path d="m54 21h2v6h-2z" fill="#b39a7c"/><path d="m51 27h2v22h-2z" fill="#acabb1"/><path d="m22 21h20v4h-20z" fill="#c6c5ca"/><path d="m38 51v4h-12v-4a2.006 2.006 0 0 1 2-2h8a2.006 2.006 0 0 1 2 2z" fill="#ff7956"/><path d="m32.05 29h-.05a8 8 0 0 0 -.05 16h.05a8 8 0 0 0 .05-16z" fill="#ffeb99"/><path d="m22 49v6h-14v-6h3 8z" fill="#c0ab91"/><path d="m22 25v2h-3-8-3v-2-4h14z" fill="#c0ab91"/><path d="m11 27h8v22h-8z" fill="#c6c5ca"/><path d="m3 21h5v4h-5z" fill="#c6c5ca"/><path d="m32 28a9 9 0 1 0 9 9 9.01 9.01 0 0 0 -9-9zm0 16a7 7 0 1 1 7-7 7.009 7.009 0 0 1 -7 7z"/><path d="m33 31h-2v1a2 2 0 0 0 -2 2v2a2 2 0 0 0 2 2h2v2h-4v2h2v1h2v-1a2 2 0 0 0 2-2v-2a2 2 0 0 0 -2-2h-2v-2h4v-2h-2z"/><path d="m56 28a1 1 0 0 0 1-1v-1h4a1 1 0 0 0 1-1v-4h-.007a.994.994 0 0 0 -.466-.85l-29-18a1 1 0 0 0 -1.054 0l-29 18a.994.994 0 0 0 -.466.85h-.007v4a1 1 0 0 0 1 1h4v1a1 1 0 0 0 1 1h2v20h-2a1 1 0 0 0 -1 1v5h-4a1 1 0 0 0 -1 1v6a1 1 0 0 0 1 1h58a1 1 0 0 0 1-1v-6a1 1 0 0 0 -1-1h-4v-5a1 1 0 0 0 -1-1h-2v-20zm-13-2v-4h12v4zm-1 22a1 1 0 0 0 -1 1v5h-2v-3a3 3 0 0 0 -3-3h-8a3 3 0 0 0 -3 3v3h-2v-5a1 1 0 0 0 -1-1h-2v-20h2a1 1 0 0 0 1-1v-1h18v1a1 1 0 0 0 1 1h2v20zm-5 6h-10v-3a1 1 0 0 1 1-1h8a1 1 0 0 1 1 1zm4-32v2h-18v-2zm16 2v-2h3v2zm-25-19.823 25.492 15.823h-50.984zm-28 19.823v-2h3v2zm5-2h12v4h-12zm3 6h6v20h-6zm-3 22h12v4h-12zm51 10h-56v-4h56zm-5-6h-12v-4h12zm-3-6h-6v-20h6z"/></g></svg>