<svg height="512" viewBox="0 0 64 64" width="512" xmlns="http://www.w3.org/2000/svg"><g id="budget"><rect fill="#ffeb99" height="38" rx="2" width="28" x="3" y="23"/><path d="m31 25v34a2.006 2.006 0 0 1 -2 2h-2a2.006 2.006 0 0 0 2-2v-34a2.006 2.006 0 0 0 -2-2h2a2.006 2.006 0 0 1 2 2z" fill="#ffde55"/><g fill="#ebbf00"><rect height="5" rx="1.5" width="5" x="7" y="52"/><rect height="5" rx="1.5" width="5" x="15" y="52"/><path d="m23 50h4v7h-4z"/><path d="m23 43h4v3h-4z"/><rect height="5" rx="1.5" width="5" x="15" y="43"/><rect height="5" rx="1.5" width="5" x="7" y="43"/></g><path d="m50 4c5.6-.73 11.23 2.66 11 4-.28 1.61-8.89.05-10 3-1.22 3.23 7.52 9.35 7 10-.44.55-5.86-4.84-13-5a15.353 15.353 0 0 0 -5.02.75 2.918 2.918 0 0 0 -.86-1.87 3.015 3.015 0 0 0 -.88-.61l.64-1.93a.01.01 0 0 1 .01-.01c2.02-3.28 5.68-7.63 11.11-8.33z" fill="#ebe5dd"/><path d="m50 42.41v6.97a11.44 11.44 0 0 1 -11.25 11.62h-9.75a2.006 2.006 0 0 0 2-2v-9a8 8 0 0 0 0-16v-9a2.006 2.006 0 0 0 -2-2h-7.04a18.2 18.2 0 0 1 3.94-3.21 2.873 2.873 0 0 0 1.1.21h10a2.873 2.873 0 0 0 1.1-.21c6.94 4.12 11.9 14.56 11.9 22.62z" fill="#ebbf00"/><path d="m39.23 3a2 2 0 0 1 1.89 2.63l-2.23 6.7a.01.01 0 0 0 -.01.01l-.64 1.93a3.034 3.034 0 0 0 -1.24-.27h-10a3.034 3.034 0 0 0 -1.24.27l-2.88-8.64a2 2 0 0 1 1.89-2.63z" fill="#ebbf00"/><path d="m39.98 16.75a1.055 1.055 0 0 1 .02.25 3 3 0 0 1 -1.9 2.79 2.873 2.873 0 0 1 -1.1.21h-10a2.873 2.873 0 0 1 -1.1-.21 2.92 2.92 0 0 1 -1.02-.67 3 3 0 0 1 .88-4.85 3.034 3.034 0 0 1 1.24-.27h10a3.006 3.006 0 0 1 2.12.88 2.918 2.918 0 0 1 .86 1.87z" fill="#ebe5dd"/><path d="m31 34a8 8 0 0 1 0 16z" fill="#ffeb99"/><path d="m27 31v4a4 4 0 0 1 -4 4h-12a4 4 0 0 1 -4-4v-4a4 4 0 0 1 4-4h12a4 4 0 0 1 4 4zm-4 4v-4a1 1 0 0 0 -1-1h-2a1 1 0 0 0 -1 1v4a1 1 0 0 0 1 1h2a1 1 0 0 0 1-1z" fill="#57a4ff"/><rect fill="#57a4ff" height="6" rx="1" width="4" x="19" y="30"/><path d="m50 42.41v6.97a11.44 11.44 0 0 1 -11.25 11.62h-2a11.44 11.44 0 0 0 11.25-11.62v-6.97c0-7.93-4.8-18.15-11.56-22.41h.56a2.873 2.873 0 0 0 1.1-.21c6.94 4.12 11.9 14.56 11.9 22.62z" fill="#cca400"/><path d="m41.12 5.63-2.23 6.7a.01.01 0 0 0 -.01.01l-.64 1.93a3.034 3.034 0 0 0 -1.24-.27h-.67l.55-1.66a.01.01 0 0 1 .01-.01l2.23-6.7a2 2 0 0 0 -1.89-2.63h2a2 2 0 0 1 1.89 2.63z" fill="#cca400"/><path d="m40 17a3 3 0 0 1 -1.9 2.79 2.873 2.873 0 0 1 -1.1.21h-2a2.873 2.873 0 0 0 1.1-.21 3 3 0 0 0 1.9-2.79 1.055 1.055 0 0 0 -.02-.25 2.918 2.918 0 0 0 -.86-1.87 3.006 3.006 0 0 0 -2.12-.88h2a3.006 3.006 0 0 1 2.12.88 2.918 2.918 0 0 1 .86 1.87 1.055 1.055 0 0 1 .02.25z" fill="#acabb1"/><path d="m61.232 6.337c-1.721-1.792-6.632-3.946-11.36-3.329a14.417 14.417 0 0 0 -8.236 4.235l.433-1.3a3.007 3.007 0 0 0 -.414-2.7 2.959 2.959 0 0 0 -2.425-1.243h-14.46a2.959 2.959 0 0 0 -2.425 1.243 3.007 3.007 0 0 0 -.414 2.7l2.634 7.9a3.962 3.962 0 0 0 -.441 5.919 20.141 20.141 0 0 0 -2.576 2.238h-16.548a3 3 0 0 0 -3 3v34a3 3 0 0 0 3 3h33.75a12.453 12.453 0 0 0 12.25-12.62v-6.97c0-8.334-4.884-18.112-11.123-22.644a3.979 3.979 0 0 0 1.071-2.247 14.3 14.3 0 0 1 4.03-.519c4.7.105 8.67 2.651 10.805 4.019a5.013 5.013 0 0 0 2.187 1.033 1 1 0 0 0 .811-.427c.747-.935-.055-1.7-1.995-3.56-1.761-1.685-5.425-5.192-4.85-6.713.41-1.089 3.446-1.293 5.455-1.428 2.52-.17 4.34-.292 4.594-1.755a2.15 2.15 0 0 0 -.753-1.832zm-24.232 12.663h-10a2 2 0 0 1 0-4h10a2 2 0 0 1 0 4zm-13.171-13.686a1 1 0 0 1 .941-1.314h14.46a1 1 0 0 1 .941 1.313l-2.582 7.747a3.931 3.931 0 0 0 -.589-.06h-10a3.931 3.931 0 0 0 -.589.06zm1.421 54.686h-20.25a1 1 0 0 1 -1-1v-34a1 1 0 0 1 1-1h24a1 1 0 0 1 1 1v34a1 1 0 0 1 -1 1zm6.75-24.92a6.991 6.991 0 0 1 0 13.84zm17 7.33v6.97a10.452 10.452 0 0 1 -10.25 10.62h-6.934a2.966 2.966 0 0 0 .184-1v-8.059a9 9 0 0 0 0-17.882v-8.059a3 3 0 0 0 -3-3h-4.509a15.492 15.492 0 0 1 1.568-1.124 3.946 3.946 0 0 0 .941.124h10a3.946 3.946 0 0 0 .935-.122c6.131 3.883 11.065 13.422 11.065 21.532zm8.256-34.482c-2.966.2-6.329.426-7.192 2.718-.74 1.96.91 4.312 2.894 6.433a19.161 19.161 0 0 0 -7.937-2.079 16.412 16.412 0 0 0 -4.315.513 3.991 3.991 0 0 0 -1.271-1.664l.358-1.076c2-3.218 5.4-7.145 10.336-7.781 4.262-.56 8.526 1.54 9.637 2.677a22.093 22.093 0 0 1 -2.51.259z"/><path d="m23 26h-12a5.006 5.006 0 0 0 -5 5v4a5.006 5.006 0 0 0 5 5h12a5.006 5.006 0 0 0 5-5v-4a5.006 5.006 0 0 0 -5-5zm3 9a3 3 0 0 1 -3 3h-12a3 3 0 0 1 -3-3v-4a3 3 0 0 1 3-3h12a3 3 0 0 1 3 3z"/><path d="m10.5 42h-2a2.5 2.5 0 0 0 -2.5 2.5v2a2.5 2.5 0 0 0 2.5 2.5h2a2.5 2.5 0 0 0 2.5-2.5v-2a2.5 2.5 0 0 0 -2.5-2.5zm.5 4.5a.5.5 0 0 1 -.5.5h-2a.5.5 0 0 1 -.5-.5v-2a.5.5 0 0 1 .5-.5h2a.5.5 0 0 1 .5.5z"/><path d="m10.5 51h-2a2.5 2.5 0 0 0 -2.5 2.5v2a2.5 2.5 0 0 0 2.5 2.5h2a2.5 2.5 0 0 0 2.5-2.5v-2a2.5 2.5 0 0 0 -2.5-2.5zm.5 4.5a.5.5 0 0 1 -.5.5h-2a.5.5 0 0 1 -.5-.5v-2a.5.5 0 0 1 .5-.5h2a.5.5 0 0 1 .5.5z"/><path d="m18.5 42h-2a2.5 2.5 0 0 0 -2.5 2.5v2a2.5 2.5 0 0 0 2.5 2.5h2a2.5 2.5 0 0 0 2.5-2.5v-2a2.5 2.5 0 0 0 -2.5-2.5zm.5 4.5a.5.5 0 0 1 -.5.5h-2a.5.5 0 0 1 -.5-.5v-2a.5.5 0 0 1 .5-.5h2a.5.5 0 0 1 .5.5z"/><path d="m18.5 51h-2a2.5 2.5 0 0 0 -2.5 2.5v2a2.5 2.5 0 0 0 2.5 2.5h2a2.5 2.5 0 0 0 2.5-2.5v-2a2.5 2.5 0 0 0 -2.5-2.5zm.5 4.5a.5.5 0 0 1 -.5.5h-2a.5.5 0 0 1 -.5-.5v-2a.5.5 0 0 1 .5-.5h2a.5.5 0 0 1 .5.5z"/><path d="m27 49h-4a1 1 0 0 0 -1 1v7a1 1 0 0 0 1 1h4a1 1 0 0 0 1-1v-7a1 1 0 0 0 -1-1zm-1 7h-2v-5h2z"/><path d="m22 29h-2a2 2 0 0 0 -2 2v4a2 2 0 0 0 2 2h2a2 2 0 0 0 2-2v-4a2 2 0 0 0 -2-2zm-2 6v-4h2v4z"/><path d="m27 42h-4a1 1 0 0 0 -1 1v3a1 1 0 0 0 1 1h4a1 1 0 0 0 1-1v-3a1 1 0 0 0 -1-1zm-1 3h-2v-1h2z"/></g></svg>