<svg height="512" viewBox="0 0 64 64" width="512" xmlns="http://www.w3.org/2000/svg"><g id="car"><path d="m13 39v14a2.006 2.006 0 0 1 -2 2 2.015 2.015 0 0 1 -2-2v-14a2.006 2.006 0 0 1 2-2 2.015 2.015 0 0 1 2 2z" fill="#57a4ff"/><circle cx="17" cy="24" fill="#acabb1" r="2"/><circle cx="48" cy="24" fill="#acabb1" r="2"/><path d="m30.5 13a1.5 1.5 0 0 1 0 3h-2.5v-3z" fill="#e0e0e2"/><path d="m9 13-2 3h-4v-3z" fill="#ff7956"/><path d="m59.4 16h-6.4l-2-3h5.94a12.063 12.063 0 0 1 2.46 3z" fill="#ff7956"/><path d="m17 19a5 5 0 1 1 -5 5 5 5 0 0 1 5-5zm2 5a2 2 0 1 0 -2 2 2.006 2.006 0 0 0 2-2z" fill="#c6c5ca"/><path d="m48 19a5 5 0 1 1 -5 5 5 5 0 0 1 5-5zm2 5a2 2 0 1 0 -2 2 2.006 2.006 0 0 0 2-2z" fill="#c6c5ca"/><path d="m28 16v8h-6a5 5 0 0 0 -10 0h-5l-4-6v-2h4l2-3h-6v-1a2.006 2.006 0 0 1 2-2h23z" fill="#ebe5dd"/><path d="m61 22v2h-8a5 5 0 0 0 -10 0h-15v-8h2.5a1.5 1.5 0 0 0 0-3h-2.5v-3h21a11.923 11.923 0 0 1 7.94 3h-5.94l2 3h6.4a11.925 11.925 0 0 1 1.6 6z" fill="#ebe5dd"/><path d="m36.41 46.41c.63-.27 10.96-4.77 17.08-7.41 2.55-1.1 4.37-1.87 4.46-1.89v-.01a2.587 2.587 0 0 1 3.05 2.54v.01a2.582 2.582 0 0 1 -1.12 2.12l-27.88 19.23-19-8v-14l9-4 7.5 4 7.5 4v2a1.955 1.955 0 0 1 -.59 1.41z" fill="#ffdaaa"/><path d="m61 39.64v.01a2.582 2.582 0 0 1 -1.12 2.12l-27.88 19.23-1.24-.52 27.12-18.71a2.582 2.582 0 0 0 1.12-2.12v-.01a2.534 2.534 0 0 0 -1.51-2.34c.27-.12.43-.18.46-.19v-.01a2.587 2.587 0 0 1 3.05 2.54z" fill="#ffc477"/><path d="m61 31-3.05 6.1v.01c-.09.02-1.91.79-4.46 1.89h-23.99l-7.5-4-9 4a2.015 2.015 0 0 0 -2-2 2.006 2.006 0 0 0 -2 2h-2l-4-8z" fill="#ff7956"/><path d="m61 31-3.05 6.1v.01c-.09.02-1.91.79-4.46 1.89h-2c2.55-1.1 4.37-1.87 4.46-1.89v-.01l3.05-6.1z" fill="#ff6243"/><path d="m46 10h-18v-7c9.94 0 18 7 18 7z" fill="#57a4ff"/><path d="m28 3v7h-18s8.06-7 18-7z" fill="#57a4ff"/><path d="m9 39v14l-6 6v-20h4z" fill="#ffdaaa"/><path d="m3 30a1 1 0 0 0 -.895 1.447l3.277 6.553h-2.382a1 1 0 0 0 -1 1v20a1 1 0 0 0 1.707.707l4.908-4.907a2.972 2.972 0 0 0 5.043-.437l17.954 7.56a1 1 0 0 0 .956-.1l27.877-19.223a3.581 3.581 0 0 0 .272-5.7 3.626 3.626 0 0 0 -1.219-.655l2.4-4.794a1 1 0 0 0 -.898-1.451zm1 10h4v12.586l-4 4zm8 13a1 1 0 0 1 -2 0v-14a1 1 0 0 1 2 0zm47.312-12.053-27.429 18.919-17.883-7.53v-12.686l7.96-3.538 14.04 7.488v1.4a1 1 0 0 1 -1 1h-13v2h13a2.97 2.97 0 0 0 1.921-.715c8.2-3.574 20.481-8.906 21.317-9.217a1.606 1.606 0 0 1 1.2.366 1.547 1.547 0 0 1 .562 1.216 1.572 1.572 0 0 1 -.688 1.297zm-21.841 1.171-3.971-2.118h15.159c-2.677 1.16-6.151 2.67-10.659 4.634v-1.634a1 1 0 0 0 -.529-.882zm21.911-10.118-2.166 4.333c-.544.222-1.648.687-3.927 1.667h-23.539l-7.279-3.882a1 1 0 0 0 -.877-.032l-7.947 3.532a2.979 2.979 0 0 0 -5.463.382h-.566l-3-6z"/><path d="m53.91 25h7.09a1 1 0 0 0 1-1v-2a13.015 13.015 0 0 0 -13-13h-2.639c-1.535-1.253-9.075-7-18.361-7s-16.824 5.745-18.361 7h-4.639a3 3 0 0 0 -3 3v6a1.006 1.006 0 0 0 .168.555l4 6a1 1 0 0 0 .832.445h4.09a5.993 5.993 0 0 0 11.82 0h19.18a5.993 5.993 0 0 0 11.82 0zm3.568-10h-3.943l-.666-1h3.657a11.24 11.24 0 0 1 .952 1zm-28.478-1h1.5a.5.5 0 0 1 0 1h-1.5zm0-9.957c5.908.292 11.074 3.062 13.944 4.957h-13.944zm-2 0v4.957h-13.944c2.871-1.895 8.036-4.665 13.944-4.957zm-23 9.957h3.131l-.666 1h-2.465zm13 14a4 4 0 1 1 4-4 4 4 0 0 1 -4 4zm0-10a6.006 6.006 0 0 0 -5.91 5h-3.555l-3.535-5.3v-.7h3a1 1 0 0 0 .832-.445l2-3a1 1 0 0 0 -.832-1.555h-5a1 1 0 0 1 1-1h22v12h-4.09a6.006 6.006 0 0 0 -5.91-5zm25.09 5h-13.09v-6h1.5a2.5 2.5 0 0 0 0-5h-1.5v-1h20a10.914 10.914 0 0 1 4.555 1h-2.555a1 1 0 0 0 -.832 1.555l2 3a1 1 0 0 0 .832.445h5.785a10.916 10.916 0 0 1 1.215 5v1h-6.09a5.993 5.993 0 0 0 -11.82 0zm5.91 5a4 4 0 1 1 4-4 4 4 0 0 1 -4 4z"/><path d="m48 21a3 3 0 1 0 3 3 3 3 0 0 0 -3-3zm0 4a1 1 0 1 1 1-1 1 1 0 0 1 -1 1z"/><path d="m17 21a3 3 0 1 0 3 3 3 3 0 0 0 -3-3zm0 4a1 1 0 1 1 1-1 1 1 0 0 1 -1 1z"/></g></svg>