<svg height="512" viewBox="0 0 64 64" width="512" xmlns="http://www.w3.org/2000/svg"><g id="VR"><path d="m61 48v1.53a7.241 7.241 0 0 1 -4 6.47v-16a7.241 7.241 0 0 1 4 6.47z" fill="#00d7df"/><path d="m61 32v14.47a7.241 7.241 0 0 0 -4-6.47v-1a4 4 0 0 0 -4-4h-1v-4h4v-5h-4.1a20.027 20.027 0 0 0 -16.9-17.78v-2.22l.35-2.8a28.971 28.971 0 0 1 25.65 28.8z" fill="#e0e0e2"/><path d="m57 39v18a4 4 0 0 1 -4 4h-14l-4-4h-6l-4 4h-14a4 4 0 0 1 -4-4v-18a4 4 0 0 1 4-4h14l4 3h6l4-3h14a4 4 0 0 1 4 4z" fill="#57a4ff"/><path d="m57 39v18a4 4 0 0 1 -4 4h-2a4 4 0 0 0 4-4v-18a4 4 0 0 0 -4-4h2a4 4 0 0 1 4 4z" fill="#2488ff"/><path d="m56 26v5h-4v-3a18.862 18.862 0 0 0 -.1-2z" fill="#00d7df"/><rect fill="#ffde55" height="10" rx="2" width="42" x="11" y="43"/><path d="m53 45v6a2.006 2.006 0 0 1 -2 2h-2a2.006 2.006 0 0 0 2-2v-6a2.006 2.006 0 0 0 -2-2h2a2.006 2.006 0 0 1 2 2z" fill="#ffcd00"/><path d="m35.35 3.2-.35 2.8h-6v2.22a20 20 0 0 0 -16.9 17.78h-4.1v5h4v4h-1a4 4 0 0 0 -4 4v1a7.241 7.241 0 0 0 -4 6.47v-14.47a29 29 0 0 1 29-29 26.55 26.55 0 0 1 3.35.2z" fill="#e0e0e2"/><path d="m35 8.22v1.78h-6v-1.78-2.22h6z" fill="#00d7df"/><circle cx="32" cy="29" fill="#ffde55" r="2"/><path d="m8 26h4.1a18.862 18.862 0 0 0 -.1 2v3h-4z" fill="#00d7df"/><path d="m7 40v16a7.241 7.241 0 0 1 -4-6.47v-3.06a7.241 7.241 0 0 1 4-6.47z" fill="#00d7df"/><path d="m22.806 19.809a13 13 0 0 1 18.388 0l1.411-1.418a15 15 0 0 0 -21.21 0z"/><path d="m24.223 21.223 1.414 1.414a9 9 0 0 1 12.726 0l1.414-1.414a10.994 10.994 0 0 0 -15.554 0z"/><path d="m27.049 24.056 1.421 1.408a4.988 4.988 0 0 1 7.06 0l1.421-1.408a6.989 6.989 0 0 0 -9.9 0z"/><path d="m32 26a3 3 0 1 0 3 3 3 3 0 0 0 -3-3zm0 4a1 1 0 1 1 1-1 1 1 0 0 1 -1 1z"/><path d="m44 56h10v2h-10z"/><path d="m40 56h2v2h-2z"/><path d="m46 38h8v2h-8z"/><path d="m40 38h4v2h-4z"/><path d="m10 56h10v2h-10z"/><path d="m22 56h2v2h-2z"/><path d="m10 38h8v2h-8z"/><path d="m20 38h4v2h-4z"/><path d="m51 42h-38a3 3 0 0 0 -3 3v6a3 3 0 0 0 3 3h38a3 3 0 0 0 3-3v-6a3 3 0 0 0 -3-3zm1 9a1 1 0 0 1 -1 1h-38a1 1 0 0 1 -1-1v-6a1 1 0 0 1 1-1h38a1 1 0 0 1 1 1z"/><path d="m32 2a30.034 30.034 0 0 0 -30 30v17.528a8.171 8.171 0 0 0 4 7.04v.432a5.006 5.006 0 0 0 5 5h14a1 1 0 0 0 .707-.293l3.707-3.707h5.172l3.707 3.707a1 1 0 0 0 .707.293h14a5.006 5.006 0 0 0 5-5v-.432a8.171 8.171 0 0 0 4-7.04v-17.528a30.034 30.034 0 0 0 -30-30zm-28 47.528v-3.056a6.2 6.2 0 0 1 2-4.58v12.216a6.2 6.2 0 0 1 -2-4.58zm52 7.472a3 3 0 0 1 -3 3h-13.586l-3.707-3.707a1 1 0 0 0 -.707-.293h-6a1 1 0 0 0 -.707.293l-3.707 3.707h-13.586a3 3 0 0 1 -3-3v-18a3 3 0 0 1 3-3h13.667l3.733 2.8a1 1 0 0 0 .6.2h6a1 1 0 0 0 .6-.2l3.733-2.8h13.667a3 3 0 0 1 3 3zm-45-27h-2v-3h2.046c-.016.333-.046.664-.046 1zm18-19h6a1 1 0 0 0 1-1v-.57a19 19 0 0 1 15 18.57v6h-12a1 1 0 0 0 -.6.2l-3.733 2.8h-5.334l-3.733-2.8a1 1 0 0 0 -.6-.2h-12v-6a19.113 19.113 0 0 1 15-18.563v.563a1 1 0 0 0 1 1zm1-2v-2h4v2zm22.951 18h2.049v3h-2v-2c0-.336-.033-.667-.049-1zm7.049 22.528a6.2 6.2 0 0 1 -2 4.58v-12.216a6.2 6.2 0 0 1 2 4.58zm-2-10.1v-.428a5.006 5.006 0 0 0 -5-5v-2h3a1 1 0 0 0 1-1v-5a1 1 0 0 0 -1-1h-3.237a20.927 20.927 0 0 0 -16.763-17.6v-1.4a1 1 0 0 0 -1-1h-6a1 1 0 0 0 -1 1v1.4a21.131 21.131 0 0 0 -16.76 17.6h-3.24a1 1 0 0 0 -1 1v5a1 1 0 0 0 1 1h3v2a5.006 5.006 0 0 0 -5 5v.432a8.214 8.214 0 0 0 -2 1.668v-9.1a28 28 0 0 1 56 0v9.1a8.214 8.214 0 0 0 -2-1.668z"/></g></svg>