<svg id="Capa_1" enable-background="new 0 0 512 512" height="512" viewBox="0 0 512 512" width="512" xmlns="http://www.w3.org/2000/svg"><path d="m441 272.488c0-24.853-20.147-45-45-45l-140 155h95c33.137 0 60-26.863 60-60 0-2.511-.172-4.981-.472-7.411 17.721-6.044 30.472-22.822 30.472-42.589z" fill="#601c1f"/><path d="m136 192.488c-19.33 0-35 15.67-35 35s15.67 35 35 35h120v-70z" fill="#df6041"/><path d="m376 192.488h-120v70h120c19.33 0 35-15.67 35-35s-15.67-35-35-35z" fill="#bf4f38"/><path d="m256 177.488v205c66.274 0 120-53.726 120-120v-85z" fill="#bf4f38"/><path d="m136 177.488v85c0 66.274 53.726 120 120 120 49.706 0 90-53.726 90-120v-85z" fill="#df6041"/><path d="m256 22.488v150h135v-15c0-74.559-60.441-135-135-135z" fill="#dae0e7"/><path d="m256 22.488c-74.558 0-135 60.441-135 135v15h240v-15c0-74.559-47.01-135-105-135z" fill="#fff"/><path d="m218.5 12.214v160.274h75v-160.274c-11.986-3.085-24.551-4.726-37.5-4.726s-25.514 1.641-37.5 4.726z" fill="#dae0e7"/><path d="m396 162.488h-30v30h30c8.284 0 15-6.716 15-15s-6.716-15-15-15z" fill="#c0c8d2"/><path d="m381 177.488c0-8.284-6.716-15-15-15h-250c-8.284 0-15 6.716-15 15s6.716 15 15 15h250c8.284 0 15-6.716 15-15z" fill="#dae0e7"/><path d="m444.5 412.488h-30l60 92h30v-32c0-33-27-60-60-60z" fill="#dae0e7"/><path d="m414.5 412.488h-15l-19.25 30-19.25-30h-210l-19.25 46 19.25 46 105-20 105 20 19.25-30 19.25 30h75v-32c0-33-27-60-60-60z" fill="#fff"/><path d="m116 459.488 35 45h210l35-45z" fill="#233952"/><path d="m112.5 504.488h38.5v-30l-68.5-30z" fill="#ffb739"/><path d="m82.5 412.488h68.5v62h-68.5z" fill="#3d5168"/><path d="m361 504.488h38.5v-30l-19.25-20-19.25 20z" fill="#ffb739"/><path d="m361 412.488h38.5v62h-38.5z" fill="#3d5168"/><path d="m82.5 307.488-30 98.5 30 98.5h30v-197z" fill="#ff9e90"/><path d="m7.5 307.488h75v197h-75z" fill="#ffb4b3"/><path d="m281 284.988h-7.936c.931-2.639.35-5.692-1.76-7.804-2.93-2.928-7.678-2.928-10.607 0l-4.697 4.698-4.696-4.697c-2.93-2.928-7.678-2.928-10.607 0-2.111 2.111-2.692 5.165-1.76 7.804h-7.937c-4.142 0-7.5 3.358-7.5 7.5s3.358 7.5 7.5 7.5h24.999 25.001c4.142 0 7.5-3.358 7.5-7.5s-3.358-7.501-7.5-7.501z" fill="#601c1f"/><path d="m45 504.488h-15v-62c0-12.406-10.094-22.5-22.5-22.5v-15c20.678 0 37.5 16.822 37.5 37.5z" fill="#ff876c"/><path d="m75 504.488h-15v-62c0-18.669-10.061-36.089-26.257-45.462-2.316-1.341-3.743-3.814-3.743-6.491v-83.047h15v78.89c18.609 12.468 30 33.58 30 56.11z" fill="#ff876c"/><path d="m112.5 419.988c-20.678 0-37.5-16.822-37.5-37.5v-75h15v75c0 12.406 10.094 22.5 22.5 22.5z" fill="#ff7149"/><path d="m216 219.988h-27c-4.143 0-7.5 3.357-7.5 7.5s3.357 7.5 7.5 7.5h19.5c0 4.143 3.357 7.5 7.5 7.5s7.5-3.357 7.5-7.5v-7.5c0-4.143-3.357-7.5-7.5-7.5z"/><path d="m323 219.988h-27c-4.143 0-7.5 3.357-7.5 7.5v7.5c0 4.143 3.357 7.5 7.5 7.5s7.5-3.357 7.5-7.5h19.5c4.143 0 7.5-3.357 7.5-7.5s-3.357-7.5-7.5-7.5z"/><path d="m128.686 269.345c3.575 67.128 59.311 120.643 127.314 120.643h95c37.22 0 67.5-30.28 67.5-67.5 0-.845-.017-1.69-.051-2.541 18.192-8.594 30.051-26.988 30.051-47.459 0-20.428-11.889-38.867-30.077-47.462-.614-10.684-5.188-20.323-12.279-27.464 7.323-3.716 12.356-11.316 12.356-20.073 0-11.569-8.779-21.124-20.024-22.361-.491-30.656-10.54-59.666-29.148-84.035-17.314-22.678-41.414-39.866-68.328-48.843v-10.036c0-3.422-2.316-6.41-5.631-7.264-25.586-6.584-53.152-6.584-78.738 0-3.315.853-5.631 3.842-5.631 7.264v10.036c-26.913 8.977-51.014 26.166-68.328 48.843-18.607 24.369-28.657 53.379-29.148 84.035-11.245 1.237-20.024 10.792-20.024 22.361 0 8.758 5.033 16.358 12.356 20.073-7.632 7.687-12.356 18.264-12.356 29.927 0 20.939 15.226 38.377 35.186 41.856zm14.814-6.857v-20c0-4.143-3.357-7.5-7.5-7.5s-7.5 3.357-7.5 7.5v11.452c-11.528-3.274-20-13.889-20-26.452 0-12.564 8.47-23.188 20-26.461v11.461c0 4.143 3.357 7.5 7.5 7.5s7.5-3.357 7.5-7.5v-12.5h225v12.5c0 4.143 3.357 7.5 7.5 7.5s7.5-3.357 7.5-7.5v-11.461c11.53 3.272 20 13.896 20 26.461 0 12.563-8.472 23.178-20 26.452v-11.452c0-4.143-3.357-7.5-7.5-7.5s-7.5 3.357-7.5 7.5v20c0 62.032-50.468 112.5-112.5 112.5s-112.5-50.468-112.5-112.5zm290 10c0 16.048-10.204 30.311-25.393 35.49-3.36 1.146-5.456 4.49-5.023 8.014.28 2.275.416 4.399.416 6.496 0 28.948-23.552 52.5-52.5 52.5h-35.054c38.265-20.472 64.932-59.893 67.369-105.643 15.472-2.696 28.09-13.782 32.985-28.387 10.544 6.798 17.2 18.609 17.2 31.53zm-50.052-117.5h-82.448v-116.817c48.27 18.237 81.415 64.73 82.448 116.817zm-172.448-116.817v39.317c0 4.143 3.357 7.5 7.5 7.5s7.5-3.357 7.5-7.5v-59.338c19.623-4.199 40.377-4.199 60 0v136.838h-60v-47.5c0-4.143-3.357-7.5-7.5-7.5s-7.5 3.357-7.5 7.5v47.5h-82.448c1.033-52.087 34.178-98.58 82.448-116.817zm-95 131.817h280c4.136 0 7.5 3.364 7.5 7.5s-3.364 7.5-7.5 7.5h-280c-4.136 0-7.5-3.364-7.5-7.5s3.364-7.5 7.5-7.5z"/><path d="m444.5 404.988h-324.5v-97.5c0-4.143-3.357-7.5-7.5-7.5h-105c-4.143 0-7.5 3.357-7.5 7.5v197c0 4.143 3.357 7.5 7.5 7.5h497c4.143 0 7.5-3.357 7.5-7.5v-32c0-37.22-30.28-67.5-67.5-67.5zm-91 47h-195v-32h195zm-195 15h195v30h-195zm210 15h23.5v15h-23.5zm23.5-15h-23.5v-47h23.5zm-248.5-47v47h-23.5v-47zm-38.5 77h-90v-182h90zm15-15h23.5v15h-23.5zm377 15h-90v-77h37.5c28.948 0 52.5 23.552 52.5 52.5z"/></svg>