<svg height="512pt" viewBox="-68 0 512 512.00001" width="512pt" xmlns="http://www.w3.org/2000/svg"><path d="m281.601562 25.601562v93.863282h-187.734374v-93.863282c.027343-9.414062 7.652343-17.039062 17.066406-17.066406h153.601562c9.414063.027344 17.039063 7.652344 17.066406 17.066406zm0 0" fill="#7f8e94"/><path d="m307.199219 110.933594v17.066406c-.011719 4.707031-3.824219 8.519531-8.53125 8.535156l-51.203125 17.066406h-145.066406l-25.597657-17.066406c-4.707031-.015625-8.519531-3.828125-8.535156-8.535156v-17.066406c.015625-4.707032 3.828125-8.519532 8.535156-8.535156h221.867188c4.707031.015624 8.519531 3.828124 8.53125 8.535156zm0 0" fill="#707070"/><path d="m281.601562 110.933594v17.066406c-.015624 4.707031-3.828124 8.519531-8.535156 8.535156l-51.199218 17.066406h-119.46875l-25.597657-17.066406c-4.707031-.015625-8.519531-3.828125-8.535156-8.535156v-17.066406c.015625-4.707032 3.828125-8.519532 8.535156-8.535156h196.265625c4.707032.015624 8.519532 3.828124 8.535156 8.535156zm0 0" fill="#9e9e9e"/><path d="m256 162.132812v298.667969c-.007812 23.558594-19.105469 42.65625-42.667969 42.664063h-51.199219c-23.558593-.007813-42.65625-19.105469-42.667968-42.664063v-298.667969zm0 0" fill="#37474f"/><path d="m230.398438 162.132812v298.667969c-.007813 23.558594-19.105469 42.65625-42.664063 42.664063h-25.601563c-23.558593-.007813-42.65625-19.105469-42.667968-42.664063v-298.667969zm0 0" fill="#607d8b"/><path d="m136.535156 8.535156h102.398438v93.863282h-102.398438zm0 0" fill="#9e9e9e"/><path d="m136.535156 8.535156h76.796875v93.863282h-76.796875zm0 0" fill="#cfd8dc"/><path d="m366.933594 157.867188c.015625 5.664062-2.226563 11.097656-6.230469 15.105468-4.003906 4.003906-9.441406 6.246094-15.101563 6.226563h-315.734374c-11.78125 0-21.332032-9.550781-21.332032-21.332031s9.550782-21.332032 21.332032-21.332032h315.734374c11.777344.003906 21.328126 9.550782 21.332032 21.332032zm0 0" fill="#9e9e9e"/><path d="m341.332031 157.867188c.019531 5.664062-2.222656 11.097656-6.226562 15.105468-4.007813 4.003906-9.441407 6.246094-15.105469 6.226563h-290.132812c-11.78125 0-21.332032-9.550781-21.332032-21.332031s9.550782-21.332032 21.332032-21.332032h290.132812c11.78125.003906 21.328125 9.550782 21.332031 21.332032zm0 0" fill="#cfd8dc"/><path d="m298.667969 145.066406h-221.867188c-9.421875-.011718-17.054687-7.644531-17.066406-17.066406v-17.066406c.011719-9.421875 7.644531-17.054688 17.066406-17.066406h221.867188c9.417969.011718 17.054687 7.644531 17.066406 17.066406v17.066406c-.011719 9.421875-7.648437 17.054688-17.066406 17.066406zm-221.867188-34.132812v17.066406h221.878907l-.011719-17.066406zm0 0"/><path d="m213.332031 512h-51.199219c-28.261718-.03125-51.167968-22.9375-51.199218-51.199219v-281.601562c0-4.710938 3.820312-8.53125 8.53125-8.53125 4.714844 0 8.535156 3.820312 8.535156 8.53125v281.601562c.019531 18.84375 15.289062 34.113281 34.132812 34.132813h51.199219c18.84375-.019532 34.113281-15.289063 34.132813-34.132813v-281.601562c0-4.710938 3.824218-8.53125 8.535156-8.53125s8.535156 3.820312 8.535156 8.53125v281.601562c-.03125 28.261719-22.9375 51.167969-51.203125 51.199219zm0 0"/><path d="m110.9375 366.933594c-3.523438.003906-6.691406-2.160156-7.964844-5.449219-1.273437-3.285156-.394531-7.019531 2.210938-9.394531l153.601562-140.082032c3.480469-3.175781 8.882813-2.925781 12.054688.558594 3.175781 3.484375 2.925781 8.882813-.558594 12.058594l-153.597656 140.082031c-1.570313 1.433594-3.621094 2.230469-5.746094 2.226563zm0 0"/><path d="m110.9375 315.734375c-3.523438 0-6.6875-2.164063-7.960938-5.453125-1.273437-3.285156-.394531-7.015625 2.210938-9.390625l140.277344-127.992187c3.488281-3.105469 8.828125-2.828126 11.976562.621093 3.148438 3.449219 2.941406 8.785157-.464844 11.980469l-140.296874 128.007812c-1.570313 1.433594-3.617188 2.226563-5.742188 2.226563zm0 0"/><path d="m110.9375 418.132812c-3.523438.003907-6.691406-2.160156-7.964844-5.449218-1.273437-3.285156-.394531-7.019532 2.210938-9.390625l153.601562-140.085938c3.480469-3.175781 8.882813-2.925781 12.054688.558594 3.175781 3.484375 2.925781 8.882813-.558594 12.058594l-153.597656 140.085937c-1.570313 1.433594-3.621094 2.226563-5.746094 2.222656zm0 0"/><path d="m110.9375 469.332031c-3.523438.003907-6.691406-2.160156-7.964844-5.449219-1.273437-3.285156-.394531-7.019531 2.210938-9.390624l153.601562-140.085938c3.480469-3.171875 8.882813-2.921875 12.054688.558594 3.175781 3.484375 2.925781 8.882812-.558594 12.058594l-153.597656 140.085937c-1.570313 1.433594-3.621094 2.226563-5.746094 2.222656zm0 0"/><path d="m132.953125 500.480469c-3.519531 0-6.683594-2.164063-7.957031-5.445313-1.273438-3.285156-.398438-7.011718 2.199218-9.386718l131.59375-120.074219c2.246094-2.101563 5.449219-2.832031 8.382813-1.910157 2.933594.921876 5.148437 3.351563 5.789063 6.359376.644531 3.007812-.382813 6.128906-2.683594 8.167968l-131.574219 120.058594c-1.566406 1.4375-3.621094 2.234375-5.75 2.230469zm0 0"/><path d="m176.382812 512c-3.523437.003906-6.6875-2.160156-7.964843-5.449219-1.273438-3.285156-.394531-7.019531 2.210937-9.394531l88.15625-80.382812c2.246094-2.101563 5.449219-2.832032 8.382813-1.910157 2.933593.921875 5.148437 3.351563 5.789062 6.359375.644531 3.007813-.378906 6.128906-2.679687 8.167969l-88.148438 80.382813c-1.570312 1.433593-3.617187 2.230468-5.746094 2.226562zm0 0"/><path d="m281.601562 145.066406h-187.734374c-4.714844 0-8.535157-3.820312-8.535157-8.53125 0-4.714844 3.820313-8.535156 8.535157-8.535156h187.734374c4.710938 0 8.53125 3.820312 8.53125 8.535156 0 4.710938-3.820312 8.53125-8.53125 8.53125zm0 0"/><path d="m281.601562 110.933594c-4.714843 0-8.535156-3.820313-8.535156-8.535156v-76.796876c-.003906-4.710937-3.820312-8.53125-8.53125-8.535156h-153.601562c-4.710938.003906-8.53125 3.824219-8.535156 8.535156v76.796876c0 4.714843-3.820313 8.535156-8.53125 8.535156-4.714844 0-8.535157-3.820313-8.535157-8.535156v-76.796876c.015625-14.132812 11.46875-25.585937 25.601563-25.601562h153.601562c14.128906.015625 25.582032 11.46875 25.597656 25.601562v76.796876c0 4.714843-3.820312 8.535156-8.53125 8.535156zm0 0"/><path d="m238.933594 110.933594c-4.714844 0-8.535156-3.820313-8.535156-8.535156v-85.332032h-85.332032v85.332032c0 4.714843-3.820312 8.535156-8.53125 8.535156-4.714844 0-8.535156-3.820313-8.535156-8.535156v-93.863282c0-4.714844 3.820312-8.535156 8.535156-8.535156h102.398438c4.710937 0 8.53125 3.820312 8.53125 8.535156v93.863282c0 4.714843-3.820313 8.535156-8.53125 8.535156zm0 0"/><path d="m345.601562 187.734375h-315.734374c-16.496094 0-29.867188-13.371094-29.867188-29.867187 0-16.496094 13.371094-29.867188 29.867188-29.867188h315.734374c16.492188 0 29.863282 13.371094 29.863282 29.867188 0 16.496093-13.371094 29.867187-29.863282 29.867187zm-315.734374-42.667969c-7.070313 0-12.800782 5.730469-12.800782 12.800782 0 7.070312 5.730469 12.800781 12.800782 12.800781h315.734374c7.066407 0 12.796876-5.730469 12.796876-12.800781 0-7.070313-5.730469-12.800782-12.796876-12.800782zm0 0"/></svg>