<svg id="Capa_1" enable-background="new 0 0 510.001 510.001" height="512" viewBox="0 0 510.001 510.001" width="512" xmlns="http://www.w3.org/2000/svg"><path d="m470.479 115.21v348.67c0 5.52-4.48 10-10 10h-331.99c-5.52 0-10-4.48-10-10v-453.88c0-5.52 4.48-10 10-10h225.45c1.43 0 2.83.31 4.11.88 1.05.47 2.01 1.12 2.84 1.92l106.97 105.65c.7.77 1.28 1.64 1.71 2.58.59 1.3.91 2.72.91 4.18z" fill="#d7ebed"/><path d="m470.479 115.21v348.67c0 5.52-4.48 10-10 10h-166v-473.88h59.46c1.43 0 2.83.31 4.11.88 1.05.47 2.01 1.12 2.84 1.92l106.97 105.65c.7.77 1.28 1.64 1.71 2.58.59 1.3.91 2.72.91 4.18z" fill="#b6dade"/><path d="m469.569 111.03h-101.52c-5.523 0-10-4.477-10-10v-100.15c1.05.47 2.01 1.12 2.84 1.92l106.97 105.65c.7.77 1.28 1.64 1.71 2.58z" fill="#d7ebed"/><path d="m238.63 55.125h-70.608c-8.284 0-15 6.716-15 15s6.716 15 15 15h70.608c8.284 0 15-6.716 15-15s-6.716-15-15-15z" fill="#685e68"/><path d="m421.451 242.555c-.553 60.478-49.175 110.33-109.623 112.322-26.719.88-51.48-7.532-71.299-22.254-.798-.593-1.905-.522-2.609.182l-81.154 81.155-21.21-21.21 81.154-81.154c.703-.703.775-1.81.182-2.609-14.721-19.819-23.133-44.579-22.253-71.299 1.991-60.449 51.844-109.071 112.322-109.623 31.697-.289 60.464 12.485 81.235 33.255 20.77 20.771 33.545 49.538 33.255 81.235z" fill="#685e68"/><path d="m421.451 242.555c-.553 60.478-49.175 110.33-109.623 112.322-26.719.88-51.48-7.532-71.299-22.254-.798-.593-1.905-.522-2.609.182l-81.154 81.155-10.6-10.6 242.03-242.04c20.77 20.771 33.545 49.538 33.255 81.235z" fill="#40383f"/><path d="m188.62 407.3-93.1 93.09c-12.77 12.79-33.56 12.84-46.39 0-12.81-12.81-12.81-33.58 0-46.39l93.1-93.09 39.1 7.29z" fill="#685e68"/><path d="m188.62 407.3-93.1 93.09c-12.77 12.79-33.56 12.84-46.39 0l116-116 16.2-16.19z" fill="#40383f"/><path d="m220.723 375.186-32.1 32.11-23.2-23.2-23.19-23.19 32.1-32.11c3.91-3.91 10.24-3.91 14.15 0l32.24 32.24c3.91 3.91 3.91 10.24 0 14.15z" fill="#ffe470"/><path d="m220.723 375.186-32.1 32.11-23.2-23.2 39.18-39.18 16.12 16.12c3.91 3.91 3.91 10.24 0 14.15z" fill="#ffb64c"/><path d="m391.456 241.5c0 46.01-37.43 83.44-83.44 83.44-23 0-43.86-9.36-58.97-24.47s-24.47-35.97-24.47-58.97c0-46.01 37.43-83.44 83.44-83.44 23 0 43.86 9.36 58.97 24.47s24.47 35.97 24.47 58.97z" fill="#ffe470"/><path d="m391.456 241.5c0 46.01-37.43 83.44-83.44 83.44-23 0-43.86-9.36-58.97-24.47l117.94-117.94c15.11 15.11 24.47 35.97 24.47 58.97z" fill="#ffb64c"/><path d="m342.151 254.421c5.84 5.85 5.84 15.35 0 21.21-5.84 5.85-15.36 5.86-21.23 0l-12.91-12.92-12.91 12.92c-5.81 5.84-15.35 5.87-21.22 0-5.84-5.86-5.84-15.36 0-21.21l12.94-12.92-12.94-12.91c-5.84-5.86-5.84-15.36 0-21.22 5.86-5.85 15.36-5.85 21.22 0l12.91 12.92 12.91-12.92c5.88-5.86 15.38-5.85 21.23 0 5.84 5.86 5.84 15.36 0 21.22l-12.93 12.91z" fill="#ff4b00"/><path d="m342.151 254.421c5.84 5.85 5.84 15.35 0 21.21-5.84 5.85-15.36 5.86-21.23 0l-12.91-12.92-12.91 12.92c-5.81 5.84-15.35 5.87-21.22 0l68.27-68.26c5.84 5.86 5.84 15.36 0 21.22l-12.93 12.91z" fill="#f40000"/></svg>