<svg height="507pt" viewBox="-2 0 507 507.66102" width="507pt" xmlns="http://www.w3.org/2000/svg"><path d="m234.636719 219.847656h34.710937v48.664063h-34.710937zm0 0" fill="#802f34"/><path d="m199.921875 0h104.136719c9.585937 0 17.355468 7.769531 17.355468 17.355469v80.523437h-138.847656v-80.523437c0-9.585938 7.773438-17.355469 17.355469-17.355469zm0 0" fill="#ff5364"/><path d="m474.050781 153.859375c-1.519531.007813-3.015625-.390625-4.335937-1.144531-8.628906-4.332032-18.054688-6.851563-27.691406-7.402344-2.296876-.21875-4.414063-1.34375-5.878907-3.125-1.464843-1.78125-2.160156-4.074219-1.933593-6.367188.515624-4.753906 4.734374-8.222656 9.496093-7.8125 12.078125.777344 23.867188 4.050782 34.613281 9.617188 3.410157 1.960938 5.078126 5.96875 4.058594 9.769531-1.015625 3.796875-4.460937 6.4375-8.394531 6.429688zm0 0" fill="#bdc3c7"/><path d="m503.652344 155.484375c0 9.1875-7.449219 16.632813-16.636719 16.632813s-16.632813-7.445313-16.632813-16.632813 7.445313-16.636719 16.632813-16.636719 16.636719 7.449219 16.636719 16.636719zm0 0" fill="#df4d60"/><path d="m425.550781 173.558594h-78.101562v-86.777344h78.101562c9.585938 0 17.355469 7.769531 17.355469 17.355469v52.066406c0 9.585937-7.769531 17.355469-17.355469 17.355469zm0 0" fill="#ff5364"/><path d="m29.929688 153.859375c-3.933594.007813-7.378907-2.632813-8.394532-6.433594-1.019531-3.796875.648438-7.808593 4.058594-9.765625 10.746094-5.566406 22.535156-8.84375 34.613281-9.617187 4.765625-.414063 8.984375 3.058593 9.496094 7.8125.226563 2.292969-.46875 4.585937-1.933594 6.367187-1.46875 1.78125-3.582031 2.90625-5.878906 3.125-9.636719.550782-19.0625 3.070313-27.691406 7.402344-1.300781.730469-2.773438 1.113281-4.269531 1.109375zm0 0" fill="#bdc3c7"/><path d="m33.601562 155.484375c0 9.1875-7.449218 16.632813-16.636718 16.632813s-16.632813-7.445313-16.632813-16.632813 7.445313-16.636719 16.632813-16.636719 16.636718 7.449219 16.636718 16.636719zm0 0" fill="#df4d60"/><path d="m78.433594 86.78125h121.488281v86.777344h-121.488281c-9.585938 0-17.355469-7.769532-17.355469-17.355469v-52.066406c0-9.585938 7.769531-17.355469 17.355469-17.355469zm0 0" fill="#ff5364"/><g fill="#802f34"><path d="m199.921875 477.289062c-4.789063 0-8.675781-3.886718-8.675781-8.679687v-52.066406c0-4.792969 3.886718-8.679688 8.675781-8.679688 4.792969 0 8.679687 3.886719 8.679687 8.679688v52.066406c0 4.792969-3.886718 8.679687-8.679687 8.679687zm0 0"/><path d="m304.058594 477.289062c-4.792969 0-8.675782-3.886718-8.675782-8.679687v-52.066406c0-4.792969 3.882813-8.679688 8.675782-8.679688 4.792968 0 8.679687 3.886719 8.679687 8.679688v52.066406c0 4.792969-3.886719 8.679687-8.679687 8.679687zm0 0"/><path d="m390.839844 410.382812c-4.792969 0-8.679688-3.886718-8.679688-8.679687v-52.066406c0-4.792969 3.886719-8.679688 8.679688-8.679688 4.792968 0 8.675781 3.886719 8.675781 8.679688v52.066406c0 4.792969-3.882813 8.679687-8.675781 8.679687zm0 0"/><path d="m390.839844 468.609375c-3.929688 0-7.367188-2.636719-8.382813-6.429687-1.015625-3.796876.640625-7.796876 4.042969-9.761719l21.695312-12.53125v-20.039063l-17.355468-10.011718-17.355469 10.011718v7.890625c0 4.792969-3.886719 8.675781-8.679687 8.675781-4.792969 0-8.675782-3.882812-8.675782-8.675781v-12.929687c0-3.101563 1.652344-5.96875 4.335938-7.515625l26.035156-15.03125c2.683594-1.550781 5.992188-1.550781 8.679688 0l26.03125 15.03125c2.6875 1.546875 4.339843 4.414062 4.339843 7.515625v30.058594c0 3.101562-1.652343 5.964843-4.339843 7.515624l-26.03125 15.03125c-1.316407.777344-2.8125 1.1875-4.339844 1.195313zm0 0"/><path d="m376.683594 330.890625c-1.808594-.003906-3.570313-.570313-5.039063-1.621094l-46.601562-33.351562c-3.898438-2.789063-4.796875-8.210938-2.007813-12.109375 2.789063-3.898438 8.210938-4.796875 12.109375-2.007813l46.601563 33.3125c3.074218 2.195313 4.375 6.125 3.21875 9.71875-1.15625 3.597657-4.503906 6.03125-8.28125 6.023438zm0 0"/><path d="m113.144531 407.863281c-4.792969 0-8.679687-3.882812-8.679687-8.675781v-52.070312c0-4.792969 3.886718-8.675782 8.679687-8.675782s8.675781 3.882813 8.675781 8.675782v52.070312c0 4.792969-3.882812 8.675781-8.675781 8.675781zm0 0"/><path d="m113.144531 466.09375c-1.523437.003906-3.023437-.398438-4.339843-1.164062l-26.035157-15.027344c-2.683593-1.550782-4.335937-4.417969-4.335937-7.515625v-30.0625c-.003906-3.101563 1.648437-5.972657 4.335937-7.523438l26.035157-15.03125c2.683593-1.550781 5.992187-1.550781 8.679687 0l26.03125 15.03125c2.6875 1.550781 4.34375 4.421875 4.339844 7.523438v12.894531c0 4.792969-3.886719 8.679688-8.675781 8.679688-4.792969 0-8.679688-3.886719-8.679688-8.679688v-7.886719l-17.355469-10.023437-17.355469 10.023437v20.039063l21.695313 12.53125c3.398437 1.960937 5.058594 5.964844 4.042969 9.757812-1.019532 3.796875-4.457032 6.433594-8.382813 6.433594zm0 0"/><path d="m127.296875 328.375c-3.777344.007812-7.125-2.429688-8.28125-6.023438-1.152344-3.59375.148437-7.527343 3.222656-9.71875l46.601563-33.316406c3.894531-2.6875 9.226562-1.753906 11.984375 2.09375 2.753906 3.847656 1.917969 9.195313-1.882813 12.019532l-46.601562 33.320312c-1.46875 1.054688-3.234375 1.621094-5.042969 1.625zm0 0"/></g><path d="m113.144531 34.710938h277.695313c9.585937 0 17.355468 7.769531 17.355468 17.355468v156.203125c0 9.585938-7.769531 17.359375-17.355468 17.359375h-277.695313c-9.585937 0-17.355469-7.773437-17.355469-17.359375v-156.203125c0-9.585937 7.769532-17.355468 17.355469-17.355468zm0 0" fill="#f0c419"/><path d="m269.347656 199.59375h-34.710937c-4.792969 0-8.679688-3.886719-8.679688-8.679688 0-4.792968 3.886719-8.675781 8.679688-8.675781h34.710937c4.792969 0 8.679688 3.882813 8.679688 8.675781 0 4.792969-3.886719 8.679688-8.679688 8.679688zm0 0" fill="#2c2f38"/><path d="m191.246094 147.527344c0 9.582031-7.769532 17.355468-17.355469 17.355468s-17.355469-7.773437-17.355469-17.355468c0-9.585938 7.769532-17.359375 17.355469-17.359375s17.355469 7.773437 17.355469 17.359375zm0 0" fill="#2c2f38"/><path d="m347.449219 147.527344c0 9.582031-7.769531 17.355468-17.355469 17.355468s-17.355469-7.773437-17.355469-17.355468c0-9.585938 7.769531-17.359375 17.355469-17.359375s17.355469 7.773437 17.355469 17.359375zm0 0" fill="#2c2f38"/><path d="m191.246094 260.339844h121.492187c9.585938 0 17.355469 7.769531 17.355469 17.355468v121.492188c0 9.585938-7.769531 17.355469-17.355469 17.355469h-121.492187c-9.585938 0-17.355469-7.769531-17.355469-17.355469v-121.492188c0-9.585937 7.769531-17.355468 17.355469-17.355468zm0 0" fill="#f0c419"/><path d="m130.5 104.136719c-4.164062.003906-7.742188-2.953125-8.53125-7.039063-.785156-4.089844 1.445312-8.160156 5.3125-9.703125l43.390625-17.355469c4.449219-1.777343 9.5.390626 11.28125 4.84375 1.777344 4.453126-.390625 9.503907-4.84375 11.28125l-43.390625 17.355469c-1.023438.410157-2.117188.621094-3.21875.617188zm0 0" fill="#2c2f38"/><path d="m373.484375 104.136719c-1.105469.003906-2.199219-.207031-3.222656-.617188l-43.386719-17.355469c-2.882812-1.152343-4.929688-3.75-5.375-6.820312-.441406-3.070312.785156-6.140625 3.222656-8.0625 2.433594-1.917969 5.710938-2.390625 8.589844-1.242188l43.390625 17.355469c3.867187 1.542969 6.097656 5.613281 5.308594 9.703125-.785157 4.085938-4.363281 7.042969-8.527344 7.039063zm0 0" fill="#2c2f38"/><path d="m234.636719 303.730469h34.710937c9.585938 0 17.355469 7.769531 17.355469 17.355469 0 9.585937-7.769531 17.355468-17.355469 17.355468h-34.710937c-9.585938 0-17.355469-7.769531-17.355469-17.355468 0-9.585938 7.769531-17.355469 17.355469-17.355469zm0 0" fill="#df4d60"/><path d="m225.957031 381.832031c0 4.792969-3.882812 8.675781-8.675781 8.675781s-8.679688-3.882812-8.679688-8.675781 3.886719-8.679687 8.679688-8.679687 8.675781 3.886718 8.675781 8.679687zm0 0" fill="#2c2f38"/><path d="m260.667969 381.832031c0 4.792969-3.882813 8.675781-8.675781 8.675781-4.792969 0-8.679688-3.882812-8.679688-8.675781s3.886719-8.679687 8.679688-8.679687c4.792968 0 8.675781 3.886718 8.675781 8.679687zm0 0" fill="#2c2f38"/><path d="m295.382812 381.832031c0 4.792969-3.886718 8.675781-8.679687 8.675781s-8.675781-3.882812-8.675781-8.675781 3.882812-8.679687 8.675781-8.679687 8.679687 3.886718 8.679687 8.679687zm0 0" fill="#2c2f38"/><path d="m130.5 329.761719c0 9.585937-7.769531 17.355469-17.355469 17.355469-9.585937 0-17.355469-7.769532-17.355469-17.355469 0-9.585938 7.769532-17.355469 17.355469-17.355469 9.585938 0 17.355469 7.769531 17.355469 17.355469zm0 0" fill="#f0c419"/><path d="m408.195312 332.28125c0 9.582031-7.769531 17.355469-17.355468 17.355469-9.585938 0-17.355469-7.773438-17.355469-17.355469 0-9.585938 7.769531-17.359375 17.355469-17.359375 9.585937 0 17.355468 7.773437 17.355468 17.359375zm0 0" fill="#f0c419"/><path d="m199.921875 468.609375c-19.175781 0-34.710937 11.195313-34.710937 30.375 0 4.792969 3.886718 8.675781 8.679687 8.675781h52.066406c4.792969 0 8.679688-3.882812 8.679688-8.675781 0-19.179687-15.535157-30.375-34.714844-30.375zm0 0" fill="#df4d60"/><path d="m304.058594 468.609375c-19.175782 0-34.710938 11.195313-34.710938 30.375 0 4.792969 3.886719 8.675781 8.679688 8.675781h52.066406c4.792969 0 8.675781-3.882812 8.675781-8.675781 0-19.179687-15.53125-30.375-34.710937-30.375zm0 0" fill="#df4d60"/></svg>